<svg width="45" height="46" viewBox="0 0 45 46" fill="none" xmlns="http://www.w3.org/2000/svg">
<g clip-path="url(#clip0_475_26013)">
<path d="M22.5439 8.84961C14.5601 8.84961 8.08538 15.4345 8.26538 23.4583C8.43202 30.8851 14.7772 37.2365 22.2038 37.4101C25.7783 37.4937 29.0678 36.2563 31.6178 34.1529C31.9182 33.9051 31.9408 33.4526 31.6655 33.1772C31.4268 32.9385 31.0449 32.9171 30.7845 33.132C28.4622 35.0492 25.4635 36.1749 22.2053 36.0914C15.3209 35.9149 9.73808 30.3133 9.58348 23.4285C9.41781 16.0476 15.4556 10.0082 22.8359 10.1712C29.7747 10.3246 35.4012 15.9921 35.5064 22.9318C35.5486 25.7175 34.7074 28.3084 33.2452 30.4421C33.0672 30.7019 33.103 31.0524 33.3257 31.275C33.6162 31.5655 34.1008 31.5233 34.333 31.1845C35.9217 28.8663 36.8456 26.0586 36.8261 23.0378C36.7747 15.156 30.4257 8.84961 22.5439 8.84961Z" fill="white"/>
<path d="M28.0371 21.4565V19.2602C28.0371 16.2458 25.6434 13.7303 22.6293 13.6844C19.5615 13.6374 17.0508 16.1194 17.0508 19.1767V21.4564C16.002 21.6508 15.2051 22.5718 15.2051 23.676V24.2639C15.2051 24.628 15.5002 24.9231 15.8643 24.9231C16.2283 24.9231 16.5234 24.628 16.5234 24.2639V23.676C16.5234 23.157 16.9442 22.7363 17.4631 22.7363H27.6247C28.1437 22.7363 28.5644 23.157 28.5644 23.676V29.1794C28.5644 29.6984 28.1436 30.119 27.6247 30.119H17.4631C16.9442 30.119 16.5234 29.6983 16.5234 29.1794V28.1012C16.5234 27.7372 16.2283 27.4422 15.8643 27.4422C15.5002 27.4422 15.2051 27.7373 15.2051 28.1013V29.1795C15.2051 30.4266 16.216 31.4375 17.4631 31.4375H27.6247C28.8719 31.4375 29.8828 30.4266 29.8828 29.1795V23.676C29.8828 22.5719 29.0858 21.6509 28.0371 21.4565ZM24.2578 21.418H20.8301V19.1767C20.8301 18.2317 21.5989 17.4629 22.5439 17.4629C23.4889 17.4629 24.2578 18.2317 24.2578 19.1767V21.418ZM26.7188 21.418H25.5762V19.1767C25.5762 17.5048 24.2159 16.1445 22.5439 16.1445C20.872 16.1445 19.5117 17.5048 19.5117 19.1767V21.418H18.3691V19.1767C18.3691 16.8748 20.242 15.0019 22.5439 15.0019C24.8459 15.0019 26.7188 16.8748 26.7188 19.1767V21.418Z" fill="white"/>
<path d="M24.6662 27.5847L24.3064 26.621C24.5742 26.2214 24.6989 25.7405 24.6541 25.2494C24.5636 24.252 23.7762 23.4487 22.782 23.3391C22.1802 23.2729 21.5782 23.465 21.1302 23.8664C20.6818 24.268 20.4247 24.8435 20.4247 25.4452C20.4247 25.8712 20.5492 26.2766 20.7812 26.6217L20.4217 27.5848C20.2864 27.9469 20.3374 28.3528 20.5578 28.6706C20.7783 28.9883 21.1409 29.178 21.5276 29.178H23.5602C23.947 29.178 24.3095 28.9883 24.53 28.6706C24.7505 28.3529 24.8014 27.947 24.6662 27.5847ZM21.7263 27.8596L22.1494 26.7263C22.2413 26.4804 22.1783 26.2032 21.9892 26.0211C21.8306 25.8683 21.7432 25.6637 21.7432 25.445C21.7432 25.2176 21.8404 25.0001 22.01 24.8482C22.1818 24.6943 22.4044 24.624 22.6377 24.6494C23.0053 24.6899 23.3077 24.9991 23.3414 25.3687C23.3636 25.6134 23.2752 25.8511 23.0988 26.0211C22.9097 26.2032 22.8468 26.4804 22.9386 26.7263L23.3617 27.8596H21.7263Z" fill="white"/>
<path d="M42.583 16.2324C41.4807 16.2324 40.549 16.9746 40.2596 17.9851H38.5692C37.5009 14.6665 35.4287 11.7946 32.7115 9.72834V3.57617H37.3578C37.6456 4.58938 38.5785 5.33398 39.6827 5.33398C41.0154 5.33398 42.0997 4.24968 42.0997 2.91699C42.0997 1.58431 41.0153 0.5 39.6826 0.5C38.5784 0.5 37.6455 1.24461 37.3577 2.25781H32.0522C31.6881 2.25781 31.393 2.55286 31.393 2.91699V8.82104C28.8203 7.22434 25.7882 6.30078 22.5439 6.30078C17.8051 6.30078 13.5182 8.27006 10.4565 11.4324V7.5752C10.4565 7.21106 10.1614 6.91602 9.79734 6.91602H5.71289V5.24188C6.72609 4.95412 7.4707 4.02116 7.4707 2.91699C7.4707 1.58431 6.38648 0.5 5.05371 0.5C3.72094 0.5 2.63672 1.58431 2.63672 2.91699C2.63672 4.02116 3.38133 4.95412 4.39453 5.24188V7.5752C4.39453 7.93933 4.68967 8.23438 5.05371 8.23438H9.13816V12.9674C6.99003 15.7936 5.71289 19.3162 5.71289 23.1318C5.71289 24.5254 5.88428 25.8795 6.20508 27.1753H4.72948C4.42775 26.1843 3.50543 25.4609 2.41699 25.4609C1.08422 25.4609 0 26.5452 0 27.8779C0 29.2106 1.08422 30.2949 2.41699 30.2949C3.53698 30.2949 4.48119 29.529 4.75427 28.4937H6.58881C7.26205 30.4916 8.30101 32.3226 9.62525 33.9076V42.5557H6.53326C6.29183 41.4758 5.32635 40.666 4.1748 40.666C2.84203 40.666 1.75781 41.7503 1.75781 43.083C1.75781 44.4157 2.84203 45.5 4.1748 45.5C5.23055 45.5 6.12976 44.8193 6.4582 43.874H10.2843C10.6484 43.874 10.9435 43.579 10.9435 43.2148V35.3158C13.9649 38.1938 18.0517 39.9629 22.5439 39.9629C24.484 39.9629 26.3479 39.6319 28.0835 39.0252V40.77C27.0915 41.071 26.3672 41.9939 26.3672 43.083C26.3672 44.4157 27.4515 45.5 28.7842 45.5C30.1169 45.5 31.2012 44.4157 31.2012 43.083C31.2012 41.9638 30.4363 41.02 29.4019 40.7463V38.5011C31.0598 37.7584 32.5763 36.7553 33.8993 35.5439H39.4629V38.2094C38.4497 38.4971 37.7051 39.4301 37.7051 40.5343C37.7051 41.867 38.7894 42.9513 40.1221 42.9513C41.4548 42.9513 42.5391 41.867 42.5391 40.5343C42.5391 39.4301 41.7945 38.4971 40.7812 38.2094V34.8847C40.7812 34.5206 40.4862 34.2256 40.1221 34.2256H35.1902C37.7938 31.2612 39.375 27.378 39.375 23.1318C39.375 21.8153 39.2227 20.5338 38.9355 19.3035H40.2567C40.5428 20.3193 41.477 21.0664 42.583 21.0664C43.9157 21.0664 45 19.9821 45 18.6494C45 17.3167 43.9157 16.2324 42.583 16.2324ZM39.6826 1.81836C40.2884 1.81836 40.7812 2.31116 40.7812 2.91699C40.7812 3.52282 40.2884 4.01562 39.6826 4.01562C39.0768 4.01562 38.584 3.52282 38.584 2.91699C38.584 2.31116 39.0768 1.81836 39.6826 1.81836ZM3.95508 2.91699C3.95508 2.31116 4.44788 1.81836 5.05371 1.81836C5.65954 1.81836 6.15234 2.31116 6.15234 2.91699C6.15234 3.52282 5.65954 4.01562 5.05371 4.01562C4.44788 4.01562 3.95508 3.52282 3.95508 2.91699ZM2.41699 28.9766C1.81116 28.9766 1.31836 28.4838 1.31836 27.8779C1.31836 27.2721 1.81116 26.7793 2.41699 26.7793C3.02282 26.7793 3.51562 27.2721 3.51562 27.8779C3.51562 28.4838 3.02282 28.9766 2.41699 28.9766ZM4.1748 44.1816C3.56897 44.1816 3.07617 43.6888 3.07617 43.083C3.07617 42.4772 3.56897 41.9844 4.1748 41.9844C4.78063 41.9844 5.27344 42.4772 5.27344 43.083C5.27344 43.6888 4.78063 44.1816 4.1748 44.1816ZM41.2207 40.5342C41.2207 41.14 40.7279 41.6328 40.1221 41.6328C39.5162 41.6328 39.0234 41.14 39.0234 40.5342C39.0234 39.9283 39.5162 39.4355 40.1221 39.4355C40.7279 39.4355 41.2207 39.9283 41.2207 40.5342ZM29.8828 43.083C29.8828 43.6888 29.39 44.1816 28.7842 44.1816C28.1784 44.1816 27.6855 43.6888 27.6855 43.083C27.6855 42.4772 28.1784 41.9844 28.7842 41.9844C29.39 41.9844 29.8828 42.4772 29.8828 43.083ZM22.5439 38.6445C13.9903 38.6445 7.03125 31.6855 7.03125 23.1318C7.03125 14.5781 13.9903 7.61914 22.5439 7.61914C31.0976 7.61914 38.0566 14.5781 38.0566 23.1318C38.0566 31.6855 31.0976 38.6445 22.5439 38.6445ZM42.583 19.748C41.9772 19.748 41.4844 19.2552 41.4844 18.6494C41.4844 18.0436 41.9772 17.5508 42.583 17.5508C43.1888 17.5508 43.6816 18.0436 43.6816 18.6494C43.6816 19.2552 43.1888 19.748 42.583 19.748Z" fill="white"/>
</g>
<defs>
<clipPath id="clip0_475_26013">
<rect width="45" height="45" fill="white" transform="translate(0 0.5)"/>
</clipPath>
</defs>
</svg>
