<svg width="45" height="40" viewBox="0 0 45 40" fill="none" xmlns="http://www.w3.org/2000/svg">
<path d="M44.3404 34.2781H41.8566V22.0935C41.8566 21.7292 41.5613 21.434 41.197 21.434C40.8328 21.434 40.5375 21.7292 40.5375 22.0935V34.2781H11.3562C10.992 34.2781 10.6967 34.5733 10.6967 34.9376C10.6967 35.302 10.992 35.5972 11.3562 35.5972H43.6809V36.5847C43.6809 37.4923 42.9424 38.2308 42.0346 38.2308H3.14566C2.23795 38.2308 1.49943 37.4924 1.49943 36.5847V35.5972H8.54542C8.90967 35.5972 9.20497 35.302 9.20497 34.9376C9.20497 34.5733 8.90967 34.2781 8.54542 34.2781H4.64283V22.0935C4.64283 21.7292 4.34753 21.434 3.98329 21.434C3.61904 21.434 3.32374 21.7292 3.32374 22.0935V34.2781H0.839968C0.475722 34.2781 0.18042 34.5733 0.18042 34.9376V36.5847C0.18042 38.2197 1.5106 39.5499 3.14575 39.5499H42.0347C43.6698 39.5499 45.0001 38.2197 45.0001 36.5847V34.9376C45 34.5733 44.7047 34.2781 44.3404 34.2781Z" fill="white"/>
<path d="M31.3622 8.91456H39.3155C39.9893 8.91456 40.5376 9.46277 40.5376 10.1366V13.9607C40.5376 14.325 40.8329 14.6203 41.1971 14.6203C41.5613 14.6203 41.8567 14.325 41.8567 13.9607V10.1366C41.8567 8.73533 40.7167 7.59546 39.3155 7.59546H31.3622C30.9979 7.59546 30.7026 7.89067 30.7026 8.25501C30.7026 8.61934 30.9979 8.91456 31.3622 8.91456Z" fill="white"/>
<path d="M3.98328 14.6204C4.34752 14.6204 4.64283 14.3252 4.64283 13.9608V10.1367C4.64283 9.46289 5.19104 8.91468 5.86484 8.91468H13.7303C14.0945 8.91468 14.3898 8.61946 14.3898 8.25513C14.3898 7.89079 14.0945 7.59558 13.7303 7.59558H5.86484C4.46369 7.59558 3.32373 8.73554 3.32373 10.1367V13.9608C3.32373 14.3251 3.61903 14.6204 3.98328 14.6204Z" fill="white"/>
<path d="M6.62146 10.2336C6.25722 10.2336 5.96191 10.5289 5.96191 10.8932V13.9608C5.96191 14.3251 6.25722 14.6203 6.62146 14.6203C6.98571 14.6203 7.28101 14.3251 7.28101 13.9608V11.5527H12.3638C12.7281 11.5527 13.0234 11.2575 13.0234 10.8932C13.0234 10.5289 12.7281 10.2336 12.3638 10.2336H6.62146Z" fill="white"/>
<path d="M38.5588 14.6203C38.923 14.6203 39.2183 14.3251 39.2183 13.9608V10.8932C39.2183 10.5289 38.923 10.2336 38.5588 10.2336H32.6534C32.2892 10.2336 31.9939 10.5289 31.9939 10.8932C31.9939 11.2575 32.2892 11.5527 32.6534 11.5527H37.8992V13.9608C37.8992 14.325 38.1945 14.6203 38.5588 14.6203Z" fill="white"/>
<path d="M6.62146 21.434C6.25722 21.434 5.96191 21.7292 5.96191 22.0935V32.2994C5.96191 32.6638 6.25722 32.959 6.62146 32.959H38.5588C38.923 32.959 39.2183 32.6638 39.2183 32.2994V22.0935C39.2183 21.7292 38.923 21.434 38.5588 21.434C38.1946 21.434 37.8993 21.7292 37.8993 22.0935V31.6399H7.28101V22.0935C7.28101 21.7293 6.98571 21.434 6.62146 21.434Z" fill="white"/>
<path d="M20.1447 21.2282C20.3842 21.5554 20.7694 21.7507 21.1749 21.7507H23.8421C24.2476 21.7507 24.6328 21.5553 24.8723 21.2282C25.1119 20.901 25.1818 20.475 25.0594 20.0885L24.5546 18.4944C24.9433 17.9968 25.1362 17.3775 25.0989 16.7426C25.022 15.4361 23.9791 14.3895 22.6727 14.3084C21.9483 14.2625 21.2586 14.5117 20.7315 15.0071C20.2116 15.4957 19.9135 16.185 19.9135 16.8982C19.9135 17.476 20.1079 18.0401 20.4623 18.4943L19.9576 20.0884C19.8352 20.475 19.9052 20.901 20.1447 21.2282ZM21.5229 17.7085C21.333 17.478 21.2327 17.1978 21.2327 16.8983C21.2327 16.5425 21.3756 16.2122 21.635 15.9684C21.8943 15.7247 22.2339 15.6027 22.5912 15.625C23.2219 15.6641 23.7451 16.1891 23.7822 16.8202C23.8012 17.1449 23.6987 17.4607 23.4935 17.7094C23.2352 18.0226 23.1532 18.4378 23.2744 18.8205L23.7845 20.4317H21.2328L21.7429 18.8207C21.8638 18.4384 21.7816 18.0226 21.5229 17.7085Z" fill="white"/>
<path d="M2.08769 20.1148H3.36414C4.28486 20.1148 5.0677 19.5155 5.34445 18.6867H7.03615C7.31289 19.5155 8.09573 20.1148 9.01646 20.1148H10.2929C11.2136 20.1148 11.9965 19.5155 12.2732 18.6867H13.8744V22.2211C13.8744 23.8534 15.2023 25.1813 16.8346 25.1813H25.5582C25.9224 25.1813 26.2177 24.8861 26.2177 24.5217C26.2177 24.1574 25.9224 23.8622 25.5582 23.8622H16.8346C15.9297 23.8622 15.1935 23.126 15.1935 22.2211V12.7227C15.1935 12.43 15.4316 12.192 15.7242 12.192H29.2929C29.5855 12.192 29.8235 12.43 29.8235 12.7227V22.2211C29.8235 23.07 29.1614 23.7882 28.3162 23.8561C27.9531 23.8852 27.6824 24.2032 27.7115 24.5663C27.7406 24.9293 28.0583 25.2005 28.4217 25.1709C29.9474 25.0484 31.1425 23.7528 31.1425 22.2211V18.6867H32.7269C33.0036 19.5155 33.7865 20.1148 34.7072 20.1148H35.9835C36.9043 20.1148 37.6871 19.5155 37.9639 18.6867H39.6555C39.9322 19.5155 40.7151 20.1148 41.6358 20.1148H42.9122C44.0634 20.1148 44.9999 19.1783 44.9999 18.0271C44.9999 16.8759 44.0634 15.9394 42.9122 15.9394H41.6358C40.715 15.9394 39.9322 16.5387 39.6555 17.3676H37.9639C37.6871 16.5387 36.9042 15.9394 35.9835 15.9394H34.7072C33.7865 15.9394 33.0036 16.5387 32.7269 17.3676H31.1425V12.7228C31.1425 11.7334 30.3612 10.9253 29.3835 10.8775V7.2873C29.3835 6.73108 29.3153 6.17469 29.181 5.63359C29.0931 5.27999 28.7351 5.06436 28.3818 5.15256C28.0283 5.24033 27.813 5.59807 27.9007 5.95167C28.0093 6.38873 28.0644 6.8381 28.0644 7.2873V10.8729H26.2177V7.2873C26.2177 5.26284 24.5706 3.6159 22.5463 3.6159C20.5219 3.6159 18.8749 5.26293 18.8749 7.2873V10.8729H17.0281V7.2873C17.0281 4.24458 19.5035 1.76917 22.5463 1.76917C24.168 1.76917 25.7016 2.4799 26.7538 3.71915C26.9896 3.99686 27.4058 4.03098 27.6834 3.79513C27.9611 3.55927 27.9951 3.14314 27.7593 2.86551C26.4561 1.33044 24.556 0.450073 22.5463 0.450073C18.7762 0.450073 15.709 3.51724 15.709 7.2873V10.8737C14.6961 10.8819 13.8743 11.7079 13.8743 12.7227V17.3675H12.2731C11.9964 16.5387 11.2135 15.9393 10.2928 15.9393H9.01637C8.09564 15.9393 7.31281 16.5387 7.03606 17.3675H5.34445C5.0677 16.5387 4.28486 15.9393 3.36414 15.9393H2.08769C0.936558 15.9393 0 16.8758 0 18.027C0 19.1782 0.936558 20.1148 2.08769 20.1148ZM41.6359 17.2585H42.9123C43.3361 17.2585 43.6809 17.6033 43.6809 18.0271C43.6809 18.4509 43.3362 18.7957 42.9123 18.7957H41.6359C41.2121 18.7957 40.8673 18.4509 40.8673 18.0271C40.8673 17.6033 41.2121 17.2585 41.6359 17.2585ZM34.7072 17.2585H35.9835C36.4073 17.2585 36.7521 17.6033 36.7521 18.0271C36.7521 18.4509 36.4073 18.7957 35.9835 18.7957H34.7072C34.2834 18.7957 33.9386 18.4509 33.9386 18.0271C33.9386 17.6033 34.2834 17.2585 34.7072 17.2585ZM20.194 7.2873C20.194 5.99028 21.2492 4.935 22.5463 4.935C23.8433 4.935 24.8986 5.99028 24.8986 7.2873V10.8729H20.194V7.2873ZM9.01637 17.2585H10.2928C10.7166 17.2585 11.0614 17.6033 11.0614 18.0271C11.0614 18.4509 10.7166 18.7957 10.2928 18.7957H9.01637C8.59259 18.7957 8.24778 18.4509 8.24778 18.0271C8.24778 17.6033 8.59259 17.2585 9.01637 17.2585ZM2.08769 17.2585H3.36414C3.78792 17.2585 4.13273 17.6033 4.13273 18.0271C4.13273 18.4509 3.788 18.7957 3.36414 18.7957H2.08769C1.66391 18.7957 1.3191 18.4509 1.3191 18.0271C1.3191 17.6033 1.66391 17.2585 2.08769 17.2585Z" fill="white"/>
</svg>
