<svg width="45" height="46" viewBox="0 0 45 46" fill="none" xmlns="http://www.w3.org/2000/svg">
<path d="M43.9508 22.6974L42.3892 22.4771C42.3997 22.2065 42.4056 21.9398 42.4056 21.6807C42.4056 16.0231 40.2001 10.7042 36.1954 6.70368C32.1908 2.70315 26.8663 0.5 21.2027 0.5C12.6746 0.5 5.01044 5.56779 1.67759 13.4108C1.53518 13.7458 1.69167 14.1327 2.02706 14.2749C2.36246 14.4171 2.74975 14.2609 2.89207 13.9258C3.07785 13.4886 3.2784 13.0609 3.49223 12.6426C4.68111 11.7582 6.0183 10.9756 7.473 10.3046C6.84425 12.1703 6.37216 14.162 6.07037 16.2327C4.46825 16.5773 3.02401 16.9797 1.77664 17.4335C1.83759 17.1542 1.90401 16.8761 1.97701 16.5996C2.06999 16.2477 1.85976 15.8872 1.50748 15.7943C1.1551 15.7015 0.7942 15.9115 0.701226 16.2634C0.235912 18.0251 0 19.8477 0 21.6807C0 27.3383 2.20545 32.6572 6.21014 36.6577C10.2148 40.6582 15.5394 42.8615 21.2027 42.8615C23.3523 42.8615 25.4711 42.5406 27.5072 41.9078C28.6365 42.9436 29.9456 43.8049 31.401 44.4389L33.7113 45.445C33.7954 45.4816 33.8852 45.4999 33.975 45.4999C34.0648 45.4999 34.1546 45.4816 34.2386 45.445L36.5489 44.4389C37.6713 43.95 38.7268 43.3156 39.6861 42.5533C39.9713 42.3268 40.0185 41.9122 39.7917 41.6273C39.5648 41.3425 39.1499 41.2954 38.8647 41.5219C37.9953 42.2127 37.0387 42.7876 36.0216 43.2307L33.975 44.122L31.9285 43.2307C30.4952 42.6065 29.2189 41.7387 28.1379 40.6893C28.1326 40.6841 28.1272 40.679 28.1218 40.6741C25.7031 38.3183 24.2695 35.0492 24.2695 31.5483V23.9903L26.0666 23.7369C28.6458 23.3731 31.1019 22.344 33.1694 20.761L33.8111 20.2698C33.9076 20.1958 34.0425 20.1958 34.1391 20.2697L34.7808 20.7611C36.8483 22.3441 39.3043 23.3731 41.8835 23.7369L43.6806 23.9903V31.5483C43.6806 34.4956 42.6472 37.3727 40.771 39.6496C40.5395 39.9306 40.5798 40.3459 40.8611 40.5772C41.1424 40.8087 41.5582 40.7683 41.7897 40.4873C43.8599 37.975 45 34.8005 45 31.5484V23.9038C44.9999 23.3004 44.5489 22.7818 43.9508 22.6974ZM36.5097 17.6281C38.1954 18.0074 39.6804 18.451 40.8994 18.9493C41.0223 19.8471 41.0862 20.7589 41.0862 21.6808C41.0862 21.8678 41.0827 22.0594 41.0769 22.2535C39.5312 21.9189 38.0506 21.3216 36.7071 20.4898C36.6774 19.5259 36.6112 18.5705 36.5097 17.6281ZM26.9303 7.9364C29.1734 8.29236 31.3114 8.85578 33.2773 9.60741C34.0308 11.5741 34.5977 13.7147 34.9561 15.9579C32.7912 15.5575 30.3867 15.255 27.8278 15.0629C27.6353 12.5042 27.3318 10.1006 26.9303 7.9364ZM26.492 14.9732C24.7807 14.8725 23.0097 14.82 21.2028 14.82C19.3961 14.82 17.625 14.8722 15.9137 14.9729C16.1188 12.3693 16.4409 9.92084 16.8624 7.74511C18.2795 7.57736 19.7313 7.49028 21.2028 7.49028C22.6743 7.49028 24.1263 7.57736 25.5434 7.74511C25.9648 9.92093 26.2869 12.3695 26.492 14.9732ZM30.2448 3.98078C31.1286 5.16543 31.9121 6.50448 32.585 7.96337C30.7188 7.33616 28.7268 6.86518 26.6559 6.56405C26.3106 4.96289 25.9081 3.51788 25.4534 2.27145C27.1231 2.63286 28.7312 3.20708 30.2448 3.98078ZM34.926 10.3015C36.3865 10.9747 37.7287 11.7603 38.9214 12.6485C39.6959 14.1607 40.2707 15.7672 40.6326 17.4355C39.384 16.981 37.9374 16.5783 36.3333 16.2332C36.0301 14.1628 35.5554 12.1689 34.926 10.3015ZM37.3237 10.0487C36.371 9.5126 35.358 9.02765 34.2949 8.5963C33.8634 7.53413 33.3778 6.52381 32.8432 5.57376C33.6948 6.19069 34.5043 6.87819 35.2625 7.63562C36.0196 8.392 36.7069 9.19935 37.3237 10.0487ZM23.9372 2.00459C24.4358 3.22193 24.8797 4.70464 25.2593 6.38778C23.9302 6.24588 22.5742 6.17224 21.2028 6.17224C19.8314 6.17224 18.4755 6.24605 17.1463 6.38796C17.5259 4.70535 17.9696 3.22308 18.468 2.00591C19.3654 1.88228 20.2786 1.81804 21.2027 1.81804C22.1255 1.81804 23.0384 1.88184 23.9372 2.00459ZM16.9519 2.27479C16.4976 3.5206 16.0951 4.96395 15.7501 6.56396C13.6769 6.86536 11.6828 7.33713 9.81487 7.96531C10.4872 6.5108 11.2714 5.17378 12.1577 3.98526C13.664 3.21754 15.2738 2.6398 16.9519 2.27479ZM5.07579 10.0519C6.33126 8.31248 7.85 6.80297 9.56321 5.56831C9.02551 6.52117 8.539 7.53422 8.10649 8.59762C7.04251 9.02932 6.02912 9.51506 5.07579 10.0519ZM9.12015 9.61066C11.0882 8.85745 13.229 8.29288 15.4752 7.93649C15.0738 10.1004 14.7705 12.5043 14.5781 15.0626C12.0168 15.2548 9.6108 15.5581 7.44423 15.9591C7.801 13.7151 8.36615 11.5767 9.12015 9.61066ZM23.6073 35.7908C22.8086 35.8428 22.0035 35.8713 21.2027 35.8713C19.7312 35.8713 18.2794 35.7842 16.8623 35.6164C16.4409 33.4406 16.1187 30.9921 15.9136 28.3884C17.6249 28.4891 19.3959 28.5416 21.2027 28.5416C21.7833 28.5416 22.3685 28.5358 22.95 28.5248V31.5484C22.9501 33.0131 23.1795 34.4405 23.6073 35.7908ZM15.4748 35.4251C13.2287 35.0686 11.0881 34.5041 9.12007 33.7509C8.36615 31.785 7.801 29.6466 7.44415 27.4029C9.61054 27.8039 12.0169 28.1072 14.578 28.2995C14.7704 30.8573 15.0735 33.2613 15.4748 35.4251ZM12.161 39.3809C11.2734 38.1915 10.4882 36.8532 9.81522 35.3972C11.6831 36.0252 13.6771 36.4969 15.75 36.7983C16.0954 38.3997 16.4983 39.8438 16.9532 41.0903C15.2831 40.7289 13.6748 40.1546 12.161 39.3809ZM1.77312 25.926C3.0212 26.3804 4.46693 26.7831 6.07028 27.1282C6.37199 29.1991 6.84416 31.191 7.473 33.0569C6.01513 32.3844 4.67513 31.5999 3.48431 30.7131C2.70982 29.2009 2.1349 27.5943 1.77312 25.926ZM7.25265 26.0167C7.08474 24.6011 6.99757 23.1507 6.99757 21.6808C6.99757 20.2108 7.08474 18.7604 7.25265 17.3449C9.43075 16.9238 11.8819 16.602 14.4882 16.3971C14.3874 18.1067 14.3349 19.8758 14.3349 21.6808C14.3349 23.4858 14.3874 25.2549 14.4883 26.9645C11.8819 26.7595 9.43075 26.4378 7.25265 26.0167ZM5.89392 17.6285C5.75186 18.9563 5.67806 20.3107 5.67806 21.6808C5.67806 23.0508 5.75186 24.4053 5.89392 25.7331C4.20902 25.3538 2.72486 24.9103 1.50616 24.4123C1.38328 23.5144 1.31942 22.6026 1.31942 21.6808C1.31942 20.7648 1.38284 19.8519 1.50748 18.9487C2.72583 18.4509 4.20964 18.0077 5.89392 17.6285ZM5.08248 33.3136C6.03386 33.8488 7.04507 34.3333 8.10658 34.764C8.53776 35.8242 9.02269 36.8344 9.55847 37.7847C8.70841 37.1686 7.90022 36.482 7.14323 35.7257C6.38624 34.9697 5.69917 34.1626 5.08248 33.3136ZM18.4685 41.357C17.9698 40.1395 17.526 38.6568 17.1462 36.9735C18.4754 37.1154 19.8313 37.1893 21.2027 37.1893C22.1629 37.1893 23.1296 37.1509 24.0847 37.0796C24.3095 37.6045 24.5672 38.1136 24.8531 38.6059C24.5695 39.6381 24.2626 40.5616 23.9373 41.3564C23.0349 41.4806 22.1219 41.5435 21.2027 41.5435C20.28 41.5435 19.3672 41.4796 18.4685 41.357ZM25.8064 40.0398C26.0143 40.3141 26.2322 40.5812 26.4601 40.8399C26.1265 40.9311 25.7907 41.0137 25.4529 41.0872C25.5739 40.754 25.6918 40.4048 25.8064 40.0398ZM25.8821 22.4319L23.9991 22.6974C23.4011 22.7818 22.95 23.3004 22.95 23.9038V27.2066C22.3686 27.2178 21.7833 27.2236 21.2027 27.2236C19.3725 27.2236 17.5671 27.1666 15.82 27.058C15.7113 25.3128 15.6543 23.5093 15.6543 21.6808C15.6543 19.8523 15.7113 18.0489 15.82 16.3036C17.5671 16.195 19.3725 16.1381 21.2027 16.1381C23.0331 16.1381 24.8384 16.195 26.5856 16.3036C26.6943 18.0489 26.7513 19.8523 26.7513 21.6808C26.7513 21.8722 26.7505 22.0695 26.7489 22.281C26.4619 22.3404 26.1729 22.3908 25.8821 22.4319ZM33.0083 19.2238L32.3667 19.715C31.0749 20.7041 29.6168 21.456 28.0702 21.9388C28.0705 21.8514 28.0708 21.7653 28.0708 21.6808C28.0708 19.8758 28.0184 18.1066 27.9176 16.3971C30.5224 16.6019 32.972 16.9234 35.1491 17.3441C35.2351 18.0651 35.2999 18.7947 35.3428 19.5309L34.9417 19.2237C34.3725 18.7878 33.5776 18.7881 33.0083 19.2238Z" fill="white"/>
<path d="M39.3375 27.019C39.5813 26.7486 39.5596 26.3319 39.2889 26.0883C37.8284 24.7739 35.9412 24.05 33.975 24.05C29.5954 24.05 26.0325 27.6094 26.0325 31.9844C26.0325 36.3593 29.5955 39.9186 33.975 39.9186C38.3546 39.9186 41.9175 36.3593 41.9175 31.9844C41.9175 30.777 41.6527 29.6172 41.1303 28.5371C40.9718 28.2094 40.5774 28.0721 40.2493 28.2304C39.9212 28.3888 39.7838 28.7828 39.9422 29.1105C40.3774 30.0103 40.598 30.9772 40.598 31.9845C40.598 35.6327 37.6269 38.6006 33.9749 38.6006C30.3229 38.6006 27.3518 35.6327 27.3518 31.9845C27.3518 28.3362 30.3229 25.3682 33.9749 25.3682C35.6144 25.3682 37.188 25.9718 38.4057 27.0677C38.6764 27.3112 39.0936 27.2896 39.3375 27.019Z" fill="white"/>
<path d="M36.6649 28.7584L32.8536 33.7917L31.9523 33.0716C31.6678 32.8442 31.2525 32.8903 31.025 33.1745C30.7973 33.4587 30.8435 33.8735 31.128 34.1008L32.5586 35.2441C32.6762 35.338 32.8217 35.3885 32.9707 35.3885C32.9979 35.3885 33.0252 35.3868 33.0524 35.3834C33.2291 35.3614 33.3894 35.2688 33.4968 35.127L37.717 29.5535C37.9369 29.2632 37.8795 28.85 37.5889 28.6304C37.2985 28.4108 36.8848 28.4683 36.6649 28.7584Z" fill="white"/>
</svg>
