<svg width="16" height="16" viewBox="0 0 16 16" fill="none" xmlns="http://www.w3.org/2000/svg">
<g clip-path="url(#clip0_343_11521)">
<path d="M15.7129 5.13758C15.6777 4.34057 15.5488 3.79264 15.3642 3.31784C15.1737 2.81386 14.8807 2.36265 14.4968 1.98755C14.1217 1.60662 13.6675 1.31062 13.1694 1.12312C12.6918 0.938495 12.1468 0.809609 11.3498 0.774469C10.5468 0.736353 10.2919 0.727539 8.25536 0.727539C6.21883 0.727539 5.96392 0.736353 5.16394 0.771493C4.36693 0.806633 3.819 0.935633 3.34432 1.12015C2.84023 1.31062 2.38901 1.60364 2.01392 1.98755C1.63298 2.36265 1.3371 2.81684 1.14949 3.31498C0.964862 3.79264 0.835976 4.3376 0.800836 5.1346C0.76272 5.93756 0.753906 6.19247 0.753906 8.229C0.753906 10.2655 0.76272 10.5204 0.79786 11.3204C0.833 12.1174 0.962 12.6654 1.14663 13.1402C1.3371 13.6441 1.63298 14.0954 2.01392 14.4705C2.38901 14.8514 2.8432 15.1474 3.34134 15.3349C3.819 15.5195 4.36396 15.6484 5.16108 15.6835C5.96095 15.7188 6.21597 15.7275 8.2525 15.7275C10.289 15.7275 10.5439 15.7188 11.3439 15.6835C12.1409 15.6484 12.6889 15.5195 13.1635 15.3349C14.1716 14.9451 14.9686 14.1481 15.3584 13.1402C15.5429 12.6625 15.6719 12.1174 15.707 11.3204C15.7422 10.5204 15.751 10.2655 15.751 8.229C15.751 6.19247 15.748 5.93756 15.7129 5.13758ZM14.3621 11.2618C14.3298 11.9944 14.2068 12.39 14.1042 12.6537C13.8521 13.3072 13.3335 13.8258 12.68 14.0778C12.4163 14.1804 12.0179 14.3035 11.2882 14.3356C10.497 14.3709 10.2597 14.3796 8.25834 14.3796C6.25695 14.3796 6.01669 14.3709 5.22838 14.3356C4.49582 14.3035 4.10024 14.1804 3.83651 14.0778C3.51132 13.9577 3.21532 13.7672 2.97506 13.5181C2.72599 13.2749 2.53552 12.9819 2.41534 12.6567C2.31278 12.393 2.18973 11.9944 2.15757 11.2648C2.12231 10.4736 2.11361 10.2362 2.11361 8.23484C2.11361 6.23345 2.12231 5.99319 2.15757 5.205C2.18973 4.47243 2.31278 4.07685 2.41534 3.81313C2.53552 3.48782 2.72599 3.19193 2.97804 2.95156C3.22116 2.70249 3.51418 2.51202 3.83949 2.39195C4.10321 2.28939 4.50177 2.16634 5.23136 2.13406C6.02253 2.09892 6.25993 2.09011 8.2612 2.09011C10.2656 2.09011 10.5028 2.09892 11.2912 2.13406C12.0237 2.16634 12.4193 2.28939 12.683 2.39195C13.0082 2.51202 13.3042 2.70249 13.5445 2.95156C13.7935 3.1948 13.984 3.48782 14.1042 3.81313C14.2068 4.07685 14.3298 4.4753 14.3621 5.205C14.3972 5.99617 14.406 6.23345 14.406 8.23484C14.406 10.2362 14.3972 10.4707 14.3621 11.2618Z" fill="white"/>
<path d="M8.25564 4.37598C6.12834 4.37598 4.40234 6.10185 4.40234 8.22927C4.40234 10.3567 6.12834 12.0826 8.25564 12.0826C10.383 12.0826 12.1089 10.3567 12.1089 8.22927C12.1089 6.10185 10.383 4.37598 8.25564 4.37598ZM8.25564 10.7288C6.87555 10.7288 5.7561 9.60947 5.7561 8.22927C5.7561 6.84907 6.87555 5.72973 8.25564 5.72973C9.63583 5.72973 10.7552 6.84907 10.7552 8.22927C10.7552 9.60947 9.63583 10.7288 8.25564 10.7288Z" fill="white"/>
<path d="M13.1606 4.22379C13.1606 4.72056 12.7578 5.12336 12.2609 5.12336C11.7641 5.12336 11.3613 4.72056 11.3613 4.22379C11.3613 3.7269 11.7641 3.32422 12.2609 3.32422C12.7578 3.32422 13.1606 3.7269 13.1606 4.22379Z" fill="white"/>
</g>
<defs>
<clipPath id="clip0_343_11521">
<rect width="15" height="15" fill="white" transform="translate(0.727539 0.727539)"/>
</clipPath>
</defs>
</svg>
