<svg width="16" height="16" viewBox="0 0 16 16" fill="none" xmlns="http://www.w3.org/2000/svg">
<g clip-path="url(#clip0_343_11519)">
<path d="M15.7239 15.7272V15.7266H15.7276V10.2253C15.7276 7.53406 15.1482 5.46094 12.002 5.46094C10.4895 5.46094 9.47446 6.29094 9.06009 7.07781H9.01634V5.71219H6.0332V15.7266H9.13946V10.7678C9.13946 9.46219 9.38696 8.19969 11.0038 8.19969C12.597 8.19969 12.6207 9.68969 12.6207 10.8516V15.7272H15.7239Z" fill="white"/>
<path d="M0.974609 5.71289H4.08461V15.7273H0.974609V5.71289Z" fill="white"/>
<path d="M2.52879 0.727539C1.53441 0.727539 0.727539 1.53441 0.727539 2.52879C0.727539 3.52316 1.53441 4.34691 2.52879 4.34691C3.52316 4.34691 4.33004 3.52316 4.33004 2.52879C4.32941 1.53441 3.52254 0.727539 2.52879 0.727539V0.727539Z" fill="white"/>
</g>
<defs>
<clipPath id="clip0_343_11519">
<rect width="15" height="15" fill="white" transform="translate(0.727539 0.727539)"/>
</clipPath>
</defs>
</svg>
