<svg width="263" height="249" viewBox="0 0 263 249" fill="none" xmlns="http://www.w3.org/2000/svg">
<g filter="url(#filter0_d_271_4995)">
<g clip-path="url(#clip0_271_4995)">
<path d="M29 31.6946C29 26.3404 33.3404 22 38.6946 22H224.305C229.66 22 234 26.3404 234 31.6946V203.305C234 208.66 229.66 213 224.305 213H38.6946C33.3404 213 29 208.66 29 203.305V31.6946Z" fill="white"/>
<rect width="205" height="39" transform="translate(29 22)" fill="#EFF6FF"/>
<path d="M41.1182 36.4551C41.1182 35.0992 42.2173 34 43.5733 34H53.6631C55.019 34 56.1182 35.0992 56.1182 36.4551V46.5449C56.1182 47.9008 55.019 49 53.6631 49H43.5733C42.2173 49 41.1182 47.9008 41.1182 46.5449V36.4551Z" fill="#2563EB"/>
<g clip-path="url(#clip1_271_4995)">
<path d="M49.0795 37.0784C49.114 36.9172 49.0357 36.7529 48.8888 36.6782C48.7418 36.6035 48.563 36.637 48.4531 36.7598L44.3329 41.3647C44.2373 41.4716 44.2134 41.6247 44.2719 41.7555C44.3304 41.8864 44.4604 41.9707 44.6038 41.9707H47.7896L47.1567 44.9241C47.1221 45.0853 47.2004 45.2496 47.3474 45.3243C47.4943 45.399 47.6732 45.3655 47.7831 45.2427L51.9033 40.6377C51.9989 40.5309 52.0228 40.3778 51.9642 40.2469C51.9057 40.1161 51.7757 40.0318 51.6324 40.0318H48.4466L49.0795 37.0784Z" fill="white"/>
</g>
<path d="M67.0869 40.9154C67.0869 41.5801 66.9624 42.1494 66.7134 42.6234C66.4664 43.0953 66.129 43.4568 65.7012 43.7078C65.2755 43.9588 64.7925 44.0843 64.2523 44.0843C63.7121 44.0843 63.2281 43.9588 62.8003 43.7078C62.3746 43.4548 62.0372 43.0923 61.7882 42.6203C61.5412 42.1464 61.4177 41.5781 61.4177 40.9154C61.4177 40.2506 61.5412 39.6823 61.7882 39.2104C62.0372 38.7364 62.3746 38.3739 62.8003 38.1229C63.2281 37.8719 63.7121 37.7464 64.2523 37.7464C64.7925 37.7464 65.2755 37.8719 65.7012 38.1229C66.129 38.3739 66.4664 38.7364 66.7134 39.2104C66.9624 39.6823 67.0869 40.2506 67.0869 40.9154ZM65.9633 40.9154C65.9633 40.4474 65.89 40.0528 65.7434 39.7315C65.5988 39.4082 65.398 39.1642 65.1409 38.9995C64.8839 38.8328 64.5877 38.7495 64.2523 38.7495C63.9169 38.7495 63.6207 38.8328 63.3636 38.9995C63.1066 39.1642 62.9048 39.4082 62.7582 39.7315C62.6136 40.0528 62.5413 40.4474 62.5413 40.9154C62.5413 41.3833 62.6136 41.7789 62.7582 42.1022C62.9048 42.4235 63.1066 42.6675 63.3636 42.8342C63.6207 42.9989 63.9169 43.0812 64.2523 43.0812C64.5877 43.0812 64.8839 42.9989 65.1409 42.8342C65.398 42.6675 65.5988 42.4235 65.7434 42.1022C65.89 41.7789 65.9633 41.3833 65.9633 40.9154ZM68.0953 45.7351V39.373H69.1677V40.1382H69.2309C69.2872 40.0257 69.3665 39.9062 69.4689 39.7797C69.5713 39.6512 69.7099 39.5417 69.8846 39.4514C70.0593 39.359 70.2822 39.3128 70.5534 39.3128C70.9108 39.3128 71.2331 39.4042 71.5203 39.5869C71.8095 39.7677 72.0384 40.0358 72.2071 40.3912C72.3778 40.7447 72.4632 41.1784 72.4632 41.6925C72.4632 42.2006 72.3798 42.6324 72.2132 42.9879C72.0465 43.3433 71.8195 43.6144 71.5324 43.8012C71.2452 43.988 70.9199 44.0813 70.5564 44.0813C70.2913 44.0813 70.0714 44.0372 69.8967 43.9488C69.7219 43.8604 69.5814 43.754 69.4749 43.6295C69.3705 43.503 69.2892 43.3835 69.2309 43.271H69.1858V45.7351H68.0953ZM69.1647 41.6865C69.1647 41.9857 69.2068 42.2478 69.2912 42.4727C69.3775 42.6977 69.501 42.8734 69.6617 42.9999C69.8244 43.1244 70.0212 43.1867 70.2521 43.1867C70.4931 43.1867 70.6949 43.1224 70.8576 42.9939C71.0203 42.8633 71.1428 42.6856 71.2251 42.4607C71.3095 42.2338 71.3516 41.9757 71.3516 41.6865C71.3516 41.3993 71.3105 41.1443 71.2281 40.9214C71.1458 40.6985 71.0233 40.5238 70.8606 40.3972C70.6979 40.2707 70.4951 40.2075 70.2521 40.2075C70.0192 40.2075 69.8214 40.2687 69.6587 40.3912C69.496 40.5137 69.3725 40.6854 69.2882 40.9063C69.2058 41.1272 69.1647 41.3873 69.1647 41.6865ZM75.4454 44.0904C74.9815 44.0904 74.5809 43.994 74.2435 43.8012C73.9081 43.6064 73.65 43.3313 73.4693 42.9758C73.2886 42.6183 73.1982 42.1976 73.1982 41.7136C73.1982 41.2377 73.2886 40.82 73.4693 40.4605C73.6521 40.099 73.9071 39.8179 74.2344 39.617C74.5618 39.4142 74.9464 39.3128 75.3882 39.3128C75.6733 39.3128 75.9424 39.359 76.1955 39.4514C76.4505 39.5417 76.6754 39.6823 76.8702 39.8731C77.067 40.0639 77.2217 40.3069 77.3341 40.6021C77.4466 40.8953 77.5028 41.2447 77.5028 41.6504V41.9847H73.7103V41.2497H76.4575C76.4555 41.0409 76.4104 40.8551 76.322 40.6924C76.2336 40.5278 76.1101 40.3982 75.9515 40.3039C75.7948 40.2095 75.6121 40.1623 75.4032 40.1623C75.1803 40.1623 74.9845 40.2165 74.8158 40.3249C74.6471 40.4314 74.5156 40.572 74.4212 40.7467C74.3288 40.9194 74.2816 41.1092 74.2796 41.316V41.9576C74.2796 42.2267 74.3288 42.4577 74.4272 42.6505C74.5256 42.8413 74.6632 42.9879 74.8399 43.0903C75.0166 43.1907 75.2235 43.2409 75.4605 43.2409C75.6191 43.2409 75.7627 43.2188 75.8912 43.1746C76.0198 43.1284 76.1312 43.0612 76.2256 42.9728C76.32 42.8844 76.3913 42.775 76.4395 42.6444L77.4576 42.7589C77.3934 43.028 77.2709 43.263 77.0901 43.4638C76.9114 43.6626 76.6825 43.8173 76.4033 43.9277C76.1242 44.0361 75.8049 44.0904 75.4454 44.0904ZM79.5158 41.2889V44H78.4254V39.373H79.4676V40.1593H79.5219C79.6283 39.9002 79.798 39.6944 80.0309 39.5417C80.2659 39.3891 80.5561 39.3128 80.9015 39.3128C81.2208 39.3128 81.499 39.3811 81.7359 39.5176C81.9749 39.6542 82.1597 39.852 82.2902 40.1111C82.4227 40.3701 82.488 40.6844 82.486 41.0539V44H81.3955V41.2226C81.3955 40.9134 81.3152 40.6714 81.1545 40.4966C80.9959 40.3219 80.776 40.2346 80.4948 40.2346C80.3041 40.2346 80.1344 40.2767 79.9858 40.3611C79.8392 40.4434 79.7237 40.5629 79.6393 40.7196C79.557 40.8762 79.5158 41.066 79.5158 41.2889ZM88.0423 39.373V40.2165H85.3071V39.373H88.0423ZM85.9909 44V38.9363C85.9909 38.625 86.0551 38.3659 86.1837 38.1591C86.3142 37.9522 86.4889 37.7976 86.7078 37.6952C86.9267 37.5927 87.1697 37.5415 87.4368 37.5415C87.6256 37.5415 87.7932 37.5566 87.9398 37.5867C88.0864 37.6168 88.1949 37.644 88.2652 37.6681L88.0483 38.5115C88.0021 38.4975 87.9439 38.4834 87.8736 38.4693C87.8033 38.4533 87.725 38.4452 87.6386 38.4452C87.4358 38.4452 87.2922 38.4944 87.2078 38.5928C87.1255 38.6892 87.0843 38.8278 87.0843 39.0085V44H85.9909ZM88.8963 44V39.373H89.9867V44H88.8963ZM89.4445 38.7164C89.2718 38.7164 89.1232 38.6591 88.9987 38.5446C88.8742 38.4282 88.8119 38.2886 88.8119 38.1259C88.8119 37.9613 88.8742 37.8217 88.9987 37.7072C89.1232 37.5907 89.2718 37.5325 89.4445 37.5325C89.6192 37.5325 89.7678 37.5907 89.8903 37.7072C90.0148 37.8217 90.0771 37.9613 90.0771 38.1259C90.0771 38.2886 90.0148 38.4282 89.8903 38.5446C89.7678 38.6591 89.6192 38.7164 89.4445 38.7164ZM92.1985 41.2889V44H91.1081V39.373H92.1503V40.1593H92.2046C92.311 39.9002 92.4807 39.6944 92.7137 39.5417C92.9486 39.3891 93.2388 39.3128 93.5842 39.3128C93.9035 39.3128 94.1817 39.3811 94.4186 39.5176C94.6576 39.6542 94.8424 39.852 94.9729 40.1111C95.1055 40.3701 95.1707 40.6844 95.1687 41.0539V44H94.0782V41.2226C94.0782 40.9134 93.9979 40.6714 93.8373 40.4966C93.6786 40.3219 93.4587 40.2346 93.1776 40.2346C92.9868 40.2346 92.8171 40.2767 92.6685 40.3611C92.5219 40.4434 92.4064 40.5629 92.3221 40.7196C92.2397 40.8762 92.1985 41.066 92.1985 41.2889ZM97.9943 44.0813C97.6308 44.0813 97.3055 43.988 97.0183 43.8012C96.7311 43.6144 96.5042 43.3433 96.3375 42.9879C96.1708 42.6324 96.0875 42.2006 96.0875 41.6925C96.0875 41.1784 96.1718 40.7447 96.3405 40.3912C96.5112 40.0358 96.7412 39.7677 97.0303 39.5869C97.3195 39.4042 97.6419 39.3128 97.9973 39.3128C98.2684 39.3128 98.4913 39.359 98.666 39.4514C98.8408 39.5417 98.9793 39.6512 99.0818 39.7797C99.1842 39.9062 99.2635 40.0257 99.3197 40.1382H99.3649V37.8307H100.458V44H99.386V43.271H99.3197C99.2635 43.3835 99.1822 43.503 99.0757 43.6295C98.9693 43.754 98.8287 43.8604 98.654 43.9488C98.4793 44.0372 98.2594 44.0813 97.9943 44.0813ZM98.2985 43.1867C98.5295 43.1867 98.7263 43.1244 98.889 42.9999C99.0516 42.8734 99.1751 42.6977 99.2595 42.4727C99.3438 42.2478 99.386 41.9857 99.386 41.6865C99.386 41.3873 99.3438 41.1272 99.2595 40.9063C99.1771 40.6854 99.0546 40.5137 98.892 40.3912C98.7313 40.2687 98.5335 40.2075 98.2985 40.2075C98.0555 40.2075 97.8527 40.2707 97.69 40.3972C97.5274 40.5238 97.4049 40.6985 97.3225 40.9214C97.2402 41.1443 97.199 41.3993 97.199 41.6865C97.199 41.9757 97.2402 42.2338 97.3225 42.4607C97.4069 42.6856 97.5304 42.8633 97.6931 42.9939C97.8577 43.1224 98.0596 43.1867 98.2985 43.1867ZM101.62 44V39.373H102.711V44H101.62ZM102.169 38.7164C101.996 38.7164 101.847 38.6591 101.723 38.5446C101.598 38.4282 101.536 38.2886 101.536 38.1259C101.536 37.9613 101.598 37.8217 101.723 37.7072C101.847 37.5907 101.996 37.5325 102.169 37.5325C102.343 37.5325 102.492 37.5907 102.614 37.7072C102.739 37.8217 102.801 37.9613 102.801 38.1259C102.801 38.2886 102.739 38.4282 102.614 38.5446C102.492 38.6591 102.343 38.7164 102.169 38.7164ZM104.923 41.2889V44H103.832V39.373H104.874V40.1593H104.929C105.035 39.9002 105.205 39.6944 105.438 39.5417C105.673 39.3891 105.963 39.3128 106.308 39.3128C106.628 39.3128 106.906 39.3811 107.143 39.5176C107.382 39.6542 107.567 39.852 107.697 40.1111C107.83 40.3701 107.895 40.6844 107.893 41.0539V44H106.802V41.2226C106.802 40.9134 106.722 40.6714 106.561 40.4966C106.403 40.3219 106.183 40.2346 105.902 40.2346C105.711 40.2346 105.541 40.2767 105.393 40.3611C105.246 40.4434 105.131 40.5629 105.046 40.7196C104.964 40.8762 104.923 41.066 104.923 41.2889ZM111.014 45.8315C110.622 45.8315 110.286 45.7783 110.005 45.6719C109.723 45.5674 109.497 45.4268 109.327 45.2501C109.156 45.0734 109.038 44.8776 108.971 44.6627L109.953 44.4247C109.997 44.5151 110.062 44.6045 110.146 44.6928C110.23 44.7832 110.344 44.8575 110.486 44.9158C110.631 44.976 110.813 45.0061 111.032 45.0061C111.341 45.0061 111.597 44.9308 111.8 44.7802C112.003 44.6316 112.104 44.3866 112.104 44.0452V43.1686H112.05C111.994 43.2811 111.911 43.3965 111.803 43.515C111.696 43.6335 111.555 43.7329 111.378 43.8132C111.203 43.8936 110.984 43.9337 110.718 43.9337C110.363 43.9337 110.041 43.8504 109.751 43.6837C109.464 43.515 109.235 43.264 109.065 42.9306C108.896 42.5952 108.812 42.1755 108.812 41.6715C108.812 41.1634 108.896 40.7346 109.065 40.3852C109.235 40.0337 109.465 39.7677 109.754 39.5869C110.044 39.4042 110.366 39.3128 110.721 39.3128C110.993 39.3128 111.215 39.359 111.39 39.4514C111.567 39.5417 111.707 39.6512 111.812 39.7797C111.916 39.9062 111.996 40.0257 112.05 40.1382H112.11V39.373H113.186V44.0753C113.186 44.4709 113.091 44.7983 112.902 45.0573C112.714 45.3164 112.456 45.5102 112.128 45.6387C111.801 45.7672 111.429 45.8315 111.014 45.8315ZM111.023 43.0782C111.254 43.0782 111.45 43.022 111.613 42.9095C111.776 42.7971 111.899 42.6354 111.984 42.4245C112.068 42.2137 112.11 41.9606 112.11 41.6654C112.11 41.3742 112.068 41.1192 111.984 40.9003C111.901 40.6814 111.779 40.5117 111.616 40.3912C111.455 40.2687 111.258 40.2075 111.023 40.2075C110.78 40.2075 110.577 40.2707 110.414 40.3972C110.252 40.5238 110.129 40.6975 110.047 40.9184C109.964 41.1373 109.923 41.3863 109.923 41.6654C109.923 41.9486 109.964 42.1966 110.047 42.4095C110.131 42.6203 110.255 42.785 110.417 42.9035C110.582 43.02 110.784 43.0782 111.023 43.0782ZM117.96 40.5961L116.966 40.7045C116.938 40.6041 116.889 40.5097 116.818 40.4213C116.75 40.333 116.658 40.2617 116.541 40.2075C116.425 40.1532 116.282 40.1261 116.114 40.1261C115.887 40.1261 115.696 40.1753 115.541 40.2737C115.389 40.3721 115.313 40.4997 115.315 40.6563C115.313 40.7909 115.362 40.9003 115.463 40.9846C115.565 41.069 115.734 41.1383 115.969 41.1925L116.758 41.3612C117.196 41.4556 117.521 41.6052 117.734 41.81C117.949 42.0149 118.058 42.283 118.06 42.6143C118.058 42.9055 117.972 43.1626 117.803 43.3855C117.637 43.6064 117.405 43.7791 117.108 43.9036C116.81 44.0281 116.469 44.0904 116.083 44.0904C115.517 44.0904 115.061 43.9719 114.716 43.7349C114.37 43.4959 114.165 43.1636 114.098 42.7378L115.162 42.6354C115.21 42.8443 115.312 43.0019 115.469 43.1083C115.626 43.2148 115.829 43.268 116.08 43.268C116.339 43.268 116.547 43.2148 116.704 43.1083C116.863 43.0019 116.942 42.8704 116.942 42.7137C116.942 42.5812 116.891 42.4717 116.788 42.3854C116.688 42.299 116.531 42.2328 116.318 42.1866L115.529 42.0209C115.085 41.9285 114.757 41.7729 114.544 41.554C114.331 41.3331 114.226 41.0539 114.228 40.7165C114.226 40.4314 114.303 40.1844 114.46 39.9755C114.618 39.7646 114.838 39.602 115.119 39.4875C115.403 39.371 115.729 39.3128 116.098 39.3128C116.641 39.3128 117.067 39.4283 117.379 39.6592C117.692 39.8902 117.886 40.2024 117.96 40.5961Z" fill="#3B82F6"/>
<path d="M179 127.889C179 137.283 176.214 146.467 170.995 154.278C165.775 162.09 158.357 168.178 149.677 171.773C140.998 175.368 131.447 176.309 122.233 174.476C113.019 172.643 104.555 168.119 97.9124 161.476C91.2694 154.833 86.7455 146.37 84.9127 137.155C83.0799 127.941 84.0206 118.391 87.6157 109.711C91.2109 101.032 97.2991 93.6132 105.11 88.3939C112.922 83.1745 122.105 80.3887 131.5 80.3887V90.2623C124.058 90.2623 116.784 92.469 110.596 96.6035C104.408 100.738 99.5856 106.614 96.7377 113.49C93.8899 120.365 93.1448 127.93 94.5966 135.229C96.0484 142.528 99.632 149.232 104.894 154.495C110.156 159.757 116.861 163.34 124.159 164.792C131.458 166.244 139.024 165.499 145.899 162.651C152.774 159.803 158.651 154.98 162.785 148.793C166.92 142.605 169.126 135.33 169.126 127.889H179Z" fill="#D9D9D9"/>
<path d="M131.5 80.3887C140.655 80.3887 149.616 83.0346 157.303 88.0079C164.99 92.9813 171.075 100.07 174.828 108.421L165.821 112.468C162.849 105.853 158.028 100.237 151.939 96.2978C145.85 92.3582 138.752 90.2623 131.5 90.2623V80.3887Z" fill="#10B981"/>
<path d="M174.45 107.602C177.29 113.615 178.836 120.159 178.988 126.808C179.139 133.457 177.892 140.064 175.328 146.201C172.764 152.338 168.94 157.868 164.103 162.433C159.266 166.998 153.525 170.496 147.25 172.701L143.976 163.386C148.947 161.639 153.495 158.868 157.326 155.252C161.158 151.636 164.187 147.255 166.218 142.394C168.249 137.533 169.237 132.3 169.117 127.033C168.997 121.765 167.772 116.582 165.522 111.819L174.45 107.602Z" fill="#F97316"/>
<path d="M147.376 172.657C140.86 174.968 133.919 175.828 127.036 175.178C120.153 174.529 113.495 172.384 107.526 168.895C101.558 165.406 96.4231 160.655 92.4806 154.976C88.5381 149.297 85.8828 142.826 84.7001 136.014C83.5175 129.202 83.836 122.215 85.6335 115.539C87.431 108.863 90.664 102.66 95.1069 97.3634C99.5498 92.0664 105.095 87.8032 111.357 84.8713C117.618 81.9395 124.443 80.4097 131.357 80.3889L131.386 90.2624C125.91 90.279 120.503 91.4907 115.544 93.8132C110.584 96.1356 106.191 99.5126 102.672 103.709C99.1524 107.904 96.5914 112.818 95.1676 118.106C93.7437 123.394 93.4914 128.929 94.4282 134.325C95.365 139.721 97.4683 144.847 100.591 149.346C103.714 153.844 107.782 157.607 112.51 160.371C117.237 163.135 122.511 164.834 127.964 165.349C133.416 165.863 138.915 165.182 144.076 163.351L147.376 172.657Z" fill="#EF4444"/>
<path d="M127.862 113.525V129.389H124.988V116.321H124.895L121.185 118.691V116.058L125.128 113.525H127.862ZM131.89 129.389V127.313L137.398 121.914C137.924 121.382 138.363 120.909 138.714 120.496C139.066 120.083 139.329 119.683 139.504 119.296C139.68 118.908 139.768 118.495 139.768 118.056C139.768 117.555 139.654 117.127 139.427 116.77C139.2 116.409 138.887 116.13 138.49 115.934C138.092 115.738 137.64 115.639 137.134 115.639C136.613 115.639 136.156 115.748 135.763 115.965C135.371 116.177 135.066 116.479 134.849 116.871C134.637 117.264 134.532 117.731 134.532 118.273H131.797C131.797 117.266 132.027 116.391 132.487 115.647C132.946 114.904 133.579 114.328 134.384 113.92C135.195 113.512 136.125 113.308 137.173 113.308C138.237 113.308 139.171 113.507 139.977 113.904C140.783 114.302 141.407 114.847 141.852 115.539C142.301 116.231 142.525 117.021 142.525 117.909C142.525 118.503 142.412 119.086 142.185 119.66C141.957 120.233 141.557 120.868 140.984 121.565C140.416 122.262 139.618 123.107 138.59 124.098L135.856 126.879V126.987H142.766V129.389H131.89Z" fill="#0E0E11"/>
<path d="M110.952 139.304C110.952 139.955 110.835 140.517 110.6 140.991C110.365 141.465 110.043 141.83 109.633 142.087C109.223 142.344 108.755 142.473 108.229 142.473C107.703 142.473 107.235 142.344 106.825 142.087C106.416 141.83 106.093 141.465 105.859 140.991C105.624 140.517 105.506 139.955 105.506 139.304C105.506 138.653 105.624 138.091 105.859 137.617C106.093 137.143 106.416 136.778 106.825 136.521C107.235 136.264 107.703 136.135 108.229 136.135C108.755 136.135 109.223 136.264 109.633 136.521C110.043 136.778 110.365 137.143 110.6 137.617C110.835 138.091 110.952 138.653 110.952 139.304ZM110.229 139.304C110.229 138.77 110.14 138.319 109.961 137.951C109.785 137.584 109.545 137.306 109.241 137.117C108.94 136.928 108.603 136.834 108.229 136.834C107.856 136.834 107.517 136.928 107.214 137.117C106.913 137.306 106.673 137.584 106.494 137.951C106.317 138.319 106.229 138.77 106.229 139.304C106.229 139.838 106.317 140.289 106.494 140.657C106.673 141.024 106.913 141.302 107.214 141.491C107.517 141.68 107.856 141.774 108.229 141.774C108.603 141.774 108.94 141.68 109.241 141.491C109.545 141.302 109.785 141.024 109.961 140.657C110.14 140.289 110.229 139.838 110.229 139.304ZM112.112 144.124V137.762H112.799V138.497H112.883C112.936 138.416 113.008 138.314 113.1 138.189C113.195 138.063 113.329 137.95 113.504 137.852C113.681 137.752 113.92 137.701 114.221 137.701C114.61 137.701 114.954 137.799 115.251 137.994C115.548 138.188 115.78 138.465 115.947 138.822C116.114 139.18 116.197 139.601 116.197 140.087C116.197 140.577 116.114 141.002 115.947 141.361C115.78 141.719 115.549 141.996 115.254 142.193C114.959 142.388 114.618 142.485 114.233 142.485C113.936 142.485 113.698 142.436 113.519 142.337C113.34 142.237 113.203 142.124 113.106 141.997C113.01 141.869 112.936 141.762 112.883 141.678H112.823V144.124H112.112ZM112.811 140.075C112.811 140.425 112.862 140.733 112.965 141C113.067 141.265 113.217 141.473 113.413 141.624C113.61 141.772 113.851 141.846 114.136 141.846C114.434 141.846 114.682 141.768 114.88 141.611C115.081 141.453 115.232 141.24 115.332 140.973C115.435 140.704 115.486 140.405 115.486 140.075C115.486 139.75 115.436 139.457 115.335 139.196C115.237 138.933 115.087 138.725 114.887 138.572C114.688 138.417 114.438 138.34 114.136 138.34C113.847 138.34 113.604 138.413 113.407 138.56C113.211 138.705 113.062 138.907 112.962 139.168C112.861 139.428 112.811 139.73 112.811 140.075ZM119.221 142.485C118.775 142.485 118.391 142.387 118.068 142.19C117.746 141.991 117.498 141.714 117.323 141.358C117.151 141.001 117.064 140.585 117.064 140.111C117.064 139.637 117.151 139.22 117.323 138.858C117.498 138.495 117.741 138.212 118.052 138.009C118.366 137.804 118.731 137.701 119.149 137.701C119.39 137.701 119.628 137.742 119.863 137.822C120.098 137.902 120.312 138.033 120.505 138.214C120.697 138.392 120.851 138.629 120.965 138.924C121.08 139.22 121.137 139.583 121.137 140.015V140.316H117.571V139.702H120.414C120.414 139.441 120.362 139.208 120.258 139.003C120.155 138.798 120.008 138.636 119.818 138.518C119.629 138.399 119.406 138.34 119.149 138.34C118.866 138.34 118.621 138.41 118.414 138.551C118.209 138.69 118.051 138.87 117.941 139.093C117.831 139.316 117.775 139.555 117.775 139.81V140.22C117.775 140.569 117.836 140.865 117.956 141.108C118.079 141.349 118.248 141.533 118.465 141.66C118.682 141.784 118.934 141.846 119.221 141.846C119.408 141.846 119.577 141.82 119.727 141.768C119.88 141.714 120.012 141.634 120.122 141.527C120.232 141.419 120.318 141.284 120.378 141.123L121.065 141.316C120.993 141.549 120.871 141.754 120.7 141.931C120.53 142.106 120.319 142.242 120.068 142.34C119.817 142.437 119.535 142.485 119.221 142.485ZM122.929 139.605V142.389H122.219V137.762H122.905V138.485H122.966C123.074 138.25 123.239 138.061 123.46 137.918C123.681 137.774 123.966 137.701 124.315 137.701C124.628 137.701 124.903 137.766 125.138 137.894C125.372 138.021 125.555 138.214 125.686 138.473C125.816 138.73 125.882 139.055 125.882 139.449V142.389H125.171V139.497C125.171 139.133 125.076 138.85 124.887 138.647C124.699 138.443 124.44 138.34 124.11 138.34C123.883 138.34 123.681 138.389 123.502 138.488C123.325 138.586 123.186 138.73 123.083 138.918C122.981 139.107 122.929 139.336 122.929 139.605ZM131.627 137.762V138.364H129.133V137.762H131.627ZM129.88 142.389V137.123C129.88 136.858 129.942 136.637 130.066 136.46C130.191 136.284 130.353 136.151 130.551 136.063C130.75 135.974 130.96 135.93 131.181 135.93C131.356 135.93 131.498 135.944 131.609 135.972C131.719 136 131.802 136.027 131.856 136.051L131.651 136.665C131.615 136.653 131.565 136.638 131.5 136.62C131.438 136.602 131.356 136.593 131.253 136.593C131.018 136.593 130.849 136.652 130.744 136.771C130.642 136.889 130.591 137.063 130.591 137.292V142.389H129.88ZM132.623 142.389V137.762H133.334V142.389H132.623ZM132.985 136.991C132.846 136.991 132.727 136.943 132.626 136.849C132.528 136.755 132.479 136.641 132.479 136.509C132.479 136.376 132.528 136.263 132.626 136.168C132.727 136.074 132.846 136.027 132.985 136.027C133.123 136.027 133.242 136.074 133.34 136.168C133.441 136.263 133.491 136.376 133.491 136.509C133.491 136.641 133.441 136.755 133.34 136.849C133.242 136.943 133.123 136.991 132.985 136.991ZM135.347 139.605V142.389H134.636V137.762H135.323V138.485H135.383C135.492 138.25 135.656 138.061 135.877 137.918C136.098 137.774 136.383 137.701 136.733 137.701C137.046 137.701 137.32 137.766 137.555 137.894C137.79 138.021 137.973 138.214 138.103 138.473C138.234 138.73 138.299 139.055 138.299 139.449V142.389H137.588V139.497C137.588 139.133 137.494 138.85 137.305 138.647C137.116 138.443 136.857 138.34 136.528 138.34C136.301 138.34 136.098 138.389 135.919 138.488C135.743 138.586 135.603 138.73 135.501 138.918C135.398 139.107 135.347 139.336 135.347 139.605ZM141.345 142.485C140.96 142.485 140.619 142.388 140.324 142.193C140.029 141.996 139.798 141.719 139.631 141.361C139.465 141.002 139.381 140.577 139.381 140.087C139.381 139.601 139.465 139.18 139.631 138.822C139.798 138.465 140.03 138.188 140.327 137.994C140.624 137.799 140.968 137.701 141.357 137.701C141.659 137.701 141.897 137.752 142.071 137.852C142.248 137.95 142.383 138.063 142.475 138.189C142.569 138.314 142.643 138.416 142.695 138.497H142.755V136.219H143.466V142.389H142.779V141.678H142.695C142.643 141.762 142.568 141.869 142.472 141.997C142.376 142.124 142.238 142.237 142.059 142.337C141.881 142.436 141.643 142.485 141.345 142.485ZM141.442 141.846C141.727 141.846 141.968 141.772 142.165 141.624C142.362 141.473 142.511 141.265 142.614 141C142.716 140.733 142.767 140.425 142.767 140.075C142.767 139.73 142.717 139.428 142.617 139.168C142.516 138.907 142.368 138.705 142.171 138.56C141.974 138.413 141.731 138.34 141.442 138.34C141.141 138.34 140.89 138.417 140.689 138.572C140.49 138.725 140.34 138.933 140.24 139.196C140.141 139.457 140.092 139.75 140.092 140.075C140.092 140.405 140.142 140.704 140.243 140.973C140.345 141.24 140.496 141.453 140.695 141.611C140.896 141.768 141.145 141.846 141.442 141.846ZM144.867 142.389V137.762H145.578V142.389H144.867ZM145.228 136.991C145.09 136.991 144.97 136.943 144.87 136.849C144.771 136.755 144.722 136.641 144.722 136.509C144.722 136.376 144.771 136.263 144.87 136.168C144.97 136.074 145.09 136.027 145.228 136.027C145.367 136.027 145.485 136.074 145.584 136.168C145.684 136.263 145.734 136.376 145.734 136.509C145.734 136.641 145.684 136.755 145.584 136.849C145.485 136.943 145.367 136.991 145.228 136.991ZM147.591 139.605V142.389H146.88V137.762H147.567V138.485H147.627C147.735 138.25 147.9 138.061 148.121 137.918C148.342 137.774 148.627 137.701 148.976 137.701C149.29 137.701 149.564 137.766 149.799 137.894C150.034 138.021 150.217 138.214 150.347 138.473C150.478 138.73 150.543 139.055 150.543 139.449V142.389H149.832V139.497C149.832 139.133 149.738 138.85 149.549 138.647C149.36 138.443 149.101 138.34 148.772 138.34C148.545 138.34 148.342 138.389 148.163 138.488C147.986 138.586 147.847 138.73 147.744 138.918C147.642 139.107 147.591 139.336 147.591 139.605ZM153.71 144.22C153.366 144.22 153.071 144.176 152.824 144.088C152.577 144.001 152.371 143.887 152.206 143.744C152.044 143.604 151.914 143.453 151.818 143.292L152.384 142.895C152.448 142.979 152.53 143.075 152.628 143.184C152.727 143.294 152.861 143.39 153.032 143.47C153.205 143.552 153.43 143.594 153.71 143.594C154.083 143.594 154.391 143.503 154.634 143.322C154.877 143.142 154.999 142.859 154.999 142.473V141.533H154.939C154.886 141.618 154.812 141.722 154.716 141.846C154.621 141.969 154.485 142.078 154.306 142.175C154.129 142.269 153.89 142.316 153.589 142.316C153.216 142.316 152.88 142.228 152.583 142.051C152.288 141.875 152.054 141.618 151.881 141.28C151.71 140.943 151.625 140.533 151.625 140.051C151.625 139.577 151.708 139.164 151.875 138.813C152.042 138.46 152.274 138.186 152.571 137.994C152.868 137.799 153.212 137.701 153.601 137.701C153.902 137.701 154.141 137.752 154.318 137.852C154.497 137.95 154.633 138.063 154.728 138.189C154.824 138.314 154.898 138.416 154.951 138.497H155.023V137.762H155.71V142.521C155.71 142.919 155.619 143.242 155.439 143.491C155.26 143.742 155.019 143.926 154.716 144.042C154.414 144.161 154.079 144.22 153.71 144.22ZM153.685 141.678C153.971 141.678 154.212 141.612 154.408 141.482C154.605 141.351 154.755 141.164 154.857 140.919C154.96 140.674 155.011 140.38 155.011 140.039C155.011 139.706 154.961 139.411 154.86 139.156C154.76 138.901 154.611 138.702 154.414 138.557C154.218 138.412 153.975 138.34 153.685 138.34C153.384 138.34 153.133 138.416 152.932 138.569C152.734 138.722 152.584 138.926 152.484 139.184C152.385 139.441 152.336 139.726 152.336 140.039C152.336 140.36 152.386 140.645 152.487 140.892C152.589 141.137 152.74 141.329 152.938 141.47C153.139 141.608 153.388 141.678 153.685 141.678ZM160.289 138.798L159.65 138.979C159.61 138.872 159.551 138.769 159.472 138.668C159.396 138.566 159.291 138.482 159.159 138.415C159.026 138.349 158.857 138.316 158.65 138.316C158.367 138.316 158.131 138.381 157.942 138.512C157.755 138.64 157.662 138.804 157.662 139.003C157.662 139.18 157.726 139.319 157.855 139.422C157.983 139.524 158.184 139.609 158.457 139.678L159.144 139.846C159.558 139.947 159.866 140.1 160.069 140.307C160.271 140.512 160.373 140.776 160.373 141.099C160.373 141.364 160.297 141.601 160.144 141.81C159.993 142.019 159.782 142.184 159.511 142.304C159.24 142.425 158.925 142.485 158.565 142.485C158.094 142.485 157.703 142.383 157.394 142.178C157.084 141.973 156.889 141.674 156.806 141.28L157.481 141.111C157.545 141.36 157.667 141.547 157.846 141.672C158.026 141.796 158.262 141.858 158.553 141.858C158.885 141.858 159.148 141.788 159.343 141.648C159.539 141.505 159.638 141.334 159.638 141.136C159.638 140.975 159.582 140.84 159.469 140.732C159.357 140.621 159.184 140.539 158.951 140.485L158.18 140.304C157.756 140.204 157.445 140.048 157.246 139.837C157.049 139.624 156.951 139.358 156.951 139.039C156.951 138.778 157.024 138.547 157.171 138.346C157.319 138.145 157.521 137.988 157.776 137.873C158.033 137.759 158.324 137.701 158.65 137.701C159.108 137.701 159.467 137.802 159.728 138.003C159.991 138.204 160.178 138.469 160.289 138.798Z" fill="#393941"/>
<path d="M46.3057 189.008C46.3057 187.669 47.3908 186.584 48.7293 186.584H53.882C55.2206 186.584 56.3057 187.669 56.3057 189.008V194.16C56.3057 195.499 55.2206 196.584 53.882 196.584H48.7293C47.3908 196.584 46.3057 195.499 46.3057 194.16V189.008Z" fill="#EF4444"/>
<path d="M66.8647 189.843H66.1177C66.0735 189.628 65.9962 189.439 65.8857 189.276C65.7773 189.114 65.6447 188.977 65.4881 188.867C65.3334 188.754 65.1617 188.67 64.973 188.614C64.7842 188.557 64.5874 188.529 64.3826 188.529C64.009 188.529 63.6706 188.624 63.3674 188.812C63.0662 189.001 62.8262 189.279 62.6474 189.647C62.4707 190.014 62.3824 190.465 62.3824 190.999C62.3824 191.534 62.4707 191.984 62.6474 192.352C62.8262 192.719 63.0662 192.998 63.3674 193.186C63.6706 193.375 64.009 193.469 64.3826 193.469C64.5874 193.469 64.7842 193.441 64.973 193.385C65.1617 193.329 65.3334 193.246 65.4881 193.135C65.6447 193.023 65.7773 192.885 65.8857 192.722C65.9962 192.558 66.0735 192.369 66.1177 192.156H66.8647C66.8085 192.471 66.7061 192.754 66.5575 193.003C66.4089 193.252 66.2241 193.463 66.0032 193.638C65.7823 193.811 65.5343 193.942 65.2591 194.033C64.986 194.123 64.6938 194.168 64.3826 194.168C63.8564 194.168 63.3885 194.04 62.9788 193.783C62.5691 193.526 62.2468 193.16 62.0118 192.686C61.7769 192.212 61.6594 191.65 61.6594 190.999C61.6594 190.349 61.7769 189.786 62.0118 189.312C62.2468 188.838 62.5691 188.473 62.9788 188.216C63.3885 187.959 63.8564 187.83 64.3826 187.83C64.6938 187.83 64.986 187.876 65.2591 187.966C65.5343 188.056 65.7823 188.189 66.0032 188.364C66.2241 188.536 66.4089 188.747 66.5575 188.996C66.7061 189.243 66.8085 189.525 66.8647 189.843ZM67.9755 194.084V189.457H68.6623V190.156H68.7105C68.7949 189.927 68.9475 189.741 69.1684 189.599C69.3893 189.456 69.6383 189.385 69.9155 189.385C69.9677 189.385 70.033 189.386 70.1113 189.388C70.1896 189.39 70.2488 189.393 70.289 189.397V190.12C70.2649 190.114 70.2097 190.105 70.1233 190.093C70.039 190.079 69.9496 190.072 69.8552 190.072C69.6303 190.072 69.4295 190.119 69.2528 190.213C69.078 190.306 68.9395 190.434 68.8371 190.599C68.7366 190.761 68.6864 190.947 68.6864 191.156V194.084H67.9755ZM71.1317 194.084V189.457H71.8426V194.084H71.1317ZM71.4932 188.686C71.3546 188.686 71.2351 188.639 71.1347 188.544C71.0363 188.45 70.9871 188.336 70.9871 188.204C70.9871 188.071 71.0363 187.958 71.1347 187.863C71.2351 187.769 71.3546 187.722 71.4932 187.722C71.6318 187.722 71.7502 187.769 71.8486 187.863C71.9491 187.958 71.9993 188.071 71.9993 188.204C71.9993 188.336 71.9491 188.45 71.8486 188.544C71.7502 188.639 71.6318 188.686 71.4932 188.686ZM75.157 189.457V190.059H72.7591V189.457H75.157ZM73.458 188.348H74.1689V192.759C74.1689 192.959 74.198 193.11 74.2563 193.21C74.3165 193.309 74.3928 193.375 74.4852 193.409C74.5796 193.441 74.679 193.457 74.7834 193.457C74.8617 193.457 74.926 193.453 74.9762 193.445C75.0264 193.435 75.0666 193.427 75.0967 193.421L75.2413 194.06C75.1931 194.078 75.1258 194.096 75.0395 194.114C74.9531 194.134 74.8437 194.144 74.7111 194.144C74.5103 194.144 74.3135 194.101 74.1207 194.015C73.9299 193.928 73.7713 193.797 73.6448 193.62C73.5202 193.443 73.458 193.22 73.458 192.951V188.348ZM76.2263 194.084V189.457H76.9372V194.084H76.2263ZM76.5878 188.686C76.4492 188.686 76.3298 188.639 76.2293 188.544C76.1309 188.45 76.0817 188.336 76.0817 188.204C76.0817 188.071 76.1309 187.958 76.2293 187.863C76.3298 187.769 76.4492 187.722 76.5878 187.722C76.7264 187.722 76.8449 187.769 76.9433 187.863C77.0437 187.958 77.0939 188.071 77.0939 188.204C77.0939 188.336 77.0437 188.45 76.9433 188.544C76.8449 188.639 76.7264 188.686 76.5878 188.686ZM80.119 194.18C79.6853 194.18 79.3117 194.078 78.9984 193.873C78.6852 193.668 78.4442 193.386 78.2755 193.027C78.1068 192.667 78.0224 192.256 78.0224 191.795C78.0224 191.325 78.1088 190.91 78.2815 190.551C78.4562 190.189 78.6992 189.907 79.0105 189.704C79.3238 189.499 79.6893 189.397 80.107 189.397C80.4323 189.397 80.7255 189.457 80.9866 189.578C81.2477 189.698 81.4615 189.867 81.6282 190.084C81.7949 190.3 81.8983 190.554 81.9385 190.843H81.2276C81.1734 190.632 81.0529 190.445 80.8661 190.282C80.6813 190.118 80.4323 190.035 80.119 190.035C79.8419 190.035 79.5989 190.108 79.39 190.252C79.1832 190.395 79.0215 190.597 78.9051 190.858C78.7906 191.117 78.7334 191.421 78.7334 191.771C78.7334 192.128 78.7896 192.439 78.902 192.704C79.0165 192.969 79.1772 193.175 79.384 193.322C79.5929 193.468 79.8379 193.542 80.119 193.542C80.3038 193.542 80.4715 193.51 80.6221 193.445C80.7727 193.381 80.9002 193.289 81.0047 193.168C81.1091 193.048 81.1834 192.903 81.2276 192.734H81.9385C81.8983 193.008 81.7989 193.254 81.6403 193.472C81.4836 193.689 81.2758 193.862 81.0167 193.991C80.7597 194.117 80.4604 194.18 80.119 194.18ZM84.3393 194.192C84.0461 194.192 83.78 194.137 83.5411 194.027C83.3021 193.914 83.1123 193.753 82.9717 193.542C82.8311 193.329 82.7609 193.072 82.7609 192.771C82.7609 192.506 82.8131 192.291 82.9175 192.126C83.0219 191.959 83.1615 191.829 83.3362 191.734C83.5109 191.64 83.7037 191.57 83.9146 191.523C84.1275 191.475 84.3413 191.437 84.5562 191.409C84.8374 191.373 85.0653 191.346 85.24 191.328C85.4167 191.308 85.5453 191.274 85.6256 191.228C85.7079 191.182 85.7491 191.102 85.7491 190.987V190.963C85.7491 190.666 85.6678 190.435 85.5051 190.27C85.3444 190.106 85.1004 190.023 84.7731 190.023C84.4337 190.023 84.1676 190.098 83.9748 190.246C83.782 190.395 83.6465 190.554 83.5682 190.722L82.8934 190.481C83.0139 190.2 83.1746 189.981 83.3754 189.825C83.5782 189.666 83.7991 189.555 84.0381 189.493C84.2791 189.429 84.516 189.397 84.749 189.397C84.8976 189.397 85.0683 189.415 85.2611 189.451C85.4559 189.485 85.6437 189.556 85.8244 189.665C86.0072 189.773 86.1588 189.937 86.2793 190.156C86.3998 190.375 86.46 190.668 86.46 191.035V194.084H85.7491V193.457H85.713C85.6648 193.558 85.5844 193.665 85.472 193.78C85.3595 193.894 85.2099 193.992 85.0231 194.072C84.8364 194.152 84.6084 194.192 84.3393 194.192ZM84.4478 193.554C84.7289 193.554 84.9659 193.499 85.1587 193.388C85.3535 193.278 85.5001 193.135 85.5985 192.96C85.6989 192.786 85.7491 192.602 85.7491 192.409V191.758C85.719 191.795 85.6527 191.828 85.5503 191.858C85.4499 191.886 85.3334 191.911 85.2009 191.933C85.0703 191.953 84.9428 191.971 84.8183 191.987C84.6958 192.001 84.5964 192.014 84.5201 192.024C84.3353 192.048 84.1626 192.087 84.0019 192.141C83.8433 192.193 83.7148 192.273 83.6164 192.379C83.52 192.483 83.4718 192.626 83.4718 192.807C83.4718 193.054 83.5631 193.241 83.7459 193.367C83.9307 193.492 84.1646 193.554 84.4478 193.554ZM88.4685 187.915V194.084H87.7576V187.915H88.4685ZM92.4094 190.999C92.4094 190.24 92.5078 189.542 92.7046 188.906C92.9034 188.267 93.1866 187.68 93.5541 187.144H94.1807C94.0361 187.342 93.9005 187.587 93.774 187.879C93.6495 188.168 93.54 188.486 93.4456 188.833C93.3513 189.179 93.2769 189.536 93.2227 189.906C93.1705 190.275 93.1444 190.64 93.1444 190.999C93.1444 191.477 93.1906 191.962 93.283 192.454C93.3754 192.946 93.4999 193.403 93.6565 193.825C93.8131 194.247 93.9879 194.59 94.1807 194.855H93.5541C93.1866 194.319 92.9034 193.733 92.7046 193.096C92.5078 192.457 92.4094 191.758 92.4094 190.999ZM97.266 194.168C97.013 194.164 96.76 194.116 96.5069 194.024C96.2539 193.931 96.0229 193.776 95.8141 193.557C95.6052 193.336 95.4376 193.038 95.311 192.662C95.1845 192.285 95.1213 191.811 95.1213 191.24C95.1213 190.694 95.1725 190.21 95.2749 189.788C95.3773 189.365 95.5259 189.008 95.7207 188.719C95.9155 188.428 96.1505 188.207 96.4256 188.056C96.7027 187.906 97.015 187.83 97.3624 187.83C97.7079 187.83 98.0151 187.9 98.2842 188.038C98.5553 188.175 98.7762 188.366 98.9469 188.611C99.1176 188.856 99.2281 189.138 99.2783 189.457H98.5433C98.475 189.18 98.3425 188.95 98.1456 188.767C97.9488 188.584 97.6878 188.493 97.3624 188.493C96.8845 188.493 96.5079 188.701 96.2328 189.117C95.9597 189.532 95.8221 190.116 95.8201 190.867H95.8683C95.9808 190.696 96.1143 190.551 96.269 190.43C96.4256 190.308 96.5983 190.213 96.7871 190.147C96.9759 190.081 97.1757 190.047 97.3865 190.047C97.74 190.047 98.0633 190.136 98.3565 190.313C98.6497 190.487 98.8847 190.729 99.0614 191.039C99.2381 191.346 99.3265 191.698 99.3265 192.096C99.3265 192.477 99.2411 192.827 99.0704 193.144C98.8997 193.459 98.6598 193.71 98.3505 193.897C98.0432 194.082 97.6817 194.172 97.266 194.168ZM97.266 193.506C97.5191 193.506 97.746 193.442 97.9468 193.316C98.1497 193.189 98.3093 193.02 98.4258 192.807C98.5443 192.594 98.6035 192.357 98.6035 192.096C98.6035 191.841 98.5463 191.609 98.4318 191.4C98.3194 191.189 98.1637 191.021 97.9649 190.897C97.7681 190.772 97.5432 190.71 97.2901 190.71C97.0994 190.71 96.9216 190.748 96.757 190.825C96.5923 190.899 96.4477 191.001 96.3232 191.132C96.2007 191.262 96.1043 191.412 96.034 191.581C95.9637 191.747 95.9286 191.923 95.9286 192.108C95.9286 192.353 95.9858 192.582 96.1003 192.795C96.2167 193.008 96.3754 193.179 96.5762 193.31C96.779 193.44 97.009 193.506 97.266 193.506ZM102.041 190.999C102.041 191.758 101.942 192.457 101.743 193.096C101.546 193.733 101.264 194.319 100.897 194.855H100.27C100.415 194.656 100.549 194.411 100.674 194.12C100.8 193.831 100.911 193.514 101.005 193.168C101.1 192.821 101.173 192.462 101.225 192.093C101.279 191.721 101.306 191.357 101.306 190.999C101.306 190.521 101.26 190.036 101.168 189.544C101.075 189.052 100.951 188.595 100.794 188.174C100.638 187.752 100.463 187.409 100.27 187.144H100.897C101.264 187.68 101.546 188.267 101.743 188.906C101.942 189.542 102.041 190.24 102.041 190.999Z" fill="#5D5E6C"/>
<path d="M113 189.008C113 187.669 114.085 186.584 115.424 186.584H120.576C121.915 186.584 123 187.669 123 189.008V194.16C123 195.499 121.915 196.584 120.576 196.584H115.424C114.085 196.584 113 195.499 113 194.16V189.008Z" fill="#F97316"/>
<path d="M128.595 194.084V187.915H129.342V190.662H132.631V187.915H133.378V194.084H132.631V191.325H129.342V194.084H128.595ZM134.778 194.084V189.457H135.488V194.084H134.778ZM135.139 188.686C135 188.686 134.881 188.639 134.781 188.544C134.682 188.45 134.633 188.336 134.633 188.204C134.633 188.071 134.682 187.958 134.781 187.863C134.881 187.769 135 187.722 135.139 187.722C135.278 187.722 135.396 187.769 135.494 187.863C135.595 187.958 135.645 188.071 135.645 188.204C135.645 188.336 135.595 188.45 135.494 188.544C135.396 188.639 135.278 188.686 135.139 188.686ZM138.658 195.915C138.315 195.915 138.02 195.871 137.773 195.783C137.526 195.697 137.32 195.582 137.155 195.44C136.992 195.299 136.863 195.148 136.766 194.988L137.333 194.59C137.397 194.674 137.478 194.771 137.577 194.879C137.675 194.99 137.81 195.085 137.98 195.165C138.153 195.248 138.379 195.289 138.658 195.289C139.032 195.289 139.34 195.199 139.583 195.018C139.826 194.837 139.947 194.554 139.947 194.168V193.228H139.887C139.835 193.313 139.761 193.417 139.664 193.542C139.57 193.664 139.433 193.774 139.255 193.87C139.078 193.964 138.839 194.012 138.538 194.012C138.164 194.012 137.829 193.923 137.532 193.747C137.236 193.57 137.002 193.313 136.83 192.975C136.659 192.638 136.574 192.228 136.574 191.746C136.574 191.272 136.657 190.86 136.824 190.508C136.99 190.155 137.222 189.882 137.52 189.689C137.817 189.494 138.16 189.397 138.55 189.397C138.851 189.397 139.09 189.447 139.267 189.547C139.445 189.646 139.582 189.758 139.676 189.885C139.773 190.009 139.847 190.112 139.899 190.192H139.972V189.457H140.658V194.217C140.658 194.614 140.568 194.937 140.387 195.187C140.209 195.438 139.968 195.621 139.664 195.738C139.363 195.856 139.028 195.915 138.658 195.915ZM138.634 193.373C138.919 193.373 139.16 193.308 139.357 193.177C139.554 193.047 139.703 192.859 139.806 192.614C139.908 192.369 139.96 192.076 139.96 191.734C139.96 191.401 139.909 191.107 139.809 190.852C139.709 190.597 139.56 190.397 139.363 190.252C139.166 190.108 138.923 190.035 138.634 190.035C138.333 190.035 138.082 190.112 137.881 190.264C137.682 190.417 137.533 190.622 137.432 190.879C137.334 191.136 137.285 191.421 137.285 191.734C137.285 192.056 137.335 192.34 137.435 192.587C137.538 192.832 137.688 193.025 137.887 193.165C138.088 193.304 138.337 193.373 138.634 193.373ZM142.671 191.301V194.084H141.96V187.915H142.671V190.18H142.731C142.839 189.941 143.002 189.751 143.219 189.611C143.438 189.468 143.729 189.397 144.092 189.397C144.408 189.397 144.684 189.46 144.921 189.587C145.158 189.711 145.342 189.903 145.472 190.162C145.605 190.419 145.671 190.746 145.671 191.144V194.084H144.96V191.192C144.96 190.825 144.865 190.54 144.674 190.34C144.485 190.137 144.223 190.035 143.888 190.035C143.655 190.035 143.446 190.085 143.261 190.183C143.078 190.281 142.934 190.425 142.827 190.614C142.723 190.803 142.671 191.031 142.671 191.301ZM149.61 190.999C149.61 190.24 149.709 189.542 149.906 188.906C150.104 188.267 150.388 187.68 150.755 187.144H151.382C151.237 187.342 151.101 187.587 150.975 187.879C150.85 188.168 150.741 188.486 150.647 188.833C150.552 189.179 150.478 189.536 150.424 189.906C150.371 190.275 150.345 190.64 150.345 190.999C150.345 191.477 150.392 191.962 150.484 192.454C150.576 192.946 150.701 193.403 150.857 193.825C151.014 194.247 151.189 194.59 151.382 194.855H150.755C150.388 194.319 150.104 193.733 149.906 193.096C149.709 192.457 149.61 191.758 149.61 190.999ZM152.419 194.084V193.542L154.455 191.313C154.694 191.052 154.891 190.825 155.045 190.632C155.2 190.437 155.314 190.254 155.389 190.084C155.465 189.911 155.503 189.73 155.503 189.541C155.503 189.324 155.451 189.137 155.347 188.978C155.244 188.819 155.104 188.697 154.925 188.611C154.746 188.524 154.545 188.481 154.322 188.481C154.085 188.481 153.879 188.53 153.702 188.629C153.527 188.725 153.392 188.861 153.295 189.035C153.201 189.21 153.154 189.415 153.154 189.65H152.443C152.443 189.288 152.526 188.971 152.693 188.698C152.859 188.425 153.086 188.212 153.373 188.059C153.663 187.907 153.987 187.83 154.346 187.83C154.708 187.83 155.028 187.907 155.307 188.059C155.587 188.212 155.805 188.418 155.964 188.677C156.123 188.936 156.202 189.224 156.202 189.541C156.202 189.768 156.161 189.99 156.079 190.207C155.998 190.422 155.858 190.662 155.657 190.927C155.458 191.19 155.182 191.511 154.828 191.891L153.443 193.373V193.421H156.311V194.084H152.419ZM159.085 190.999C159.085 191.758 158.985 192.457 158.787 193.096C158.59 193.733 158.308 194.319 157.94 194.855H157.314C157.458 194.656 157.593 194.411 157.717 194.12C157.844 193.831 157.954 193.514 158.049 193.168C158.143 192.821 158.216 192.462 158.269 192.093C158.323 191.721 158.35 191.357 158.35 190.999C158.35 190.521 158.304 190.036 158.211 189.544C158.119 189.052 157.994 188.595 157.838 188.174C157.681 187.752 157.506 187.409 157.314 187.144H157.94C158.308 187.68 158.59 188.267 158.787 188.906C158.985 189.542 159.085 190.24 159.085 190.999Z" fill="#5D5E6C"/>
<path d="M170.694 189.008C170.694 187.669 171.779 186.584 173.118 186.584H178.271C179.609 186.584 180.694 187.669 180.694 189.008V194.16C180.694 195.499 179.609 196.584 178.271 196.584H173.118C171.779 196.584 170.694 195.499 170.694 194.16V189.008Z" fill="#10B981"/>
<path d="M186.289 194.084V187.915H187.036V193.421H189.904V194.084H186.289ZM192.844 194.18C192.426 194.18 192.06 194.081 191.744 193.882C191.431 193.683 191.186 193.405 191.009 193.048C190.835 192.69 190.747 192.273 190.747 191.795C190.747 191.313 190.835 190.892 191.009 190.532C191.186 190.173 191.431 189.894 191.744 189.695C192.06 189.496 192.426 189.397 192.844 189.397C193.262 189.397 193.627 189.496 193.94 189.695C194.256 189.894 194.501 190.173 194.675 190.532C194.852 190.892 194.941 191.313 194.941 191.795C194.941 192.273 194.852 192.69 194.675 193.048C194.501 193.405 194.256 193.683 193.94 193.882C193.627 194.081 193.262 194.18 192.844 194.18ZM192.844 193.542C193.161 193.542 193.422 193.46 193.627 193.298C193.832 193.135 193.984 192.921 194.082 192.656C194.18 192.391 194.23 192.104 194.23 191.795C194.23 191.485 194.18 191.197 194.082 190.93C193.984 190.663 193.832 190.447 193.627 190.282C193.422 190.118 193.161 190.035 192.844 190.035C192.527 190.035 192.266 190.118 192.061 190.282C191.856 190.447 191.704 190.663 191.606 190.93C191.507 191.197 191.458 191.485 191.458 191.795C191.458 192.104 191.507 192.391 191.606 192.656C191.704 192.921 191.856 193.135 192.061 193.298C192.266 193.46 192.527 193.542 192.844 193.542ZM196.917 194.084L195.507 189.457H196.254L197.254 193H197.302L198.29 189.457H199.049L200.025 192.987H200.074L201.074 189.457H201.821L200.411 194.084H199.712L198.7 190.529H198.628L197.615 194.084H196.917ZM205.399 190.999C205.399 190.24 205.498 189.542 205.695 188.906C205.893 188.267 206.177 187.68 206.544 187.144H207.171C207.026 187.342 206.89 187.587 206.764 187.879C206.639 188.168 206.53 188.486 206.436 188.833C206.341 189.179 206.267 189.536 206.213 189.906C206.16 190.275 206.134 190.64 206.134 190.999C206.134 191.477 206.181 191.962 206.273 192.454C206.365 192.946 206.49 193.403 206.646 193.825C206.803 194.247 206.978 194.59 207.171 194.855H206.544C206.177 194.319 205.893 193.733 205.695 193.096C205.498 192.457 205.399 191.758 205.399 190.999ZM208.208 194.084V193.542L210.244 191.313C210.483 191.052 210.68 190.825 210.834 190.632C210.989 190.437 211.103 190.254 211.178 190.084C211.254 189.911 211.292 189.73 211.292 189.541C211.292 189.324 211.24 189.137 211.136 188.978C211.033 188.819 210.893 188.697 210.714 188.611C210.535 188.524 210.334 188.481 210.111 188.481C209.874 188.481 209.668 188.53 209.491 188.629C209.316 188.725 209.181 188.861 209.084 189.035C208.99 189.21 208.943 189.415 208.943 189.65H208.232C208.232 189.288 208.315 188.971 208.482 188.698C208.648 188.425 208.875 188.212 209.163 188.059C209.452 187.907 209.776 187.83 210.136 187.83C210.497 187.83 210.817 187.907 211.096 188.059C211.376 188.212 211.594 188.418 211.753 188.677C211.912 188.936 211.991 189.224 211.991 189.541C211.991 189.768 211.95 189.99 211.868 190.207C211.787 190.422 211.647 190.662 211.446 190.927C211.247 191.19 210.971 191.511 210.617 191.891L209.232 193.373V193.421H212.1V194.084H208.208ZM214.874 190.999C214.874 191.758 214.775 192.457 214.576 193.096C214.379 193.733 214.097 194.319 213.729 194.855H213.103C213.247 194.656 213.382 194.411 213.506 194.12C213.633 193.831 213.743 193.514 213.838 193.168C213.932 192.821 214.005 192.462 214.058 192.093C214.112 191.721 214.139 191.357 214.139 190.999C214.139 190.521 214.093 190.036 214 189.544C213.908 189.052 213.783 188.595 213.627 188.174C213.47 187.752 213.295 187.409 213.103 187.144H213.729C214.097 187.68 214.379 188.267 214.576 188.906C214.775 189.542 214.874 190.24 214.874 190.999Z" fill="#5D5E6C"/>
</g>
<path d="M29.5 31.6946C29.5 26.6166 33.6166 22.5 38.6946 22.5H224.305C229.383 22.5 233.5 26.6166 233.5 31.6946V203.305C233.5 208.383 229.383 212.5 224.305 212.5H38.6946C33.6166 212.5 29.5 208.383 29.5 203.305V31.6946Z" stroke="#D9D9DE"/>
</g>
<defs>
<filter id="filter0_d_271_4995" x="0" y="0" width="263" height="249" filterUnits="userSpaceOnUse" color-interpolation-filters="sRGB">
<feFlood flood-opacity="0" result="BackgroundImageFix"/>
<feColorMatrix in="SourceAlpha" type="matrix" values="0 0 0 0 0 0 0 0 0 0 0 0 0 0 0 0 0 0 127 0" result="hardAlpha"/>
<feOffset dy="7"/>
<feGaussianBlur stdDeviation="14.5"/>
<feColorMatrix type="matrix" values="0 0 0 0 0.392157 0 0 0 0 0.392157 0 0 0 0 0.435294 0 0 0 0.2 0"/>
<feBlend mode="normal" in2="BackgroundImageFix" result="effect1_dropShadow_271_4995"/>
<feBlend mode="normal" in="SourceGraphic" in2="effect1_dropShadow_271_4995" result="shape"/>
</filter>
<clipPath id="clip0_271_4995">
<path d="M29 31.6946C29 26.3404 33.3404 22 38.6946 22H224.305C229.66 22 234 26.3404 234 31.6946V203.305C234 208.66 229.66 213 224.305 213H38.6946C33.3404 213 29 208.66 29 203.305V31.6946Z" fill="white"/>
</clipPath>
<clipPath id="clip1_271_4995">
<rect width="9.69458" height="9.69458" fill="white" transform="translate(43.2705 36.1523)"/>
</clipPath>
</defs>
</svg>
