<svg width="242" height="132" viewBox="0 0 242 132" fill="none" xmlns="http://www.w3.org/2000/svg">
<g filter="url(#filter0_d_283_147)">
<path d="M29 27.4925C29 24.4591 31.4591 22 34.4925 22H207.507C210.541 22 213 24.4591 213 27.4925V90.5075C213 93.5409 210.541 96 207.507 96H34.4925C31.4591 96 29 93.5409 29 90.5075V27.4925Z" fill="white"/>
<path d="M29.5 27.4925C29.5 24.7352 31.7352 22.5 34.4925 22.5H207.507C210.265 22.5 212.5 24.7352 212.5 27.4925V90.5075C212.5 93.2648 210.265 95.5 207.507 95.5H34.4925C31.7352 95.5 29.5 93.2648 29.5 90.5075V27.4925Z" stroke="#D9D9DE"/>
<g clip-path="url(#clip0_283_147)">
<path d="M67.9368 47H56.4102C56.4102 48.38 56.9584 49.7035 57.9342 50.6793C58.91 51.6551 60.2335 52.2033 61.6135 52.2033H63.7368V54.2533C63.7387 57.1245 66.0657 59.4515 68.9368 59.4533V48C68.9368 47.4477 68.4891 47 67.9368 47Z" fill="#2684FF"/>
<path d="M62.2337 52.7441H50.707C50.7089 55.6153 53.0359 57.9423 55.907 57.9441H58.0304V60.0008C58.034 62.8719 60.3626 65.1975 63.2337 65.1975V53.7441C63.2337 53.1919 62.786 52.7441 62.2337 52.7441Z" fill="url(#paint0_linear_283_147)"/>
<path d="M56.5267 58.4824H45C45 61.3561 47.3296 63.6858 50.2033 63.6858H52.3333V65.7358C52.3352 68.6043 54.6582 70.9302 57.5267 70.9358V59.4824C57.5267 58.9301 57.079 58.4824 56.5267 58.4824Z" fill="url(#paint1_linear_283_147)"/>
</g>
<path d="M82.7982 44.2982H84.1821V49.7135C84.1796 50.2099 84.0743 50.6374 83.8663 50.9959C83.6582 51.3519 83.3673 51.6264 82.9938 51.8195C82.6227 52.01 82.1903 52.1053 81.6964 52.1053C81.2451 52.1053 80.8389 52.0251 80.4779 51.8646C80.1194 51.7017 79.8349 51.461 79.6243 51.1426C79.4137 50.8242 79.3084 50.4281 79.3084 49.9542H80.696C80.6986 50.1623 80.7437 50.3416 80.8314 50.492C80.9217 50.6424 81.0458 50.7577 81.2037 50.838C81.3617 50.9182 81.5434 50.9583 81.749 50.9583C81.9721 50.9583 82.1614 50.9119 82.3169 50.8192C82.4723 50.7239 82.5901 50.5835 82.6704 50.398C82.7531 50.2124 82.7957 49.9843 82.7982 49.7135V44.2982ZM85.6356 52V46.2237H86.997V52H85.6356ZM86.3201 45.4039C86.1045 45.4039 85.9189 45.3324 85.7635 45.1895C85.608 45.0441 85.5303 44.8698 85.5303 44.6668C85.5303 44.4612 85.608 44.287 85.7635 44.144C85.9189 43.9986 86.1045 43.9259 86.3201 43.9259C86.5382 43.9259 86.7237 43.9986 86.8766 44.144C87.0321 44.287 87.1098 44.4612 87.1098 44.6668C87.1098 44.8698 87.0321 45.0441 86.8766 45.1895C86.7237 45.3324 86.5382 45.4039 86.3201 45.4039ZM88.3969 52V46.2237H89.7168V47.1864H89.777C89.8823 46.853 90.0628 46.596 90.3185 46.4155C90.5768 46.2325 90.8714 46.1409 91.2023 46.1409C91.2775 46.1409 91.3615 46.1447 91.4543 46.1522C91.5495 46.1572 91.6285 46.166 91.6912 46.1785V47.4308C91.6335 47.4108 91.542 47.3932 91.4167 47.3782C91.2938 47.3606 91.1747 47.3519 91.0594 47.3519C90.8112 47.3519 90.5881 47.4058 90.39 47.5136C90.1944 47.6189 90.0403 47.7655 89.9274 47.9536C89.8146 48.1416 89.7582 48.3585 89.7582 48.6042V52H88.3969ZM94.1544 52.1166C93.7884 52.1166 93.4587 52.0514 93.1653 51.921C92.8745 51.7882 92.6439 51.5926 92.4734 51.3344C92.3054 51.0761 92.2214 50.7577 92.2214 50.3792C92.2214 50.0532 92.2816 49.7837 92.4019 49.5706C92.5223 49.3575 92.6865 49.1871 92.8946 49.0592C93.1027 48.9313 93.3371 48.8348 93.5978 48.7696C93.8611 48.7019 94.1331 48.653 94.4139 48.623C94.7523 48.5879 95.0269 48.5565 95.2375 48.5289C95.448 48.4989 95.601 48.4537 95.6962 48.3936C95.794 48.3309 95.8429 48.2344 95.8429 48.104V48.0814C95.8429 47.7981 95.7589 47.5788 95.5909 47.4233C95.423 47.2679 95.181 47.1902 94.8651 47.1902C94.5317 47.1902 94.2672 47.2629 94.0717 47.4083C93.8786 47.5537 93.7482 47.7254 93.6806 47.9235L92.4095 47.743C92.5097 47.392 92.6752 47.0986 92.9059 46.863C93.1365 46.6248 93.4186 46.4468 93.752 46.329C94.0854 46.2086 94.454 46.1485 94.8576 46.1485C95.1359 46.1485 95.4129 46.1811 95.6887 46.2462C95.9645 46.3114 96.2165 46.4192 96.4446 46.5697C96.6728 46.7176 96.8558 46.9194 96.9937 47.1751C97.1341 47.4308 97.2043 47.7505 97.2043 48.1341V52H95.8956V51.2065H95.8504C95.7677 51.367 95.6511 51.5174 95.5007 51.6578C95.3528 51.7957 95.166 51.9072 94.9404 51.9925C94.7172 52.0752 94.4552 52.1166 94.1544 52.1166ZM94.5079 51.1163C94.7812 51.1163 95.0181 51.0624 95.2186 50.9545C95.4192 50.8442 95.5734 50.6988 95.6812 50.5183C95.7915 50.3378 95.8467 50.141 95.8467 49.9279V49.2472C95.8041 49.2823 95.7313 49.3149 95.6286 49.345C95.5283 49.3751 95.4155 49.4014 95.2901 49.424C95.1647 49.4465 95.0406 49.4666 94.9178 49.4841C94.7949 49.5017 94.6884 49.5167 94.5981 49.5293C94.3951 49.5568 94.2133 49.602 94.0529 49.6647C93.8924 49.7273 93.7658 49.8151 93.673 49.9279C93.5803 50.0382 93.5339 50.1811 93.5339 50.3566C93.5339 50.6073 93.6254 50.7966 93.8084 50.9245C93.9914 51.0523 94.2246 51.1163 94.5079 51.1163Z" fill="#0E0E11"/>
<path d="M79.6995 74V68.2237H81.6512C82.1044 68.2237 82.4748 68.3055 82.7625 68.4691C83.0521 68.6308 83.2664 68.8498 83.4056 69.1262C83.5447 69.4026 83.6143 69.711 83.6143 70.0513C83.6143 70.3917 83.5447 70.701 83.4056 70.9793C83.2683 71.2576 83.0558 71.4794 82.7681 71.6449C82.4805 71.8085 82.1119 71.8903 81.6625 71.8903H80.2636V71.2698H81.64C81.9502 71.2698 82.1994 71.2162 82.3874 71.109C82.5754 71.0018 82.7117 70.8571 82.7964 70.6747C82.8828 70.4904 82.9261 70.2826 82.9261 70.0513C82.9261 69.8201 82.8828 69.6132 82.7964 69.4308C82.7117 69.2484 82.5745 69.1055 82.3846 69.0021C82.1947 68.8968 81.9427 68.8442 81.6287 68.8442H80.399V74H79.6995ZM87.381 72.2287V69.6678H88.0467V74H87.381V73.2667H87.3359C87.2344 73.4867 87.0764 73.6738 86.8621 73.828C86.6477 73.9803 86.3769 74.0564 86.0498 74.0564C85.779 74.0564 85.5383 73.9972 85.3277 73.8787C85.1171 73.7584 84.9517 73.5779 84.8313 73.3372C84.711 73.0946 84.6508 72.7891 84.6508 72.4205V69.6678H85.3164V72.3754C85.3164 72.6913 85.4048 72.9433 85.5816 73.1313C85.7602 73.3193 85.9877 73.4133 86.2641 73.4133C86.4296 73.4133 86.5979 73.371 86.769 73.2864C86.942 73.2018 87.0868 73.0721 87.2033 72.8972C87.3218 72.7223 87.381 72.4995 87.381 72.2287ZM92.3345 70.638L91.7365 70.8072C91.6989 70.7076 91.6435 70.6107 91.5701 70.5167C91.4987 70.4208 91.4009 70.3418 91.2768 70.2798C91.1527 70.2177 90.9938 70.1867 90.8001 70.1867C90.535 70.1867 90.3141 70.2478 90.1373 70.3701C89.9625 70.4904 89.875 70.6436 89.875 70.8298C89.875 70.9953 89.9352 71.1259 90.0555 71.2218C90.1759 71.3177 90.3639 71.3976 90.6196 71.4616L91.2627 71.6195C91.65 71.7135 91.9387 71.8574 92.1286 72.0511C92.3185 72.2428 92.4135 72.4901 92.4135 72.7928C92.4135 73.041 92.342 73.2629 92.1991 73.4585C92.0581 73.654 91.8606 73.8082 91.6068 73.921C91.353 74.0338 91.0577 74.0903 90.7212 74.0903C90.2793 74.0903 89.9136 73.9944 89.624 73.8026C89.3344 73.6108 89.1511 73.3306 89.074 72.9621L89.7058 72.8041C89.766 73.0373 89.8797 73.2121 90.0471 73.3287C90.2163 73.4453 90.4372 73.5036 90.7099 73.5036C91.0201 73.5036 91.2665 73.4378 91.4489 73.3062C91.6331 73.1727 91.7253 73.0128 91.7253 72.8267C91.7253 72.6763 91.6726 72.5503 91.5673 72.4487C91.462 72.3453 91.3003 72.2682 91.0822 72.2175L90.3602 72.0482C89.9634 71.9542 89.672 71.8085 89.4858 71.6111C89.3015 71.4117 89.2094 71.1626 89.2094 70.8636C89.2094 70.6192 89.278 70.403 89.4153 70.2149C89.5544 70.0269 89.7434 69.8793 89.9822 69.7721C90.2229 69.6649 90.4955 69.6113 90.8001 69.6113C91.2289 69.6113 91.5654 69.7054 91.8099 69.8934C92.0562 70.0814 92.2311 70.3296 92.3345 70.638ZM94.0811 71.3939V74H93.4154V68.2237H94.0811V70.3447H94.1375C94.239 70.1209 94.3913 69.9432 94.5944 69.8116C94.7993 69.6781 95.072 69.6113 95.4123 69.6113C95.7075 69.6113 95.9661 69.6706 96.1879 69.789C96.4098 69.9056 96.5819 70.0852 96.7041 70.3277C96.8282 70.5684 96.8902 70.8749 96.8902 71.2472V74H96.2246V71.2923C96.2246 70.9483 96.1353 70.6822 95.9567 70.4942C95.7799 70.3042 95.5345 70.2093 95.2205 70.2093C95.0024 70.2093 94.8069 70.2554 94.6339 70.3475C94.4628 70.4396 94.3274 70.5741 94.2277 70.7508C94.1299 70.9276 94.0811 71.1419 94.0811 71.3939ZM102.271 69.6678V70.2319H99.9357V69.6678H102.271ZM100.635 74V69.0698C100.635 68.8216 100.693 68.6148 100.81 68.4493C100.927 68.2838 101.078 68.1597 101.264 68.077C101.45 67.9943 101.647 67.9529 101.854 67.9529C102.017 67.9529 102.151 67.9661 102.254 67.9924C102.357 68.0187 102.435 68.0432 102.485 68.0657L102.294 68.6411C102.26 68.6298 102.213 68.6157 102.153 68.5988C102.094 68.5819 102.017 68.5734 101.921 68.5734C101.701 68.5734 101.542 68.6289 101.445 68.7398C101.349 68.8508 101.301 69.0134 101.301 69.2278V74H100.635ZM103.204 74V69.6678H103.87V74H103.204ZM103.542 68.9457C103.413 68.9457 103.301 68.9015 103.207 68.8132C103.115 68.7248 103.068 68.6185 103.068 68.4944C103.068 68.3703 103.115 68.2641 103.207 68.1757C103.301 68.0874 103.413 68.0432 103.542 68.0432C103.672 68.0432 103.783 68.0874 103.875 68.1757C103.969 68.2641 104.016 68.3703 104.016 68.4944C104.016 68.6185 103.969 68.7248 103.875 68.8132C103.783 68.9015 103.672 68.9457 103.542 68.9457ZM105.754 71.3939V74H105.089V69.6678H105.732V70.3447H105.788C105.89 70.1247 106.044 69.9479 106.251 69.8144C106.458 69.679 106.725 69.6113 107.052 69.6113C107.345 69.6113 107.602 69.6715 107.822 69.7919C108.042 69.9103 108.213 70.0908 108.335 70.3334C108.457 70.5741 108.518 70.8787 108.518 71.2472V74H107.853V71.2923C107.853 70.952 107.764 70.6869 107.588 70.497C107.411 70.3052 107.168 70.2093 106.86 70.2093C106.647 70.2093 106.458 70.2554 106.29 70.3475C106.125 70.4396 105.994 70.5741 105.898 70.7508C105.802 70.9276 105.754 71.1419 105.754 71.3939ZM111.371 74.0903C111.01 74.0903 110.691 73.9991 110.414 73.8167C110.138 73.6324 109.922 73.3729 109.766 73.0382C109.61 72.7016 109.532 72.304 109.532 71.8452C109.532 71.3901 109.61 70.9953 109.766 70.6606C109.922 70.3259 110.139 70.0673 110.417 69.8849C110.696 69.7025 111.017 69.6113 111.382 69.6113C111.664 69.6113 111.887 69.6584 112.05 69.7524C112.216 69.8445 112.342 69.9498 112.428 70.0683C112.517 70.1848 112.585 70.2807 112.634 70.356H112.691V68.2237H113.356V74H112.713V73.3344H112.634C112.585 73.4133 112.516 73.513 112.425 73.6333C112.335 73.7518 112.206 73.858 112.039 73.9521C111.872 74.0442 111.649 74.0903 111.371 74.0903ZM111.461 73.4923C111.728 73.4923 111.953 73.4227 112.138 73.2836C112.322 73.1426 112.462 72.948 112.558 72.6998C112.654 72.4497 112.702 72.1611 112.702 71.8339C112.702 71.5105 112.655 71.2275 112.561 70.9849C112.467 70.7405 112.328 70.5506 112.143 70.4152C111.959 70.2779 111.732 70.2093 111.461 70.2093C111.179 70.2093 110.944 70.2817 110.756 70.4265C110.57 70.5694 110.429 70.764 110.335 71.0103C110.243 71.2547 110.197 71.5293 110.197 71.8339C110.197 72.1422 110.244 72.4224 110.338 72.6744C110.434 72.9245 110.575 73.1238 110.761 73.2723C110.949 73.419 111.183 73.4923 111.461 73.4923ZM114.668 74V69.6678H115.333V74H114.668ZM115.006 68.9457C114.876 68.9457 114.765 68.9015 114.67 68.8132C114.578 68.7248 114.532 68.6185 114.532 68.4944C114.532 68.3703 114.578 68.2641 114.67 68.1757C114.765 68.0874 114.876 68.0432 115.006 68.0432C115.136 68.0432 115.247 68.0874 115.339 68.1757C115.433 68.2641 115.48 68.3703 115.48 68.4944C115.48 68.6185 115.433 68.7248 115.339 68.8132C115.247 68.9015 115.136 68.9457 115.006 68.9457ZM117.218 71.3939V74H116.552V69.6678H117.196V70.3447H117.252C117.353 70.1247 117.508 69.9479 117.714 69.8144C117.921 69.679 118.188 69.6113 118.515 69.6113C118.809 69.6113 119.065 69.6715 119.285 69.7919C119.505 69.9103 119.677 70.0908 119.799 70.3334C119.921 70.5741 119.982 70.8787 119.982 71.2472V74H119.317V71.2923C119.317 70.952 119.228 70.6869 119.051 70.497C118.875 70.3052 118.632 70.2093 118.324 70.2093C118.111 70.2093 117.921 70.2554 117.754 70.3475C117.589 70.4396 117.458 70.5741 117.362 70.7508C117.266 70.9276 117.218 71.1419 117.218 71.3939ZM122.947 75.7148C122.626 75.7148 122.349 75.6735 122.118 75.5907C121.887 75.5099 121.694 75.4027 121.54 75.2692C121.387 75.1376 121.266 74.9966 121.176 74.8461L121.706 74.4738C121.766 74.5528 121.842 74.6431 121.935 74.7446C122.027 74.848 122.153 74.9373 122.313 75.0125C122.474 75.0896 122.686 75.1282 122.947 75.1282C123.297 75.1282 123.586 75.0436 123.813 74.8743C124.041 74.7051 124.154 74.44 124.154 74.079V73.199H124.098C124.049 73.278 123.979 73.3757 123.889 73.4923C123.801 73.607 123.673 73.7095 123.506 73.7997C123.34 73.8881 123.116 73.9323 122.834 73.9323C122.485 73.9323 122.171 73.8496 121.892 73.6841C121.616 73.5186 121.397 73.278 121.235 72.9621C121.075 72.6462 120.995 72.2626 120.995 71.8113C120.995 71.3676 121.073 70.9812 121.229 70.6521C121.386 70.3212 121.603 70.0654 121.881 69.8849C122.159 69.7025 122.481 69.6113 122.846 69.6113C123.128 69.6113 123.351 69.6584 123.517 69.7524C123.684 69.8445 123.812 69.9498 123.9 70.0683C123.991 70.1848 124.06 70.2807 124.109 70.356H124.177V69.6678H124.82V74.1241C124.82 74.4964 124.735 74.7991 124.566 75.0323C124.399 75.2673 124.173 75.4394 123.889 75.5484C123.607 75.6594 123.293 75.7148 122.947 75.7148ZM122.925 73.3344C123.192 73.3344 123.417 73.2733 123.602 73.151C123.786 73.0288 123.926 72.853 124.022 72.6236C124.118 72.3942 124.166 72.1197 124.166 71.8C124.166 71.4879 124.119 71.2124 124.025 70.9736C123.931 70.7348 123.791 70.5477 123.607 70.4124C123.423 70.277 123.195 70.2093 122.925 70.2093C122.643 70.2093 122.408 70.2807 122.219 70.4236C122.033 70.5665 121.893 70.7583 121.799 70.999C121.707 71.2397 121.661 71.5067 121.661 71.8C121.661 72.1009 121.708 72.3669 121.802 72.5982C121.898 72.8276 122.039 73.0081 122.225 73.1398C122.413 73.2695 122.646 73.3344 122.925 73.3344ZM129.107 70.638L128.509 70.8072C128.472 70.7076 128.416 70.6107 128.343 70.5167C128.271 70.4208 128.173 70.3418 128.049 70.2798C127.925 70.2177 127.766 70.1867 127.573 70.1867C127.308 70.1867 127.087 70.2478 126.91 70.3701C126.735 70.4904 126.648 70.6436 126.648 70.8298C126.648 70.9953 126.708 71.1259 126.828 71.2218C126.948 71.3177 127.137 71.3976 127.392 71.4616L128.035 71.6195C128.423 71.7135 128.711 71.8574 128.901 72.0511C129.091 72.2428 129.186 72.4901 129.186 72.7928C129.186 73.041 129.115 73.2629 128.972 73.4585C128.831 73.654 128.633 73.8082 128.379 73.921C128.126 74.0338 127.83 74.0903 127.494 74.0903C127.052 74.0903 126.686 73.9944 126.397 73.8026C126.107 73.6108 125.924 73.3306 125.847 72.9621L126.478 72.8041C126.539 73.0373 126.652 73.2121 126.82 73.3287C126.989 73.4453 127.21 73.5036 127.482 73.5036C127.793 73.5036 128.039 73.4378 128.221 73.3062C128.406 73.1727 128.498 73.0128 128.498 72.8267C128.498 72.6763 128.445 72.5503 128.34 72.4487C128.235 72.3453 128.073 72.2682 127.855 72.2175L127.133 72.0482C126.736 71.9542 126.445 71.8085 126.258 71.6111C126.074 71.4117 125.982 71.1626 125.982 70.8636C125.982 70.6192 126.051 70.403 126.188 70.2149C126.327 70.0269 126.516 69.8793 126.755 69.7721C126.995 69.6649 127.268 69.6113 127.573 69.6113C128.001 69.6113 128.338 69.7054 128.582 69.8934C128.829 70.0814 129.004 70.3296 129.107 70.638ZM133.697 74.1015C133.422 74.1015 133.173 74.0498 132.949 73.9464C132.726 73.8411 132.548 73.6897 132.416 73.4923C132.285 73.293 132.219 73.0523 132.219 72.7703C132.219 72.5221 132.268 72.3209 132.365 72.1667C132.463 72.0106 132.594 71.8884 132.757 71.8C132.921 71.7117 133.102 71.6458 133.299 71.6026C133.498 71.5575 133.699 71.5217 133.9 71.4954C134.163 71.4616 134.376 71.4362 134.54 71.4193C134.705 71.4005 134.826 71.3694 134.901 71.3262C134.978 71.2829 135.017 71.2077 135.017 71.1006V71.078C135.017 70.7997 134.941 70.5835 134.788 70.4293C134.638 70.2751 134.409 70.198 134.103 70.198C133.785 70.198 133.536 70.2676 133.355 70.4067C133.175 70.5459 133.048 70.6944 132.975 70.8524L132.343 70.6267C132.456 70.3635 132.606 70.1585 132.794 70.0119C132.984 69.8633 133.191 69.7599 133.415 69.7016C133.64 69.6414 133.862 69.6113 134.08 69.6113C134.219 69.6113 134.379 69.6283 134.56 69.6621C134.742 69.6941 134.918 69.7608 135.087 69.8624C135.258 69.9639 135.4 70.1172 135.513 70.3221C135.626 70.5271 135.682 70.8016 135.682 71.1457V74H135.017V73.4133H134.983C134.938 73.5074 134.862 73.608 134.757 73.7151C134.652 73.8223 134.512 73.9135 134.337 73.9887C134.162 74.0639 133.949 74.1015 133.697 74.1015ZM133.798 73.5036C134.061 73.5036 134.283 73.4519 134.464 73.3485C134.646 73.2451 134.784 73.1116 134.876 72.948C134.97 72.7844 135.017 72.6123 135.017 72.4318V71.8226C134.988 71.8564 134.926 71.8875 134.831 71.9157C134.736 71.942 134.627 71.9655 134.503 71.9862C134.381 72.005 134.262 72.0219 134.145 72.037C134.03 72.0501 133.937 72.0614 133.866 72.0708C133.693 72.0934 133.531 72.13 133.381 72.1808C133.232 72.2297 133.112 72.304 133.02 72.4036C132.93 72.5014 132.884 72.6349 132.884 72.8041C132.884 73.0354 132.97 73.2103 133.141 73.3287C133.314 73.4453 133.533 73.5036 133.798 73.5036ZM139.966 70.638L139.368 70.8072C139.33 70.7076 139.275 70.6107 139.202 70.5167C139.13 70.4208 139.032 70.3418 138.908 70.2798C138.784 70.2177 138.625 70.1867 138.432 70.1867C138.166 70.1867 137.945 70.2478 137.769 70.3701C137.594 70.4904 137.506 70.6436 137.506 70.8298C137.506 70.9953 137.567 71.1259 137.687 71.2218C137.807 71.3177 137.995 71.3976 138.251 71.4616L138.894 71.6195C139.281 71.7135 139.57 71.8574 139.76 72.0511C139.95 72.2428 140.045 72.4901 140.045 72.7928C140.045 73.041 139.973 73.2629 139.831 73.4585C139.689 73.654 139.492 73.8082 139.238 73.921C138.984 74.0338 138.689 74.0903 138.353 74.0903C137.911 74.0903 137.545 73.9944 137.255 73.8026C136.966 73.6108 136.783 73.3306 136.705 72.9621L137.337 72.8041C137.397 73.0373 137.511 73.2121 137.678 73.3287C137.848 73.4453 138.069 73.5036 138.341 73.5036C138.652 73.5036 138.898 73.4378 139.08 73.3062C139.265 73.1727 139.357 73.0128 139.357 72.8267C139.357 72.6763 139.304 72.5503 139.199 72.4487C139.093 72.3453 138.932 72.2682 138.714 72.2175L137.992 72.0482C137.595 71.9542 137.303 71.8085 137.117 71.6111C136.933 71.4117 136.841 71.1626 136.841 70.8636C136.841 70.6192 136.909 70.403 137.047 70.2149C137.186 70.0269 137.375 69.8793 137.614 69.7721C137.854 69.6649 138.127 69.6113 138.432 69.6113C138.86 69.6113 139.197 69.7054 139.441 69.8934C139.688 70.0814 139.862 70.3296 139.966 70.638ZM143.281 74V69.6678H143.946V74H143.281ZM143.619 68.9457C143.489 68.9457 143.377 68.9015 143.283 68.8132C143.191 68.7248 143.145 68.6185 143.145 68.4944C143.145 68.3703 143.191 68.2641 143.283 68.1757C143.377 68.0874 143.489 68.0432 143.619 68.0432C143.749 68.0432 143.86 68.0874 143.952 68.1757C144.046 68.2641 144.093 68.3703 144.093 68.4944C144.093 68.6185 144.046 68.7248 143.952 68.8132C143.86 68.9015 143.749 68.9457 143.619 68.9457ZM148.234 70.638L147.636 70.8072C147.599 70.7076 147.543 70.6107 147.47 70.5167C147.398 70.4208 147.301 70.3418 147.176 70.2798C147.052 70.2177 146.893 70.1867 146.7 70.1867C146.435 70.1867 146.214 70.2478 146.037 70.3701C145.862 70.4904 145.775 70.6436 145.775 70.8298C145.775 70.9953 145.835 71.1259 145.955 71.2218C146.075 71.3177 146.264 71.3976 146.519 71.4616L147.162 71.6195C147.55 71.7135 147.838 71.8574 148.028 72.0511C148.218 72.2428 148.313 72.4901 148.313 72.7928C148.313 73.041 148.242 73.2629 148.099 73.4585C147.958 73.654 147.76 73.8082 147.506 73.921C147.253 74.0338 146.957 74.0903 146.621 74.0903C146.179 74.0903 145.813 73.9944 145.524 73.8026C145.234 73.6108 145.051 73.3306 144.974 72.9621L145.605 72.8041C145.666 73.0373 145.779 73.2121 145.947 73.3287C146.116 73.4453 146.337 73.5036 146.61 73.5036C146.92 73.5036 147.166 73.4378 147.348 73.3062C147.533 73.1727 147.625 73.0128 147.625 72.8267C147.625 72.6763 147.572 72.5503 147.467 72.4487C147.362 72.3453 147.2 72.2682 146.982 72.2175L146.26 72.0482C145.863 71.9542 145.572 71.8085 145.385 71.6111C145.201 71.4117 145.109 71.1626 145.109 70.8636C145.109 70.6192 145.178 70.403 145.315 70.2149C145.454 70.0269 145.643 69.8793 145.882 69.7721C146.123 69.6649 146.395 69.6113 146.7 69.6113C147.128 69.6113 147.465 69.7054 147.709 69.8934C147.956 70.0814 148.131 70.3296 148.234 70.638ZM152.384 70.638L151.786 70.8072C151.748 70.7076 151.693 70.6107 151.619 70.5167C151.548 70.4208 151.45 70.3418 151.326 70.2798C151.202 70.2177 151.043 70.1867 150.849 70.1867C150.584 70.1867 150.363 70.2478 150.187 70.3701C150.012 70.4904 149.924 70.6436 149.924 70.8298C149.924 70.9953 149.984 71.1259 150.105 71.2218C150.225 71.3177 150.413 71.3976 150.669 71.4616L151.312 71.6195C151.699 71.7135 151.988 71.8574 152.178 72.0511C152.368 72.2428 152.463 72.4901 152.463 72.7928C152.463 73.041 152.391 73.2629 152.248 73.4585C152.107 73.654 151.91 73.8082 151.656 73.921C151.402 74.0338 151.107 74.0903 150.77 74.0903C150.329 74.0903 149.963 73.9944 149.673 73.8026C149.384 73.6108 149.2 73.3306 149.123 72.9621L149.755 72.8041C149.815 73.0373 149.929 73.2121 150.096 73.3287C150.266 73.4453 150.486 73.5036 150.759 73.5036C151.069 73.5036 151.316 73.4378 151.498 73.3062C151.682 73.1727 151.774 73.0128 151.774 72.8267C151.774 72.6763 151.722 72.5503 151.617 72.4487C151.511 72.3453 151.35 72.2682 151.131 72.2175L150.409 72.0482C150.013 71.9542 149.721 71.8085 149.535 71.6111C149.351 71.4117 149.259 71.1626 149.259 70.8636C149.259 70.6192 149.327 70.403 149.465 70.2149C149.604 70.0269 149.793 69.8793 150.031 69.7721C150.272 69.6649 150.545 69.6113 150.849 69.6113C151.278 69.6113 151.615 69.7054 151.859 69.8934C152.105 70.0814 152.28 70.3296 152.384 70.638ZM156.195 72.2287V69.6678H156.861V74H156.195V73.2667H156.15C156.048 73.4867 155.89 73.6738 155.676 73.828C155.462 73.9803 155.191 74.0564 154.864 74.0564C154.593 74.0564 154.352 73.9972 154.142 73.8787C153.931 73.7584 153.766 73.5779 153.645 73.3372C153.525 73.0946 153.465 72.7891 153.465 72.4205V69.6678H154.13V72.3754C154.13 72.6913 154.219 72.9433 154.395 73.1313C154.574 73.3193 154.802 73.4133 155.078 73.4133C155.243 73.4133 155.412 73.371 155.583 73.2864C155.756 73.2018 155.901 73.0721 156.017 72.8972C156.136 72.7223 156.195 72.4995 156.195 72.2287ZM159.896 74.0903C159.479 74.0903 159.119 73.9981 158.816 73.8138C158.515 73.6277 158.283 73.3682 158.119 73.0354C157.957 72.7007 157.877 72.3115 157.877 71.8677C157.877 71.424 157.957 71.0329 158.119 70.6944C158.283 70.3541 158.51 70.0889 158.802 69.899C159.095 69.7072 159.437 69.6113 159.828 69.6113C160.054 69.6113 160.277 69.649 160.497 69.7242C160.717 69.7994 160.917 69.9216 161.098 70.0908C161.278 70.2582 161.422 70.4801 161.529 70.7565C161.636 71.0329 161.69 71.3732 161.69 71.7775V72.0595H158.35V71.4841H161.013C161.013 71.2397 160.964 71.0216 160.866 70.8298C160.77 70.638 160.633 70.4866 160.454 70.3757C160.278 70.2648 160.069 70.2093 159.828 70.2093C159.563 70.2093 159.334 70.2751 159.14 70.4067C158.948 70.5365 158.801 70.7057 158.697 70.9144C158.594 71.1231 158.542 71.3469 158.542 71.5857V71.9693C158.542 72.2964 158.599 72.5738 158.711 72.8013C158.826 73.0269 158.985 73.199 159.188 73.3174C159.391 73.434 159.627 73.4923 159.896 73.4923C160.071 73.4923 160.229 73.4679 160.37 73.419C160.513 73.3682 160.636 73.293 160.739 73.1933C160.843 73.0918 160.923 72.9658 160.979 72.8154L161.622 72.9959C161.554 73.214 161.441 73.4058 161.281 73.5713C161.121 73.7349 160.924 73.8627 160.689 73.9549C160.454 74.0451 160.189 74.0903 159.896 74.0903ZM165.771 70.638L165.173 70.8072C165.136 70.7076 165.08 70.6107 165.007 70.5167C164.935 70.4208 164.838 70.3418 164.713 70.2798C164.589 70.2177 164.43 70.1867 164.237 70.1867C163.972 70.1867 163.751 70.2478 163.574 70.3701C163.399 70.4904 163.312 70.6436 163.312 70.8298C163.312 70.9953 163.372 71.1259 163.492 71.2218C163.612 71.3177 163.801 71.3976 164.056 71.4616L164.699 71.6195C165.087 71.7135 165.375 71.8574 165.565 72.0511C165.755 72.2428 165.85 72.4901 165.85 72.7928C165.85 73.041 165.779 73.2629 165.636 73.4585C165.495 73.654 165.297 73.8082 165.043 73.921C164.79 74.0338 164.494 74.0903 164.158 74.0903C163.716 74.0903 163.35 73.9944 163.061 73.8026C162.771 73.6108 162.588 73.3306 162.511 72.9621L163.142 72.8041C163.203 73.0373 163.316 73.2121 163.484 73.3287C163.653 73.4453 163.874 73.5036 164.146 73.5036C164.457 73.5036 164.703 73.4378 164.885 73.3062C165.07 73.1727 165.162 73.0128 165.162 72.8267C165.162 72.6763 165.109 72.5503 165.004 72.4487C164.899 72.3453 164.737 72.2682 164.519 72.2175L163.797 72.0482C163.4 71.9542 163.109 71.8085 162.922 71.6111C162.738 71.4117 162.646 71.1626 162.646 70.8636C162.646 70.6192 162.715 70.403 162.852 70.2149C162.991 70.0269 163.18 69.8793 163.419 69.7721C163.659 69.6649 163.932 69.6113 164.237 69.6113C164.665 69.6113 165.002 69.7054 165.246 69.8934C165.493 70.0814 165.668 70.3296 165.771 70.638ZM169.086 74V69.6678H169.751V74H169.086ZM169.424 68.9457C169.295 68.9457 169.183 68.9015 169.089 68.8132C168.997 68.7248 168.95 68.6185 168.95 68.4944C168.95 68.3703 168.997 68.2641 169.089 68.1757C169.183 68.0874 169.295 68.0432 169.424 68.0432C169.554 68.0432 169.665 68.0874 169.757 68.1757C169.851 68.2641 169.898 68.3703 169.898 68.4944C169.898 68.6185 169.851 68.7248 169.757 68.8132C169.665 68.9015 169.554 68.9457 169.424 68.9457ZM171.636 71.3939V74H170.971V69.6678H171.614V70.3447H171.67C171.772 70.1247 171.926 69.9479 172.133 69.8144C172.339 69.679 172.606 69.6113 172.934 69.6113C173.227 69.6113 173.484 69.6715 173.704 69.7919C173.924 69.9103 174.095 70.0908 174.217 70.3334C174.339 70.5741 174.4 70.8787 174.4 71.2472V74H173.735V71.2923C173.735 70.952 173.646 70.6869 173.47 70.497C173.293 70.3052 173.05 70.2093 172.742 70.2093C172.529 70.2093 172.339 70.2554 172.172 70.3475C172.007 70.4396 171.876 70.5741 171.78 70.7508C171.684 70.9276 171.636 71.1419 171.636 71.3939ZM180.152 68.2237H180.851V72.3528C180.851 72.7214 180.784 73.0345 180.648 73.2921C180.513 73.5497 180.322 73.7452 180.076 73.8787C179.829 74.0122 179.539 74.079 179.204 74.079C178.888 74.079 178.607 74.0216 178.361 73.9069C178.115 73.7903 177.921 73.6249 177.78 73.4105C177.639 73.1962 177.568 72.9414 177.568 72.6462H178.257C178.257 72.8098 178.297 72.9527 178.378 73.0749C178.461 73.1952 178.573 73.2892 178.716 73.3569C178.859 73.4246 179.022 73.4585 179.204 73.4585C179.405 73.4585 179.577 73.4162 179.718 73.3315C179.859 73.2469 179.966 73.1228 180.039 72.9592C180.114 72.7938 180.152 72.5916 180.152 72.3528V68.2237ZM182.163 74V69.6678H182.829V74H182.163ZM182.501 68.9457C182.372 68.9457 182.26 68.9015 182.166 68.8132C182.074 68.7248 182.028 68.6185 182.028 68.4944C182.028 68.3703 182.074 68.2641 182.166 68.1757C182.26 68.0874 182.372 68.0432 182.501 68.0432C182.631 68.0432 182.742 68.0874 182.834 68.1757C182.928 68.2641 182.975 68.3703 182.975 68.4944C182.975 68.6185 182.928 68.7248 182.834 68.8132C182.742 68.9015 182.631 68.9457 182.501 68.9457ZM184.048 74V69.6678H184.691V70.3221H184.736C184.815 70.1078 184.958 69.9338 185.165 69.8003C185.371 69.6668 185.605 69.6001 185.864 69.6001C185.913 69.6001 185.974 69.601 186.047 69.6029C186.121 69.6048 186.176 69.6076 186.214 69.6113V70.2883C186.191 70.2826 186.14 70.2742 186.059 70.2629C185.98 70.2497 185.896 70.2431 185.808 70.2431C185.597 70.2431 185.409 70.2873 185.244 70.3757C185.08 70.4622 184.95 70.5825 184.854 70.7367C184.76 70.889 184.713 71.0629 184.713 71.2585V74H184.048ZM188.278 74.1015C188.003 74.1015 187.754 74.0498 187.53 73.9464C187.307 73.8411 187.129 73.6897 186.997 73.4923C186.866 73.293 186.8 73.0523 186.8 72.7703C186.8 72.5221 186.849 72.3209 186.946 72.1667C187.044 72.0106 187.175 71.8884 187.339 71.8C187.502 71.7117 187.683 71.6458 187.88 71.6026C188.079 71.5575 188.28 71.5217 188.481 71.4954C188.744 71.4616 188.957 71.4362 189.121 71.4193C189.287 71.4005 189.407 71.3694 189.482 71.3262C189.559 71.2829 189.598 71.2077 189.598 71.1006V71.078C189.598 70.7997 189.522 70.5835 189.369 70.4293C189.219 70.2751 188.99 70.198 188.684 70.198C188.366 70.198 188.117 70.2676 187.936 70.4067C187.756 70.5459 187.629 70.6944 187.556 70.8524L186.924 70.6267C187.037 70.3635 187.187 70.1585 187.375 70.0119C187.565 69.8633 187.772 69.7599 187.996 69.7016C188.221 69.6414 188.443 69.6113 188.661 69.6113C188.8 69.6113 188.96 69.6283 189.141 69.6621C189.323 69.6941 189.499 69.7608 189.668 69.8624C189.839 69.9639 189.981 70.1172 190.094 70.3221C190.207 70.5271 190.263 70.8016 190.263 71.1457V74H189.598V73.4133H189.564C189.519 73.5074 189.444 73.608 189.338 73.7151C189.233 73.8223 189.093 73.9135 188.918 73.9887C188.743 74.0639 188.53 74.1015 188.278 74.1015ZM188.379 73.5036C188.643 73.5036 188.864 73.4519 189.045 73.3485C189.227 73.2451 189.365 73.1116 189.457 72.948C189.551 72.7844 189.598 72.6123 189.598 72.4318V71.8226C189.57 71.8564 189.507 71.8875 189.412 71.9157C189.318 71.942 189.208 71.9655 189.084 71.9862C188.962 72.005 188.843 72.0219 188.726 72.037C188.611 72.0501 188.518 72.0614 188.447 72.0708C188.274 72.0934 188.112 72.13 187.962 72.1808C187.813 72.2297 187.693 72.304 187.601 72.4036C187.511 72.5014 187.465 72.6349 187.465 72.8041C187.465 73.0354 187.551 73.2103 187.722 73.3287C187.895 73.4453 188.114 73.5036 188.379 73.5036Z" fill="#5D5E6C"/>
</g>
<defs>
<filter id="filter0_d_283_147" x="0" y="0" width="242" height="132" filterUnits="userSpaceOnUse" color-interpolation-filters="sRGB">
<feFlood flood-opacity="0" result="BackgroundImageFix"/>
<feColorMatrix in="SourceAlpha" type="matrix" values="0 0 0 0 0 0 0 0 0 0 0 0 0 0 0 0 0 0 127 0" result="hardAlpha"/>
<feOffset dy="7"/>
<feGaussianBlur stdDeviation="14.5"/>
<feColorMatrix type="matrix" values="0 0 0 0 0.392157 0 0 0 0 0.392157 0 0 0 0 0.435294 0 0 0 0.2 0"/>
<feBlend mode="normal" in2="BackgroundImageFix" result="effect1_dropShadow_283_147"/>
<feBlend mode="normal" in="SourceGraphic" in2="effect1_dropShadow_283_147" result="shape"/>
</filter>
<linearGradient id="paint0_linear_283_147" x1="1278.71" y1="54.7442" x2="791.358" y2="563.27" gradientUnits="userSpaceOnUse">
<stop offset="0.18" stop-color="#0052CC"/>
<stop offset="1" stop-color="#2684FF"/>
</linearGradient>
<linearGradient id="paint1_linear_283_147" x1="1306" y1="64.149" x2="742.256" y2="618.792" gradientUnits="userSpaceOnUse">
<stop offset="0.18" stop-color="#0052CC"/>
<stop offset="1" stop-color="#2684FF"/>
</linearGradient>
<clipPath id="clip0_283_147">
<rect width="24" height="24" fill="white" transform="translate(45 47)"/>
</clipPath>
</defs>
</svg>
