<svg width="45" height="45" viewBox="0 0 45 45" fill="none" xmlns="http://www.w3.org/2000/svg">
<g clip-path="url(#clip0_580_16955)">
<path d="M16.5655 10.306C16.9255 10.2532 17.1745 9.91854 17.1217 9.55863C16.9496 8.38448 16.9173 7.37278 16.9203 6.73373C17.2902 6.7803 17.6422 6.80147 17.9774 6.80147C20.2785 6.8013 21.7662 5.80129 22.4942 5.14537C23.3292 5.89768 25.1626 7.1025 28.0766 6.73267C28.0895 7.62048 28.0367 9.24029 27.6096 11.0299C26.7993 14.4258 25.0764 16.8638 22.4866 18.2813C20.2938 17.135 18.7151 15.1612 17.7915 12.4095C17.6758 12.0645 17.3023 11.8788 16.9573 11.9945C16.6124 12.1103 16.4266 12.4837 16.5423 12.8287C17.6241 16.0521 19.5311 18.3358 22.2101 19.6161C22.3 19.6591 22.3971 19.6805 22.4942 19.6805C22.5962 19.6805 22.6982 19.6568 22.7916 19.6096C25.872 18.0515 27.9845 15.1766 28.9007 11.2958C29.5828 8.40688 29.368 5.99899 29.3585 5.89786C29.3409 5.71105 29.2446 5.54041 29.0935 5.42909C28.9424 5.31767 28.7509 5.27585 28.5673 5.31469C24.8396 6.0974 23.0914 3.89107 23.0212 3.79987C22.8967 3.63415 22.7015 3.53662 22.4943 3.53662C22.287 3.53662 22.0919 3.63415 21.9675 3.79987C21.9501 3.82307 20.187 6.10452 16.4213 5.31469C16.2359 5.27585 16.0429 5.31855 15.8912 5.43199C15.7397 5.54551 15.6442 5.7187 15.6292 5.90743C15.6239 5.97518 15.5015 7.59139 15.8181 9.74983C15.8709 10.1097 16.2055 10.3586 16.5655 10.306Z" fill="white"/>
<path d="M42.6488 7.56065H32.3197C32.4843 5.0445 32.2561 3.25967 32.2421 3.15362C32.218 2.97191 32.1192 2.80839 31.9697 2.70251C31.82 2.59654 31.6332 2.55788 31.4536 2.59549C29.0744 3.09475 26.936 2.85601 25.0978 1.88571C23.7211 1.15914 23.032 0.269051 23.0268 0.262285C22.9029 0.0973597 22.7081 0.000970217 22.5018 9.15527e-05C22.5009 9.15527e-05 22.5 9.15527e-05 22.4991 9.15527e-05C22.2937 9.15527e-05 22.0993 0.0968325 21.9746 0.260176C21.9678 0.269051 21.2787 1.15914 19.902 1.88571C18.0638 2.85601 15.9254 3.09466 13.5461 2.59549C13.3668 2.5578 13.1797 2.59663 13.0301 2.70251C12.8804 2.80848 12.7818 2.972 12.7577 3.15362C12.7436 3.25967 12.5155 5.04459 12.6801 7.56065H2.35062C1.05986 7.56065 0.00976562 8.61074 0.00976562 9.9015V36.2974C0.00976562 37.5881 1.05986 38.6382 2.35062 38.6382H18.5237C18.3138 39.8271 17.828 42.1675 17.0402 43.6824H13.379C13.0151 43.6824 12.7202 43.9772 12.7202 44.3412C12.7202 44.7051 13.0151 45 13.379 45H31.6202C31.9841 45 32.2791 44.7051 32.2791 44.3412C32.2791 43.9773 31.9841 43.6824 31.6202 43.6824H27.959C27.1712 42.1674 26.6854 39.8271 26.4756 38.6382H42.6486C43.9394 38.6382 44.9895 37.5881 44.9895 36.2974V9.9015C44.9896 8.61074 43.9396 7.56065 42.6488 7.56065ZM14.0007 4.01691C17.0139 4.47987 19.2255 3.74663 20.5842 3.01514C21.4603 2.54347 22.0967 2.01698 22.5 1.62799C22.9033 2.01698 23.5396 2.54347 24.4157 3.01514C25.7744 3.74672 27.9859 4.48014 30.9997 4.01682C31.087 5.24317 31.1675 7.9578 30.5304 10.9679C30.0281 13.3416 29.1835 15.4228 28.0202 17.1533C26.6312 19.2195 24.7751 20.7944 22.5 21.8377C20.2313 20.7973 18.379 19.2282 16.9915 17.1707C15.8282 15.4457 14.9823 13.3711 14.4773 11.0046C13.8335 7.98759 13.9137 5.25037 14.0007 4.01691ZM1.32741 9.9015C1.32741 9.33731 1.78642 8.87829 2.35062 8.87829H12.7984C12.8614 9.42895 12.9445 10.0029 13.0526 10.5923H4.5232C3.66993 10.5923 2.97579 11.2864 2.97579 12.1397V32.9637H1.32741V9.9015ZM26.5036 43.6824H18.4958C19.2518 41.9294 19.6878 39.6791 19.8619 38.6382H25.1375C25.3117 39.6791 25.7477 41.9294 26.5036 43.6824ZM43.6721 36.2973C43.6721 36.8615 43.2131 37.3205 42.6489 37.3205H2.35062C1.78642 37.3205 1.32741 36.8615 1.32741 36.2973V34.2814H43.672V36.2973H43.6721ZM43.6721 32.9638H42.0237V22.7356C42.0237 22.3718 41.7287 22.0768 41.3649 22.0768C41.001 22.0768 40.7061 22.3718 40.7061 22.7356V32.9638H4.29334V12.1397C4.29334 12.013 4.3965 11.9099 4.52311 11.9099H13.3335C13.8834 14.1744 14.74 16.1834 15.8861 17.8885C17.4708 20.2457 19.6075 22.0205 22.2372 23.1634C22.3908 23.2302 22.6004 23.2339 22.7624 23.1634C25.392 22.0205 27.5288 20.2457 29.1135 17.8885C30.2596 16.1834 31.1162 14.1744 31.6661 11.9099H40.4763C40.603 11.9099 40.7061 12.013 40.7061 12.1397V19.7197C40.7061 20.0835 41.001 20.3785 41.3649 20.3785C41.7287 20.3785 42.0237 20.0836 42.0237 19.7197V12.1397C42.0237 11.2864 41.3296 10.5923 40.4763 10.5923H31.9473C32.0554 10.0029 32.1385 9.42895 32.2015 8.87829H42.6488C43.213 8.87829 43.672 9.33731 43.672 9.9015V32.9638H43.6721Z" fill="white"/>
<path d="M35.172 25.1582H9.82874C9.46489 25.1582 9.16992 25.4531 9.16992 25.817V28.3429C9.16992 28.7067 9.46489 29.0017 9.82874 29.0017H35.172C35.5358 29.0017 35.8308 28.7067 35.8308 28.3429V25.817C35.8307 25.4531 35.5358 25.1582 35.172 25.1582ZM29.231 27.6841H10.4876V26.4758H29.231V27.6841ZM34.5132 27.6841H30.5486V26.4758H34.5132V27.6841Z" fill="white"/>
</g>
<defs>
<clipPath id="clip0_580_16955">
<rect width="45" height="45" fill="white"/>
</clipPath>
</defs>
</svg>
