<svg width="45" height="45" viewBox="0 0 45 45" fill="none" xmlns="http://www.w3.org/2000/svg">
<g clip-path="url(#clip0_529_25244)">
<path d="M44.3408 36.3996C43.9768 36.3996 43.6816 36.6947 43.6816 37.0588V39.3295C43.6816 39.6846 43.3927 39.9734 43.0378 39.9734H41.2298V37.7556C41.2298 37.3915 40.9347 37.0964 40.5707 37.0964C40.2066 37.0964 39.9115 37.3915 39.9115 37.7556V39.9734H36.9119L35.8837 33.6271L36.6761 32.3491C37.3479 32.4128 37.9876 32.1349 38.407 31.618C39.8577 29.8133 39.858 29.8676 39.9624 29.6507C39.9735 29.6543 39.9851 29.6572 39.9965 29.6602C42.6265 30.9575 43.3799 32.9067 43.5864 34.0821C43.6496 34.4425 43.9928 34.68 44.3496 34.6174C44.7082 34.5544 44.9478 34.2127 44.8848 33.8541C44.4083 31.141 42.5432 29.5412 40.8248 28.6235C40.8256 25.7462 40.8287 14.2413 40.8292 12.4378C40.8292 10.489 39.2437 8.90355 37.2949 8.90355H29.5182V7.47533C29.5182 5.39812 27.8283 3.70825 25.7512 3.70825H15.0781C13.0009 3.70825 11.311 5.39821 11.311 7.47533V8.90355H8.39892C8.03487 8.90355 7.73974 9.1986 7.73974 9.56273C7.73974 9.92687 8.03487 10.2219 8.39892 10.2219H37.295C38.5168 10.2219 39.511 11.216 39.511 12.4376L39.5108 12.9569C38.8263 12.352 37.9281 11.9838 36.945 11.9838H29.3926C28.5985 11.9838 27.9524 12.6299 27.9524 13.424C27.9524 14.0685 28.1263 14.6729 28.4285 15.194C28.1186 15.7302 27.9562 16.3337 27.9562 16.9642C27.9559 17.2794 27.9574 15.6446 27.9524 21.0961C27.9493 21.8157 28.4535 22.4097 29.1153 22.551C29.13 22.66 29.1494 22.7675 29.1708 22.8742H26.1197V22.3166C26.1197 21.2556 25.2564 20.3923 24.1953 20.3923H16.6338C15.5727 20.3923 14.7095 21.2555 14.7095 22.3166V22.8742H8.23913C4.42301 22.8742 1.31836 19.7696 1.31836 15.9534V12.4379C1.31836 11.216 2.3124 10.222 3.53426 10.222H5.31721C5.68125 10.222 5.97639 9.92695 5.97639 9.56282C5.97639 9.19869 5.68125 8.90364 5.31721 8.90364H3.53426C1.58546 8.90364 0 10.4891 0 12.4379V34.6288C0 36.5777 1.58546 38.1631 3.53426 38.1631H23.786V39.3295C23.786 40.4116 24.6663 41.2918 25.7483 41.2918H43.0377C44.1197 41.2918 44.9999 40.4115 44.9999 39.3295V37.0588C45 36.6947 44.7049 36.3996 44.3408 36.3996ZM12.6294 7.47542C12.6294 6.12524 13.7279 5.0267 15.0781 5.0267H25.7513C27.1014 5.0267 28.2 6.12524 28.2 7.47542V8.90364H12.6294V7.47542ZM31.3985 30.7874L30.1229 29.2152L30.9852 28.828C31.0755 28.7876 31.1806 28.7983 31.2607 28.856L33.2201 30.3834L32.2654 30.9443C31.9837 31.1097 31.6156 31.0552 31.3985 30.7874ZM30.3993 22.1687C30.3569 21.656 29.9391 21.2677 29.4231 21.2654C29.3402 21.2651 29.2704 21.1937 29.2707 21.1004L29.2731 20.007H29.6625C30.8624 20.007 31.8385 19.0308 31.8385 17.831V16.9646H36.2696C36.6432 16.9646 36.947 17.2685 36.947 17.6419V17.831C36.947 19.0308 37.9231 20.007 39.123 20.007H39.5086V21.1277C39.4971 21.2053 39.4342 21.2651 39.3539 21.2655C38.8426 21.2678 38.4248 21.6561 38.3824 22.1687C38.0013 26.7601 30.7742 26.6874 30.3993 22.1687ZM30.5201 16.8276V17.831C30.5201 18.3039 30.1354 18.6886 29.6625 18.6886H29.2745V16.9643C29.2745 16.7237 29.3128 16.4897 29.3858 16.2674C29.7229 16.5179 30.1063 16.7091 30.5201 16.8276ZM35.9521 26.7083C35.9685 26.8386 35.855 27.4754 36.3279 28.1145L34.3908 29.6245L32.4565 28.1167C32.9315 27.4766 32.8176 26.8387 32.834 26.7086C33.8629 27.0005 34.9466 26.9945 35.9521 26.7083ZM34.8267 32.83H33.9666L33.3771 31.8202L34.3908 31.2247L35.4399 31.8408L34.8267 32.83ZM34.1491 34.1484H34.6326L35.5764 39.9734H33.2053L34.1491 34.1484ZM37.3831 30.7874C37.1697 31.0503 36.8047 31.1135 36.5164 30.9443L35.5615 30.3834L37.5209 28.856C37.601 28.7983 37.706 28.7876 37.7964 28.828L38.6587 29.2152L37.3831 30.7874ZM38.3366 27.6253L38.3365 27.6252C38.091 27.5151 37.8265 27.4716 37.5672 27.4906C37.1122 27.224 37.3222 26.708 37.2705 26.1418C38.4136 25.4623 39.1613 24.4842 39.5082 23.2934L39.5068 28.025C39.3962 27.9828 39.1048 27.8719 38.3366 27.6253ZM29.3926 13.3022H36.945C38.3574 13.3022 39.5065 14.4513 39.5065 15.8637V18.6887H39.123C38.6501 18.6887 38.2654 18.304 38.2654 17.831V17.642C38.2654 16.5415 37.3701 15.6463 36.2696 15.6463H31.4928C30.2675 15.6463 29.2707 14.6495 29.2707 13.4242C29.2707 13.3569 29.3254 13.3022 29.3926 13.3022ZM16.0279 22.3166C16.0279 21.9825 16.2998 21.7106 16.6339 21.7106H24.1954C24.5296 21.7106 24.8014 21.9825 24.8014 22.3166V24.4132C24.8014 24.7473 24.5296 25.0192 24.1954 25.0192H16.6339C16.2998 25.0192 16.0279 24.7473 16.0279 24.4132V22.3166ZM3.53426 36.8448C2.3124 36.8448 1.31836 35.8506 1.31836 34.6288V20.4192C2.78745 22.6881 5.34076 24.1926 8.23913 24.1926H14.7096V24.4133C14.7096 25.4743 15.5728 26.3376 16.6339 26.3376H24.1954C25.2565 26.3376 26.1198 25.4744 26.1198 24.4133V24.1926H29.6335C30.0465 24.9838 30.6657 25.6401 31.5156 26.1437C31.4638 26.7089 31.6742 27.2244 31.2185 27.4909C30.9579 27.4712 30.692 27.5146 30.4453 27.6253L30.4452 27.6254C29.3302 28.0092 27.8588 28.4292 26.3517 29.6899C24.6494 31.114 23.7862 32.9721 23.7862 35.2128V36.8448H3.53426ZM25.1044 39.3295V35.2127C25.1044 33.3807 25.8086 31.8629 27.1975 30.701C27.714 30.2689 28.274 29.9263 28.8213 29.6553C28.9238 29.8661 28.9219 29.8116 30.3746 31.6179C30.8075 32.1516 31.4729 32.4268 32.1564 32.3441L32.8996 33.6173L31.8698 39.9734H28.8746V37.7556C28.8746 37.3915 28.5795 37.0964 28.2154 37.0964C27.8514 37.0964 27.5563 37.3915 27.5563 37.7556V39.9734H25.7484C25.3933 39.9735 25.1044 39.6846 25.1044 39.3295Z" fill="#2563EB"/>
</g>
<defs>
<clipPath id="clip0_529_25244">
<rect width="45" height="45" fill="white"/>
</clipPath>
</defs>
</svg>
