<svg width="45" height="45" viewBox="0 0 45 45" fill="none" xmlns="http://www.w3.org/2000/svg">
<g clip-path="url(#clip0_901_10181)">
<path d="M22.5439 8.34961C14.5601 8.34961 8.08538 14.9345 8.26538 22.9583C8.43202 30.3851 14.7772 36.7365 22.2038 36.9101C25.7783 36.9937 29.0678 35.7563 31.6178 33.6529C31.9182 33.4051 31.9408 32.9526 31.6655 32.6772C31.4268 32.4385 31.0449 32.4171 30.7845 32.632C28.4622 34.5492 25.4635 35.6749 22.2053 35.5914C15.3209 35.4149 9.73808 29.8133 9.58348 22.9285C9.41781 15.5476 15.4556 9.50818 22.8359 9.67122C29.7747 9.82459 35.4012 15.4921 35.5064 22.4318C35.5486 25.2175 34.7074 27.8084 33.2452 29.9421C33.0672 30.2019 33.103 30.5524 33.3257 30.775C33.6162 31.0655 34.1008 31.0233 34.333 30.6845C35.9217 28.3663 36.8456 25.5586 36.8261 22.5378C36.7747 14.656 30.4257 8.34961 22.5439 8.34961Z" fill="white"/>
<path d="M28.0371 20.9565V18.7602C28.0371 15.7458 25.6434 13.2303 22.6293 13.1844C19.5615 13.1374 17.0508 15.6194 17.0508 18.6767V20.9564C16.002 21.1508 15.2051 22.0718 15.2051 23.176V23.7639C15.2051 24.128 15.5002 24.4231 15.8643 24.4231C16.2283 24.4231 16.5234 24.128 16.5234 23.7639V23.176C16.5234 22.657 16.9442 22.2363 17.4631 22.2363H27.6247C28.1437 22.2363 28.5644 22.657 28.5644 23.176V28.6794C28.5644 29.1984 28.1436 29.619 27.6247 29.619H17.4631C16.9442 29.619 16.5234 29.1983 16.5234 28.6794V27.6012C16.5234 27.2372 16.2283 26.9422 15.8643 26.9422C15.5002 26.9422 15.2051 27.2373 15.2051 27.6013V28.6795C15.2051 29.9266 16.216 30.9375 17.4631 30.9375H27.6247C28.8719 30.9375 29.8828 29.9266 29.8828 28.6795V23.176C29.8828 22.0719 29.0858 21.1509 28.0371 20.9565ZM24.2578 20.918H20.8301V18.6767C20.8301 17.7317 21.5989 16.9629 22.5439 16.9629C23.4889 16.9629 24.2578 17.7317 24.2578 18.6767V20.918ZM26.7188 20.918H25.5762V18.6767C25.5762 17.0048 24.2159 15.6445 22.5439 15.6445C20.872 15.6445 19.5117 17.0048 19.5117 18.6767V20.918H18.3691V18.6767C18.3691 16.3748 20.242 14.5019 22.5439 14.5019C24.8459 14.5019 26.7188 16.3748 26.7188 18.6767V20.918Z" fill="white"/>
<path d="M24.6667 27.0848L24.3068 26.1212C24.5746 25.7215 24.6994 25.2406 24.6546 24.7495C24.5641 23.7522 23.7767 22.9488 22.7825 22.8392C22.1807 22.7731 21.5787 22.9651 21.1307 23.3665C20.6823 23.7682 20.4252 24.3436 20.4252 24.9453C20.4252 25.3714 20.5497 25.7767 20.7817 26.1219L20.4222 27.0849C20.2869 27.447 20.3379 27.853 20.5583 28.1707C20.7788 28.4884 21.1414 28.6781 21.5281 28.6781H23.5607C23.9475 28.6781 24.31 28.4884 24.5305 28.1707C24.751 27.8531 24.8019 27.4471 24.6667 27.0848ZM21.7268 27.3597L22.1499 26.2265C22.2418 25.9805 22.1787 25.7033 21.9897 25.5212C21.831 25.3684 21.7437 25.1639 21.7437 24.9451C21.7437 24.7177 21.8409 24.5002 22.0105 24.3483C22.1823 24.1944 22.4049 24.1241 22.6381 24.1495C23.0058 24.19 23.3082 24.4992 23.3419 24.8688C23.3641 25.1135 23.2757 25.3512 23.0993 25.5212C22.9102 25.7033 22.8472 25.9805 22.9391 26.2265L23.3622 27.3597H21.7268Z" fill="white"/>
<path d="M42.583 15.7324C41.4807 15.7324 40.549 16.4746 40.2596 17.4851H38.5692C37.5009 14.1665 35.4287 11.2946 32.7115 9.22834V3.07617H37.3578C37.6456 4.08938 38.5785 4.83398 39.6827 4.83398C41.0154 4.83398 42.0997 3.74968 42.0997 2.41699C42.0997 1.08431 41.0153 0 39.6826 0C38.5784 0 37.6455 0.744609 37.3577 1.75781H32.0522C31.6881 1.75781 31.393 2.05286 31.393 2.41699V8.32104C28.8203 6.72434 25.7882 5.80078 22.5439 5.80078C17.8051 5.80078 13.5182 7.77006 10.4565 10.9324V7.0752C10.4565 6.71106 10.1614 6.41602 9.79734 6.41602H5.71289V4.74188C6.72609 4.45412 7.4707 3.52116 7.4707 2.41699C7.4707 1.08431 6.38648 0 5.05371 0C3.72094 0 2.63672 1.08431 2.63672 2.41699C2.63672 3.52116 3.38133 4.45412 4.39453 4.74188V7.0752C4.39453 7.43933 4.68967 7.73438 5.05371 7.73438H9.13816V12.4674C6.99003 15.2936 5.71289 18.8162 5.71289 22.6318C5.71289 24.0254 5.88428 25.3795 6.20508 26.6753H4.72948C4.42775 25.6843 3.50543 24.9609 2.41699 24.9609C1.08422 24.9609 0 26.0452 0 27.3779C0 28.7106 1.08422 29.7949 2.41699 29.7949C3.53698 29.7949 4.48119 29.029 4.75427 27.9937H6.58881C7.26205 29.9916 8.30101 31.8226 9.62525 33.4076V42.0557H6.53326C6.29183 40.9758 5.32635 40.166 4.1748 40.166C2.84203 40.166 1.75781 41.2503 1.75781 42.583C1.75781 43.9157 2.84203 45 4.1748 45C5.23055 45 6.12976 44.3193 6.4582 43.374H10.2843C10.6484 43.374 10.9435 43.079 10.9435 42.7148V34.8158C13.9649 37.6938 18.0517 39.4629 22.5439 39.4629C24.484 39.4629 26.3479 39.1319 28.0835 38.5252V40.27C27.0915 40.571 26.3672 41.4939 26.3672 42.583C26.3672 43.9157 27.4515 45 28.7842 45C30.1169 45 31.2012 43.9157 31.2012 42.583C31.2012 41.4638 30.4363 40.52 29.4019 40.2463V38.0011C31.0598 37.2584 32.5763 36.2553 33.8993 35.0439H39.4629V37.7094C38.4497 37.9971 37.7051 38.9301 37.7051 40.0343C37.7051 41.367 38.7894 42.4513 40.1221 42.4513C41.4548 42.4513 42.5391 41.367 42.5391 40.0343C42.5391 38.9301 41.7945 37.9971 40.7812 37.7094V34.3847C40.7812 34.0206 40.4862 33.7256 40.1221 33.7256H35.1902C37.7938 30.7612 39.375 26.878 39.375 22.6318C39.375 21.3153 39.2227 20.0338 38.9355 18.8035H40.2567C40.5428 19.8193 41.477 20.5664 42.583 20.5664C43.9157 20.5664 45 19.4821 45 18.1494C45 16.8167 43.9157 15.7324 42.583 15.7324ZM39.6826 1.31836C40.2884 1.31836 40.7812 1.81116 40.7812 2.41699C40.7812 3.02282 40.2884 3.51562 39.6826 3.51562C39.0768 3.51562 38.584 3.02282 38.584 2.41699C38.584 1.81116 39.0768 1.31836 39.6826 1.31836ZM3.95508 2.41699C3.95508 1.81116 4.44788 1.31836 5.05371 1.31836C5.65954 1.31836 6.15234 1.81116 6.15234 2.41699C6.15234 3.02282 5.65954 3.51562 5.05371 3.51562C4.44788 3.51562 3.95508 3.02282 3.95508 2.41699ZM2.41699 28.4766C1.81116 28.4766 1.31836 27.9838 1.31836 27.3779C1.31836 26.7721 1.81116 26.2793 2.41699 26.2793C3.02282 26.2793 3.51562 26.7721 3.51562 27.3779C3.51562 27.9838 3.02282 28.4766 2.41699 28.4766ZM4.1748 43.6816C3.56897 43.6816 3.07617 43.1888 3.07617 42.583C3.07617 41.9772 3.56897 41.4844 4.1748 41.4844C4.78063 41.4844 5.27344 41.9772 5.27344 42.583C5.27344 43.1888 4.78063 43.6816 4.1748 43.6816ZM41.2207 40.0342C41.2207 40.64 40.7279 41.1328 40.1221 41.1328C39.5162 41.1328 39.0234 40.64 39.0234 40.0342C39.0234 39.4283 39.5162 38.9355 40.1221 38.9355C40.7279 38.9355 41.2207 39.4283 41.2207 40.0342ZM29.8828 42.583C29.8828 43.1888 29.39 43.6816 28.7842 43.6816C28.1784 43.6816 27.6855 43.1888 27.6855 42.583C27.6855 41.9772 28.1784 41.4844 28.7842 41.4844C29.39 41.4844 29.8828 41.9772 29.8828 42.583ZM22.5439 38.1445C13.9903 38.1445 7.03125 31.1855 7.03125 22.6318C7.03125 14.0781 13.9903 7.11914 22.5439 7.11914C31.0976 7.11914 38.0566 14.0781 38.0566 22.6318C38.0566 31.1855 31.0976 38.1445 22.5439 38.1445ZM42.583 19.248C41.9772 19.248 41.4844 18.7552 41.4844 18.1494C41.4844 17.5436 41.9772 17.0508 42.583 17.0508C43.1888 17.0508 43.6816 17.5436 43.6816 18.1494C43.6816 18.7552 43.1888 19.248 42.583 19.248Z" fill="white"/>
</g>
<defs>
<clipPath id="clip0_901_10181">
<rect width="45" height="45" fill="white"/>
</clipPath>
</defs>
</svg>
