<svg width="45" height="45" viewBox="0 0 45 45" fill="none" xmlns="http://www.w3.org/2000/svg">
<g clip-path="url(#clip0_901_7992)">
<path d="M44.3397 36.7781H41.8558V24.5936C41.8558 24.2292 41.5605 23.934 41.1963 23.934C40.832 23.934 40.5367 24.2292 40.5367 24.5936V36.7781H11.3555C10.9913 36.7781 10.696 37.0734 10.696 37.4377C10.696 37.802 10.9913 38.0972 11.3555 38.0972H43.6801V39.0847C43.6801 39.9923 42.9417 40.7309 42.0339 40.7309H3.14493C2.23721 40.7309 1.4987 39.9924 1.4987 39.0847V38.0972H8.54469C8.90894 38.0972 9.20424 37.802 9.20424 37.4377C9.20424 37.0734 8.90894 36.7781 8.54469 36.7781H4.6421V24.5936C4.6421 24.2292 4.3468 23.934 3.98255 23.934C3.61831 23.934 3.32301 24.2292 3.32301 24.5936V36.7781H0.839236C0.474989 36.7781 0.179688 37.0734 0.179688 37.4377V39.0847C0.179688 40.7198 1.50986 42.05 3.14502 42.05H42.034C43.6691 42.05 44.9993 40.7198 44.9993 39.0847V37.4377C44.9992 37.0734 44.7039 36.7781 44.3397 36.7781Z" fill="white"/>
<path d="M31.3627 11.4145H39.316C39.9898 11.4145 40.538 11.9627 40.538 12.6365V16.4607C40.538 16.825 40.8333 17.1202 41.1976 17.1202C41.5618 17.1202 41.8571 16.825 41.8571 16.4607V12.6365C41.8571 11.2353 40.7172 10.0954 39.316 10.0954H31.3627C30.9984 10.0954 30.7031 10.3906 30.7031 10.7549C30.7031 11.1193 30.9984 11.4145 31.3627 11.4145Z" fill="white"/>
<path d="M3.98377 17.1204C4.34801 17.1204 4.64331 16.8252 4.64331 16.4609V12.6367C4.64331 11.963 5.19153 11.4147 5.86533 11.4147H13.7307C14.095 11.4147 14.3903 11.1195 14.3903 10.7552C14.3903 10.3909 14.095 10.0956 13.7307 10.0956H5.86533C4.46418 10.0956 3.32422 11.2356 3.32422 12.6367V16.4609C3.32422 16.8251 3.61952 17.1204 3.98377 17.1204Z" fill="white"/>
<path d="M6.62244 12.7336C6.25819 12.7336 5.96289 13.0288 5.96289 13.3931V16.4607C5.96289 16.8251 6.25819 17.1203 6.62244 17.1203C6.98669 17.1203 7.28199 16.8251 7.28199 16.4607V14.0527H12.3648C12.7291 14.0527 13.0244 13.7575 13.0244 13.3931C13.0244 13.0288 12.7291 12.7336 12.3648 12.7336H6.62244Z" fill="white"/>
<path d="M38.559 17.1204C38.9233 17.1204 39.2186 16.8252 39.2186 16.4609V13.3933C39.2186 13.0289 38.9233 12.7337 38.559 12.7337H32.6537C32.2894 12.7337 31.9941 13.0289 31.9941 13.3933C31.9941 13.7576 32.2894 14.0528 32.6537 14.0528H37.8995V16.4609C37.8995 16.8251 38.1948 17.1204 38.559 17.1204Z" fill="white"/>
<path d="M6.62244 23.934C6.25819 23.934 5.96289 24.2292 5.96289 24.5936V34.7995C5.96289 35.1638 6.25819 35.4591 6.62244 35.4591H38.5598C38.924 35.4591 39.2193 35.1638 39.2193 34.7995V24.5936C39.2193 24.2292 38.924 23.934 38.5598 23.934C38.1955 23.934 37.9002 24.2292 37.9002 24.5936V34.14H7.28199V24.5936C7.28199 24.2293 6.98669 23.934 6.62244 23.934Z" fill="white"/>
<path d="M20.1447 23.7284C20.3842 24.0555 20.7694 24.2508 21.1749 24.2508H23.8421C24.2476 24.2508 24.6328 24.0554 24.8723 23.7284C25.1119 23.4011 25.1818 22.9752 25.0594 22.5887L24.5546 20.9945C24.9433 20.4969 25.1362 19.8777 25.0989 19.2427C25.022 17.9362 23.9791 16.8896 22.6727 16.8085C21.9483 16.7626 21.2586 17.0118 20.7315 17.5072C20.2116 17.9958 19.9135 18.6851 19.9135 19.3983C19.9135 19.9762 20.1079 20.5402 20.4623 20.9944L19.9576 22.5885C19.8352 22.9752 19.9052 23.4011 20.1447 23.7284ZM21.5229 20.2087C21.333 19.9781 21.2327 19.6979 21.2327 19.3984C21.2327 19.0426 21.3756 18.7123 21.635 18.4685C21.8943 18.2248 22.2339 18.1028 22.5912 18.1251C23.2219 18.1642 23.7451 18.6892 23.7822 19.3203C23.8012 19.645 23.6987 19.9609 23.4935 20.2095C23.2352 20.5227 23.1532 20.938 23.2744 21.3207L23.7845 22.9318H21.2328L21.7429 21.3208C21.8638 20.9385 21.7816 20.5227 21.5229 20.2087Z" fill="white"/>
<path d="M2.08769 22.6149H3.36414C4.28486 22.6149 5.0677 22.0156 5.34445 21.1867H7.03615C7.31289 22.0156 8.09573 22.6149 9.01646 22.6149H10.2929C11.2136 22.6149 11.9965 22.0156 12.2732 21.1867H13.8744V24.7212C13.8744 26.3535 15.2023 27.6813 16.8346 27.6813H25.5582C25.9224 27.6813 26.2177 27.3861 26.2177 27.0218C26.2177 26.6575 25.9224 26.3622 25.5582 26.3622H16.8346C15.9297 26.3622 15.1935 25.6261 15.1935 24.7212V15.2227C15.1935 14.9301 15.4316 14.692 15.7242 14.692H29.2929C29.5855 14.692 29.8235 14.9301 29.8235 15.2227V24.7212C29.8235 25.5701 29.1614 26.2883 28.3162 26.3562C27.9531 26.3853 27.6824 26.7033 27.7115 27.0664C27.7406 27.4294 28.0583 27.7005 28.4217 27.671C29.9474 27.5485 31.1425 26.2528 31.1425 24.7212V21.1867H32.7269C33.0036 22.0156 33.7865 22.6149 34.7072 22.6149H35.9835C36.9043 22.6149 37.6871 22.0156 37.9639 21.1867H39.6555C39.9322 22.0156 40.7151 22.6149 41.6358 22.6149H42.9122C44.0634 22.6149 44.9999 21.6784 44.9999 20.5272C44.9999 19.376 44.0634 18.4395 42.9122 18.4395H41.6358C40.715 18.4395 39.9322 19.0388 39.6555 19.8676H37.9639C37.6871 19.0388 36.9042 18.4395 35.9835 18.4395H34.7072C33.7865 18.4395 33.0036 19.0388 32.7269 19.8676H31.1425V15.2228C31.1425 14.2335 30.3612 13.4253 29.3835 13.3776V9.78736C29.3835 9.23114 29.3153 8.67475 29.181 8.13365C29.0931 7.78005 28.7351 7.56442 28.3818 7.65262C28.0283 7.74039 27.813 8.09813 27.9007 8.45173C28.0093 8.88879 28.0644 9.33816 28.0644 9.78736V13.3729H26.2177V9.78736C26.2177 7.7629 24.5706 6.11596 22.5463 6.11596C20.5219 6.11596 18.8749 7.76299 18.8749 9.78736V13.3729H17.0281V9.78736C17.0281 6.74465 19.5035 4.26923 22.5463 4.26923C24.168 4.26923 25.7016 4.97996 26.7538 6.21921C26.9896 6.49692 27.4058 6.53104 27.6834 6.29519C27.9611 6.05933 27.9951 5.6432 27.7593 5.36558C26.4561 3.8305 24.556 2.95013 22.5463 2.95013C18.7762 2.95013 15.709 6.0173 15.709 9.78736V13.3737C14.6961 13.382 13.8743 14.2079 13.8743 15.2227V19.8675H12.2731C11.9964 19.0387 11.2135 18.4394 10.2928 18.4394H9.01637C8.09564 18.4394 7.31281 19.0387 7.03606 19.8675H5.34445C5.0677 19.0387 4.28486 18.4394 3.36414 18.4394H2.08769C0.936558 18.4394 0 19.3759 0 20.5271C0 21.6783 0.936558 22.6149 2.08769 22.6149ZM41.6359 19.7586H42.9123C43.3361 19.7586 43.6809 20.1034 43.6809 20.5272C43.6809 20.951 43.3362 21.2958 42.9123 21.2958H41.6359C41.2121 21.2958 40.8673 20.951 40.8673 20.5272C40.8673 20.1034 41.2121 19.7586 41.6359 19.7586ZM34.7072 19.7586H35.9835C36.4073 19.7586 36.7521 20.1034 36.7521 20.5272C36.7521 20.951 36.4073 21.2958 35.9835 21.2958H34.7072C34.2834 21.2958 33.9386 20.951 33.9386 20.5272C33.9386 20.1034 34.2834 19.7586 34.7072 19.7586ZM20.194 9.78736C20.194 8.49034 21.2492 7.43506 22.5463 7.43506C23.8433 7.43506 24.8986 8.49034 24.8986 9.78736V13.3729H20.194V9.78736ZM9.01637 19.7586H10.2928C10.7166 19.7586 11.0614 20.1034 11.0614 20.5272C11.0614 20.951 10.7166 21.2958 10.2928 21.2958H9.01637C8.59259 21.2958 8.24778 20.951 8.24778 20.5272C8.24778 20.1034 8.59259 19.7586 9.01637 19.7586ZM2.08769 19.7586H3.36414C3.78792 19.7586 4.13273 20.1034 4.13273 20.5272C4.13273 20.951 3.788 21.2958 3.36414 21.2958H2.08769C1.66391 21.2958 1.3191 20.951 1.3191 20.5272C1.3191 20.1034 1.66391 19.7586 2.08769 19.7586Z" fill="white"/>
</g>
<defs>
<clipPath id="clip0_901_7992">
<rect width="45" height="45" fill="white"/>
</clipPath>
</defs>
</svg>
