<svg width="45" height="45" viewBox="0 0 45 45" fill="none" xmlns="http://www.w3.org/2000/svg">
<path d="M43.9508 22.1974L42.3892 21.9771C42.3997 21.7065 42.4056 21.4398 42.4056 21.1807C42.4056 15.5231 40.2001 10.2042 36.1954 6.20368C32.1908 2.20315 26.8663 0 21.2027 0C12.6746 0 5.01044 5.06779 1.67759 12.9108C1.53518 13.2458 1.69167 13.6327 2.02706 13.7749C2.36246 13.9171 2.74975 13.7609 2.89207 13.4258C3.07785 12.9886 3.2784 12.5609 3.49223 12.1426C4.68111 11.2582 6.0183 10.4756 7.473 9.80457C6.84425 11.6703 6.37216 13.662 6.07037 15.7327C4.46825 16.0773 3.02401 16.4797 1.77664 16.9335C1.83759 16.6542 1.90401 16.3761 1.97701 16.0996C2.06999 15.7477 1.85976 15.3872 1.50748 15.2943C1.1551 15.2015 0.7942 15.4115 0.701226 15.7634C0.235912 17.5251 0 19.3477 0 21.1807C0 26.8383 2.20545 32.1572 6.21014 36.1577C10.2148 40.1582 15.5394 42.3615 21.2027 42.3615C23.3523 42.3615 25.4711 42.0406 27.5072 41.4078C28.6365 42.4436 29.9456 43.3049 31.401 43.9389L33.7113 44.945C33.7954 44.9816 33.8852 44.9999 33.975 44.9999C34.0648 44.9999 34.1546 44.9816 34.2386 44.945L36.5489 43.9389C37.6713 43.45 38.7268 42.8156 39.6861 42.0533C39.9713 41.8268 40.0185 41.4122 39.7917 41.1273C39.5648 40.8425 39.1499 40.7954 38.8647 41.0219C37.9953 41.7127 37.0387 42.2876 36.0216 42.7307L33.975 43.622L31.9285 42.7307C30.4952 42.1065 29.2189 41.2387 28.1379 40.1893C28.1326 40.1841 28.1272 40.179 28.1218 40.1741C25.7031 37.8183 24.2695 34.5492 24.2695 31.0483V23.4903L26.0666 23.2369C28.6458 22.8731 31.1019 21.844 33.1694 20.261L33.8111 19.7698C33.9076 19.6958 34.0425 19.6958 34.1391 19.7697L34.7808 20.2611C36.8483 21.8441 39.3043 22.8731 41.8835 23.2369L43.6806 23.4903V31.0483C43.6806 33.9956 42.6472 36.8727 40.771 39.1496C40.5395 39.4306 40.5798 39.8459 40.8611 40.0772C41.1424 40.3087 41.5582 40.2683 41.7897 39.9873C43.8599 37.475 45 34.3005 45 31.0484V23.4038C44.9999 22.8004 44.5489 22.2818 43.9508 22.1974ZM36.5097 17.1281C38.1954 17.5074 39.6804 17.951 40.8994 18.4493C41.0223 19.3471 41.0862 20.2589 41.0862 21.1808C41.0862 21.3678 41.0827 21.5594 41.0769 21.7535C39.5312 21.4189 38.0506 20.8216 36.7071 19.9898C36.6774 19.0259 36.6112 18.0705 36.5097 17.1281ZM26.9303 7.4364C29.1734 7.79236 31.3114 8.35578 33.2773 9.10741C34.0308 11.0741 34.5977 13.2147 34.9561 15.4579C32.7912 15.0575 30.3867 14.755 27.8278 14.5629C27.6353 12.0042 27.3318 9.60062 26.9303 7.4364ZM26.492 14.4732C24.7807 14.3725 23.0097 14.32 21.2028 14.32C19.3961 14.32 17.625 14.3722 15.9137 14.4729C16.1188 11.8693 16.4409 9.42084 16.8624 7.24511C18.2795 7.07736 19.7313 6.99028 21.2028 6.99028C22.6743 6.99028 24.1263 7.07736 25.5434 7.24511C25.9648 9.42093 26.2869 11.8695 26.492 14.4732ZM30.2448 3.48078C31.1286 4.66543 31.9121 6.00448 32.585 7.46337C30.7188 6.83616 28.7268 6.36518 26.6559 6.06405C26.3106 4.46289 25.9081 3.01788 25.4534 1.77145C27.1231 2.13286 28.7312 2.70708 30.2448 3.48078ZM34.926 9.80149C36.3865 10.4747 37.7287 11.2603 38.9214 12.1485C39.6959 13.6607 40.2707 15.2672 40.6326 16.9355C39.384 16.481 37.9374 16.0783 36.3333 15.7332C36.0301 13.6628 35.5554 11.6689 34.926 9.80149ZM37.3237 9.54869C36.371 9.0126 35.358 8.52765 34.2949 8.0963C33.8634 7.03413 33.3778 6.02381 32.8432 5.07376C33.6948 5.69069 34.5043 6.37819 35.2625 7.13562C36.0196 7.892 36.7069 8.69935 37.3237 9.54869ZM23.9372 1.50459C24.4358 2.72193 24.8797 4.20464 25.2593 5.88778C23.9302 5.74588 22.5742 5.67224 21.2028 5.67224C19.8314 5.67224 18.4755 5.74605 17.1463 5.88796C17.5259 4.20535 17.9696 2.72308 18.468 1.50591C19.3654 1.38228 20.2786 1.31804 21.2027 1.31804C22.1255 1.31804 23.0384 1.38184 23.9372 1.50459ZM16.9519 1.77479C16.4976 3.0206 16.0951 4.46395 15.7501 6.06396C13.6769 6.36536 11.6828 6.83713 9.81487 7.46531C10.4872 6.0108 11.2714 4.67378 12.1577 3.48526C13.664 2.71754 15.2738 2.1398 16.9519 1.77479ZM5.07579 9.55186C6.33126 7.81248 7.85 6.30297 9.56321 5.06831C9.02551 6.02117 8.539 7.03422 8.10649 8.09762C7.04251 8.52932 6.02912 9.01506 5.07579 9.55186ZM9.12015 9.11066C11.0882 8.35745 13.229 7.79288 15.4752 7.43649C15.0738 9.60045 14.7705 12.0043 14.5781 14.5626C12.0168 14.7548 9.6108 15.0581 7.44423 15.4591C7.801 13.2151 8.36615 11.0767 9.12015 9.11066ZM23.6073 35.2908C22.8086 35.3428 22.0035 35.3713 21.2027 35.3713C19.7312 35.3713 18.2794 35.2842 16.8623 35.1164C16.4409 32.9406 16.1187 30.4921 15.9136 27.8884C17.6249 27.9891 19.3959 28.0416 21.2027 28.0416C21.7833 28.0416 22.3685 28.0358 22.95 28.0248V31.0484C22.9501 32.5131 23.1795 33.9405 23.6073 35.2908ZM15.4748 34.9251C13.2287 34.5686 11.0881 34.0041 9.12007 33.2509C8.36615 31.285 7.801 29.1466 7.44415 26.9029C9.61054 27.3039 12.0169 27.6072 14.578 27.7995C14.7704 30.3573 15.0735 32.7613 15.4748 34.9251ZM12.161 38.8809C11.2734 37.6915 10.4882 36.3532 9.81522 34.8972C11.6831 35.5252 13.6771 35.9969 15.75 36.2983C16.0954 37.8997 16.4983 39.3438 16.9532 40.5903C15.2831 40.2289 13.6748 39.6546 12.161 38.8809ZM1.77312 25.426C3.0212 25.8804 4.46693 26.2831 6.07028 26.6282C6.37199 28.6991 6.84416 30.691 7.473 32.5569C6.01513 31.8844 4.67513 31.0999 3.48431 30.2131C2.70982 28.7009 2.1349 27.0943 1.77312 25.426ZM7.25265 25.5167C7.08474 24.1011 6.99757 22.6507 6.99757 21.1808C6.99757 19.7108 7.08474 18.2604 7.25265 16.8449C9.43075 16.4238 11.8819 16.102 14.4882 15.8971C14.3874 17.6067 14.3349 19.3758 14.3349 21.1808C14.3349 22.9858 14.3874 24.7549 14.4883 26.4645C11.8819 26.2595 9.43075 25.9378 7.25265 25.5167ZM5.89392 17.1285C5.75186 18.4563 5.67806 19.8107 5.67806 21.1808C5.67806 22.5508 5.75186 23.9053 5.89392 25.2331C4.20902 24.8538 2.72486 24.4103 1.50616 23.9123C1.38328 23.0144 1.31942 22.1026 1.31942 21.1808C1.31942 20.2648 1.38284 19.3519 1.50748 18.4487C2.72583 17.9509 4.20964 17.5077 5.89392 17.1285ZM5.08248 32.8136C6.03386 33.3488 7.04507 33.8333 8.10658 34.264C8.53776 35.3242 9.02269 36.3344 9.55847 37.2847C8.70841 36.6686 7.90022 35.982 7.14323 35.2257C6.38624 34.4697 5.69917 33.6626 5.08248 32.8136ZM18.4685 40.857C17.9698 39.6395 17.526 38.1568 17.1462 36.4735C18.4754 36.6154 19.8313 36.6893 21.2027 36.6893C22.1629 36.6893 23.1296 36.6509 24.0847 36.5796C24.3095 37.1045 24.5672 37.6136 24.8531 38.1059C24.5695 39.1381 24.2626 40.0616 23.9373 40.8564C23.0349 40.9806 22.1219 41.0435 21.2027 41.0435C20.28 41.0435 19.3672 40.9796 18.4685 40.857ZM25.8064 39.5398C26.0143 39.8141 26.2322 40.0812 26.4601 40.3399C26.1265 40.4311 25.7907 40.5137 25.4529 40.5872C25.5739 40.254 25.6918 39.9048 25.8064 39.5398ZM25.8821 21.9319L23.9991 22.1974C23.4011 22.2818 22.95 22.8004 22.95 23.4038V26.7066C22.3686 26.7178 21.7833 26.7236 21.2027 26.7236C19.3725 26.7236 17.5671 26.6666 15.82 26.558C15.7113 24.8128 15.6543 23.0093 15.6543 21.1808C15.6543 19.3523 15.7113 17.5489 15.82 15.8036C17.5671 15.695 19.3725 15.6381 21.2027 15.6381C23.0331 15.6381 24.8384 15.695 26.5856 15.8036C26.6943 17.5489 26.7513 19.3523 26.7513 21.1808C26.7513 21.3722 26.7505 21.5695 26.7489 21.781C26.4619 21.8404 26.1729 21.8908 25.8821 21.9319ZM33.0083 18.7238L32.3667 19.215C31.0749 20.2041 29.6168 20.956 28.0702 21.4388C28.0705 21.3514 28.0708 21.2653 28.0708 21.1808C28.0708 19.3758 28.0184 17.6066 27.9176 15.8971C30.5224 16.1019 32.972 16.4234 35.1491 16.8441C35.2351 17.5651 35.2999 18.2947 35.3428 19.0309L34.9417 18.7237C34.3725 18.2878 33.5776 18.2881 33.0083 18.7238Z" fill="white"/>
<path d="M39.3382 26.519C39.582 26.2486 39.5603 25.8319 39.2896 25.5883C37.8291 24.2739 35.9419 23.55 33.9757 23.55C29.5962 23.55 26.0332 27.1094 26.0332 31.4844C26.0332 35.8593 29.5962 39.4186 33.9757 39.4186C38.3553 39.4186 41.9183 35.8593 41.9183 31.4844C41.9183 30.277 41.6534 29.1172 41.131 28.0371C40.9725 27.7094 40.5781 27.5721 40.25 27.7304C39.9219 27.8888 39.7845 28.2828 39.9429 28.6105C40.3782 29.5103 40.5988 30.4772 40.5988 31.4845C40.5988 35.1327 37.6276 38.1006 33.9756 38.1006C30.3236 38.1006 27.3525 35.1327 27.3525 31.4845C27.3525 27.8362 30.3237 24.8682 33.9756 24.8682C35.6152 24.8682 37.1887 25.4718 38.4064 26.5677C38.6772 26.8112 39.0944 26.7896 39.3382 26.519Z" fill="white"/>
<path d="M36.6654 28.2584L32.8541 33.2917L31.9527 32.5716C31.6683 32.3442 31.253 32.3903 31.0255 32.6745C30.7978 32.9587 30.844 33.3735 31.1285 33.6008L32.5591 34.7441C32.6767 34.838 32.8222 34.8885 32.9712 34.8885C32.9983 34.8885 33.0257 34.8868 33.0529 34.8834C33.2296 34.8614 33.3899 34.7688 33.4973 34.627L37.7175 29.0535C37.9374 28.7632 37.88 28.35 37.5894 28.1304C37.299 27.9108 36.8853 27.9683 36.6654 28.2584Z" fill="white"/>
</svg>
