<svg width="45" height="45" viewBox="0 0 45 45" fill="none" xmlns="http://www.w3.org/2000/svg">
<g clip-path="url(#clip0_901_274)">
<path d="M15.5464 31.4503C15.2341 31.6373 15.1325 32.0421 15.3195 32.3545C16.0109 33.5092 16.3762 34.8341 16.3762 36.1862C16.3762 38.2569 15.5282 40.134 14.16 41.4918C13.6903 40.0935 12.6746 38.9168 11.357 38.2504C11.7092 37.7508 11.917 37.1424 11.917 36.486V35.3865C11.917 33.6939 10.5399 32.3169 8.84725 32.3169C7.15465 32.3169 5.77758 33.6939 5.77758 35.3865V36.486C5.77758 37.1427 5.98553 37.7512 6.33797 38.251C5.89008 38.4761 5.4704 38.7599 5.09713 39.0966C4.37045 39.7526 3.83555 40.5785 3.53268 41.4903C2.16554 40.1324 1.31836 38.2562 1.31836 36.1863C1.31836 32.0534 4.69582 28.691 8.84725 28.691C10.5167 28.691 12.0978 29.2235 13.4198 30.231C13.7094 30.4518 14.1231 30.3959 14.3436 30.1064C14.5643 29.8169 14.5085 29.4033 14.2189 29.1826C12.6654 27.9985 10.8079 27.3727 8.84725 27.3727C3.96888 27.3727 0 31.3264 0 36.1863C0 41.0012 4.06802 45 8.84725 45C13.6571 45 17.6946 41.0779 17.6946 36.1863C17.6946 34.5958 17.2644 33.0366 16.4506 31.6774C16.2635 31.3649 15.8585 31.2634 15.5464 31.4503ZM7.09594 35.3865C7.09594 34.4209 7.8815 33.6352 8.84725 33.6352C9.81299 33.6352 10.5986 34.4209 10.5986 35.3865V36.486C10.5986 37.4517 9.81299 38.2373 8.84725 38.2373C7.8815 38.2373 7.09594 37.4517 7.09594 36.486V35.3865ZM8.84725 43.6816C7.29431 43.6816 5.84982 43.211 4.64977 42.4056C4.83003 41.5117 5.29392 40.6949 5.98043 40.0753C6.4038 39.6933 6.90346 39.3982 7.43792 39.2117C7.86032 39.431 8.33933 39.5558 8.84725 39.5558C9.35508 39.5558 9.83408 39.4311 10.2565 39.2118C11.6738 39.707 12.7446 40.9389 13.0435 42.4064C11.8437 43.2113 10.3997 43.6816 8.84725 43.6816ZM36.1528 27.3727C31.2743 27.3727 27.3054 31.3264 27.3054 36.1863C27.3054 41.0701 31.3462 45 36.1528 45C40.9627 45 45 41.0776 45 36.1863C45 31.3264 41.0311 27.3727 36.1528 27.3727ZM36.1528 43.6816C34.6 43.6816 33.1556 43.2111 31.9556 42.4058C32.1359 41.5118 32.5999 40.6949 33.2868 40.0749C33.7089 39.6933 34.2084 39.3983 34.7433 39.2116C35.1657 39.431 35.6448 39.5557 36.1528 39.5557C36.6605 39.5557 37.1394 39.4311 37.5617 39.2118C38.9794 39.7071 40.0503 40.9389 40.3493 42.4061C39.1494 43.2112 37.7053 43.6816 36.1528 43.6816ZM34.4014 36.486V35.3865C34.4014 34.4209 35.187 33.6352 36.1528 33.6352C37.1185 33.6352 37.9041 34.4209 37.9041 35.3865V36.486C37.9041 37.4517 37.1185 38.2373 36.1528 38.2373C35.187 38.2373 34.4014 37.4518 34.4014 36.486ZM41.4657 41.4917C40.996 40.0936 39.9802 38.9171 38.6624 38.2505C39.0146 37.751 39.2224 37.1425 39.2224 36.4861V35.3866C39.2224 33.694 37.8454 32.3169 36.1528 32.3169C34.4601 32.3169 33.083 33.694 33.083 35.3866V36.4861C33.083 37.1427 33.2909 37.7513 33.6433 38.2509C33.1951 38.4762 32.7755 38.7599 32.403 39.0966C31.6762 39.7527 31.1413 40.5788 30.8384 41.4905C29.4711 40.1328 28.6237 38.2562 28.6237 36.1863C28.6237 32.0534 32.0012 28.691 36.1527 28.691C40.3041 28.691 43.6816 32.0534 43.6816 36.1863C43.6816 38.2569 42.8338 40.1339 41.4657 41.4917ZM23.1165 36.5124L23.1543 31.5659C27.6427 31.2451 31.2397 27.6512 31.5653 23.1641L36.5376 23.2022C36.8355 24.1327 37.7084 24.8084 38.7365 24.8084C40.0094 24.8084 41.0449 23.7728 41.0449 22.5C41.0449 21.2272 40.0094 20.1916 38.7365 20.1916C37.6771 20.1916 36.7828 20.9091 36.5123 21.8834L31.5651 21.8456C31.4692 20.5151 31.0825 19.2168 30.4312 18.0565C30.2531 17.7391 29.851 17.6262 29.5338 17.8044C29.2163 17.9826 29.1035 18.3844 29.2816 18.7018C29.929 19.8551 30.2713 21.1684 30.2713 22.4998C30.2713 26.7849 26.7851 30.2711 22.5 30.2711C18.2149 30.2711 14.7287 26.7849 14.7287 22.4998C14.7287 18.2147 18.2149 14.7285 22.5 14.7285C24.3165 14.7285 26.0837 15.3684 27.4758 16.5301C27.7555 16.7635 28.1711 16.7258 28.4043 16.4464C28.6375 16.1669 28.6 15.7511 28.3206 15.518C26.8596 14.2988 25.0458 13.5729 23.1543 13.4359L23.1165 8.4876C24.0908 8.21716 24.8084 7.32278 24.8084 6.26344C24.8084 4.99061 23.7728 3.95508 22.5 3.95508C21.2272 3.95508 20.1916 4.99061 20.1916 6.26353C20.1916 7.29167 20.8673 8.1646 21.7978 8.46246L21.8359 13.4348C17.3488 13.7603 13.755 17.3573 13.4341 21.8457L8.4876 21.8835C8.21716 20.9092 7.32278 20.1916 6.26344 20.1916C4.99061 20.1916 3.95508 21.2272 3.95508 22.5C3.95508 23.7728 4.99061 24.8084 6.26353 24.8084C7.29167 24.8084 8.1646 24.1327 8.46237 23.2022L13.4347 23.1641C13.76 27.6479 17.3521 31.2399 21.8359 31.5653L21.7978 36.5376C20.8673 36.8355 20.1916 37.7084 20.1916 38.7366C20.1916 40.0094 21.2272 41.0449 22.5 41.0449C23.7728 41.0449 24.8084 40.0094 24.8084 38.7365C24.8084 37.6771 24.0909 36.7828 23.1165 36.5124ZM38.7365 21.5099C39.2824 21.5099 39.7266 21.954 39.7266 22.5C39.7266 23.046 39.2824 23.4901 38.7365 23.4901C38.1906 23.4901 37.7464 23.046 37.7464 22.5C37.7464 21.954 38.1906 21.5099 38.7365 21.5099ZM21.5099 6.26353C21.5099 5.71755 21.9541 5.27344 22.5 5.27344C23.0459 5.27344 23.4901 5.71755 23.4901 6.26353C23.4901 6.8095 23.0459 7.25353 22.5 7.25353C21.9541 7.25353 21.5099 6.80941 21.5099 6.26353ZM6.26353 23.4901C5.71764 23.4901 5.27344 23.0459 5.27344 22.5C5.27344 21.9541 5.71764 21.5099 6.26353 21.5099C6.80941 21.5099 7.25353 21.9541 7.25353 22.5C7.25353 23.0459 6.80941 23.4901 6.26353 23.4901ZM22.5 39.7266C21.9541 39.7266 21.5099 39.2825 21.5099 38.7365C21.5099 38.1905 21.9541 37.7464 22.5 37.7464C23.0459 37.7464 23.4901 38.1905 23.4901 38.7365C23.4901 39.2825 23.0459 39.7266 22.5 39.7266ZM24.7643 17.3545C24.1592 16.7494 23.3551 16.4162 22.5 16.4162C20.7339 16.4162 19.2973 17.853 19.2973 19.6189V21.2403C18.5134 21.3101 17.8966 21.9697 17.8966 22.7714V26.1005C17.8966 26.9486 18.5866 27.6386 19.4346 27.6386H25.5654C26.4134 27.6386 27.1034 26.9486 27.1034 26.1005V22.7714C27.1034 21.9697 26.4866 21.3101 25.7027 21.2403V19.6189C25.7027 18.7639 25.3695 17.9597 24.7643 17.3545ZM20.6156 19.6189C20.6156 18.5799 21.461 17.7346 22.5 17.7346C23.0029 17.7346 23.4759 17.9307 23.8321 18.2868C24.1883 18.6429 24.3844 19.116 24.3844 19.6189V21.2333H20.6156V19.6189ZM25.7851 22.7714V26.1005C25.7851 26.2216 25.6866 26.3203 25.5654 26.3203H19.4346C19.3134 26.3203 19.2149 26.2216 19.2149 26.1005V22.7714C19.2149 22.6503 19.3134 22.5517 19.4346 22.5517H25.5654C25.6866 22.5517 25.7851 22.6503 25.7851 22.7714ZM36.1528 17.6273C40.9994 17.6273 45 13.6397 45 8.81367C45 3.95376 41.0311 0 36.1528 0C31.2743 0 27.3054 3.95376 27.3054 8.81367C27.3054 13.6985 31.3465 17.6273 36.1528 17.6273ZM36.1528 16.309C34.6 16.309 33.1556 15.8384 31.9556 15.0332C32.1359 14.1392 32.5999 13.3223 33.2868 12.7022C33.7089 12.3207 34.2084 12.0256 34.7433 11.839C35.1657 12.0583 35.6448 12.183 36.1528 12.183C36.6605 12.183 37.1394 12.0584 37.5617 11.8391C38.9794 12.3345 40.0503 13.5663 40.3493 15.0334C39.1494 15.8385 37.7053 16.309 36.1528 16.309ZM34.4014 9.11338V8.01387C34.4014 7.04821 35.187 6.26256 36.1528 6.26256C37.1185 6.26256 37.9041 7.04821 37.9041 8.01387V9.11338C37.9041 10.079 37.1185 10.8647 36.1528 10.8647C35.187 10.8647 34.4014 10.0791 34.4014 9.11338ZM36.1528 1.31836C40.3042 1.31836 43.6816 4.6807 43.6816 8.81367C43.6816 10.8843 42.8338 12.7612 41.4657 14.119C40.996 12.7209 39.9802 11.5444 38.6624 10.8779C39.0146 10.3783 39.2224 9.76983 39.2224 9.11347V8.01387C39.2224 6.32127 37.8454 4.9442 36.1528 4.9442C34.4601 4.9442 33.083 6.32127 33.083 8.01387V9.11338C33.083 9.76992 33.2909 10.3786 33.6433 10.8781C33.1951 11.1035 32.7755 11.3872 32.403 11.7239C31.6762 12.3799 31.1413 13.206 30.8384 14.1178C29.4711 12.76 28.6237 10.8835 28.6237 8.81358C28.6238 4.6807 32.0013 1.31836 36.1528 1.31836ZM8.84725 17.6273C13.6571 17.6273 17.6946 13.705 17.6946 8.81367C17.6946 3.95376 13.7257 0 8.84725 0C3.96888 0 0 3.95376 0 8.81367C0 13.6982 4.04271 17.6273 8.84725 17.6273ZM8.84725 16.309C7.29431 16.309 5.84982 15.8383 4.64977 15.033C4.83003 14.1391 5.29392 13.3223 5.98043 12.7027C6.4038 12.3207 6.90346 12.0255 7.43792 11.839C7.86032 12.0583 8.33933 12.1831 8.84725 12.1831C9.35508 12.1831 9.83408 12.0584 10.2565 11.8391C11.6738 12.3343 12.7446 13.5663 13.0435 15.0338C11.8437 15.8386 10.3997 16.309 8.84725 16.309ZM7.09594 9.11338V8.01387C7.09594 7.04821 7.8815 6.26256 8.84725 6.26256C9.81299 6.26256 10.5986 7.04821 10.5986 8.01387V9.11338C10.5986 10.079 9.81299 10.8647 8.84725 10.8647C7.8815 10.8647 7.09594 10.0791 7.09594 9.11338ZM8.84725 1.31836C12.9987 1.31836 16.3762 4.6807 16.3762 8.81367C16.3762 10.8844 15.5282 12.7615 14.16 14.1193C13.6903 12.7209 12.6746 11.5443 11.357 10.8778C11.7092 10.3782 11.917 9.76983 11.917 9.11347V8.01387C11.917 6.32127 10.5399 4.9442 8.84725 4.9442C7.15465 4.9442 5.77758 6.32127 5.77758 8.01387V9.11338C5.77758 9.77001 5.98553 10.3787 6.33797 10.8782C5.89008 11.1035 5.4704 11.3871 5.09713 11.7239C4.37045 12.3798 3.83555 13.2057 3.53268 14.1175C2.16554 12.7599 1.31836 10.8835 1.31836 8.81367C1.31836 4.6807 4.69582 1.31836 8.84725 1.31836Z" fill="white"/>
</g>
<defs>
<clipPath id="clip0_901_274">
<rect width="45" height="45" fill="white"/>
</clipPath>
</defs>
</svg>
