<svg width="45" height="45" viewBox="0 0 45 45" fill="none" xmlns="http://www.w3.org/2000/svg">
<g clip-path="url(#clip0_901_12179)">
<path d="M25.0465 21.0999C26.0186 20.3407 26.6455 19.1588 26.6455 17.8325V16.3328V14.8339C26.6455 12.5484 24.7861 10.689 22.5005 10.689C20.215 10.689 18.3555 12.5484 18.3555 14.8339V16.3332V17.8325C18.3555 19.1587 18.9824 20.3406 19.9545 21.0998C16.8481 22.1819 14.5488 25.0851 14.5488 28.3612V30.7022C14.5488 31.0669 14.8445 31.3626 15.2092 31.3626H29.7919C30.1566 31.3626 30.4523 31.0669 30.4523 30.7022V28.3612C30.4522 25.0851 28.1528 22.1819 25.0465 21.0999ZM19.8986 13.7359C20.328 12.7227 21.3326 12.01 22.5006 12.01C23.6685 12.01 24.6731 12.7226 25.1025 13.7359C25.2456 14.0736 25.3248 14.4448 25.3248 14.8341V15.5657C24.2582 15.2116 23.8097 14.0961 23.7889 14.0428C23.6973 13.801 23.473 13.635 23.215 13.6178C22.9576 13.6004 22.7128 13.7356 22.5901 13.9632C22.5818 13.9787 21.7978 15.3849 19.6765 15.635V14.834C19.6764 14.4448 19.7555 14.0736 19.8986 13.7359ZM19.6763 17.8327V16.963C21.3705 16.8049 22.4578 16.0571 23.0795 15.4417C23.5118 16.0323 24.234 16.7201 25.3247 16.9287V17.8327C25.3247 19.3499 24.122 20.591 22.6199 20.6539C22.5831 20.6529 22.5463 20.6515 22.5095 20.651C22.5035 20.6509 22.4975 20.6509 22.4915 20.651C22.4546 20.6515 22.4179 20.6529 22.3811 20.6539C20.879 20.591 19.6763 19.3499 19.6763 17.8327ZM22.1891 24.0355H22.8119L23.5779 27.3609L22.5005 28.347L21.423 27.3609L22.1891 24.0355ZM21.7158 22.0337C21.7663 22.0268 21.8167 22.0186 21.8673 22.0128C21.8679 22.0127 21.8685 22.0126 21.8692 22.0126C21.9676 22.0015 22.0662 21.9929 22.1648 21.9862C22.1802 21.9851 22.1957 21.9843 22.211 21.9833C22.2774 21.9793 22.3438 21.9774 22.4102 21.9754C22.4404 21.9761 22.4701 21.9777 22.5005 21.9777C22.5308 21.9777 22.5605 21.9761 22.5906 21.9754C22.657 21.9774 22.7235 21.9794 22.7898 21.9833C22.8052 21.9842 22.8206 21.9851 22.8359 21.9862C22.9346 21.9928 23.0334 22.0014 23.1318 22.0126C23.1323 22.0127 23.1328 22.0128 23.1334 22.0128C23.1841 22.0186 23.2344 22.0268 23.2851 22.0337L22.9346 22.7147H22.0663L21.7158 22.0337ZM29.1315 30.042H15.8696V28.3613C15.8696 26.7029 16.5789 25.1157 17.867 23.8918C18.5935 23.2015 19.464 22.6779 20.3945 22.3527L20.9657 23.4624L20.0495 27.4397C19.996 27.6716 20.0716 27.9144 20.2471 28.0751L22.0546 29.7293C22.1808 29.8448 22.3406 29.9026 22.5005 29.9026C22.6603 29.9026 22.8202 29.8448 22.9462 29.7293L24.7537 28.0751C24.9293 27.9144 25.0048 27.6715 24.9514 27.4397L24.0351 23.4624L24.6062 22.3528C25.5368 22.678 26.4073 23.2017 27.1339 23.8919C28.4219 25.1157 29.1313 26.7029 29.1313 28.3613V30.042H29.1315Z" fill="white"/>
<path d="M38.0243 9.90852C37.9737 9.58728 37.697 9.35059 37.3718 9.35059C31.1631 9.35059 22.9224 4.44559 22.8399 4.39602C22.6307 4.27034 22.369 4.27034 22.1597 4.39602C22.0772 4.44559 13.8427 9.35059 7.62808 9.35059C7.30298 9.35059 7.02612 9.58728 6.97567 9.90852C6.96284 9.99052 6.66023 11.9495 6.6641 14.9012C6.66454 15.2657 6.96011 15.5608 7.32442 15.5608C7.32469 15.5608 7.32504 15.5608 7.3253 15.5608C7.69005 15.5603 7.98536 15.2642 7.98483 14.8995C7.98228 12.9465 8.12168 11.425 8.20983 10.659C10.8737 10.548 14.0802 9.68589 17.7529 8.09252C20.0219 7.10806 21.7872 6.13485 22.4999 5.72668C23.2125 6.13476 24.9779 7.10806 27.2469 8.09252C30.9194 9.68598 34.126 10.548 36.7896 10.6592C36.977 12.2974 37.3956 17.3987 36.168 22.9081C36.0886 23.2641 36.3129 23.617 36.669 23.6964C36.7173 23.7072 36.7657 23.7123 36.8132 23.7123C37.1157 23.7123 37.3886 23.503 37.4573 23.1954C38.9964 16.2874 38.0647 10.1658 38.0243 9.90852Z" fill="white"/>
<path d="M36.4382 24.5844C36.089 24.4796 35.7206 24.6774 35.6156 25.0267C34.5394 28.6063 32.8609 31.6268 30.6268 34.0043C28.4531 36.3175 25.7197 38.049 22.4998 39.1532C17.5071 37.4415 13.7315 34.2484 11.2757 29.6597C9.44072 26.2312 8.36011 22.1008 8.06374 17.3832C8.04089 17.0191 7.72712 16.7426 7.36317 16.7655C6.99912 16.7883 6.72253 17.102 6.74547 17.4661C7.05379 22.374 8.18609 26.6862 10.1112 30.2831C12.7659 35.2433 16.8638 38.673 22.2913 40.4769C22.3589 40.4993 22.4293 40.5106 22.4996 40.5106C22.5699 40.5106 22.6403 40.4994 22.7078 40.4769C26.2287 39.3067 29.2168 37.4334 31.5892 34.9089C33.9646 32.3812 35.7448 29.1843 36.8804 25.4071C36.9855 25.0577 36.7875 24.6894 36.4382 24.5844Z" fill="white"/>
<path d="M41.7715 6.87898C41.721 6.55774 41.4442 6.32105 41.1191 6.32105C33.2987 6.32105 22.9433 0.156489 22.8396 0.0942627C22.6304 -0.0314209 22.3687 -0.0314209 22.1595 0.0942627C22.0558 0.156577 11.7004 6.32114 3.88006 6.32114C3.55486 6.32114 3.2781 6.55783 3.22765 6.87907C3.17939 7.18625 2.06538 14.5004 3.81537 22.8946C4.84826 27.8489 6.67305 32.1336 9.23893 35.6298C12.4585 40.0167 16.8499 43.158 22.2911 44.9665C22.3587 44.9889 22.4291 45.0002 22.4994 45.0002C22.5697 45.0002 22.6401 44.989 22.7077 44.9665C28.1489 43.158 32.5404 40.0167 35.7599 35.6298C38.3258 32.1336 40.1506 27.849 41.1835 22.8946C42.9339 14.5003 41.8198 7.18625 41.7715 6.87898ZM39.8907 22.6249C38.8967 27.393 37.1486 31.5055 34.6953 34.8482C31.6819 38.9541 27.5798 41.9121 22.4996 43.6427C17.4266 41.9144 13.3282 38.9619 10.3162 34.8649C7.86273 31.5279 6.11327 27.4221 5.11615 22.6616C3.67519 15.7818 4.24059 9.48485 4.46066 7.63185C7.80235 7.51882 11.8452 6.44199 16.4903 4.42666C19.4173 3.15672 21.6718 1.90244 22.4997 1.42554C23.3275 1.90244 25.5821 3.15681 28.509 4.42666C33.1541 6.44199 37.1972 7.51874 40.539 7.63185C40.7592 9.48028 41.324 15.7503 39.8907 22.6249Z" fill="white"/>
</g>
<defs>
<clipPath id="clip0_901_12179">
<rect width="45" height="45" fill="white"/>
</clipPath>
</defs>
</svg>
