<svg width="45" height="45" viewBox="0 0 45 45" fill="none" xmlns="http://www.w3.org/2000/svg">
<path d="M43.815 25.9758L37.4202 22.2837V16.379C37.4202 14.0511 35.5264 12.1572 33.1985 12.1572H30.89C32.4062 10.9917 33.386 9.16141 33.386 7.10556C33.386 3.59318 30.5284 0.735596 27.016 0.735596C23.8887 0.735596 21.2912 2.96529 20.7512 5.95463C20.0856 5.74563 19.3779 5.6326 18.6443 5.6326C17.9155 5.6326 17.2122 5.74387 16.5505 5.95015C16.0084 2.96354 13.411 0.735596 10.2865 0.735596C6.77408 0.735596 3.91649 3.59318 3.91649 7.10556C3.91649 9.16141 4.8963 10.9917 6.4125 12.1572H4.22183C1.89387 12.1572 0 14.0511 0 16.379V19.442C0 19.8061 0.295137 20.1012 0.65918 20.1012C1.02322 20.1012 1.31836 19.8061 1.31836 19.442V16.379C1.31836 14.7781 2.62081 13.4756 4.22183 13.4756H11.6444C11.8738 15.5042 12.9677 17.2734 14.5482 18.4068H11.8614C9.30085 18.4068 7.21767 20.4899 7.21767 23.0505V27.9861H1.53809C1.41697 27.9861 1.31836 27.8876 1.31836 27.7664V22.5181C1.31836 22.1539 1.02322 21.8589 0.65918 21.8589C0.295137 21.8589 0 22.1539 0 22.5181V27.7664C0 28.6144 0.690029 29.3044 1.53809 29.3044H7.21767V35.8906C7.21767 36.7387 7.9077 37.4287 8.75575 37.4287H25.8246C26.9241 39.4264 28.5559 41.1285 30.5896 42.3026L33.439 43.9477C33.8044 44.1587 34.2141 44.2642 34.6239 44.2642C35.0336 44.2642 35.4434 44.1588 35.8088 43.9477L38.6582 42.3026C42.57 40.0442 45 35.8353 45 31.3184V28.0282C45 27.1842 44.5459 26.3976 43.815 25.9758ZM33.1985 13.4756C34.7994 13.4756 36.1019 14.7781 36.1019 16.379V21.5225L35.8088 21.3533C35.078 20.9314 34.1699 20.9314 33.4389 21.3533L30.2026 23.2218V23.0505C30.2026 20.4899 28.1195 18.4068 25.5589 18.4068H22.7405C24.3209 17.2734 25.4149 15.5041 25.6443 13.4756H33.1985ZM19.5082 22.3143H17.9643L16.6547 19.727L20.78 19.7341L19.5082 22.3143ZM27.016 2.05404C29.8014 2.05404 32.0676 4.32013 32.0676 7.10564C32.0676 9.89116 29.8014 12.1573 27.016 12.1573C26.5525 12.1573 26.0965 12.0943 25.655 11.9709C25.4175 9.602 24.002 7.57516 22.0044 6.48681C22.3088 3.96997 24.4345 2.05404 27.016 2.05404ZM5.23494 7.10564C5.23494 4.32021 7.50103 2.05404 10.2865 2.05404C12.8646 2.05404 14.9897 3.96681 15.2975 6.47969C13.2917 7.56689 11.87 9.5991 11.6333 11.9751C11.1966 12.0958 10.7453 12.1572 10.2865 12.1572C7.50103 12.1572 5.23494 9.89107 5.23494 7.10564ZM12.9163 12.679C12.9163 12.6185 12.919 12.5586 12.9209 12.4985C12.9211 12.4951 12.9211 12.4916 12.9212 12.4882C13.0224 9.41796 15.5498 6.95104 18.6442 6.95104C21.8027 6.95104 24.3722 9.52053 24.3722 12.679C24.3722 15.8374 21.8027 18.4069 18.6442 18.4069C15.4858 18.4069 12.9163 15.8373 12.9163 12.679ZM16.4814 36.1103L17.5025 28.4131C17.5504 28.0522 17.2966 27.7207 16.9357 27.6729C16.5744 27.6249 16.2435 27.8788 16.1956 28.2396L15.1515 36.1103H8.75566C8.63455 36.1103 8.53594 36.0118 8.53594 35.8906V23.0506C8.53594 21.217 10.0277 19.7252 11.8613 19.7252H15.1762L16.8788 23.089L16.6003 25.1878C16.5525 25.5487 16.8063 25.88 17.1671 25.9279C17.5286 25.9768 17.8595 25.722 17.9073 25.3612L18.1366 23.6327H19.337L20.9134 36.1104H16.4814V36.1103ZM22.2423 36.1103L20.597 23.0872L22.2541 19.7252H25.5589C27.3925 19.7252 28.8842 21.217 28.8842 23.0506V23.9831L25.4327 25.9759C24.7018 26.3978 24.2477 27.1843 24.2477 28.0284V31.3185C24.2477 32.9855 24.5796 34.6101 25.1938 36.1105H22.2423V36.1103ZM43.6816 31.3184C43.6816 35.3658 41.5042 39.1372 37.999 41.1609L35.1497 42.806C34.8253 42.9932 34.4224 42.9931 34.098 42.806L31.2487 41.1609C27.7436 39.1373 25.5662 35.3657 25.5662 31.3184V28.0282C25.5662 27.6536 25.7676 27.3047 26.0919 27.1175L34.098 22.4951C34.2602 22.4016 34.442 22.3547 34.6238 22.3547C34.8057 22.3547 34.9875 22.4015 35.1496 22.4951L43.1557 27.1175C43.48 27.3048 43.6815 27.6537 43.6815 28.0282V31.3184H43.6816Z" fill="#2563EB"/>
<path d="M40.9209 28.3649L35.1866 25.0542C34.8394 24.8537 34.408 24.8537 34.0609 25.0542L28.3264 28.3649C27.9793 28.5654 27.7637 28.9389 27.7637 29.3398V31.3842C27.7637 32.2249 27.8815 33.0629 28.1139 33.8748C28.2141 34.2248 28.5793 34.4276 28.929 34.3271C29.279 34.2269 29.4815 33.8619 29.3813 33.512C29.1827 32.8181 29.0819 32.1023 29.0819 31.3843V29.4512L33.9644 26.6322V38.669L32.9494 38.083C32.0497 37.5636 31.2756 36.8797 30.6483 36.0501C30.4288 35.7598 30.0154 35.7022 29.725 35.9218C29.4346 36.1414 29.3772 36.5548 29.5967 36.8452C30.3309 37.8162 31.2371 38.6167 32.2902 39.2247L34.0608 40.2469C34.2344 40.3472 34.4289 40.3973 34.6236 40.3973C34.8183 40.3973 35.0129 40.3472 35.1864 40.2469L36.9569 39.2247C39.7491 37.6126 41.4836 34.6084 41.4836 31.3843V29.3399C41.4838 28.939 41.2681 28.5655 40.9209 28.3649ZM40.1654 31.3842C40.1654 34.1388 38.6835 36.7056 36.2979 38.0829L35.2829 38.669V26.6322L40.1654 29.4511V31.3842Z" fill="#2563EB"/>
</svg>
