<svg width="45" height="45" viewBox="0 0 45 45" fill="none" xmlns="http://www.w3.org/2000/svg">
<path d="M24.1826 30.3645L20.7963 28.8862L18.9439 27.0338C18.8231 26.913 18.66 26.8443 18.4893 26.8414V25.703C20.0761 24.666 21.2359 23.0084 21.6012 21.0327C21.6017 21.0321 21.6024 21.0314 21.603 21.0308C21.7906 21.0419 21.9806 21.0253 22.1677 20.981C23.0388 20.7749 23.671 19.9394 23.671 18.9946V18.4898C23.671 17.7913 23.3203 17.1636 22.7789 16.8015C22.9406 16.1687 23.0233 15.5212 23.0233 14.8694C23.0233 12.0067 21.4725 9.48581 19.1362 8.04265C19.1224 5.54805 17.0892 3.52271 14.5914 3.52271C12.0936 3.52271 10.0604 5.54805 10.0465 8.04265C7.71039 9.48581 6.15956 12.0067 6.15956 14.8693C6.15956 15.5193 6.24183 16.1651 6.40258 16.7961C5.86144 17.1564 5.51181 17.7867 5.51181 18.4973V18.9944C5.51181 19.9392 6.14401 20.7746 7.01509 20.9808C7.20203 21.025 7.39179 21.0417 7.57979 21.0307C7.5804 21.0313 7.58102 21.032 7.58154 21.0325C7.9469 23.0082 9.10662 24.6658 10.6935 25.7028V26.8411C10.5286 26.844 10.3646 26.9079 10.2388 27.0337L8.38644 28.886L5.00038 30.3645C3.29275 31.1098 2.19852 32.8613 2.27744 34.7229L2.68622 44.3687C2.70125 44.7229 2.99313 45.0001 3.34434 45.0001C3.35375 45.0001 3.36324 44.9999 3.37273 44.9994C3.73651 44.9841 4.01881 44.6767 4.00343 44.3129L3.59466 34.667C3.56732 34.0227 3.73924 33.3977 4.06179 32.8642L5.90934 35.0814C6.48854 35.7763 6.80749 36.6573 6.80749 37.562V44.3408C6.80749 44.7048 7.10263 45 7.46667 45C7.83071 45 8.12585 44.7048 8.12585 44.3408V37.562C8.12585 36.3495 7.69835 35.1688 6.92219 34.2373L4.96715 31.8914C5.14153 31.7682 5.32812 31.66 5.52789 31.5728L8.50044 30.2752L10.5975 33.6792C10.798 34.0045 11.1295 34.2252 11.507 34.2847C11.5749 34.2954 11.643 34.3007 11.7107 34.3007C12.0194 34.3007 12.3201 34.1913 12.5585 33.9878L13.9324 32.8154V44.3408C13.9324 44.7048 14.2276 45 14.5916 45C14.9556 45 15.2508 44.7048 15.2508 44.3408V32.8154L16.6246 33.9877C16.863 34.1912 17.1636 34.3006 17.4724 34.3006C17.5401 34.3006 17.6083 34.2953 17.6761 34.2846C18.0536 34.2252 18.3851 34.0044 18.5856 33.6791L20.6827 30.2751L23.6552 31.5727C23.855 31.6599 24.0416 31.7681 24.216 31.8913L22.2609 34.2373C21.4847 35.1687 21.0573 36.3494 21.0573 37.5619V44.3408C21.0573 44.7048 21.3524 45 21.7164 45C22.0805 45 22.3756 44.7048 22.3756 44.3408V37.562C22.3756 36.6574 22.6946 35.7764 23.2738 35.0814L25.1213 32.8642C25.4439 33.3977 25.6157 34.0227 25.5885 34.667L25.1797 44.3129C25.1643 44.6766 25.4466 44.984 25.8104 44.9994C25.8199 44.9999 25.8293 45.0001 25.8388 45.0001C26.19 45.0001 26.4819 44.7229 26.4969 44.3687L26.9057 34.7229C26.9845 32.8613 25.8903 31.1098 24.1826 30.3645ZM14.5915 4.84115C16.1229 4.84115 17.4076 5.91368 17.7363 7.34682C16.764 6.96959 15.7026 6.76138 14.5915 6.76138C13.4804 6.76138 12.4189 6.96959 11.4466 7.34682C11.7753 5.91368 13.0601 4.84115 14.5915 4.84115ZM8.87678 20.786C8.75769 20.1375 8.15714 19.6666 7.50982 19.7143C7.44769 19.7189 7.38344 19.7134 7.31884 19.6982C7.04031 19.6322 6.83026 19.3298 6.83026 18.9947V18.4976C6.83026 18.1608 7.05692 17.8571 7.34626 17.8064C7.58945 17.7637 7.82298 17.8531 7.97072 18.0457C8.09359 18.2059 8.25733 18.3204 8.44436 18.3769C8.71797 18.4594 9.02005 18.4111 9.25225 18.2472C9.78803 17.8689 10.2422 17.3892 10.6019 16.8215C10.7968 16.514 10.7054 16.1067 10.398 15.9118C10.0903 15.7169 9.68318 15.8084 9.48833 16.1158C9.28319 16.4395 9.0378 16.7239 8.75629 16.9645C8.45553 16.6997 8.08182 16.5353 7.68525 16.4904C7.54823 15.9594 7.47792 15.4161 7.47792 14.8695C7.47792 11.1257 10.669 8.07982 14.5914 8.07982C18.5138 8.07982 21.7049 11.1257 21.7049 14.8695C21.7049 15.4153 21.6349 15.9579 21.4982 16.4881C21.3045 16.5019 21.1064 16.5341 20.925 16.5824L20.3918 16.144C20.1368 15.9342 19.8166 15.8293 19.4909 15.8486C18.897 15.8837 17.3244 15.9248 15.5508 15.5506C13.3589 15.0882 11.6799 14.1743 10.5602 12.8344C10.3268 12.555 9.91108 12.5179 9.63176 12.7513C9.35236 12.9847 9.31518 13.4004 9.54862 13.6798C10.8625 15.2521 12.7904 16.3156 15.2787 16.8406C17.1982 17.2455 18.9031 17.2033 19.5581 17.1652L20.3801 17.8411C20.5929 18.0162 20.8918 18.0405 21.1301 17.9018C21.2493 17.835 21.6554 17.7719 21.8349 17.8075C22.1301 17.8663 22.3527 18.1595 22.3527 18.4898V18.9946C22.3527 19.3297 22.1426 19.6321 21.8641 19.6981C21.7995 19.7134 21.7352 19.7188 21.6731 19.7142C21.0264 19.6666 20.4253 20.1374 20.3061 20.786C19.7996 23.5437 17.3963 25.5453 14.5914 25.5453C11.7866 25.5453 9.3833 23.5437 8.87678 20.786ZM11.7128 32.9762L9.59643 29.5409L10.7052 28.4322L13.6209 31.3479L11.7128 32.9762ZM14.5915 30.4541L12.012 27.8747V26.3802C12.8158 26.6923 13.6862 26.8637 14.5915 26.8637C15.4968 26.8637 16.3672 26.6923 17.1709 26.3802V27.8747L14.5915 30.4541ZM17.4702 32.9762L15.5622 31.3479L18.4779 28.4322L19.5867 29.5409L17.4702 32.9762Z" fill="#2563EB"/>
<path d="M12.0008 37.2043H10.0576C9.69357 37.2043 9.39844 37.4995 9.39844 37.8635C9.39844 38.2276 9.69357 38.5227 10.0576 38.5227H12.0008C12.3648 38.5227 12.66 38.2276 12.66 37.8635C12.66 37.4995 12.3648 37.2043 12.0008 37.2043Z" fill="#2563EB"/>
<path d="M30.795 0C26.3542 0 22.3077 2.44204 20.2345 6.37329C20.0646 6.69532 20.188 7.09399 20.51 7.26379C20.8321 7.4336 21.2308 7.31029 21.4005 6.98826C23.245 3.49092 26.8446 1.31836 30.795 1.31836C36.6472 1.31836 41.4084 6.07956 41.4084 11.9318C41.4084 17.7841 36.6472 22.5453 30.795 22.5453C28.801 22.5453 26.8581 21.9895 25.1763 20.9379C24.8676 20.7448 24.461 20.8387 24.268 21.1473C24.075 21.456 24.1687 21.8627 24.4774 22.0557C26.369 23.2385 28.5536 23.8637 30.795 23.8637C37.3742 23.8637 42.7268 18.511 42.7268 11.9318C42.7268 5.35262 37.3742 0 30.795 0Z" fill="#2563EB"/>
<path d="M36.6664 12.9336L36.3247 12.7363C36.3653 12.4651 36.3858 12.196 36.3858 11.9319C36.3858 11.6678 36.3654 11.3986 36.3247 11.1275L36.6664 10.9302C37.26 10.5876 37.5085 9.85072 37.2442 9.21633C37.1312 8.94492 37.0009 8.68107 36.8571 8.4319C36.7132 8.18273 36.5498 7.93796 36.3713 7.70444C35.954 7.15837 35.1917 7.00527 34.5982 7.34786L34.2549 7.54606C33.8312 7.21146 33.3607 6.93882 32.8631 6.73949V6.34609C32.863 5.66063 32.3491 5.07721 31.6677 4.98888C31.0849 4.91321 30.5045 4.91321 29.9218 4.98888C29.2404 5.07721 28.7265 5.66081 28.7265 6.34618V6.73957C28.2288 6.93891 27.7583 7.21155 27.3347 7.54614L26.9915 7.34795C26.3979 7.00527 25.6356 7.15855 25.2183 7.70452C25.0397 7.93822 24.8762 8.18291 24.7325 8.43199C24.5886 8.68125 24.4583 8.94518 24.3454 9.21641C24.0813 9.85081 24.3296 10.5876 24.9232 10.9303L25.2649 11.1276C25.2243 11.3986 25.2037 11.6678 25.2037 11.932C25.2037 12.1962 25.2242 12.4653 25.2649 12.7363L24.9231 12.9337C24.3296 13.2763 24.0813 14.0131 24.3454 14.6475C24.4583 14.9187 24.5886 15.1826 24.7325 15.432C24.8764 15.6813 25.0399 15.9261 25.2183 16.1595C25.6355 16.7054 26.3977 16.8586 26.9914 16.516L27.3347 16.3178C27.7583 16.6524 28.2289 16.925 28.7265 17.1244V17.5177C28.7265 18.203 29.2403 18.7865 29.9219 18.875C30.2136 18.9128 30.5073 18.9319 30.7948 18.9319C31.0823 18.9319 31.3759 18.9128 31.6678 18.875C32.3492 18.7865 32.8631 18.2029 32.8631 17.5177V17.1244C33.3607 16.925 33.8312 16.6524 34.2549 16.3178L34.5982 16.516C35.1918 16.8587 35.954 16.7054 36.3712 16.1595C36.5496 15.9261 36.7131 15.6814 36.8571 15.4319C37.0009 15.1827 37.1312 14.9187 37.2441 14.6474C37.5083 14.0131 37.26 13.2763 36.6664 12.9336ZM34.9473 10.9433C35.027 11.2793 35.0674 11.6119 35.0674 11.9318C35.0674 12.2517 35.027 12.5843 34.9473 12.9204C34.88 13.2038 35.0068 13.4977 35.259 13.6434L36.007 14.0753C36.0287 14.0877 36.0373 14.1158 36.027 14.1405C35.9357 14.3598 35.8307 14.5725 35.7152 14.7726C35.5995 14.9731 35.4678 15.1702 35.3236 15.3588C35.3073 15.38 35.2789 15.3866 35.2572 15.3741L34.5085 14.9419C34.2561 14.7961 33.938 14.8335 33.726 15.0337C33.2394 15.4938 32.648 15.8365 32.0156 16.0248C31.7361 16.1081 31.5446 16.3651 31.5446 16.6566V17.5175C31.5446 17.5425 31.5245 17.564 31.4981 17.5674C31.0267 17.6285 30.5626 17.6285 30.0914 17.5674C30.0649 17.5639 30.0448 17.5425 30.0448 17.5175V16.6566C30.0448 16.3651 29.8532 16.1081 29.5738 16.0248C28.9414 15.8365 28.35 15.4938 27.8634 15.0337C27.7378 14.915 27.5748 14.8535 27.4104 14.8535C27.2974 14.8535 27.1837 14.8825 27.081 14.9419L26.3323 15.3741C26.3106 15.3867 26.282 15.38 26.2658 15.3587C26.1216 15.1702 25.9899 14.973 25.8742 14.7727C25.7586 14.5723 25.6536 14.3596 25.5624 14.1406C25.5521 14.1158 25.5606 14.0877 25.5823 14.0753L26.3304 13.6434C26.5827 13.4977 26.7095 13.2037 26.6422 12.9203C26.5625 12.5845 26.5221 12.2519 26.5221 11.9318C26.5221 11.6117 26.5625 11.2791 26.6422 10.9433C26.7095 10.6598 26.5827 10.3658 26.3304 10.2202L25.5823 9.78832C25.5606 9.77584 25.5521 9.7478 25.5623 9.7231C25.6536 9.50399 25.7585 9.2913 25.8741 9.09099C25.9897 8.89087 26.1215 8.69364 26.2657 8.50494C26.282 8.48367 26.3104 8.47699 26.3322 8.48956L27.0809 8.92172C27.3334 9.06744 27.6516 9.03009 27.8633 8.82987C28.3499 8.36985 28.9413 8.02708 29.5737 7.83873C29.8531 7.7555 30.0447 7.4986 30.0447 7.20698V6.34609C30.0447 6.32113 30.0648 6.29968 30.0913 6.29625C30.562 6.23517 31.0271 6.23517 31.498 6.29625C31.5245 6.29968 31.5445 6.32113 31.5445 6.34609V7.20706C31.5445 7.49868 31.7361 7.75559 32.0155 7.83882C32.6481 8.02717 33.2396 8.36985 33.7262 8.82987C33.938 9.03009 34.2562 9.06753 34.5086 8.92172L35.2572 8.48947C35.2787 8.47699 35.3073 8.48358 35.3237 8.50494C35.4679 8.69355 35.5997 8.89078 35.7152 9.09099C35.8308 9.29112 35.9358 9.50382 36.0271 9.7231C36.0374 9.7478 36.0288 9.77584 36.0071 9.78832L35.259 10.2202C35.0068 10.3658 34.8799 10.6598 34.9473 10.9433Z" fill="#2563EB"/>
<path d="M32.9098 11.2728C32.5458 11.2728 32.2506 11.5679 32.2506 11.9319C32.2506 12.7339 31.5982 13.3864 30.7962 13.3864C29.9942 13.3864 29.3418 12.7339 29.3418 11.9319C29.3418 11.1299 29.9942 10.4775 30.7962 10.4775C31.1602 10.4775 31.4554 10.1824 31.4554 9.81836C31.4554 9.45423 31.1602 9.15918 30.7962 9.15918C29.2673 9.15918 28.0234 10.403 28.0234 11.9319C28.0234 13.4609 29.2673 14.7048 30.7962 14.7048C32.3251 14.7048 33.569 13.4609 33.569 11.9319C33.569 11.5679 33.2738 11.2728 32.9098 11.2728Z" fill="#2563EB"/>
</svg>
