<svg width="45" height="45" viewBox="0 0 45 45" fill="none" xmlns="http://www.w3.org/2000/svg">
<path d="M24.3502 34.9347L22.3992 32.8643L24.3502 30.7939C24.5999 30.5289 24.5875 30.1116 24.3226 29.8619C24.0577 29.6122 23.6404 29.6245 23.3907 29.8895L21.0135 32.4122C20.7742 32.6661 20.7742 33.0624 21.0135 33.3164L23.3907 35.839C23.6404 36.1041 24.0577 36.1162 24.3226 35.8667C24.5876 35.6169 24.5999 35.1997 24.3502 34.9347Z" fill="#2563EB"/>
<path d="M32.401 32.4121L30.0238 29.8894C29.774 29.6245 29.3568 29.6122 29.0919 29.8618C28.8269 30.1115 28.8146 30.5286 29.0643 30.7937L31.0153 32.8641L29.0643 34.9345C28.8145 35.1995 28.8269 35.6168 29.0919 35.8665C29.3564 36.1158 29.7737 36.1042 30.0238 35.8389L32.401 33.3162C32.6403 33.0624 32.6403 32.6661 32.401 32.4121Z" fill="#2563EB"/>
<path d="M27.7419 29.7153C27.3958 29.6015 27.0234 29.79 26.9097 30.1357L25.2519 35.1808C25.1382 35.5267 25.3265 35.8993 25.6722 36.0129C26.0174 36.1265 26.3907 35.9388 26.5044 35.5924L28.1623 30.5473C28.2759 30.2015 28.0877 29.829 27.7419 29.7153Z" fill="#2563EB"/>
<path d="M38.3147 40.1531H37.924C37.9949 39.9504 38.0339 39.7328 38.0339 39.5062V34.5122C38.0339 34.1481 37.7388 33.853 37.3747 33.853C37.0106 33.853 36.7155 34.1481 36.7155 34.5122V39.5062C36.7155 39.8629 36.4253 40.1531 36.0687 40.1531H17.3431C16.9864 40.1531 16.6963 39.8629 16.6963 39.5062C16.6963 38.7736 16.6963 25.9051 16.6963 25.2936C16.6963 25.2713 16.6975 25.2493 16.6996 25.2276C16.7329 24.9019 17.0088 24.6468 17.3431 24.6468C18.2425 24.6468 34.9811 24.6468 36.0686 24.6468C36.4253 24.6468 36.7154 24.937 36.7154 25.2937V31.4358C36.7154 31.7998 37.0105 32.0949 37.3746 32.0949C37.7387 32.0949 38.0338 31.7998 38.0338 31.4358V25.2937C38.0338 24.21 37.1521 23.3284 36.0685 23.3284H29.288L23.6774 21.1555V19.3072C24.9291 18.3337 25.797 16.8906 26.0149 15.2444C26.639 15.2004 27.2181 14.9673 27.6911 14.5607C28.3087 14.0295 28.6631 13.2565 28.6631 12.4402C28.6631 11.7628 28.4186 11.1159 27.983 10.6119V8.1697C27.9831 3.66495 24.3184 0 19.8136 0C15.3089 0 11.644 3.66495 11.644 8.1697V10.6755C11.2038 11.1746 10.9643 11.7887 10.9643 12.44C10.9643 13.8984 12.0846 15.1364 13.6115 15.2442C13.8313 16.9219 14.7248 18.4186 16.0827 19.4048V21.1556L8.21029 24.2076C8.20616 24.2092 8.20203 24.2109 8.1979 24.2125C8.05587 24.2709 4.71875 25.6876 4.71875 29.5851C4.71875 30.4477 4.71875 42.9506 4.71875 43.3176C4.71875 44.2454 5.47355 45 6.40115 45C6.98729 45 24.9031 45 25.168 45C25.5321 45 25.8272 44.7049 25.8272 44.3408C25.8272 43.9768 25.5321 43.6816 25.168 43.6816H15.0971C15.0525 43.6816 15.0089 43.6771 14.9669 43.6685C14.6725 43.608 14.4503 43.3469 14.4503 43.0348V42.1184C14.4503 41.7618 14.7405 41.4716 15.0971 41.4716C16.0417 41.4716 37.0077 41.4716 38.3147 41.4716C38.6713 41.4716 38.9615 41.7618 38.9615 42.1184V43.0348C38.9615 43.3914 38.6712 43.6816 38.3147 43.6816H28.2441C27.88 43.6816 27.5849 43.9768 27.5849 44.3408C27.5849 44.7049 27.88 45 28.2441 45H38.3147C39.3984 45 40.2799 44.1183 40.2799 43.0347V42.1183C40.28 41.0346 39.3984 40.1531 38.3147 40.1531ZM22.3591 21.3734L20.7755 23.3282H18.9847L17.4011 21.3734V20.1343C18.1531 20.437 19.0103 20.6069 19.8936 20.6069C20.7688 20.6069 21.6258 20.4142 22.3592 20.093V21.3734H22.3591ZM25.1029 23.1212L24.9996 23.3282H22.4721L23.2281 22.3951L25.1029 23.1212ZM27.3447 12.44C27.3447 12.8718 27.1577 13.2804 26.8316 13.5608C26.6159 13.7463 26.3556 13.8648 26.0704 13.9112V10.9689C26.8278 11.0922 27.3447 11.7203 27.3447 12.44ZM13.557 13.9112C12.7907 13.7869 12.2826 13.1532 12.2826 12.4399C12.2826 11.7353 12.8667 11.1617 13.557 11.0021V13.9112ZM13.5923 9.65892C13.3778 9.68361 13.1375 9.74136 12.9623 9.80086V8.1697C12.9623 4.39189 16.0358 1.31845 19.8135 1.31845C23.5912 1.31845 26.6647 4.39189 26.6647 8.1697V9.7556C26.4731 9.69732 26.2743 9.65883 26.0704 9.64072C26.0704 9.35561 26.0721 9.21762 25.8731 8.94445C25.6525 8.64158 25.2191 8.20608 23.9951 6.89045C23.995 6.89036 23.995 6.89036 23.9949 6.89027C23.6126 6.47938 22.9822 6.39097 22.4976 6.70781C20.201 8.20802 17.4002 8.96194 14.8147 8.77605C14.2428 8.73264 13.7301 9.1125 13.5923 9.65892ZM14.8785 14.5524C14.8785 14.5509 14.8786 14.5495 14.8786 14.548L14.8772 14.5041C14.8768 14.4795 14.8754 14.4548 14.8754 14.4302V10.3177V10.101C17.6604 10.2641 20.6473 9.4587 23.1141 7.87887C24.051 8.88504 24.5858 9.44165 24.7518 9.64538C24.7518 10.1625 24.7518 13.8382 24.7518 14.4301C24.7518 14.4528 24.7504 14.4751 24.7502 14.4976L24.7486 14.5467C24.7485 14.5489 24.7488 14.551 24.7488 14.5532C24.6832 17.1704 22.538 19.2884 19.8935 19.2884C16.8396 19.2885 14.942 16.9357 14.8785 14.5524ZM9.94464 43.6816H6.40089C6.20023 43.6816 6.03693 43.5183 6.03693 43.3176V37.6819H9.58051C9.78116 37.6819 9.94455 37.8452 9.94455 38.0458C9.94464 38.7243 9.94464 43.0349 9.94464 43.6816ZM15.0971 40.1531C14.0134 40.1531 13.1318 41.0347 13.1318 42.1183V43.0347C13.1318 43.0347 13.1318 43.0347 13.1318 43.0348C13.1318 43.2578 13.1708 43.4803 13.2412 43.6816H11.2632C11.2632 42.5472 11.2632 34.6343 11.2632 33.5287C11.2632 33.1646 10.9681 32.8695 10.604 32.8695C10.2399 32.8695 9.94481 33.1646 9.94481 33.5287V36.4042C9.82748 36.3782 9.70593 36.3634 9.58077 36.3634H6.03693V29.585C6.03693 26.6169 8.54147 25.4993 8.69501 25.4336L13.4265 23.5993L15.3777 27.5099V39.5062C15.3777 39.7138 15.4121 39.9386 15.487 40.1531H15.0971ZM15.4617 24.7249L14.6615 23.1212L16.5329 22.3964L17.2884 23.329C16.4381 23.3523 15.708 23.9214 15.4617 24.7249Z" fill="#2563EB"/>
</svg>
