<svg width="64" height="64" viewBox="0 0 64 64" fill="none" xmlns="http://www.w3.org/2000/svg">
<path d="M21.9515 39.4866C22.3883 39.2084 22.5168 38.629 22.2388 38.1923C21.187 36.5403 20.5792 34.657 20.4604 32.707H22.3411C22.6819 37.4095 26.3914 41.1918 31.063 41.6425V43.5263C28.8429 43.3496 26.7512 42.5448 24.9659 41.1716C24.5551 40.8559 23.9668 40.9327 23.6511 41.3433C23.3354 41.7537 23.4123 42.3423 23.8227 42.6581C26.1883 44.4774 29.0162 45.4389 32.0005 45.4389C39.4102 45.4389 45.4385 39.4106 45.4385 32.0009C45.4385 24.5912 39.4102 18.5629 32.0005 18.5629C24.5909 18.5629 18.5625 24.5912 18.5625 32.0009C18.5625 34.558 19.2868 37.0472 20.6572 39.1994C20.9352 39.6359 21.5145 39.7647 21.9515 39.4866ZM24.2211 32.707H27.0003C27.5182 32.707 27.9379 32.2874 27.9379 31.7695C27.9379 31.2516 27.5182 30.832 27.0003 30.832H24.2755C24.7954 27.3813 27.5806 24.6649 31.063 24.2462V27.0006C31.063 27.5185 31.4826 27.9381 32.0005 27.9381C32.5184 27.9381 32.9381 27.5185 32.9381 27.0006V24.2462C36.4977 24.6741 39.3272 27.5036 39.7551 31.0632H37.0007C36.4828 31.0632 36.0632 31.4829 36.0632 32.0008C36.0632 32.5187 36.4828 32.9383 37.0007 32.9383H39.7551C39.3272 36.4979 36.4977 39.3274 32.9381 39.7553V36.7696C32.9381 36.2517 32.5184 35.832 32.0005 35.832C31.4826 35.832 31.063 36.2517 31.063 36.7696V39.7553C27.4265 39.3182 24.5515 36.3748 24.2211 32.707ZM32.9381 43.5256V41.6425C37.5329 41.1991 41.1988 37.5332 41.6423 32.9383H43.5254C43.0715 38.568 38.5678 43.0717 32.9381 43.5256ZM43.5254 31.0632H41.6423C41.1989 26.4684 37.533 22.8025 32.9381 22.359V20.4759C38.5678 20.9298 43.0715 25.4335 43.5254 31.0632ZM31.063 20.4759V22.359C26.5457 22.7949 22.9279 26.346 22.3856 30.8318H20.4963C21.0531 25.3105 25.5105 20.9237 31.063 20.4759Z" fill="#2563EB"/>
<path d="M63.9125 29.6103C63.8292 27.7903 61.8007 26.3789 59.9608 27.0694L58.7545 27.5165C57.8268 21.9956 55.1614 16.817 51.1715 12.8273C47.1822 8.83844 42.0043 6.17396 36.4843 5.24642L36.9315 4.04013C37.2552 3.16684 37.1524 2.21656 36.6492 1.43302C36.1452 0.647744 35.3219 0.1576 34.3906 0.0882222C32.8073 -0.0294074 31.193 -0.0294074 29.6097 0.0882222C27.7897 0.1716 26.3782 2.20005 27.0688 4.04L27.516 5.2463C24.4805 5.75219 21.5775 6.76561 18.8718 8.26817C18.4191 8.51955 18.256 9.0902 18.5074 9.54297C18.6786 9.85148 18.9984 10.0254 19.3278 10.0254C19.4817 10.0254 19.6378 9.98736 19.7821 9.90736C22.4052 8.4508 25.2273 7.48801 28.1805 7.03899L28.8474 8.83831C23.815 9.52309 19.1074 11.8516 15.4825 15.4747C11.8547 19.1006 9.52303 23.8115 8.83775 28.848L7.03818 28.1809C7.99372 21.8923 11.2592 16.2557 16.2882 12.2472C16.6931 11.9244 16.7596 11.3345 16.4369 10.9296C16.114 10.5248 15.5243 10.4581 15.1194 10.7809C9.82016 15.0048 6.34478 20.9134 5.24586 27.5167L4.03956 27.0695C2.41112 26.4073 0.184161 27.6328 0.0876574 29.6104C-0.0182218 31.0449 -0.0372225 32.7292 0.0876574 34.3913C0.221788 36.1971 2.10686 37.6418 4.03944 36.9322L5.24561 36.485C6.1734 42.0066 8.84 47.1866 12.8308 51.1761C16.8196 55.1636 21.9971 57.828 27.5159 58.7551L27.0687 59.9613C26.4067 61.5896 27.6319 63.8168 29.6096 63.9132C31.0441 64.0191 32.7284 64.0381 34.3905 63.9132C36.2104 63.8298 37.622 61.8014 36.9314 59.9614L36.4842 58.7551C42.0072 57.8272 47.1879 55.1598 51.1779 51.1675C55.1642 47.1789 57.8272 42.0027 58.7543 36.4849L59.9606 36.932C61.5239 37.6083 63.8412 36.3685 63.9125 34.3912C64.0184 32.9566 64.0374 31.2723 63.9125 29.6103ZM28.9288 2.44594C29.1117 2.16118 29.4106 1.9833 29.7488 1.95817C31.0997 1.85829 32.6862 1.84042 34.2515 1.95817C34.8366 2.03017 35.3979 2.55107 35.1734 3.38835L32.2933 11.1583C32.2308 11.3268 32.0994 11.3622 32.0002 11.3622C31.9009 11.3622 31.7695 11.3268 31.707 11.1583L28.8269 3.38823C28.7098 3.07271 28.747 2.7292 28.9288 2.44594ZM29.5164 10.6435L29.9488 11.8101C30.2702 12.6772 31.0754 13.2374 32 13.2374C32.9247 13.2374 33.7298 12.6772 34.0512 11.8101L34.4836 10.6435C40.6576 11.3553 46.1892 14.689 49.7429 19.8694C49.9246 20.1343 50.2181 20.2768 50.5168 20.2768C50.6995 20.2768 50.8841 20.2234 51.0462 20.1123C51.4732 19.8194 51.5818 19.2357 51.2889 18.8088C47.5139 13.3056 41.6833 9.7196 35.1529 8.83769L35.8196 7.03937C46.752 8.69906 55.3018 17.2486 56.9615 28.1812L55.1628 28.848C54.8788 26.7498 54.3124 24.7068 53.4712 22.7595C53.266 22.2843 52.7147 22.0652 52.2388 22.2707C51.7636 22.4761 51.5447 23.0279 51.7501 23.5031C52.5788 25.4218 53.1177 27.4418 53.3574 29.5172L52.1907 29.9496C51.3235 30.271 50.7634 31.0762 50.7634 32.0008C50.7634 32.9255 51.3235 33.7307 52.1907 34.0521L53.3572 34.4844C52.2161 44.4303 44.4309 52.2166 34.4836 53.3581L34.0512 52.1915C33.7298 51.3243 32.9247 50.7642 32 50.7642C31.0754 50.7642 30.2702 51.3243 29.9488 52.1915L29.5164 53.3581C19.5695 52.2166 11.7839 44.4301 10.6428 34.4844L11.8094 34.0521C12.6765 33.7307 13.2367 32.9255 13.2367 32.0008C13.2367 31.0762 12.6765 30.271 11.8094 29.9496L10.6429 29.5172C11.7842 19.571 19.5713 11.7847 29.5164 10.6435ZM3.38754 35.174C2.92902 35.3626 2.01036 35.0613 1.95748 34.2521C1.8576 32.9011 1.83973 31.3147 1.95748 29.7494C2.14211 29.1691 2.34475 28.593 3.38766 28.8275L11.1576 31.7076C11.3261 31.7701 11.3615 31.9015 11.3615 32.0007C11.3615 32.1 11.3261 32.2314 11.1576 32.2939L3.38754 35.174ZM7.0383 35.8204L8.83775 35.1533C9.5224 40.1854 11.8506 44.8927 15.4734 48.5176C19.0995 52.1458 23.8105 54.4776 28.8473 55.163L28.1804 56.9623C17.2511 55.3028 8.69812 46.7503 7.0383 35.8204ZM35.0713 61.5555C34.8884 61.8403 34.5895 62.0181 34.2512 62.0433C32.7602 62.1544 31.2396 62.1544 29.7486 62.0433C29.1634 61.9713 28.6021 61.4504 28.8267 60.6131L31.7068 52.8432C31.7693 52.6747 31.9007 52.6393 31.9999 52.6393C32.0992 52.6393 32.2305 52.6747 32.293 52.8432L35.1732 60.6132C35.2903 60.9287 35.253 61.2722 35.0713 61.5555ZM35.8197 56.9624L35.1528 55.1631C40.1896 54.4778 44.9007 52.1459 48.5268 48.5176C52.1496 44.8927 54.4777 40.1855 55.1623 35.1535L56.9616 35.8205C55.3021 46.751 46.7516 55.3025 35.8197 56.9624ZM62.0426 34.2521C61.9707 34.8372 61.4497 35.3985 60.6124 35.174L52.8425 32.2939C52.674 32.2314 52.6386 32.1 52.6386 32.0007C52.6386 31.9015 52.674 31.7701 52.8425 31.7076L60.6125 28.8275C61.071 28.6388 61.9897 28.9401 62.0426 29.7494C62.1425 31.1004 62.1603 32.6867 62.0426 34.2521Z" fill="#2563EB"/>
</svg>
