<svg width="64" height="64" viewBox="0 0 64 64" fill="none" xmlns="http://www.w3.org/2000/svg">
<g clip-path="url(#clip0_901_6626)">
<path d="M60.7177 14.1494C60.5829 12.0331 59.2181 10.1635 57.2421 9.38617L34.0394 0.25824C32.7411 -0.252502 31.3104 -0.252991 30.0116 0.25824L6.80944 9.38617C4.83288 10.1635 3.46862 12.0331 3.33386 14.1494C3.20495 16.1699 2.75817 26.8203 6.62878 38.0722C8.56482 43.7006 11.2816 48.6054 14.7035 52.6503C18.8207 57.517 23.9921 61.1713 30.0741 63.5117C30.7035 63.7539 31.3646 63.875 32.0258 63.875C32.6869 63.875 33.348 63.7539 33.9774 63.5117C40.0595 61.1713 45.2308 57.517 49.348 52.6503C52.7699 48.6054 55.4862 43.7006 57.4227 38.0722C61.2933 26.8203 60.8466 16.1699 60.7177 14.1494ZM55.6439 37.4604C53.7836 42.8671 51.1825 47.5693 47.912 51.4355C44.0014 56.0581 39.0858 59.5307 33.3021 61.7563C32.4789 62.0727 31.5721 62.0727 30.7494 61.7563C24.9657 59.5307 20.0502 56.0581 16.1395 51.4355C12.869 47.5693 10.2675 42.8676 8.40759 37.4604C4.65319 26.5473 5.08581 16.227 5.21081 14.269C5.29919 12.8779 6.19714 11.6484 7.49841 11.1367L30.7001 2.00824C31.1278 1.84027 31.5765 1.75629 32.0258 1.75629C32.4745 1.75629 32.9237 1.84027 33.351 2.00824L56.5531 11.1367C57.8539 11.6484 58.7518 12.8779 58.8407 14.269C58.9652 16.227 59.3978 26.5473 55.6439 37.4604Z" fill="#2563EB"/>
<path d="M51.8387 13.9302L33.6771 6.78564C32.6122 6.3667 31.4398 6.3667 30.3753 6.78564L12.2137 13.9302C10.5931 14.5679 9.47445 16.1011 9.3641 17.8359C9.28451 19.0835 9.16049 22.4678 9.72152 26.9336C9.78646 27.4492 10.2577 27.8145 10.7723 27.7495C11.2874 27.6846 11.6527 27.2144 11.5877 26.6987C11.0467 22.3921 11.1654 19.1494 11.2411 17.9556C11.3055 16.9453 11.9579 16.0522 12.9027 15.6807L31.0638 8.53565C31.6844 8.2915 32.368 8.2915 32.9886 8.53565L51.1498 15.6807C52.0946 16.0522 52.7469 16.9453 52.8114 17.9556C52.9398 19.9688 53.743 37.9478 42.5785 49.0371C42.2098 49.4028 42.2079 49.9985 42.5741 50.3672C42.7577 50.5523 42.9999 50.6445 43.2416 50.6445C43.4808 50.6445 43.7206 50.5537 43.9042 50.3716C55.6576 38.6973 54.8221 19.9365 54.6883 17.8359C54.5775 16.1011 53.4593 14.5679 51.8387 13.9302Z" fill="#2563EB"/>
<path d="M39.3464 51.7817C37.4152 53.1767 35.2634 54.3354 32.9519 55.2251C32.3547 55.4546 31.6975 55.4546 31.1003 55.2251C18.8205 50.4995 14.1013 39.4243 12.3049 30.9648C12.1975 30.4565 11.6965 30.1323 11.1896 30.2402C10.6818 30.3481 10.3571 30.8471 10.465 31.3554C12.3581 40.27 17.3581 51.9521 30.425 56.9804C30.9411 57.1792 31.4836 57.2783 32.0261 57.2783C32.5686 57.2783 33.111 57.1792 33.6272 56.9804C36.0905 56.0327 38.385 54.7964 40.448 53.3061C40.8689 53.0024 40.9636 52.4145 40.6599 51.9931C40.3552 51.5722 39.7673 51.4775 39.3464 51.7817Z" fill="#2563EB"/>
<path d="M32.0254 17.8887C24.3135 17.8887 18.0391 24.1626 18.0391 31.8745C18.0391 39.5869 24.3135 45.8608 32.0254 45.8608C39.7373 45.8608 46.0112 39.5869 46.0112 31.875C46.0112 24.1631 39.7373 17.8887 32.0254 17.8887ZM32.0254 43.98C25.3506 43.98 19.9199 38.5498 19.9199 31.875C19.9199 25.2002 25.3506 19.7695 32.0254 19.7695C38.7002 19.7695 44.1304 25.2002 44.1304 31.875C44.1304 38.5498 38.7002 43.98 32.0254 43.98Z" fill="#2563EB"/>
<path d="M40.9491 28.232C40.9183 27.3003 40.4969 26.416 39.7923 25.8052L39.5638 25.6075C38.2103 24.4346 36.1795 24.5288 34.9408 25.8223L29.9593 31.024L28.7044 29.8946C27.3319 28.6597 25.2074 28.7691 23.9686 30.1387C23.3538 30.8189 23.0482 31.6973 23.1092 32.6123C23.1698 33.5274 23.5882 34.3579 24.2879 34.9507L28.0804 38.166C28.7142 38.7032 29.4847 38.9688 30.2528 38.9688C31.1058 38.9688 31.9564 38.6407 32.6121 37.9922L39.9544 30.729C40.617 30.0733 40.9793 29.1631 40.9491 28.232ZM38.6317 29.3916L31.2894 36.6548C30.7415 37.1968 29.8846 37.2295 29.2967 36.7315L25.5042 33.5161C25.1966 33.2554 25.0125 32.8902 24.9857 32.4878C24.9588 32.0855 25.0931 31.6992 25.3636 31.3999C25.6546 31.0786 26.056 30.9151 26.4593 30.9151C26.8114 30.9151 27.1649 31.0396 27.4461 31.293L28.8241 32.5332C29.515 33.1548 30.5599 33.1162 31.203 32.4449L36.2992 27.1236C36.8436 26.5547 37.7367 26.5132 38.3319 27.0288L38.5604 27.2271C38.8748 27.4991 39.055 27.878 39.0687 28.294C39.0829 28.7095 38.9276 29.0992 38.6317 29.3916Z" fill="#2563EB"/>
</g>
<defs>
<clipPath id="clip0_901_6626">
<rect width="64" height="64" fill="white"/>
</clipPath>
</defs>
</svg>
