<svg width="64" height="64" viewBox="0 0 64 64" fill="none" xmlns="http://www.w3.org/2000/svg">
<g clip-path="url(#clip0_901_7696)">
<path d="M52.3364 14.81C52.8558 14.3036 53.0392 13.5606 52.815 12.8707C52.5909 12.1809 52.0057 11.6875 51.2878 11.5832L47.2919 11.0025C47.2865 11.0017 47.2818 10.9982 47.2793 10.9932L45.4923 7.37237C45.1713 6.722 44.521 6.31787 43.7958 6.31787C43.0705 6.31787 42.4204 6.72187 42.0994 7.37237L40.3124 10.9932C40.3099 10.9982 40.3052 11.0017 40.2998 11.0025L36.3038 11.5832C35.586 11.6875 35.0008 12.1809 34.7767 12.8706C34.5524 13.5605 34.7359 14.3036 35.2553 14.81L38.1468 17.6284C38.1507 17.6322 38.1525 17.6379 38.1517 17.6432L37.4689 21.623C37.3464 22.3379 37.6348 23.0469 38.2215 23.4732C38.8084 23.8995 39.5719 23.9549 40.2138 23.6172L43.788 21.7382C43.7928 21.7356 43.7987 21.7356 43.8034 21.7382L47.3775 23.6172C47.6568 23.764 47.9589 23.8365 48.2597 23.8365C48.6503 23.8365 49.0383 23.7141 49.3699 23.4731C49.9568 23.0467 50.245 22.3377 50.1224 21.623L49.4399 17.6432C49.439 17.6379 49.4409 17.6322 49.4448 17.6284L52.3364 14.81ZM48.136 16.2859C47.6903 16.7206 47.4869 17.3466 47.592 17.9602L48.2764 21.9479C48.2738 21.9531 48.263 21.9611 48.2504 21.9577L44.6764 20.0787C44.125 19.7889 43.467 19.7889 42.9157 20.0787L39.3348 21.9619C39.3289 21.9609 39.3182 21.9531 39.3172 21.9401L39.9998 17.9604C40.1052 17.3466 39.9018 16.7207 39.4558 16.2859L36.5582 13.462C36.5573 13.4562 36.5613 13.4436 36.5734 13.4387L40.5695 12.858C41.1858 12.7685 41.7182 12.3816 41.9939 11.8231L43.784 8.19487C43.7873 8.19312 43.794 8.1925 43.7992 8.1925C43.802 8.1925 43.8044 8.19262 43.8055 8.193C43.8055 8.193 43.8078 8.1955 43.811 8.20212L45.598 11.8231C45.8737 12.3815 46.4062 12.7684 47.0225 12.8579L51.0264 13.4394C51.0304 13.4435 51.0345 13.4561 51.0277 13.4672L48.136 16.2859Z" fill="#2563EB"/>
<path d="M23.3059 28.2755H6.30176C5.78401 28.2755 5.36426 28.6953 5.36426 29.213C5.36426 29.7308 5.78401 30.1505 6.30176 30.1505H23.3059C23.8236 30.1505 24.2434 29.7308 24.2434 29.213C24.2434 28.6953 23.8236 28.2755 23.3059 28.2755Z" fill="#2563EB"/>
<path d="M57.4813 33.4875H40.5595C41.1715 32.526 41.5204 31.4118 41.563 30.2382C42.2912 30.3504 43.037 30.4087 43.7962 30.4087C46.7383 30.4087 49.5741 29.5378 51.9971 27.8902C52.4252 27.5991 52.5363 27.016 52.2451 26.5879C51.9539 26.1596 51.371 26.0486 50.9426 26.3397C48.8319 27.7751 46.3606 28.5337 43.7961 28.5337C36.7747 28.5337 31.0624 22.822 31.0624 15.8012C31.0624 8.78048 36.7747 3.06873 43.7961 3.06873C50.8169 3.06873 56.5286 8.78048 56.5286 15.8012C56.5286 18.799 55.4661 21.7106 53.5368 23.9995C53.203 24.3954 53.2534 24.9867 53.6493 25.3205C54.0451 25.6542 54.6365 25.6038 54.9702 25.2078C57.1842 22.5812 58.4035 19.2406 58.4035 15.8012C58.4035 7.7466 51.8506 1.19373 43.796 1.19373C36.7661 1.19373 30.8806 6.1846 29.496 12.8087H6.51875C2.92438 12.8087 0 15.7331 0 19.3275V41.1887C0 41.5416 0.198125 41.8646 0.51275 42.0245C0.646875 42.0926 0.7925 42.1262 0.937375 42.1262C1.1325 42.1262 1.3265 42.0654 1.49 41.9461L8.93563 36.5139H23.4487C22.8049 37.5242 22.43 38.722 22.43 40.0064V50.6739C22.43 54.2684 25.3544 57.1926 28.9487 57.1926H31.185C31.7027 57.1926 32.1225 56.7729 32.1225 56.2551C32.1225 55.7374 31.7027 55.3176 31.185 55.3176H28.9487C26.3883 55.3176 24.305 53.2344 24.305 50.6739V40.0064C24.305 37.4459 26.3883 35.3626 28.9487 35.3626H38.4453H38.4456H38.4464H57.4813C60.0418 35.3626 62.125 37.4459 62.125 40.0064V60.0241L55.9226 55.4979C55.7623 55.3807 55.5686 55.3177 55.37 55.3177H34.93C34.4121 55.3177 33.9925 55.7375 33.9925 56.2552C33.9925 56.773 34.4121 57.1927 34.93 57.1927H55.0643L62.5098 62.6262C62.6734 62.7456 62.8672 62.8065 63.0625 62.8065C63.2074 62.8065 63.353 62.7729 63.487 62.7047C63.8018 62.5449 63.9999 62.2219 63.9999 61.869V40.0065C64 36.4119 61.0756 33.4875 57.4813 33.4875ZM25.2554 34.6387H8.63C8.43138 34.6387 8.23787 34.7019 8.0775 34.8189L1.875 39.3442V19.3275C1.875 16.767 3.95825 14.6837 6.51875 14.6837H29.2299C29.2019 15.0526 29.1875 15.4252 29.1875 15.8012C29.1875 16.9871 29.3306 18.1401 29.5986 19.2447H6.3025C5.78475 19.2447 5.365 19.6645 5.365 20.1822C5.365 20.7 5.78475 21.1197 6.3025 21.1197H30.1901C30.555 22.0498 31.0131 22.9335 31.5521 23.7597H6.3025C5.78475 23.7597 5.365 24.1795 5.365 24.6972C5.365 25.215 5.78475 25.6347 6.3025 25.6347H33.0029C34.7855 27.5892 37.0908 29.059 39.695 29.8218V29.995C39.695 31.3494 39.1208 32.6056 38.11 33.4875H28.9487C27.5784 33.4875 26.306 33.9135 25.2554 34.6387Z" fill="#2563EB"/>
<path d="M28.7324 46.314H57.6979C58.2158 46.314 58.6354 45.8942 58.6354 45.3765C58.6354 44.8587 58.2158 44.439 57.6979 44.439H28.7324C28.2147 44.439 27.7949 44.8587 27.7949 45.3765C27.7949 45.8942 28.2147 46.314 28.7324 46.314Z" fill="#2563EB"/>
<path d="M28.7324 41.7982H57.6979C58.2158 41.7982 58.6354 41.3785 58.6354 40.8607C58.6354 40.343 58.2158 39.9232 57.6979 39.9232H28.7324C28.2147 39.9232 27.7949 40.343 27.7949 40.8607C27.7949 41.3785 28.2147 41.7982 28.7324 41.7982Z" fill="#2563EB"/>
<path d="M28.7324 50.8296H45.7365C46.2544 50.8296 46.674 50.4098 46.674 49.8921C46.674 49.3743 46.2544 48.9546 45.7365 48.9546H28.7324C28.2147 48.9546 27.7949 49.3743 27.7949 49.8921C27.7949 50.4098 28.2147 50.8296 28.7324 50.8296Z" fill="#2563EB"/>
</g>
<defs>
<clipPath id="clip0_901_7696">
<rect width="64" height="64" fill="white"/>
</clipPath>
</defs>
</svg>
