<svg width="64" height="64" viewBox="0 0 64 64" fill="none" xmlns="http://www.w3.org/2000/svg">
<path d="M30.8669 52.7079V21.6458C30.8669 21.6353 30.8657 21.6251 30.8653 21.6146C30.8649 21.6036 30.8644 21.5926 30.8637 21.5816C30.861 21.5426 30.8567 21.5041 30.8494 21.4666C30.849 21.465 30.849 21.4635 30.8487 21.4619C30.8404 21.4206 30.8289 21.3806 30.8155 21.3415C30.8129 21.334 30.8102 21.3268 30.8074 21.3193C30.7937 21.2824 30.7783 21.2465 30.7602 21.212C30.7589 21.2096 30.7579 21.207 30.7565 21.2046C30.737 21.1681 30.7148 21.1335 30.6908 21.1C30.6854 21.0925 30.6799 21.0853 30.6743 21.0779C30.6488 21.0445 30.6219 21.0121 30.5922 20.9825L20.2383 10.6288C20.2087 10.5991 20.1764 10.5723 20.1432 10.5469C20.1357 10.5413 20.1283 10.5355 20.1207 10.5301C20.0873 10.5063 20.0528 10.484 20.0164 10.4645C20.0138 10.4631 20.011 10.462 20.0084 10.4606C19.974 10.4426 19.9383 10.4273 19.9015 10.4136C19.8942 10.4109 19.8869 10.4081 19.8794 10.4055C19.8402 10.392 19.8002 10.3805 19.7588 10.3723C19.7575 10.372 19.7563 10.3719 19.755 10.3716C19.717 10.3643 19.6782 10.3599 19.6387 10.3571C19.628 10.3564 19.6174 10.3559 19.6068 10.3555C19.5962 10.3551 19.5858 10.3539 19.5752 10.3539H11.0959C10.5782 10.3539 10.1584 10.7736 10.1584 11.2914C10.1584 11.8091 10.5782 12.2289 11.0959 12.2289H18.6378V21.6455C18.6378 22.1633 19.0575 22.583 19.5753 22.583H28.9919V51.7701H3.94629V12.2291H7.34604C7.86379 12.2291 8.28354 11.8094 8.28354 11.2916C8.28354 10.7739 7.86379 10.3541 7.34604 10.3541H3.00879C2.49104 10.3541 2.07129 10.7739 2.07129 11.2916V52.7079C2.07129 53.2256 2.49104 53.6454 3.00879 53.6454H29.9294C30.4472 53.6454 30.8669 53.2256 30.8669 52.7079ZM20.5128 20.7083V13.5549L27.6662 20.7083H20.5128Z" fill="white"/>
<path d="M11.2919 14.4957H7.15039C6.63264 14.4957 6.21289 14.9155 6.21289 15.4332V19.5747C6.21289 20.0925 6.63264 20.5122 7.15039 20.5122H11.2919C11.8096 20.5122 12.2294 20.0925 12.2294 19.5747V15.4332C12.2294 14.9155 11.8096 14.4957 11.2919 14.4957ZM10.3544 18.6372H8.08789V16.3707H10.3544V18.6372Z" fill="white"/>
<path d="M26.7251 25.7874C26.7251 25.2696 26.3054 24.8499 25.7876 24.8499H7.15039C6.63264 24.8499 6.21289 25.2696 6.21289 25.7874V29.9291C6.21289 30.4469 6.63264 30.8666 7.15039 30.8666H25.7878C26.3055 30.8666 26.7253 30.4469 26.7253 29.9291L26.7251 25.7874ZM24.8501 28.9916H8.08789V26.7249H24.8503L24.8501 28.9916Z" fill="white"/>
<path d="M26.7251 38.2124V34.0707C26.7251 33.553 26.3054 33.1332 25.7876 33.1332H7.15039C6.63264 33.1332 6.21289 33.553 6.21289 34.0707V38.2124C6.21289 38.7301 6.63264 39.1499 7.15039 39.1499H25.7878C26.3054 39.1499 26.7251 38.7301 26.7251 38.2124ZM24.8501 37.2749H8.08789V35.0082H24.8503L24.8501 37.2749Z" fill="white"/>
<path d="M7.15039 41.4164C6.63264 41.4164 6.21289 41.8361 6.21289 42.3539V46.4955C6.21289 47.0133 6.63264 47.433 7.15039 47.433H15.4338C15.9515 47.433 16.3713 47.0133 16.3713 46.4955V42.3539C16.3713 41.8361 15.9515 41.4164 15.4338 41.4164H7.15039ZM14.4963 45.558H8.08789V43.2914H14.4963V45.558Z" fill="white"/>
<path d="M16.4687 8.08737C16.9865 8.08737 17.4062 7.66763 17.4062 7.14988V1.875H46.5939V4.88637L46.1235 4.416C45.7573 4.04987 45.1638 4.04987 44.7976 4.416C44.4315 4.78212 44.4315 5.37575 44.7976 5.74175L46.8675 7.81163C46.8896 7.83388 46.9129 7.85488 46.9371 7.87475C46.9389 7.87625 46.9409 7.8775 46.9427 7.879C46.9647 7.89675 46.9874 7.91375 47.0109 7.9295C47.0133 7.93113 47.0158 7.93237 47.0181 7.93388C47.0414 7.94913 47.0651 7.9635 47.0898 7.97675C47.0914 7.97762 47.093 7.97825 47.0946 7.97913C47.12 7.9925 47.146 8.005 47.1728 8.016C47.1735 8.01625 47.1743 8.0165 47.1749 8.01675C47.2023 8.028 47.2301 8.03813 47.2588 8.04675C47.26 8.04712 47.2614 8.04738 47.2628 8.04775C47.2905 8.056 47.3186 8.06325 47.3474 8.069C47.353 8.07013 47.3589 8.07062 47.3645 8.07162C47.3889 8.076 47.4132 8.08013 47.4381 8.08263C47.467 8.0855 47.4961 8.08687 47.5254 8.087C47.5275 8.087 47.5295 8.08725 47.5316 8.08725C47.563 8.08725 47.5943 8.08563 47.6253 8.0825C47.6471 8.08038 47.6684 8.0765 47.6898 8.07288C47.6986 8.07137 47.7076 8.07063 47.7164 8.06888C47.7421 8.06375 47.7673 8.057 47.7923 8.04975C47.7965 8.0485 47.8009 8.04775 47.8051 8.0465C47.8304 8.03888 47.8549 8.02975 47.8791 8.02C47.8831 8.01838 47.8874 8.01725 47.8914 8.0155C47.9141 8.006 47.9361 7.99525 47.9579 7.984C47.9634 7.98125 47.969 7.97887 47.9744 7.976C47.9938 7.96562 48.0124 7.95388 48.031 7.94212C48.0384 7.9375 48.046 7.93337 48.0532 7.92863C48.0694 7.91775 48.0846 7.90575 48.1 7.894C48.109 7.88713 48.1184 7.88088 48.1271 7.87375C48.1425 7.86112 48.1567 7.84737 48.1712 7.83375C48.179 7.8265 48.1873 7.82 48.1946 7.8125L50.2651 5.74162C50.6312 5.3755 50.6312 4.78188 50.265 4.41587C49.8988 4.04975 49.3051 4.04975 48.9391 4.416L48.4689 4.88625V0.9375C48.4689 0.41975 48.0493 0 47.5314 0H16.4687C15.951 0 15.5312 0.41975 15.5312 0.9375V7.14988C15.5312 7.66763 15.951 8.08737 16.4687 8.08737Z" fill="white"/>
<path d="M49.602 55.9125C49.0843 55.9125 48.6645 56.3322 48.6645 56.85V62.125H19.4769V59.1134L19.9474 59.5839C20.1304 59.7669 20.3704 59.8585 20.6103 59.8585C20.8502 59.8585 21.0902 59.7669 21.2732 59.5839C21.6393 59.2177 21.6393 58.6241 21.2732 58.258L19.203 56.1879C19.181 56.1659 19.158 56.145 19.1339 56.1252C19.1305 56.1225 19.1268 56.1201 19.1234 56.1174C19.1029 56.101 19.0819 56.0851 19.06 56.0705C19.0564 56.0681 19.0527 56.0661 19.049 56.0639C19.027 56.0495 19.0045 56.0357 18.9812 56.0232C18.9787 56.0219 18.9759 56.0207 18.9733 56.0195C18.9488 56.0067 18.9239 55.9946 18.8982 55.984C18.8967 55.9834 18.8952 55.983 18.8938 55.9824C18.8672 55.9715 18.8399 55.9616 18.8122 55.9531C18.8103 55.9525 18.8083 55.9522 18.8064 55.9516C18.7793 55.9436 18.7517 55.9364 18.7235 55.9307C18.7175 55.9295 18.7113 55.929 18.7052 55.928C18.6812 55.9237 18.6572 55.9196 18.6327 55.9172C18.6038 55.9144 18.5747 55.913 18.5454 55.9129C18.5433 55.9129 18.5413 55.9126 18.5393 55.9126C18.5079 55.9126 18.4767 55.9142 18.4458 55.9174C18.4237 55.9196 18.402 55.9234 18.3804 55.9271C18.3719 55.9286 18.3633 55.9294 18.3548 55.931C18.3284 55.9362 18.3028 55.9431 18.2773 55.9505C18.2737 55.9516 18.2698 55.9522 18.2662 55.9534C18.2402 55.9612 18.2149 55.9706 18.1899 55.9807C18.1867 55.982 18.1833 55.983 18.18 55.9844C18.1562 55.9942 18.133 56.0056 18.1102 56.0174C18.1058 56.0196 18.1013 56.0214 18.097 56.0237C18.0762 56.035 18.056 56.0475 18.036 56.0602C18.0302 56.064 18.0239 56.0672 18.0182 56.0711C18 56.0832 17.9828 56.0966 17.9655 56.11C17.9585 56.1154 17.9512 56.1202 17.9443 56.1259C17.9245 56.1421 17.9059 56.1595 17.8875 56.1772C17.8839 56.1807 17.88 56.1837 17.8764 56.1872L15.8058 58.2581C15.4397 58.6242 15.4398 59.2179 15.8059 59.5839C16.172 59.95 16.7657 59.95 17.1317 59.5837L17.6019 59.1135V63.0625C17.6019 63.5802 18.0217 64 18.5394 64H49.602C50.1199 64 50.5395 63.5802 50.5395 63.0625V56.85C50.5395 56.3322 50.1199 55.9125 49.602 55.9125Z" fill="white"/>
<path d="M61.9279 21.6145C61.9275 21.6035 61.927 21.5928 61.9263 21.5818C61.9237 21.5426 61.9193 21.504 61.9119 21.4664C61.9117 21.4649 61.9115 21.4635 61.9113 21.462C61.903 21.4208 61.8915 21.3808 61.8782 21.3416C61.8755 21.3341 61.8728 21.3267 61.87 21.3194C61.8564 21.2826 61.8409 21.2468 61.8229 21.2124C61.8217 21.2099 61.8205 21.2073 61.8193 21.2048C61.7998 21.1684 61.7775 21.1337 61.7537 21.1004C61.7482 21.0928 61.7425 21.0854 61.7368 21.0779C61.7115 21.0448 61.6849 21.0128 61.6555 20.9834L61.6552 20.9829L51.3008 10.6288L51.3004 10.6284C51.2709 10.5989 51.2388 10.5723 51.2057 10.5469C51.1983 10.5413 51.191 10.5356 51.1835 10.5303C51.1502 10.5063 51.1155 10.484 51.079 10.4645C51.0764 10.4631 51.0738 10.462 51.0712 10.4608C51.0369 10.4429 51.0012 10.4275 50.9645 10.4139C50.9569 10.411 50.9494 10.4081 50.9418 10.4055C50.9028 10.3921 50.863 10.3806 50.8219 10.3725C50.8198 10.3721 50.8177 10.3719 50.8157 10.3715C50.7787 10.3644 50.7409 10.36 50.7025 10.3574C50.6912 10.3566 50.6798 10.356 50.6684 10.3556C50.6582 10.3553 50.6482 10.3541 50.6379 10.3541H34.0713C33.5534 10.3541 33.1338 10.7739 33.1338 11.2916V52.7079C33.1338 53.2256 33.5534 53.6454 34.0713 53.6454H60.992C61.5099 53.6454 61.9295 53.2256 61.9295 52.7079V21.6458C61.9295 21.6353 61.9283 21.625 61.9279 21.6145ZM51.5753 13.5549L58.7288 20.7083H51.5753V13.5549ZM35.0088 51.7704V12.2291H49.7003V21.6458C49.7003 22.1635 50.1199 22.5833 50.6378 22.5833H60.0545V51.7704H35.0088Z" fill="white"/>
<path d="M38.2129 20.5122H42.3544C42.8723 20.5122 43.2919 20.0925 43.2919 19.5747V15.4332C43.2919 14.9155 42.8723 14.4957 42.3544 14.4957H38.2129C37.695 14.4957 37.2754 14.9155 37.2754 15.4332V19.5747C37.2754 20.0925 37.695 20.5122 38.2129 20.5122ZM39.1504 16.3707H41.4169V18.6372H39.1504V16.3707Z" fill="white"/>
<path d="M56.8501 24.8499H38.2129C37.695 24.8499 37.2754 25.2696 37.2754 25.7874V29.9291C37.2754 30.4469 37.695 30.8666 38.2129 30.8666H56.8503C57.368 30.8666 57.7878 30.4469 57.7878 29.9291V25.7874C57.7876 25.2696 57.368 24.8499 56.8501 24.8499ZM55.9126 28.9916H39.1504V26.7249H55.9128V28.9916H55.9126Z" fill="white"/>
<path d="M56.8501 33.1332H38.2129C37.695 33.1332 37.2754 33.553 37.2754 34.0707V38.2124C37.2754 38.7301 37.695 39.1499 38.2129 39.1499H56.8503C57.368 39.1499 57.7878 38.7301 57.7878 38.2124V34.0707C57.7876 33.553 57.368 33.1332 56.8501 33.1332ZM55.9126 37.2749H39.1504V35.0082H55.9128V37.2749H55.9126Z" fill="white"/>
<path d="M46.4963 41.4164H38.2129C37.695 41.4164 37.2754 41.8361 37.2754 42.3539V46.4955C37.2754 47.0133 37.695 47.433 38.2129 47.433H46.4963C47.0141 47.433 47.4338 47.0133 47.4338 46.4955V42.3539C47.4338 41.8361 47.0141 41.4164 46.4963 41.4164ZM45.5588 45.558H39.1504V43.2914H45.5588V45.558Z" fill="white"/>
</svg>
