<svg width="64" height="64" viewBox="0 0 64 64" fill="none" xmlns="http://www.w3.org/2000/svg">
<g clip-path="url(#clip0_901_10302)">
<path d="M63.0625 19.9208C62.5446 19.9208 62.125 20.3404 62.125 20.8583V59.2744C62.125 60.8463 60.8463 62.125 59.2744 62.125H4.72563C3.15375 62.125 1.875 60.8463 1.875 59.2744V49.6339C1.875 49.116 1.45537 48.6964 0.9375 48.6964C0.419625 48.6964 0 49.116 0 49.6339V59.2744C0 61.8802 2.11987 64 4.72563 64H59.2745C61.8801 64 64 61.8802 64 59.2744V20.8583C64 20.3405 63.5804 19.9208 63.0625 19.9208Z" fill="white"/>
<path d="M59.2744 0H4.72563C2.11987 0 0 2.11987 0 4.72563V45.2411C0 45.759 0.419625 46.1786 0.9375 46.1786C1.45537 46.1786 1.875 45.759 1.875 45.2411V11.9766H62.125V16.4688C62.125 16.9866 62.5446 17.4062 63.0625 17.4062C63.5804 17.4062 64 16.9866 64 16.4688V4.72563C64 2.11987 61.8801 0 59.2744 0ZM1.875 10.1016V4.72563C1.875 3.15375 3.15375 1.875 4.72563 1.875H59.2745C60.8463 1.875 62.125 3.15375 62.125 4.72563V10.1018L1.875 10.1016Z" fill="white"/>
<path d="M8.7658 3.28314C7.27405 3.28314 6.06055 4.49664 6.06055 5.98839C6.06055 7.48014 7.27405 8.69377 8.7658 8.69377C10.2575 8.69377 11.4712 7.48014 11.4712 5.98839C11.4712 4.49664 10.2574 3.28314 8.7658 3.28314ZM8.7658 6.81864C8.30805 6.81864 7.93555 6.44627 7.93555 5.98827C7.93555 5.53052 8.30792 5.15802 8.7658 5.15802C9.22367 5.15802 9.59617 5.53039 9.59617 5.98827C9.59605 6.44614 9.22367 6.81864 8.7658 6.81864Z" fill="white"/>
<path d="M15.3322 3.28314C13.8405 3.28314 12.627 4.49664 12.627 5.98839C12.627 7.48014 13.8405 8.69377 15.3322 8.69377C16.824 8.69377 18.0376 7.48014 18.0376 5.98839C18.0376 4.49664 16.824 3.28314 15.3322 3.28314ZM15.3322 6.81864C14.8745 6.81864 14.502 6.44627 14.502 5.98827C14.502 5.53052 14.8743 5.15802 15.3322 5.15802C15.7901 5.15802 16.1626 5.53039 16.1626 5.98827C16.1626 6.44614 15.7901 6.81864 15.3322 6.81864Z" fill="white"/>
<path d="M21.8986 3.28314C20.4069 3.28314 19.1934 4.49664 19.1934 5.98839C19.1934 7.48014 20.4069 8.69377 21.8986 8.69377C23.3904 8.69377 24.604 7.48014 24.604 5.98839C24.604 4.49664 23.3902 3.28314 21.8986 3.28314ZM21.8986 6.81864C21.4409 6.81864 21.0684 6.44627 21.0684 5.98827C21.0684 5.53052 21.4407 5.15802 21.8986 5.15802C22.3565 5.15802 22.729 5.53039 22.729 5.98827C22.7289 6.44614 22.3565 6.81864 21.8986 6.81864Z" fill="white"/>
<path d="M13.0596 27.7604H50.9407C51.4586 27.7604 51.8782 27.3408 51.8782 26.8229V20.5094C51.8782 19.9915 51.4586 19.5719 50.9407 19.5719H13.0596C12.5417 19.5719 12.1221 19.9915 12.1221 20.5094V26.8229C12.1221 27.3408 12.5417 27.7604 13.0596 27.7604ZM13.9971 21.4469H50.0032V25.8854H13.9971V21.4469Z" fill="white"/>
<path d="M40.8389 42.4269H23.1611C22.6433 42.4269 22.2236 42.8465 22.2236 43.3644V49.6779C22.2236 50.1958 22.6433 50.6154 23.1611 50.6154H33.9691L36.985 58.6579C37.097 58.9564 37.3528 59.1774 37.6644 59.2449C37.7303 59.2591 37.7969 59.2661 37.8629 59.2661C38.1089 59.2661 38.3481 59.1693 38.5259 58.9915L45.6688 51.8486C45.8943 51.6231 45.9896 51.2988 45.9221 50.9871C45.8546 50.6755 45.6335 50.4198 45.3351 50.3078L41.7764 48.9733V43.3643C41.7764 42.8465 41.3568 42.4269 40.8389 42.4269ZM24.0986 48.7404V44.3019H39.9014V48.2703L33.9064 46.0221C33.5623 45.8931 33.1743 45.9771 32.9141 46.237C32.6543 46.497 32.5703 46.885 32.6993 47.2293L33.266 48.7405H24.0986V48.7404ZM40.7715 54.0941C40.7714 54.0941 40.7714 54.0941 40.7715 54.0941L38.2295 56.6363L35.1793 48.502L43.3135 51.5523L40.7715 54.0941Z" fill="white"/>
<path d="M12.1221 38.3135C12.1221 38.8314 12.5417 39.251 13.0596 39.251H50.9407C51.4586 39.251 51.8782 38.8314 51.8782 38.3135V32C51.8782 31.4821 51.4586 31.0625 50.9407 31.0625H13.0596C12.5417 31.0625 12.1221 31.4821 12.1221 32V38.3135ZM13.9971 32.9375H50.0032V37.376H13.9971V32.9375Z" fill="white"/>
<path d="M16.9737 22.4035C16.2763 22.4035 15.7109 22.9689 15.7109 23.6663C15.7109 24.3636 16.2763 24.929 16.9737 24.929C17.6711 24.929 18.2364 24.3636 18.2364 23.6663C18.2363 22.9688 17.6711 22.4035 16.9737 22.4035Z" fill="white"/>
<path d="M21.0147 22.4035C20.3173 22.4035 19.752 22.9689 19.752 23.6663C19.752 24.3636 20.3173 24.929 21.0147 24.929C21.7121 24.929 22.2775 24.3636 22.2775 23.6663C22.2775 22.9688 21.7121 22.4035 21.0147 22.4035Z" fill="white"/>
<path d="M25.0547 22.4035C24.3574 22.4035 23.792 22.9689 23.792 23.6663C23.792 24.3636 24.3574 24.929 25.0547 24.929C25.7521 24.929 26.3175 24.3636 26.3175 23.6663C26.3175 22.9688 25.7521 22.4035 25.0547 22.4035Z" fill="white"/>
<path d="M29.0958 22.4035C28.3984 22.4035 27.833 22.9689 27.833 23.6663C27.833 24.3636 28.3984 24.929 29.0958 24.929C29.7931 24.929 30.3585 24.3636 30.3585 23.6663C30.3585 22.9688 29.7931 22.4035 29.0958 22.4035Z" fill="white"/>
<path d="M33.1368 22.4035C32.4394 22.4035 31.874 22.9689 31.874 23.6663C31.874 24.3636 32.4394 24.929 33.1368 24.929C33.8341 24.929 34.3995 24.3636 34.3995 23.6663C34.3994 22.9688 33.834 22.4035 33.1368 22.4035Z" fill="white"/>
<path d="M16.9737 33.894C16.2763 33.894 15.7109 34.4594 15.7109 35.1567C15.7109 35.8541 16.2763 36.4195 16.9737 36.4195C17.6711 36.4195 18.2364 35.8541 18.2364 35.1567C18.2363 34.4594 17.6711 33.894 16.9737 33.894Z" fill="white"/>
<path d="M21.0147 33.894C20.3173 33.894 19.752 34.4594 19.752 35.1567C19.752 35.8541 20.3173 36.4195 21.0147 36.4195C21.7121 36.4195 22.2775 35.8541 22.2775 35.1567C22.2775 34.4594 21.7121 33.894 21.0147 33.894Z" fill="white"/>
<path d="M25.0547 33.894C24.3574 33.894 23.792 34.4594 23.792 35.1567C23.792 35.8541 24.3574 36.4195 25.0547 36.4195C25.7521 36.4195 26.3175 35.8541 26.3175 35.1567C26.3175 34.4594 25.7521 33.894 25.0547 33.894Z" fill="white"/>
<path d="M29.0958 33.894C28.3984 33.894 27.833 34.4594 27.833 35.1567C27.833 35.8541 28.3984 36.4195 29.0958 36.4195C29.7931 36.4195 30.3585 35.8541 30.3585 35.1567C30.3585 34.4594 29.7931 33.894 29.0958 33.894Z" fill="white"/>
<path d="M33.1368 33.894C32.4394 33.894 31.874 34.4594 31.874 35.1567C31.874 35.8541 32.4394 36.4195 33.1368 36.4195C33.8341 36.4195 34.3995 35.8541 34.3995 35.1567C34.3994 34.4594 33.834 33.894 33.1368 33.894Z" fill="white"/>
</g>
<defs>
<clipPath id="clip0_901_10302">
<rect width="64" height="64" fill="white"/>
</clipPath>
</defs>
</svg>
