<svg width="64" height="64" viewBox="0 0 64 64" fill="none" xmlns="http://www.w3.org/2000/svg">
<g clip-path="url(#clip0_901_10438)">
<path d="M58.5317 0C56.2436 0 54.3296 1.63281 53.8935 3.79443H47.1504C46.8183 3.79443 46.5117 3.96973 46.3428 4.25586C46.3164 4.30078 43.6499 8.82031 40.6084 14.0049C40.3467 14.4517 40.4961 15.0259 40.9429 15.2881C41.3891 15.5498 41.9638 15.4004 42.2261 14.9536C44.7026 10.7314 46.9311 6.94971 47.686 5.66943H53.8935C54.3301 7.83105 56.2436 9.46387 58.5322 9.46387C61.1411 9.46387 63.2641 7.34131 63.2641 4.73193C63.2641 2.12256 61.1411 0 58.5317 0ZM58.5317 7.58887C56.9565 7.58887 55.6748 6.30762 55.6748 4.73193C55.6748 3.15674 56.9565 1.875 58.5317 1.875C60.1069 1.875 61.3887 3.15674 61.3887 4.73193C61.3887 6.30762 60.1074 7.58887 58.5317 7.58887Z" fill="white"/>
<path d="M0.625 4.73193C0.625 7.34131 2.74756 9.46387 5.35693 9.46387C7.64551 9.46387 9.55908 7.83105 9.99512 5.66943H16.2031C16.958 6.94971 19.186 10.7314 21.6631 14.9536C21.9253 15.4009 22.5 15.5498 22.9463 15.2881C23.3926 15.0259 23.5425 14.4517 23.2803 14.0049C20.2393 8.82031 17.5728 4.30078 17.5464 4.25586C17.3774 3.96973 17.0703 3.79443 16.7388 3.79443H9.99512C9.55908 1.63281 7.64502 0 5.35693 0C2.74756 0 0.625 2.12256 0.625 4.73193ZM5.35693 1.875C6.93213 1.875 8.21387 3.15674 8.21387 4.73193C8.21387 6.30762 6.93213 7.58887 5.35693 7.58887C3.78174 7.58887 2.5 6.30713 2.5 4.73193C2.5 3.15674 3.78174 1.875 5.35693 1.875Z" fill="white"/>
<path d="M63.2644 59.268C63.2644 56.6587 61.1413 54.5361 58.5319 54.5361C56.2439 54.5361 54.3298 56.1689 53.8938 58.3305H47.6862C46.9314 57.0503 44.7028 53.2685 42.2258 49.0464C41.9641 48.5996 41.3898 48.4502 40.9431 48.7119C40.4963 48.9741 40.3464 49.5483 40.6086 49.9951C43.6496 55.1797 46.3161 59.6992 46.343 59.7441C46.5114 60.0303 46.8186 60.2055 47.1506 60.2055H53.8938C54.3298 62.3672 56.2439 64 58.5319 64C61.1413 64 63.2644 61.8769 63.2644 59.268ZM58.5319 62.125C56.9567 62.125 55.675 60.8432 55.675 59.268C55.675 57.6924 56.9567 56.4111 58.5319 56.4111C60.1076 56.4111 61.3889 57.6924 61.3889 59.268C61.3889 60.8432 60.1076 62.125 58.5319 62.125Z" fill="white"/>
<path d="M5.35693 64C7.64502 64 9.55908 62.3672 9.99512 60.2055H16.7383C17.0703 60.2055 17.3774 60.0303 17.5459 59.7441C17.5728 59.6992 20.2393 55.1797 23.2803 49.9951C23.542 49.5483 23.3926 48.9741 22.9458 48.7119C22.4995 48.4502 21.9248 48.5996 21.6626 49.0464C19.186 53.2685 16.9575 57.0498 16.2026 58.3305H9.99512C9.55908 56.1689 7.64502 54.5361 5.35693 54.5361C2.74805 54.5361 0.625 56.6587 0.625 59.268C0.625 61.8774 2.74756 64 5.35693 64ZM5.35693 56.4111C6.93213 56.4111 8.21387 57.6924 8.21387 59.268C8.21387 60.8432 6.93213 62.125 5.35693 62.125C3.78174 62.125 2.5 60.8432 2.5 59.268C2.5 57.6924 3.78174 56.4111 5.35693 56.4111Z" fill="white"/>
<path d="M35.2396 7.8623H28.6498C27.1239 7.8623 25.8827 9.104 25.8827 10.6299V16.0469C24.1717 16.6978 22.5838 17.6152 21.1629 18.7749L16.4681 16.0649C15.1468 15.3018 13.451 15.7559 12.6883 17.0776L9.39341 22.7842C9.02378 23.4243 8.92564 24.1704 9.11704 24.8843C9.30845 25.5981 9.76597 26.1953 10.4061 26.5649L15.096 29.2725C14.9515 30.1699 14.8783 31.0874 14.8783 32C14.8783 32.9121 14.9515 33.8296 15.096 34.7275L10.4061 37.4355C9.08189 38.2002 8.62827 39.8911 9.39341 41.2153L12.6878 46.9224C13.451 48.2437 15.1468 48.6982 16.4681 47.9351L21.1629 45.2251C22.5838 46.3848 24.1712 47.3027 25.8822 47.9531V53.3706C25.8822 54.8965 27.1239 56.1377 28.6498 56.1377H29.7572C30.2748 56.1377 30.6947 55.7178 30.6947 55.2002C30.6947 54.6826 30.2748 54.2627 29.7572 54.2627H28.6498C28.1576 54.2627 27.7577 53.8623 27.7577 53.3706V47.9429C27.7577 47.1743 27.2782 46.4766 26.5648 46.2061C25.0311 45.6255 23.6083 44.8027 22.3358 43.7617C21.7445 43.2783 20.8998 43.2114 20.2337 43.5962L15.5306 46.3115C15.1048 46.5576 14.558 46.4106 14.3119 45.9849L11.0174 40.2778C10.7699 39.8496 10.9173 39.3052 11.3436 39.0591L16.0428 36.3462C16.7074 35.9624 17.0721 35.1982 16.9501 34.4453C16.8197 33.6411 16.7533 32.8184 16.7533 32C16.7533 31.1816 16.8197 30.3589 16.9501 29.5547C17.0721 28.8018 16.7079 28.0376 16.0423 27.6533L11.3436 24.9409C11.1376 24.8218 10.9896 24.6294 10.9281 24.3989C10.8666 24.1689 10.8978 23.9282 11.0174 23.7222L14.3119 18.0151C14.558 17.5889 15.1053 17.4429 15.5306 17.6885L20.2342 20.4038C20.8998 20.7881 21.7445 20.7217 22.3358 20.2378C23.6083 19.1973 25.0311 18.3745 26.5643 17.7939C27.2782 17.5234 27.7577 16.8257 27.7577 16.0571V10.6299C27.7577 10.1377 28.1576 9.7373 28.6498 9.7373H35.2396C35.7313 9.7373 36.1317 10.1377 36.1317 10.6299V16.0571C36.1317 16.8257 36.6112 17.5234 37.3246 17.7939C38.8578 18.3745 40.2806 19.1973 41.5536 20.2383C42.1449 20.7217 42.9896 20.7886 43.6556 20.4043L48.3587 17.6885C48.7845 17.4429 49.3314 17.5894 49.5775 18.0151L52.8719 23.7222C53.118 24.1479 52.9715 24.6948 52.5453 24.9409L47.847 27.6533C47.182 28.0371 46.8172 28.8013 46.9393 29.5537C47.0697 30.3599 47.1356 31.1826 47.1356 32C47.1356 32.8169 47.0697 33.6401 46.9393 34.4453C46.8172 35.1982 47.182 35.9624 47.847 36.3462L52.5458 39.0591C52.9715 39.3047 53.118 39.8516 52.8719 40.2778L49.5775 45.9844C49.3314 46.4106 48.7845 46.5571 48.3583 46.311L43.6556 43.5957C42.9896 43.2114 42.1449 43.2783 41.5536 43.7617C40.2806 44.8027 38.8583 45.625 37.3246 46.2061C36.6112 46.4766 36.1317 47.1743 36.1317 47.9429V53.3706C36.1317 53.8623 35.7318 54.2627 35.2396 54.2627H34.1322C33.6146 54.2627 33.1947 54.6821 33.1947 55.2002C33.1947 55.7178 33.6146 56.1377 34.1322 56.1377H35.2396C36.7655 56.1377 38.0067 54.8965 38.0067 53.3706V47.9531C39.7176 47.3027 41.3055 46.3848 42.7264 45.2251L47.4208 47.9351C48.742 48.6982 50.4383 48.2437 51.201 46.9219L54.4959 41.2153C55.2591 39.894 54.8045 38.1982 53.4833 37.4351L48.7933 34.7275C48.9374 33.8286 49.0106 32.9111 49.0106 32C49.0106 31.0889 48.9374 30.1714 48.7933 29.2725L53.4828 26.5649C54.8045 25.8018 55.2586 24.106 54.4959 22.7842L51.201 17.0776C50.4383 15.7559 48.742 15.3018 47.4212 16.0649L42.7264 18.7749C41.305 17.6152 39.7176 16.6973 38.0067 16.0469V10.6299C38.0072 9.10352 36.7655 7.8623 35.2396 7.8623Z" fill="white"/>
<path d="M31.9438 23.1914C27.0869 23.1914 23.1357 27.1431 23.1357 32C23.1357 33.8096 23.689 35.6362 24.853 37.2183C29.8975 44.0498 40.7524 40.4395 40.7524 32C40.7524 27.1431 36.8008 23.1914 31.9438 23.1914ZM29.0869 30.5195C29.0869 28.9443 30.3687 27.6626 31.9438 27.6626C33.519 27.6626 34.8008 28.9443 34.8008 30.5195C34.8008 31.981 33.6978 33.1885 32.2808 33.356H31.6064C30.1899 33.1885 29.0869 31.9805 29.0869 30.5195ZM29.0234 35.231H34.8647C35.8154 35.231 36.6958 35.7363 37.1875 36.5288C37.187 36.5293 37.186 36.5303 37.1855 36.5308C34.4102 39.731 29.4731 39.7256 26.7026 36.5308C26.7021 36.5303 26.7017 36.5293 26.7007 36.5288C27.1919 35.7363 28.0723 35.231 29.0234 35.231ZM38.2593 34.856C37.5801 34.1177 36.6689 33.6113 35.6704 33.4307C36.2993 32.6274 36.6758 31.6167 36.6758 30.5195C36.6758 27.9102 34.5532 25.7876 31.9438 25.7876C29.335 25.7876 27.2119 27.9102 27.2119 30.5195C27.2119 31.6167 27.5884 32.6274 28.2178 33.4307C27.2192 33.6113 26.3076 34.1177 25.6284 34.856C25.2329 33.9844 25.0103 33.0181 25.0103 32C25.0103 28.1768 28.1206 25.0664 31.9438 25.0664C35.7671 25.0664 38.8774 28.1768 38.8774 32C38.8774 33.0181 38.6548 33.9844 38.2593 34.856Z" fill="white"/>
<path d="M43.6538 31.0688C44.165 30.9873 44.5132 30.5063 44.4316 29.9951C43.9619 27.0601 42.4541 24.3682 40.1865 22.4155C37.8936 20.4409 34.9663 19.3535 31.9443 19.3535C24.9712 19.3535 19.2979 25.0269 19.2979 32C19.2979 42.6387 31.6929 48.5073 39.918 41.8096C42.1313 40.0068 43.686 37.4888 44.2954 34.7202C44.4067 34.2144 44.0869 33.7144 43.5815 33.603C43.0747 33.4912 42.5757 33.8115 42.4639 34.3169C41.3857 39.2158 36.9619 42.7715 31.9443 42.7715C26.0049 42.7715 21.1733 37.9395 21.1733 32C21.1733 26.0605 26.0049 21.2285 31.9443 21.2285C37.1807 21.2285 41.7529 25.125 42.5796 30.2915C42.6616 30.8027 43.1431 31.1514 43.6538 31.0688Z" fill="white"/>
</g>
<defs>
<clipPath id="clip0_901_10438">
<rect width="64" height="64" fill="white"/>
</clipPath>
</defs>
</svg>
