<svg width="145" height="87" viewBox="0 0 145 87" fill="none" xmlns="http://www.w3.org/2000/svg">
<rect width="145" height="87" rx="8" fill="#2563EB"/>
<path d="M43.0763 27.1758C42.3517 27.1746 41.6341 27.3169 40.9647 27.5944C40.2953 27.8719 39.6875 28.2792 39.1763 28.7928L31.3763 36.5928C30.3466 37.6225 29.7665 39.018 29.7627 40.4742C29.759 41.9304 30.3319 43.3288 31.3563 44.3638L31.8703 44.8798L40.8783 35.8798C41.3316 35.4269 41.9461 35.1724 42.5868 35.1724C43.2276 35.1724 43.8421 35.4269 44.2953 35.8798L46.5713 38.1548L47.1383 38.7258L48.1183 37.7448L49.4863 36.3748L51.4643 34.3978C51.5368 34.3257 51.5943 34.24 51.6335 34.1456C51.6727 34.0512 51.6929 33.95 51.6929 33.8478C51.6929 33.7456 51.6727 33.6444 51.6335 33.55C51.5943 33.4556 51.5368 33.3699 51.4643 33.2978L46.9643 28.7978C46.4547 28.2852 45.8489 27.8781 45.1818 27.5998C44.5147 27.3215 43.7992 27.1774 43.0763 27.1758Z" fill="black"/>
<path d="M39.6641 15.9343L20.4062 36.6836L41.3432 56.1156L60.6011 35.3663L39.6641 15.9343Z" fill="url(#paint0_linear_700_4745)"/>
<path d="M33.5869 46.5831L30.9009 49.2691L29.531 50.6431L27.5529 52.6221C27.4799 52.6939 27.4219 52.7795 27.3823 52.8739C27.3427 52.9683 27.3223 53.0697 27.3223 53.1721C27.3223 53.2745 27.3427 53.3759 27.3823 53.4703C27.4219 53.5648 27.4799 53.6504 27.5529 53.7221L32.0529 58.2221C32.1189 58.2891 32.1889 58.3551 32.2589 58.4221C32.3969 58.5461 32.543 58.6631 32.6899 58.7751C33.6362 59.4676 34.7784 59.8409 35.9509 59.8409C37.1235 59.8409 38.2657 59.4676 39.2119 58.7751C39.3599 58.6631 39.505 58.5461 39.643 58.4221C39.712 58.3591 39.7829 58.2931 39.8489 58.2221L47.649 50.4281C48.6776 49.3979 49.2571 48.0028 49.261 46.547C49.265 45.0911 48.693 43.6929 47.67 42.6571L44.875 39.8571L42.5929 37.5781L33.5869 46.5831Z" fill="black"/>
<path d="M37.6727 26.3364L16.1514 49.5352L39.3611 71.0667L60.8824 47.868L37.6727 26.3364Z" fill="url(#paint1_linear_700_4745)"/>
<path d="M63.6039 44.3276L63.5469 44.3156C60.8199 43.7036 59.3139 43.3656 59.3139 41.9646C59.3139 40.8436 60.4359 40.0896 62.1139 40.0896C63.8509 40.0896 64.9679 40.8966 65.2049 42.3066H69.3819C69.1539 38.9336 66.5039 36.9336 62.2769 36.9336C57.7159 36.9336 55.1029 38.9486 55.1029 42.4596C55.1029 46.0946 58.1569 47.1116 61.5639 47.9066L61.8379 47.9736C64.2439 48.5616 65.6979 48.9156 65.6979 50.4486C65.6979 51.9816 64.0879 52.5296 62.5879 52.5296C60.2879 52.5296 59.0939 51.6946 58.8439 49.9036H54.5439C54.7139 53.6806 57.6439 55.8426 62.6129 55.8426C67.1129 55.8426 70.0129 53.5426 70.0129 49.9826C70.0129 46.1426 66.9819 45.1166 63.6059 44.3306" fill="#DCDCE3"/>
<path d="M79.9629 42.1146C79.2155 42.087 78.4735 42.252 77.8081 42.5936C77.1427 42.9353 76.5762 43.4421 76.1629 44.0656L76.1189 44.1246H75.8189V37.2676H71.9189V55.4016H75.8189V48.2556C75.8189 46.5266 76.8359 45.3196 78.2899 45.3196C79.6719 45.3196 80.4989 46.2536 80.4989 47.8136V55.4006H84.4039V46.9646C84.4039 44.0166 82.6629 42.1136 79.9659 42.1136" fill="#DCDCE3"/>
<path d="M94.5564 42.1145C93.8024 42.0973 93.0555 42.2638 92.3801 42.5995C91.7047 42.9352 91.121 43.4301 90.6794 44.0415L90.6354 44.0965H90.3354V42.4965H86.6084V59.7565H90.5084V54.0365H90.7864L90.8304 54.0955C91.2471 54.6559 91.795 55.1054 92.426 55.4046C93.057 55.7038 93.7518 55.8435 94.4494 55.8115C97.8494 55.8115 100.049 53.1185 100.049 48.9505C100.049 44.8595 97.8414 42.1135 94.5564 42.1135M93.3664 52.8645C91.5264 52.8645 90.3834 51.4235 90.3834 49.1055C90.3834 46.6905 91.4954 45.1935 93.2914 45.1935C95.0704 45.1935 96.0914 46.6195 96.0914 49.1055C96.0914 51.4225 95.0464 52.8645 93.3624 52.8645" fill="#DCDCE3"/>
<path d="M110.145 42.5V49.726C110.145 51.426 109.176 52.526 107.674 52.526C106.28 52.526 105.541 51.699 105.541 50.134V42.5H101.664V51.013C101.664 54.004 103.34 55.787 106.153 55.787C106.904 55.8179 107.651 55.6549 108.321 55.3135C108.991 54.9721 109.562 54.464 109.978 53.838L110.023 53.777H110.323V55.402H114.046V42.5H110.145Z" fill="#DCDCE3"/>
<path d="M124.407 42.1154C123.62 42.0913 122.841 42.275 122.148 42.6481C121.455 43.0211 120.872 43.5704 120.458 44.2404L120.411 44.3054H120.111V42.5054H116.358V55.4054H120.263V48.2574C120.263 46.5284 121.276 45.3214 122.731 45.3214C124.117 45.3214 124.944 46.2554 124.944 47.8154V55.4024H128.848V46.9664C128.848 44.0184 127.104 42.1154 124.407 42.1154Z" fill="#DCDCE3"/>
<defs>
<linearGradient id="paint0_linear_700_4745" x1="48.9909" y1="61.9004" x2="62.1409" y2="44.5146" gradientUnits="userSpaceOnUse">
<stop stop-color="#269FD3"/>
<stop offset="1" stop-color="#28CEDB"/>
</linearGradient>
<linearGradient id="paint1_linear_700_4745" x1="36.2974" y1="65.8505" x2="55.6381" y2="43.6071" gradientUnits="userSpaceOnUse">
<stop stop-color="#269FD3"/>
<stop offset="1" stop-color="#28CEDB"/>
</linearGradient>
</defs>
</svg>
