<svg width="50" height="50" viewBox="0 0 50 50" fill="none" xmlns="http://www.w3.org/2000/svg">
<path d="M10.3125 30.0634C9.28125 32.6571 7.65628 35.2196 5.48439 37.6884C4.79689 38.4697 4.70314 39.5946 5.26562 40.4696C5.70317 41.1571 6.42186 41.5321 7.20311 41.5321C7.42188 41.5321 7.64066 41.5166 7.85942 41.4384C12.4531 40.0946 23.1875 35.329 23.4844 20.0477C23.5937 14.1572 19.2813 9.09468 13.6719 8.51656C10.5625 8.20404 7.4688 9.21961 5.17188 11.2821C2.87505 13.3603 1.5625 16.3291 1.5625 19.4228C1.5625 24.579 5.2188 29.0947 10.3125 30.0634Z" fill="white"/>
<path d="M38.6095 8.51656C35.5156 8.20404 32.4219 9.21961 30.1251 11.2821C27.8282 13.3603 26.5156 16.3291 26.5156 19.4228C26.5156 24.579 30.1719 29.0947 35.2657 30.0634C34.2344 32.6571 32.6094 35.2196 30.4375 37.6884C29.75 38.4697 29.6563 39.5946 30.2188 40.4696C30.6563 41.1571 31.3751 41.5321 32.1563 41.5321C32.375 41.5321 32.5938 41.5165 32.8125 41.4383C37.4063 40.0946 48.1407 35.329 48.4375 20.0477V19.829C48.4375 14.0321 44.172 9.09468 38.6095 8.51656Z" fill="white"/>
</svg>
