<svg width="45" height="46" viewBox="0 0 45 46" fill="none" xmlns="http://www.w3.org/2000/svg">
<g clip-path="url(#clip0_475_26035)">
<path d="M15.5464 31.9503C15.2341 32.1373 15.1325 32.5421 15.3195 32.8545C16.0109 34.0092 16.3762 35.3341 16.3762 36.6862C16.3762 38.7569 15.5282 40.634 14.16 41.9918C13.6903 40.5935 12.6746 39.4168 11.357 38.7504C11.7092 38.2508 11.917 37.6424 11.917 36.986V35.8865C11.917 34.1939 10.5399 32.8169 8.84725 32.8169C7.15465 32.8169 5.77758 34.1939 5.77758 35.8865V36.986C5.77758 37.6427 5.98553 38.2512 6.33797 38.751C5.89008 38.9761 5.4704 39.2599 5.09713 39.5966C4.37045 40.2526 3.83555 41.0785 3.53268 41.9903C2.16554 40.6324 1.31836 38.7562 1.31836 36.6863C1.31836 32.5534 4.69582 29.191 8.84725 29.191C10.5167 29.191 12.0978 29.7235 13.4198 30.731C13.7094 30.9518 14.1231 30.8959 14.3436 30.6064C14.5643 30.3169 14.5085 29.9033 14.2189 29.6826C12.6654 28.4985 10.8079 27.8727 8.84725 27.8727C3.96888 27.8727 0 31.8264 0 36.6863C0 41.5012 4.06802 45.5 8.84725 45.5C13.6571 45.5 17.6946 41.5779 17.6946 36.6863C17.6946 35.0958 17.2644 33.5366 16.4506 32.1774C16.2635 31.8649 15.8585 31.7634 15.5464 31.9503ZM7.09594 35.8865C7.09594 34.9209 7.8815 34.1352 8.84725 34.1352C9.81299 34.1352 10.5986 34.9209 10.5986 35.8865V36.986C10.5986 37.9517 9.81299 38.7373 8.84725 38.7373C7.8815 38.7373 7.09594 37.9517 7.09594 36.986V35.8865ZM8.84725 44.1816C7.29431 44.1816 5.84982 43.711 4.64977 42.9056C4.83003 42.0117 5.29392 41.1949 5.98043 40.5753C6.4038 40.1933 6.90346 39.8982 7.43792 39.7117C7.86032 39.931 8.33933 40.0558 8.84725 40.0558C9.35508 40.0558 9.83408 39.9311 10.2565 39.7118C11.6738 40.207 12.7446 41.4389 13.0435 42.9064C11.8437 43.7113 10.3997 44.1816 8.84725 44.1816ZM36.1528 27.8727C31.2743 27.8727 27.3054 31.8264 27.3054 36.6863C27.3054 41.5701 31.3462 45.5 36.1528 45.5C40.9627 45.5 45 41.5776 45 36.6863C45 31.8264 41.0311 27.8727 36.1528 27.8727ZM36.1528 44.1816C34.6 44.1816 33.1556 43.7111 31.9556 42.9058C32.1359 42.0118 32.5999 41.1949 33.2868 40.5749C33.7089 40.1933 34.2084 39.8983 34.7433 39.7116C35.1657 39.931 35.6448 40.0557 36.1528 40.0557C36.6605 40.0557 37.1394 39.9311 37.5617 39.7118C38.9794 40.2071 40.0503 41.4389 40.3493 42.9061C39.1494 43.7112 37.7053 44.1816 36.1528 44.1816ZM34.4014 36.986V35.8865C34.4014 34.9209 35.187 34.1352 36.1528 34.1352C37.1185 34.1352 37.9041 34.9209 37.9041 35.8865V36.986C37.9041 37.9517 37.1185 38.7373 36.1528 38.7373C35.187 38.7373 34.4014 37.9518 34.4014 36.986ZM41.4657 41.9917C40.996 40.5936 39.9802 39.4171 38.6624 38.7505C39.0146 38.251 39.2224 37.6425 39.2224 36.9861V35.8866C39.2224 34.194 37.8454 32.8169 36.1528 32.8169C34.4601 32.8169 33.083 34.194 33.083 35.8866V36.9861C33.083 37.6427 33.2909 38.2513 33.6433 38.7509C33.1951 38.9762 32.7755 39.2599 32.403 39.5966C31.6762 40.2527 31.1413 41.0788 30.8384 41.9905C29.4711 40.6328 28.6237 38.7562 28.6237 36.6863C28.6237 32.5534 32.0012 29.191 36.1527 29.191C40.3041 29.191 43.6816 32.5534 43.6816 36.6863C43.6816 38.7569 42.8338 40.6339 41.4657 41.9917ZM23.1165 37.0124L23.1543 32.0659C27.6427 31.7451 31.2397 28.1512 31.5653 23.6641L36.5376 23.7022C36.8355 24.6327 37.7084 25.3084 38.7365 25.3084C40.0094 25.3084 41.0449 24.2728 41.0449 23C41.0449 21.7272 40.0094 20.6916 38.7365 20.6916C37.6771 20.6916 36.7828 21.4091 36.5123 22.3834L31.5651 22.3456C31.4692 21.0151 31.0825 19.7168 30.4312 18.5565C30.2531 18.2391 29.851 18.1262 29.5338 18.3044C29.2163 18.4826 29.1035 18.8844 29.2816 19.2018C29.929 20.3551 30.2713 21.6684 30.2713 22.9998C30.2713 27.2849 26.7851 30.7711 22.5 30.7711C18.2149 30.7711 14.7287 27.2849 14.7287 22.9998C14.7287 18.7147 18.2149 15.2285 22.5 15.2285C24.3165 15.2285 26.0837 15.8684 27.4758 17.0301C27.7555 17.2635 28.1711 17.2258 28.4043 16.9464C28.6375 16.6669 28.6 16.2511 28.3206 16.018C26.8596 14.7988 25.0458 14.0729 23.1543 13.9359L23.1165 8.9876C24.0908 8.71716 24.8084 7.82278 24.8084 6.76344C24.8084 5.49061 23.7728 4.45508 22.5 4.45508C21.2272 4.45508 20.1916 5.49061 20.1916 6.76353C20.1916 7.79167 20.8673 8.6646 21.7978 8.96246L21.8359 13.9348C17.3488 14.2603 13.755 17.8573 13.4341 22.3457L8.4876 22.3835C8.21716 21.4092 7.32278 20.6916 6.26344 20.6916C4.99061 20.6916 3.95508 21.7272 3.95508 23C3.95508 24.2728 4.99061 25.3084 6.26353 25.3084C7.29167 25.3084 8.1646 24.6327 8.46237 23.7022L13.4347 23.6641C13.76 28.1479 17.3521 31.7399 21.8359 32.0653L21.7978 37.0376C20.8673 37.3355 20.1916 38.2084 20.1916 39.2366C20.1916 40.5094 21.2272 41.5449 22.5 41.5449C23.7728 41.5449 24.8084 40.5094 24.8084 39.2365C24.8084 38.1771 24.0909 37.2828 23.1165 37.0124ZM38.7365 22.0099C39.2824 22.0099 39.7266 22.454 39.7266 23C39.7266 23.546 39.2824 23.9901 38.7365 23.9901C38.1906 23.9901 37.7464 23.546 37.7464 23C37.7464 22.454 38.1906 22.0099 38.7365 22.0099ZM21.5099 6.76353C21.5099 6.21755 21.9541 5.77344 22.5 5.77344C23.0459 5.77344 23.4901 6.21755 23.4901 6.76353C23.4901 7.3095 23.0459 7.75353 22.5 7.75353C21.9541 7.75353 21.5099 7.30941 21.5099 6.76353ZM6.26353 23.9901C5.71764 23.9901 5.27344 23.5459 5.27344 23C5.27344 22.4541 5.71764 22.0099 6.26353 22.0099C6.80941 22.0099 7.25353 22.4541 7.25353 23C7.25353 23.5459 6.80941 23.9901 6.26353 23.9901ZM22.5 40.2266C21.9541 40.2266 21.5099 39.7825 21.5099 39.2365C21.5099 38.6905 21.9541 38.2464 22.5 38.2464C23.0459 38.2464 23.4901 38.6905 23.4901 39.2365C23.4901 39.7825 23.0459 40.2266 22.5 40.2266ZM24.7643 17.8545C24.1592 17.2494 23.3551 16.9162 22.5 16.9162C20.7339 16.9162 19.2973 18.353 19.2973 20.1189V21.7403C18.5134 21.8101 17.8966 22.4697 17.8966 23.2714V26.6005C17.8966 27.4486 18.5866 28.1386 19.4346 28.1386H25.5654C26.4134 28.1386 27.1034 27.4486 27.1034 26.6005V23.2714C27.1034 22.4697 26.4866 21.8101 25.7027 21.7403V20.1189C25.7027 19.2639 25.3695 18.4597 24.7643 17.8545ZM20.6156 20.1189C20.6156 19.0799 21.461 18.2346 22.5 18.2346C23.0029 18.2346 23.4759 18.4307 23.8321 18.7868C24.1883 19.1429 24.3844 19.616 24.3844 20.1189V21.7333H20.6156V20.1189ZM25.7851 23.2714V26.6005C25.7851 26.7216 25.6866 26.8203 25.5654 26.8203H19.4346C19.3134 26.8203 19.2149 26.7216 19.2149 26.6005V23.2714C19.2149 23.1503 19.3134 23.0517 19.4346 23.0517H25.5654C25.6866 23.0517 25.7851 23.1503 25.7851 23.2714ZM36.1528 18.1273C40.9994 18.1273 45 14.1397 45 9.31367C45 4.45376 41.0311 0.5 36.1528 0.5C31.2743 0.5 27.3054 4.45376 27.3054 9.31367C27.3054 14.1985 31.3465 18.1273 36.1528 18.1273ZM36.1528 16.809C34.6 16.809 33.1556 16.3384 31.9556 15.5332C32.1359 14.6392 32.5999 13.8223 33.2868 13.2022C33.7089 12.8207 34.2084 12.5256 34.7433 12.339C35.1657 12.5583 35.6448 12.683 36.1528 12.683C36.6605 12.683 37.1394 12.5584 37.5617 12.3391C38.9794 12.8345 40.0503 14.0663 40.3493 15.5334C39.1494 16.3385 37.7053 16.809 36.1528 16.809ZM34.4014 9.61338V8.51387C34.4014 7.54821 35.187 6.76256 36.1528 6.76256C37.1185 6.76256 37.9041 7.54821 37.9041 8.51387V9.61338C37.9041 10.579 37.1185 11.3647 36.1528 11.3647C35.187 11.3647 34.4014 10.5791 34.4014 9.61338ZM36.1528 1.81836C40.3042 1.81836 43.6816 5.1807 43.6816 9.31367C43.6816 11.3843 42.8338 13.2612 41.4657 14.619C40.996 13.2209 39.9802 12.0444 38.6624 11.3779C39.0146 10.8783 39.2224 10.2698 39.2224 9.61347V8.51387C39.2224 6.82127 37.8454 5.4442 36.1528 5.4442C34.4601 5.4442 33.083 6.82127 33.083 8.51387V9.61338C33.083 10.2699 33.2909 10.8786 33.6433 11.3781C33.1951 11.6035 32.7755 11.8872 32.403 12.2239C31.6762 12.8799 31.1413 13.706 30.8384 14.6178C29.4711 13.26 28.6237 11.3835 28.6237 9.31358C28.6238 5.1807 32.0013 1.81836 36.1528 1.81836ZM8.84725 18.1273C13.6571 18.1273 17.6946 14.205 17.6946 9.31367C17.6946 4.45376 13.7257 0.5 8.84725 0.5C3.96888 0.5 0 4.45376 0 9.31367C0 14.1982 4.04271 18.1273 8.84725 18.1273ZM8.84725 16.809C7.29431 16.809 5.84982 16.3383 4.64977 15.533C4.83003 14.6391 5.29392 13.8223 5.98043 13.2027C6.4038 12.8207 6.90346 12.5255 7.43792 12.339C7.86032 12.5583 8.33933 12.6831 8.84725 12.6831C9.35508 12.6831 9.83408 12.5584 10.2565 12.3391C11.6738 12.8343 12.7446 14.0663 13.0435 15.5338C11.8437 16.3386 10.3997 16.809 8.84725 16.809ZM7.09594 9.61338V8.51387C7.09594 7.54821 7.8815 6.76256 8.84725 6.76256C9.81299 6.76256 10.5986 7.54821 10.5986 8.51387V9.61338C10.5986 10.579 9.81299 11.3647 8.84725 11.3647C7.8815 11.3647 7.09594 10.5791 7.09594 9.61338ZM8.84725 1.81836C12.9987 1.81836 16.3762 5.1807 16.3762 9.31367C16.3762 11.3844 15.5282 13.2615 14.16 14.6193C13.6903 13.2209 12.6746 12.0443 11.357 11.3778C11.7092 10.8782 11.917 10.2698 11.917 9.61347V8.51387C11.917 6.82127 10.5399 5.4442 8.84725 5.4442C7.15465 5.4442 5.77758 6.82127 5.77758 8.51387V9.61338C5.77758 10.27 5.98553 10.8787 6.33797 11.3782C5.89008 11.6035 5.4704 11.8871 5.09713 12.2239C4.37045 12.8798 3.83555 13.7057 3.53268 14.6175C2.16554 13.2599 1.31836 11.3835 1.31836 9.31367C1.31836 5.1807 4.69582 1.81836 8.84725 1.81836Z" fill="white"/>
</g>
<defs>
<clipPath id="clip0_475_26035">
<rect width="45" height="45" fill="white" transform="translate(0 0.5)"/>
</clipPath>
</defs>
</svg>
