<svg width="45" height="46" viewBox="0 0 45 46" fill="none" xmlns="http://www.w3.org/2000/svg">
<g clip-path="url(#clip0_475_26053)">
<path d="M25.0465 21.6C26.0186 20.8408 26.6455 19.6589 26.6455 18.3327V16.8329V15.334C26.6455 13.0485 24.7861 11.1891 22.5005 11.1891C20.215 11.1891 18.3555 13.0485 18.3555 15.334V16.8333V18.3327C18.3555 19.6588 18.9824 20.8407 19.9545 21.5999C16.8481 22.682 14.5488 25.5852 14.5488 28.8613V31.2023C14.5488 31.5671 14.8445 31.8627 15.2092 31.8627H29.7919C30.1566 31.8627 30.4523 31.5671 30.4523 31.2023V28.8613C30.4522 25.5852 28.1528 22.682 25.0465 21.6ZM19.8986 14.236C20.328 13.2228 21.3326 12.5101 22.5006 12.5101C23.6685 12.5101 24.6731 13.2227 25.1025 14.236C25.2456 14.5738 25.3248 14.9449 25.3248 15.3342V16.0658C24.2582 15.7118 23.8097 14.5963 23.7889 14.5429C23.6973 14.3011 23.473 14.1351 23.215 14.118C22.9576 14.1006 22.7128 14.2357 22.5901 14.4633C22.5818 14.4788 21.7978 15.885 19.6765 16.1351V15.3341C19.6764 14.9449 19.7555 14.5738 19.8986 14.236ZM19.6763 18.3328V17.4632C21.3705 17.305 22.4578 16.5572 23.0795 15.9419C23.5118 16.5324 24.234 17.2202 25.3247 17.4288V18.3328C25.3247 19.85 24.122 21.0911 22.6199 21.154C22.5831 21.1531 22.5463 21.1517 22.5095 21.1511C22.5035 21.1511 22.4975 21.1511 22.4915 21.1511C22.4546 21.1517 22.4179 21.153 22.3811 21.154C20.879 21.0911 19.6763 19.85 19.6763 18.3328ZM22.1891 24.5356H22.8119L23.5779 27.861L22.5005 28.8471L21.423 27.861L22.1891 24.5356ZM21.7158 22.5338C21.7663 22.5269 21.8167 22.5187 21.8673 22.5129C21.8679 22.5128 21.8685 22.5127 21.8692 22.5127C21.9676 22.5016 22.0662 22.4931 22.1648 22.4863C22.1802 22.4852 22.1957 22.4844 22.211 22.4835C22.2774 22.4794 22.3438 22.4775 22.4102 22.4756C22.4404 22.4762 22.4701 22.4778 22.5005 22.4778C22.5308 22.4778 22.5605 22.4762 22.5906 22.4756C22.657 22.4775 22.7235 22.4795 22.7898 22.4835C22.8052 22.4844 22.8206 22.4852 22.8359 22.4863C22.9346 22.493 23.0334 22.5015 23.1318 22.5127C23.1323 22.5128 23.1328 22.5129 23.1334 22.5129C23.1841 22.5187 23.2344 22.5269 23.2851 22.5338L22.9346 23.2148H22.0663L21.7158 22.5338ZM29.1315 30.5421H15.8696V28.8614C15.8696 27.203 16.5789 25.6158 17.867 24.3919C18.5935 23.7016 19.464 23.178 20.3945 22.8528L20.9657 23.9625L20.0495 27.9398C19.996 28.1718 20.0716 28.4145 20.2471 28.5752L22.0546 30.2294C22.1808 30.3449 22.3406 30.4027 22.5005 30.4027C22.6603 30.4027 22.8202 30.3449 22.9462 30.2294L24.7537 28.5752C24.9293 28.4145 25.0048 28.1717 24.9514 27.9398L24.0351 23.9625L24.6062 22.8529C25.5368 23.1782 26.4073 23.7018 27.1339 24.392C28.4219 25.6158 29.1313 27.203 29.1313 28.8614V30.5421H29.1315Z" fill="white"/>
<path d="M38.0243 10.4086C37.9737 10.0874 37.697 9.85071 37.3718 9.85071C31.1631 9.85071 22.9224 4.94571 22.8399 4.89614C22.6307 4.77046 22.369 4.77046 22.1597 4.89614C22.0772 4.94571 13.8427 9.85071 7.62808 9.85071C7.30298 9.85071 7.02612 10.0874 6.97567 10.4086C6.96284 10.4906 6.66023 12.4496 6.6641 15.4014C6.66454 15.7658 6.96011 16.0609 7.32442 16.0609C7.32469 16.0609 7.32504 16.0609 7.3253 16.0609C7.69005 16.0604 7.98536 15.7643 7.98483 15.3996C7.98228 13.4466 8.12168 11.9251 8.20983 11.1591C10.8737 11.0481 14.0802 10.186 17.7529 8.59265C20.0219 7.60818 21.7872 6.63497 22.4999 6.22681C23.2125 6.63488 24.9779 7.60818 27.2469 8.59265C30.9194 10.1861 34.126 11.0481 36.7896 11.1593C36.977 12.7975 37.3956 17.8989 36.168 23.4082C36.0886 23.7642 36.3129 24.1171 36.669 24.1965C36.7173 24.2073 36.7657 24.2124 36.8132 24.2124C37.1157 24.2124 37.3886 24.0031 37.4573 23.6955C38.9964 16.7876 38.0647 10.6659 38.0243 10.4086Z" fill="white"/>
<path d="M36.4382 25.0843C36.089 24.9794 35.7206 25.1773 35.6156 25.5266C34.5394 29.1062 32.8609 32.1267 30.6268 34.5041C28.4531 36.8173 25.7197 38.5489 22.4998 39.653C17.5071 37.9414 13.7315 34.7483 11.2757 30.1596C9.44072 26.7311 8.36011 22.6007 8.06374 17.8831C8.04089 17.519 7.72712 17.2425 7.36317 17.2654C6.99912 17.2882 6.72253 17.6019 6.74547 17.9659C7.05379 22.8739 8.18609 27.1861 10.1112 30.7829C12.7659 35.7432 16.8638 39.1729 22.2913 40.9768C22.3589 40.9992 22.4293 41.0105 22.4996 41.0105C22.5699 41.0105 22.6403 40.9993 22.7078 40.9768C26.2287 39.8066 29.2168 37.9333 31.5892 35.4088C33.9646 32.8811 35.7448 29.6841 36.8804 25.9069C36.9855 25.5576 36.7875 25.1893 36.4382 25.0843Z" fill="white"/>
<path d="M41.7715 7.37898C41.721 7.05774 41.4442 6.82105 41.1191 6.82105C33.2987 6.82105 22.9433 0.656489 22.8396 0.594263C22.6304 0.468579 22.3687 0.468579 22.1595 0.594263C22.0558 0.656577 11.7004 6.82114 3.88006 6.82114C3.55486 6.82114 3.2781 7.05783 3.22765 7.37907C3.17939 7.68625 2.06538 15.0004 3.81537 23.3946C4.84826 28.3489 6.67305 32.6336 9.23893 36.1298C12.4585 40.5167 16.8499 43.658 22.2911 45.4665C22.3587 45.4889 22.4291 45.5002 22.4994 45.5002C22.5697 45.5002 22.6401 45.489 22.7077 45.4665C28.1489 43.658 32.5404 40.5167 35.7599 36.1298C38.3258 32.6336 40.1506 28.349 41.1835 23.3946C42.9339 15.0003 41.8198 7.68625 41.7715 7.37898ZM39.8907 23.1249C38.8967 27.893 37.1486 32.0055 34.6953 35.3482C31.6819 39.4541 27.5798 42.4121 22.4996 44.1427C17.4266 42.4144 13.3282 39.4619 10.3162 35.3649C7.86273 32.0279 6.11327 27.9221 5.11615 23.1616C3.67519 16.2818 4.24059 9.98485 4.46066 8.13185C7.80235 8.01882 11.8452 6.94199 16.4903 4.92666C19.4173 3.65672 21.6718 2.40244 22.4997 1.92554C23.3275 2.40244 25.5821 3.65681 28.509 4.92666C33.1541 6.94199 37.1972 8.01874 40.539 8.13185C40.7592 9.98028 41.324 16.2503 39.8907 23.1249Z" fill="white"/>
</g>
<defs>
<clipPath id="clip0_475_26053">
<rect width="45" height="45" fill="white" transform="translate(0 0.5)"/>
</clipPath>
</defs>
</svg>
