<svg width="64" height="64" viewBox="0 0 64 64" fill="none" xmlns="http://www.w3.org/2000/svg">
<path d="M32 22C30.4178 22 28.871 21.5308 27.5554 20.6518C26.2399 19.7727 25.2145 18.5233 24.609 17.0615C24.0035 15.5997 23.845 13.9911 24.1537 12.4393C24.4624 10.8874 25.2243 9.46197 26.3431 8.34315C27.462 7.22433 28.8874 6.4624 30.4393 6.15372C31.9911 5.84504 33.5997 6.00347 35.0615 6.60897C36.5233 7.21447 37.7727 8.23985 38.6518 9.55544C39.5308 10.871 40 12.4178 40 14C39.9976 16.121 39.154 18.1545 37.6542 19.6542C36.1545 21.154 34.121 21.9976 32 22ZM32 8C30.8133 8 29.6533 8.3519 28.6666 9.01119C27.6799 9.67047 26.9109 10.6075 26.4567 11.7039C26.0026 12.8003 25.8838 14.0067 26.1153 15.1705C26.3468 16.3344 26.9182 17.4035 27.7574 18.2426C28.5965 19.0818 29.6656 19.6532 30.8295 19.8847C31.9933 20.1162 33.1997 19.9974 34.2961 19.5433C35.3925 19.0892 36.3295 18.3201 36.9888 17.3334C37.6481 16.3467 38 15.1867 38 14C37.9984 12.4092 37.3658 10.884 36.2409 9.75912C35.116 8.63424 33.5908 8.00159 32 8Z" fill="white"/>
<path d="M45 34C44.7348 34 44.4804 33.8946 44.2929 33.7071C44.1054 33.5196 44 33.2652 44 33V29C44 27.84 38.807 25 32 25C25.193 25 20 27.84 20 29V33C20 33.2652 19.8946 33.5196 19.7071 33.7071C19.5196 33.8946 19.2652 34 19 34C18.7348 34 18.4804 33.8946 18.2929 33.7071C18.1054 33.5196 18 33.2652 18 33V29C18 25.676 25.659 23 32 23C38.341 23 46 25.676 46 29V33C46 33.2652 45.8946 33.5196 45.7071 33.7071C45.5196 33.8946 45.2652 34 45 34Z" fill="white"/>
<path d="M50 23C48.6155 23 47.2622 22.5895 46.111 21.8203C44.9599 21.0511 44.0627 19.9579 43.5328 18.6788C43.003 17.3997 42.8644 15.9922 43.1345 14.6344C43.4046 13.2765 44.0713 12.0292 45.0503 11.0503C46.0292 10.0713 47.2765 9.4046 48.6344 9.13451C49.9922 8.86441 51.3997 9.00303 52.6788 9.53285C53.9579 10.0627 55.0511 10.9599 55.8203 12.111C56.5895 13.2622 57 14.6155 57 16C56.9979 17.8559 56.2597 19.6351 54.9474 20.9474C53.6351 22.2597 51.8559 22.9979 50 23ZM50 11C49.0111 11 48.0444 11.2932 47.2222 11.8427C46.3999 12.3921 45.759 13.173 45.3806 14.0866C45.0022 15.0002 44.9032 16.0056 45.0961 16.9755C45.289 17.9454 45.7652 18.8363 46.4645 19.5355C47.1637 20.2348 48.0546 20.711 49.0246 20.9039C49.9945 21.0969 50.9998 20.9978 51.9134 20.6194C52.8271 20.241 53.6079 19.6001 54.1574 18.7779C54.7068 17.9556 55 16.9889 55 16C54.9984 14.6744 54.4711 13.4036 53.5338 12.4662C52.5964 11.5289 51.3256 11.0016 50 11Z" fill="white"/>
<path d="M60.9997 34.0001C60.7345 34.0001 60.4802 33.8947 60.2926 33.7072C60.1051 33.5197 59.9997 33.2653 59.9997 33.0001V30.0001C59.9997 28.5901 56.1997 26.0001 49.9997 26.0001C48.721 25.996 47.4447 26.1122 46.1877 26.3471C46.0587 26.3717 45.9261 26.3707 45.7975 26.3441C45.6688 26.3174 45.5467 26.2657 45.4381 26.1919C45.3294 26.1181 45.2364 26.0236 45.1643 25.9138C45.0922 25.804 45.0424 25.6811 45.0177 25.5521C44.9931 25.4231 44.9941 25.2905 45.0208 25.1618C45.0474 25.0332 45.0991 24.9111 45.1729 24.8024C45.2467 24.6938 45.3412 24.6008 45.451 24.5286C45.5608 24.4565 45.6837 24.4067 45.8127 24.3821C47.1934 24.124 48.5952 23.9961 49.9997 24.0001C57.1777 24.0001 61.9997 27.1001 61.9997 30.0001V33.0001C61.9997 33.2653 61.8944 33.5197 61.7068 33.7072C61.5193 33.8947 61.2649 34.0001 60.9997 34.0001Z" fill="white"/>
<path d="M14 23C12.6155 23 11.2622 22.5895 10.111 21.8203C8.95987 21.0511 8.06266 19.9579 7.53285 18.6788C7.00303 17.3997 6.86441 15.9922 7.13451 14.6344C7.4046 13.2765 8.07129 12.0292 9.05026 11.0503C10.0292 10.0713 11.2765 9.4046 12.6344 9.13451C13.9922 8.86441 15.3997 9.00303 16.6788 9.53285C17.9579 10.0627 19.0511 10.9599 19.8203 12.111C20.5895 13.2622 21 14.6155 21 16C20.9979 17.8559 20.2597 19.6351 18.9474 20.9474C17.6351 22.2597 15.8559 22.9979 14 23ZM14 11C13.0111 11 12.0444 11.2932 11.2222 11.8427C10.3999 12.3921 9.75904 13.173 9.38061 14.0866C9.00217 15.0002 8.90315 16.0056 9.09608 16.9755C9.289 17.9454 9.76521 18.8363 10.4645 19.5355C11.1637 20.2348 12.0546 20.711 13.0246 20.9039C13.9945 21.0969 14.9998 20.9978 15.9134 20.6194C16.8271 20.241 17.6079 19.6001 18.1574 18.7779C18.7068 17.9556 19 16.9889 19 16C18.9984 14.6744 18.4711 13.4036 17.5338 12.4662C16.5964 11.5289 15.3256 11.0016 14 11Z" fill="white"/>
<path d="M3 34.0001C2.73478 34.0001 2.48043 33.8947 2.29289 33.7072C2.10536 33.5197 2 33.2653 2 33.0001V30.0001C2 27.1001 6.822 24.0001 14 24.0001C15.4049 23.9961 16.807 24.124 18.188 24.3821C18.4486 24.4318 18.6787 24.583 18.8278 24.8024C18.9769 25.0219 19.0327 25.2915 18.983 25.5521C18.9333 25.8127 18.7821 26.0428 18.5627 26.1919C18.3432 26.341 18.0736 26.3968 17.813 26.3471C16.5557 26.1122 15.2791 25.996 14 26.0001C7.8 26.0001 4 28.5901 4 30.0001V33.0001C4 33.2653 3.89464 33.5197 3.70711 33.7072C3.51957 33.8947 3.26522 34.0001 3 34.0001Z" fill="white"/>
<path d="M35 58H29C28.7538 58 28.5163 57.9092 28.3329 57.745C28.1495 57.5808 28.0331 57.3547 28.006 57.11L27.48 52.377C26.1313 52.0058 24.834 51.4684 23.618 50.777L19.9 53.751C19.7079 53.9049 19.4658 53.9825 19.22 53.9691C18.9743 53.9556 18.7421 53.852 18.568 53.678L14.325 49.435C14.1512 49.2611 14.0475 49.0292 14.0339 48.7836C14.0202 48.5381 14.0975 48.2961 14.251 48.104L17.23 44.381C16.5377 43.1658 16.0002 41.8687 15.63 40.52L10.897 39.994C10.651 39.9685 10.4233 39.8528 10.2576 39.6693C10.0919 39.4857 10.0002 39.2473 10 39V36C10 35.7348 10.1054 35.4804 10.2929 35.2929C10.4804 35.1054 10.7348 35 11 35C11.2652 35 11.5196 35.1054 11.7071 35.2929C11.8946 35.4804 12 35.7348 12 36V38.1L16.532 38.6C16.7379 38.6229 16.9317 38.7091 17.0865 38.8469C17.2412 38.9847 17.3494 39.1671 17.396 39.369C17.7687 40.9824 18.4081 42.5222 19.288 43.925C19.398 44.1006 19.4508 44.3061 19.439 44.513C19.4272 44.7199 19.3513 44.9181 19.222 45.08L16.369 48.645L19.347 51.622L22.91 48.77C23.0718 48.6405 23.2699 48.5645 23.4768 48.5525C23.6837 48.5405 23.8893 48.5931 24.065 48.703C25.4679 49.5844 27.0081 50.2255 28.622 50.6C28.8241 50.6464 29.0067 50.7545 29.1447 50.9093C29.2826 51.0641 29.3691 51.2579 29.392 51.464L29.9 56H34.1L34.6 51.467C34.6229 51.2609 34.7094 51.0671 34.8473 50.9123C34.9853 50.7575 35.1679 50.6494 35.37 50.603C36.9836 50.2304 38.5237 49.5913 39.927 48.712C40.1027 48.6021 40.3083 48.5495 40.5152 48.5615C40.7221 48.5735 40.9202 48.6495 41.082 48.779L44.645 51.631L47.623 48.654L44.77 45.089C44.6407 44.9271 44.5648 44.7289 44.553 44.522C44.5412 44.3151 44.594 44.1096 44.704 43.934C45.5853 42.5315 46.2261 40.9916 46.6 39.378C46.6466 39.1761 46.7548 38.9937 46.9095 38.8559C47.0643 38.7181 47.2581 38.6319 47.464 38.609L52 38.1V36C52 35.7348 52.1054 35.4804 52.2929 35.2929C52.4804 35.1054 52.7348 35 53 35C53.2652 35 53.5196 35.1054 53.7071 35.2929C53.8946 35.4804 54 35.7348 54 36V39C54 39.2462 53.9092 39.4837 53.745 39.6671C53.5808 39.8505 53.3547 39.9669 53.11 39.994L48.377 40.52C48.0068 41.8687 47.4693 43.1658 46.777 44.381L49.752 48.1C49.9055 48.2921 49.9828 48.5341 49.9691 48.7796C49.9555 49.0252 49.8518 49.2571 49.678 49.431L45.435 53.674C45.2609 53.848 45.0287 53.9516 44.783 53.9651C44.5372 53.9785 44.2951 53.9009 44.103 53.747L40.382 50.77C39.166 51.4614 37.8687 51.9988 36.52 52.37L35.994 57.103C35.9685 57.349 35.8528 57.5767 35.6693 57.7424C35.4857 57.9081 35.2473 57.9998 35 58Z" fill="white"/>
<path d="M32 43C30.1441 42.9979 28.3649 42.2597 27.0526 40.9474C25.7403 39.6351 25.0021 37.8559 25 36C25 35.7348 25.1054 35.4804 25.2929 35.2929C25.4804 35.1054 25.7348 35 26 35C26.2652 35 26.5196 35.1054 26.7071 35.2929C26.8946 35.4804 27 35.7348 27 36C27 37.3261 27.5268 38.5979 28.4645 39.5355C29.4021 40.4732 30.6739 41 32 41C33.3261 41 34.5979 40.4732 35.5355 39.5355C36.4732 38.5979 37 37.3261 37 36C37 35.7348 37.1054 35.4804 37.2929 35.2929C37.4804 35.1054 37.7348 35 38 35C38.2652 35 38.5196 35.1054 38.7071 35.2929C38.8946 35.4804 39 35.7348 39 36C38.9979 37.8559 38.2597 39.6351 36.9474 40.9474C35.6351 42.2597 33.8559 42.9979 32 43Z" fill="white"/>
</svg>
