<svg width="64" height="64" viewBox="0 0 64 64" fill="none" xmlns="http://www.w3.org/2000/svg">
<path d="M51.9277 14.1718C51.7958 14.2788 51.6863 14.4108 51.6055 14.5601C51.5246 14.7094 51.474 14.8732 51.4565 15.0421C51.439 15.211 51.4549 15.3817 51.5034 15.5444C51.5518 15.7072 51.6319 15.8588 51.7389 15.9906C55.3717 20.4693 57.3734 26.0503 57.4152 31.8169C57.457 37.5835 55.5365 43.193 51.9691 47.7239C48.4017 52.2549 43.3995 55.4379 37.7841 56.7503C32.1686 58.0627 26.2738 57.4265 21.0677 54.946C15.8616 52.4655 11.6539 48.2883 9.1355 43.1005C6.61714 37.9126 5.93789 32.0226 7.20932 26.3977C8.48074 20.7728 11.6273 15.7475 16.1321 12.1472C20.6369 8.54685 26.2322 6.5855 31.9989 6.58529C32.3418 6.58529 32.6706 6.4491 32.913 6.20668C33.1554 5.96426 33.2916 5.63548 33.2916 5.29265C33.2916 4.94981 33.1554 4.62103 32.913 4.37861C32.6706 4.13619 32.3418 4 31.9989 4C25.6458 4.00024 19.4816 6.16103 14.5188 10.1275C9.55597 14.0939 6.08959 19.6302 4.68896 25.827C3.28833 32.0239 4.03674 38.5128 6.81126 44.2281C9.58578 49.9433 14.2215 54.5452 19.9569 57.2777C25.6924 60.0103 32.1866 60.7111 38.373 59.2651C44.5594 57.819 50.0701 54.3122 54.0001 49.3204C57.93 44.3286 60.0456 38.1488 59.9993 31.7958C59.9529 25.4428 57.7475 19.2945 53.7451 14.3606C53.529 14.0947 53.2162 13.9254 52.8755 13.89C52.5347 13.8546 52.1938 13.956 51.9277 14.1718Z" fill="white"/>
<path d="M33.0004 18.5664C33.0004 18.3012 32.8951 18.0468 32.7075 17.8593C32.52 17.6718 32.2656 17.5664 32.0004 17.5664C31.7352 17.5664 31.4809 17.6718 31.2933 17.8593C31.1058 18.0468 31.0004 18.3012 31.0004 18.5664V22.2124H30.0394C28.765 22.214 27.5433 22.721 26.6421 23.6221C25.741 24.5232 25.234 25.745 25.2324 27.0194V28.1944C25.234 29.4687 25.741 30.6904 26.6422 31.5914C27.5433 32.4923 28.7651 32.9991 30.0394 33.0004H33.9614C34.7056 33.0015 35.4189 33.2975 35.9451 33.8237C36.4713 34.3499 36.7674 35.0633 36.7684 35.8074V36.9824C36.7676 37.7266 36.4716 38.4401 35.9454 38.9664C35.4192 39.4926 34.7056 39.7886 33.9614 39.7894H30.0394C29.2952 39.7886 28.5817 39.4926 28.0555 38.9664C27.5292 38.4401 27.2332 37.7266 27.2324 36.9824C27.2324 36.7172 27.1271 36.4628 26.9395 36.2753C26.752 36.0878 26.4976 35.9824 26.2324 35.9824C25.9672 35.9824 25.7129 36.0878 25.5253 36.2753C25.3378 36.4628 25.2324 36.7172 25.2324 36.9824C25.2337 38.2569 25.7406 39.4788 26.6418 40.38C27.543 41.2812 28.7649 41.7881 30.0394 41.7894H31.0004V45.4354C31.0004 45.7006 31.1058 45.955 31.2933 46.1425C31.4809 46.33 31.7352 46.4354 32.0004 46.4354C32.2656 46.4354 32.52 46.33 32.7075 46.1425C32.8951 45.955 33.0004 45.7006 33.0004 45.4354V41.7904H33.9614C35.2359 41.7891 36.4578 41.2822 37.359 40.381C38.2602 39.4798 38.7671 38.2579 38.7684 36.9834V35.8084C38.7671 34.5338 38.2603 33.3118 37.3591 32.4105C36.4579 31.5091 35.236 31.002 33.9614 31.0004H30.0394C29.2952 30.9996 28.5817 30.7036 28.0555 30.1774C27.5292 29.6511 27.2332 28.9376 27.2324 28.1934V27.0194C27.2335 26.2753 27.5296 25.5619 28.0557 25.0357C28.5819 24.5095 29.2953 24.2135 30.0394 24.2124H33.9614C34.7056 24.2135 35.4189 24.5095 35.9451 25.0357C36.4713 25.5619 36.7674 26.2753 36.7684 27.0194C36.7684 27.2846 36.8738 27.539 37.0613 27.7265C37.2489 27.914 37.5032 28.0194 37.7684 28.0194C38.0336 28.0194 38.288 27.914 38.4755 27.7265C38.6631 27.539 38.7684 27.2846 38.7684 27.0194C38.7668 25.745 38.2599 24.5232 37.3587 23.6221C36.4576 22.721 35.2358 22.214 33.9614 22.2124H33.0004V18.5664Z" fill="white"/>
</svg>
