<svg width="64" height="64" viewBox="0 0 64 64" fill="none" xmlns="http://www.w3.org/2000/svg">
<g clip-path="url(#clip0_672_3401)">
<path d="M61 50H3C2.20435 50 1.44129 49.6839 0.87868 49.1213C0.31607 48.5587 0 47.7957 0 47L0 15C0 14.2044 0.31607 13.4413 0.87868 12.8787C1.44129 12.3161 2.20435 12 3 12H61C61.7957 12 62.5587 12.3161 63.1213 12.8787C63.6839 13.4413 64 14.2044 64 15C64 15.2652 63.8946 15.5196 63.7071 15.7071C63.5196 15.8946 63.2652 16 63 16C62.7348 16 62.4804 15.8946 62.2929 15.7071C62.1054 15.5196 62 15.2652 62 15C62 14.7348 61.8946 14.4804 61.7071 14.2929C61.5196 14.1054 61.2652 14 61 14H3C2.73478 14 2.48043 14.1054 2.29289 14.2929C2.10536 14.4804 2 14.7348 2 15V47C2 47.2652 2.10536 47.5196 2.29289 47.7071C2.48043 47.8946 2.73478 48 3 48H61C61.2652 48 61.5196 47.8946 61.7071 47.7071C61.8946 47.5196 62 47.2652 62 47V19C62 18.7348 62.1054 18.4804 62.2929 18.2929C62.4804 18.1054 62.7348 18 63 18C63.2652 18 63.5196 18.1054 63.7071 18.2929C63.8946 18.4804 64 18.7348 64 19V47C64 47.7957 63.6839 48.5587 63.1213 49.1213C62.5587 49.6839 61.7957 50 61 50Z" fill="white"/>
<path d="M36 58H28C27.7348 58 27.4804 57.8946 27.2929 57.7071C27.1054 57.5196 27 57.2652 27 57V49H29V56H35V49H37V57C37 57.2652 36.8946 57.5196 36.7071 57.7071C36.5196 57.8946 36.2652 58 36 58Z" fill="white"/>
<path d="M44 58H20C19.7348 58 19.4804 57.8946 19.2929 57.7071C19.1054 57.5196 19 57.2652 19 57C19 56.7348 19.1054 56.4804 19.2929 56.2929C19.4804 56.1054 19.7348 56 20 56H44C44.2652 56 44.5196 56.1054 44.7071 56.2929C44.8946 56.4804 45 56.7348 45 57C45 57.2652 44.8946 57.5196 44.7071 57.7071C44.5196 57.8946 44.2652 58 44 58Z" fill="white"/>
<path d="M63 44H5C4.73478 44 4.48043 43.8946 4.29289 43.7071C4.10536 43.5196 4 43.2652 4 43C4 42.7348 4.10536 42.4804 4.29289 42.2929C4.48043 42.1054 4.73478 42 5 42H63C63.2652 42 63.5196 42.1054 63.7071 42.2929C63.8946 42.4804 64 42.7348 64 43C64 43.2652 63.8946 43.5196 63.7071 43.7071C63.5196 43.8946 63.2652 44 63 44Z" fill="white"/>
<path d="M18 40C15.6266 40 13.3066 39.2962 11.3332 37.9776C9.35977 36.6591 7.8217 34.7849 6.91345 32.5922C6.0052 30.3995 5.76756 27.9867 6.23058 25.6589C6.6936 23.3311 7.83649 21.193 9.51472 19.5147C11.193 17.8365 13.3312 16.6936 15.6589 16.2306C17.9867 15.7676 20.3995 16.0052 22.5922 16.9135C24.7849 17.8217 26.6591 19.3598 27.9776 21.3332C29.2962 23.3066 30 25.6266 30 28C29.9966 31.1815 28.7312 34.2318 26.4815 36.4815C24.2318 38.7312 21.1815 39.9966 18 40ZM18 18C16.0222 18 14.0888 18.5865 12.4443 19.6853C10.7998 20.7841 9.51809 22.3459 8.76121 24.1732C8.00433 26.0004 7.8063 28.0111 8.19215 29.9509C8.578 31.8907 9.53041 33.6725 10.9289 35.0711C12.3275 36.4696 14.1093 37.422 16.0491 37.8079C17.9889 38.1937 19.9996 37.9957 21.8268 37.2388C23.6541 36.4819 25.2159 35.2002 26.3147 33.5557C27.4135 31.9112 28 29.9778 28 28C27.9971 25.3487 26.9426 22.8069 25.0679 20.9322C23.1931 19.0574 20.6513 18.0029 18 18Z" fill="white"/>
<path d="M29 29H18C17.7348 29 17.4804 28.8946 17.2929 28.7071C17.1054 28.5196 17 28.2652 17 28V17C17 16.7348 17.1054 16.4804 17.2929 16.2929C17.4804 16.1054 17.7348 16 18 16C18.2652 16 18.5196 16.1054 18.7071 16.2929C18.8946 16.4804 19 16.7348 19 17V27H29C29.2652 27 29.5196 27.1054 29.7071 27.2929C29.8946 27.4804 30 27.7348 30 28C30 28.2652 29.8946 28.5196 29.7071 28.7071C29.5196 28.8946 29.2652 29 29 29Z" fill="white"/>
<path d="M25.0004 35.9994C24.7352 35.9994 24.4809 35.894 24.2934 35.7064L17.2934 28.7064C17.1112 28.5178 17.0105 28.2652 17.0127 28.003C17.015 27.7408 17.1202 27.49 17.3056 27.3046C17.491 27.1192 17.7418 27.014 18.004 27.0118C18.2662 27.0095 18.5188 27.1103 18.7074 27.2924L25.7074 34.2924C25.8472 34.4323 25.9424 34.6104 25.981 34.8044C26.0196 34.9984 25.9998 35.1994 25.9241 35.3821C25.8484 35.5648 25.7203 35.7209 25.5559 35.8308C25.3915 35.9407 25.1982 35.9994 25.0004 35.9994Z" fill="white"/>
<path d="M37 40C36.7348 40 36.4804 39.8946 36.2929 39.7071C36.1054 39.5196 36 39.2652 36 39V34C36 33.7348 36.1054 33.4804 36.2929 33.2929C36.4804 33.1054 36.7348 33 37 33C37.2652 33 37.5196 33.1054 37.7071 33.2929C37.8946 33.4804 38 33.7348 38 34V39C38 39.2652 37.8946 39.5196 37.7071 39.7071C37.5196 39.8946 37.2652 40 37 40Z" fill="white"/>
<path d="M41 40C40.7348 40 40.4804 39.8946 40.2929 39.7071C40.1054 39.5196 40 39.2652 40 39V29C40 28.7348 40.1054 28.4804 40.2929 28.2929C40.4804 28.1054 40.7348 28 41 28C41.2652 28 41.5196 28.1054 41.7071 28.2929C41.8946 28.4804 42 28.7348 42 29V39C42 39.2652 41.8946 39.5196 41.7071 39.7071C41.5196 39.8946 41.2652 40 41 40Z" fill="white"/>
<path d="M45 40C44.7348 40 44.4804 39.8946 44.2929 39.7071C44.1054 39.5196 44 39.2652 44 39V32C44 31.7348 44.1054 31.4804 44.2929 31.2929C44.4804 31.1054 44.7348 31 45 31C45.2652 31 45.5196 31.1054 45.7071 31.2929C45.8946 31.4804 46 31.7348 46 32V39C46 39.2652 45.8946 39.5196 45.7071 39.7071C45.5196 39.8946 45.2652 40 45 40Z" fill="white"/>
<path d="M49 40C48.7348 40 48.4804 39.8946 48.2929 39.7071C48.1054 39.5196 48 39.2652 48 39V27C48 26.7348 48.1054 26.4804 48.2929 26.2929C48.4804 26.1054 48.7348 26 49 26C49.2652 26 49.5196 26.1054 49.7071 26.2929C49.8946 26.4804 50 26.7348 50 27V39C50 39.2652 49.8946 39.5196 49.7071 39.7071C49.5196 39.8946 49.2652 40 49 40Z" fill="white"/>
<path d="M53 40C52.7348 40 52.4804 39.8946 52.2929 39.7071C52.1054 39.5196 52 39.2652 52 39V36C52 35.7348 52.1054 35.4804 52.2929 35.2929C52.4804 35.1054 52.7348 35 53 35C53.2652 35 53.5196 35.1054 53.7071 35.2929C53.8946 35.4804 54 35.7348 54 36V39C54 39.2652 53.8946 39.5196 53.7071 39.7071C53.5196 39.8946 53.2652 40 53 40Z" fill="white"/>
<path d="M57 40C56.7348 40 56.4804 39.8946 56.2929 39.7071C56.1054 39.5196 56 39.2652 56 39V35C56 34.7348 56.1054 34.4804 56.2929 34.2929C56.4804 34.1054 56.7348 34 57 34C57.2652 34 57.5196 34.1054 57.7071 34.2929C57.8946 34.4804 58 34.7348 58 35V39C58 39.2652 57.8946 39.5196 57.7071 39.7071C57.5196 39.8946 57.2652 40 57 40Z" fill="white"/>
<path d="M57 19H39C38.7348 19 38.4804 18.8946 38.2929 18.7071C38.1054 18.5196 38 18.2652 38 18C38 17.7348 38.1054 17.4804 38.2929 17.2929C38.4804 17.1054 38.7348 17 39 17H57C57.2652 17 57.5196 17.1054 57.7071 17.2929C57.8946 17.4804 58 17.7348 58 18C58 18.2652 57.8946 18.5196 57.7071 18.7071C57.5196 18.8946 57.2652 19 57 19Z" fill="white"/>
<path d="M57 23H49C48.7348 23 48.4804 22.8946 48.2929 22.7071C48.1054 22.5196 48 22.2652 48 22C48 21.7348 48.1054 21.4804 48.2929 21.2929C48.4804 21.1054 48.7348 21 49 21H57C57.2652 21 57.5196 21.1054 57.7071 21.2929C57.8946 21.4804 58 21.7348 58 22C58 22.2652 57.8946 22.5196 57.7071 22.7071C57.5196 22.8946 57.2652 23 57 23Z" fill="white"/>
</g>
<defs>
<clipPath id="clip0_672_3401">
<rect width="64" height="64" fill="white"/>
</clipPath>
</defs>
</svg>
