<svg width="64" height="64" viewBox="0 0 64 64" fill="none" xmlns="http://www.w3.org/2000/svg">
<g clip-path="url(#clip0_901_10751)">
<path d="M40.6281 41.566C50.6605 41.566 58.8225 33.404 58.8225 23.3715C58.8225 13.3391 50.6605 5.17712 40.6281 5.17712C30.5956 5.17712 22.4336 13.3391 22.4336 23.3715C22.4336 33.404 30.5956 41.566 40.6281 41.566ZM40.6281 7.05212C49.6266 7.05212 56.9475 14.373 56.9475 23.3715C56.9475 32.3701 49.6267 39.691 40.6281 39.691C31.6295 39.691 24.3086 32.3701 24.3086 23.3715C24.3086 14.373 31.6296 7.05212 40.6281 7.05212Z" fill="#2563EB"/>
<path d="M31.1758 30.3262H50.0797C50.4147 30.3262 50.724 30.1475 50.8915 29.8575C51.059 29.5675 51.059 29.2101 50.8915 28.92L49.1964 25.9838C48.9375 25.5355 48.3643 25.3817 47.9158 25.6407C47.4674 25.8996 47.3138 26.473 47.5727 26.9213L48.4558 28.4512H32.7995L40.6278 14.8923L45.3424 23.0582C45.6014 23.5066 46.1748 23.6603 46.623 23.4013C47.0714 23.1425 47.225 22.5691 46.9662 22.1207L41.4397 12.5486C41.2722 12.2586 40.9628 12.0798 40.6278 12.0798C40.2928 12.0798 39.9834 12.2586 39.8159 12.5486L30.3639 28.92C30.1964 29.21 30.1964 29.5675 30.3639 29.8575C30.5314 30.1475 30.8408 30.3262 31.1758 30.3262Z" fill="#2563EB"/>
<path d="M41.5664 19.9203C41.5664 19.4025 41.1468 18.9828 40.6289 18.9828C40.111 18.9828 39.6914 19.4025 39.6914 19.9203V22.4967C39.6914 23.0144 40.111 23.4342 40.6289 23.4342C41.1468 23.4342 41.5664 23.0144 41.5664 22.4967V19.9203Z" fill="#2563EB"/>
<path d="M40.627 26.8092C41.1447 26.8092 41.5645 26.3895 41.5645 25.8717C41.5645 25.3539 41.1447 24.9342 40.627 24.9342C40.1092 24.9342 39.6895 25.3539 39.6895 25.8717C39.6895 26.3895 40.1092 26.8092 40.627 26.8092Z" fill="#2563EB"/>
<path d="M6.54853 17.2969L11.5603 18.5948C12.981 18.9628 14.4362 18.113 14.8062 16.6843C15.1742 15.2626 14.3172 13.8066 12.8957 13.4385L7.88391 12.1406C6.45916 11.7714 5.00716 12.626 4.63803 14.0511C4.27003 15.4728 5.12703 16.9288 6.54853 17.2969ZM6.45316 14.5211C6.56178 14.1015 6.98953 13.8464 7.41391 13.9558L12.4255 15.2536C12.8463 15.3626 13.1 15.7935 12.9909 16.2144C12.8818 16.636 12.452 16.8889 12.0302 16.7798L7.01853 15.4819C6.59791 15.3728 6.34416 14.9419 6.45316 14.5211Z" fill="#2563EB"/>
<path d="M6.34154 28.1391L11.509 27.8227C12.9747 27.7329 14.0943 26.4674 14.0045 25.0018C13.9144 23.5288 12.647 22.4152 11.1837 22.5063L6.01617 22.8227C4.55042 22.9124 3.43092 24.1778 3.52067 25.6436C3.61042 27.1112 4.87117 28.2293 6.34154 28.1391ZM5.58854 24.9586C5.72804 24.8009 5.92054 24.7069 6.13067 24.6941L11.2983 24.3777C11.7303 24.3521 12.1063 24.6782 12.133 25.1162C12.1597 25.5499 11.8283 25.9246 11.3947 25.9512L6.22704 26.2676C5.52904 26.3086 5.12342 25.4844 5.58854 24.9586Z" fill="#2563EB"/>
<path d="M10.1006 7.05091L14.4647 9.83578C15.7061 10.628 17.3509 10.2637 18.1426 9.02328C18.9324 7.78528 18.5679 6.13553 17.33 5.34566L12.9657 2.56066C11.7279 1.77091 10.078 2.13516 9.28811 3.37316C8.49636 4.61391 8.85961 6.25903 10.1006 7.05091ZM10.8687 4.38178C11.1021 4.01616 11.59 3.90728 11.9572 4.14128L16.3215 6.92616C16.6879 7.15991 16.7957 7.64816 16.562 8.01453C16.3285 8.38041 15.8425 8.49016 15.4735 8.25503L11.1092 5.47028C10.7419 5.23591 10.6344 4.74903 10.8687 4.38178Z" fill="#2563EB"/>
<path d="M57.1548 6.84562C52.7336 2.42438 46.876 0 40.6315 0C35.2557 0 30.1954 1.764 26.0265 5.09425C25.622 5.41738 25.5559 6.00737 25.879 6.41187C26.2022 6.81637 26.7922 6.88237 27.1966 6.55925C30.9611 3.552 35.5175 1.93275 40.3732 1.8765C46.221 1.81 51.7054 4.04788 55.8289 8.17138C59.9557 12.2984 62.1911 17.7873 62.1234 23.627C61.9875 35.3394 52.3447 44.8681 40.6283 44.8681C36.4349 44.8681 32.3719 43.6605 28.8785 41.3758C27.9329 40.7573 26.6684 40.8865 25.8719 41.6831L21.1042 46.4507L17.5491 42.8956L22.3165 38.1281C23.1132 37.3315 23.2425 36.067 22.624 35.1215C20.3394 31.628 19.1317 27.565 19.1317 23.3716C19.1317 18.2925 20.9199 13.3707 24.1666 9.51275C24.5 9.11662 24.4491 8.52525 24.053 8.19188C23.6569 7.8585 23.0655 7.90938 22.7321 8.3055C16.1654 16.108 15.3805 27.4714 21.055 36.1478C21.1925 36.3579 21.1661 36.6269 20.9907 36.8021L16.2232 41.5698L15.758 41.1045C15.3418 40.6886 14.6644 40.6887 14.2474 41.1049L12.546 42.8064C12.1263 42.498 11.522 42.5235 11.1299 42.9156L8.40137 45.6441C8.00838 46.0373 7.98475 46.6418 8.29225 47.0602L0.312125 55.0406C0.110875 55.2424 0 55.5104 0 55.7954V63.0625C0 63.5802 0.419625 64 0.9375 64H8.20487C8.49025 64 8.75863 63.8889 8.96037 63.6871L16.9399 55.7076C17.3595 56.0159 17.9637 55.9905 18.3561 55.5984L21.0845 52.8699C21.4774 52.4769 21.5012 51.8724 21.1937 51.4538L22.8952 49.7523C23.3132 49.3343 23.3122 48.6577 22.8952 48.2414L22.4305 47.7766L27.1981 43.009C27.373 42.834 27.6425 42.8074 27.8524 42.945C31.6518 45.4297 36.0696 46.7433 40.6285 46.7433C46.839 46.7433 52.6789 44.3524 57.0726 40.011C61.4668 35.6691 63.9265 29.8582 63.9984 23.6489C64.072 17.3 61.6415 11.3325 57.1548 6.84562ZM15.0033 43.0011C15.101 43.0989 21.2671 49.2653 20.9989 48.9969L19.8767 50.119L13.8811 44.1234L15.0033 43.0011ZM17.5842 53.7185L16.4709 52.605C16.1046 52.2389 15.5111 52.2389 15.145 52.605C14.7789 52.9711 14.7789 53.5648 15.145 53.9308L15.605 54.3908L7.87063 62.125H1.875V56.1292L9.60938 48.395L12.0484 50.834C12.4146 51.2001 13.0081 51.2001 13.3743 50.834C13.7404 50.4679 13.7404 49.8743 13.3743 49.5083L10.2816 46.4157L11.9017 44.7956L19.2045 52.0983L17.5842 53.7185Z" fill="#2563EB"/>
</g>
<defs>
<clipPath id="clip0_901_10751">
<rect width="64" height="64" fill="white"/>
</clipPath>
</defs>
</svg>
