<svg width="64" height="64" viewBox="0 0 64 64" fill="none" xmlns="http://www.w3.org/2000/svg">
<g clip-path="url(#clip0_901_12527)">
<path d="M62.4387 54.94H61.5623V20.2591C61.5623 18.538 60.1622 17.1378 58.4411 17.1378H49.7631C49.2437 17.1378 48.8227 17.5588 48.8227 18.0782C48.8227 18.5975 49.2437 19.0185 49.7631 19.0185H58.4411C59.1252 19.0185 59.6816 19.575 59.6816 20.2591V54.94H57.1963C56.677 54.94 56.2559 55.361 56.2559 55.8803C56.2559 56.3997 56.677 56.8207 57.1963 56.8207H62.1194V58.7837C62.1194 59.7687 61.318 60.5702 60.3328 60.5702H3.66728C2.68229 60.5702 1.88072 59.7688 1.88072 58.7837V56.8207H53.1887C53.7081 56.8207 54.1291 56.3997 54.1291 55.8803C54.1291 55.361 53.7081 54.94 53.1887 54.94H4.31839V20.2591C4.31839 19.5751 4.87483 19.0185 5.55892 19.0185H14.2369C14.7563 19.0185 15.1773 18.5975 15.1773 18.0782C15.1773 17.5588 14.7563 17.1378 14.2369 17.1378H5.55892C3.8378 17.1378 2.43767 18.538 2.43767 20.2591V54.94H1.56125C0.700381 54.94 0 55.6405 0 56.5013V58.7837C0 60.8058 1.64513 62.451 3.66728 62.451H60.3328C62.3549 62.451 64.0001 60.8058 64.0001 58.7837V56.5013C64 55.6405 63.2996 54.94 62.4387 54.94Z" fill="#2563EB"/>
<path d="M14.2371 22.7801C14.7564 22.7801 15.1774 22.3591 15.1774 21.8398C15.1774 21.3204 14.7564 20.8994 14.2371 20.8994H7.13958C6.62025 20.8994 6.19922 21.3204 6.19922 21.8398V52.119C6.19922 52.6384 6.62025 53.0594 7.13958 53.0594H56.8606C57.38 53.0594 57.801 52.6384 57.801 52.119V21.8398C57.801 21.3204 57.38 20.8994 56.8606 20.8994H49.7632C49.2438 20.8994 48.8228 21.3204 48.8228 21.8398C48.8228 22.3591 49.2438 22.7801 49.7632 22.7801H55.9203V51.1787H8.07994V22.7801H14.2371Z" fill="#2563EB"/>
<path d="M26.8564 40.6666L30.8217 42.6262C31.1907 42.8086 31.5955 42.8998 32.0003 42.8998C32.405 42.8998 32.81 42.8085 33.1789 42.6262L37.1443 40.6666C40.0883 39.2117 42.5604 36.9682 44.2933 34.1788C46.0262 31.3894 46.9423 28.1792 46.9423 24.8953V9.12674C46.9423 8.0783 46.2331 7.16364 45.2177 6.90234L42.3296 6.15946C41.9576 6.06379 41.5665 5.95295 41.1672 5.83021C40.6707 5.67749 40.1446 5.95621 39.9919 6.45248C39.8392 6.94886 40.1178 7.47509 40.6141 7.6278C41.0413 7.7592 41.4608 7.87806 41.8611 7.981L44.7491 8.72389C44.933 8.77116 45.0616 8.93691 45.0616 9.12686V24.8956C45.0616 27.8284 44.2436 30.6954 42.6959 33.1864C41.1481 35.6777 38.9403 37.6813 36.3112 38.9806L32.3457 40.9402C32.1296 41.047 31.8714 41.0471 31.6551 40.9402L27.6897 38.9806C25.0604 37.6813 22.8526 35.6777 21.305 33.1864C19.7573 30.6952 18.9393 27.8284 18.9393 24.8956V9.12674C18.9393 8.93678 19.0677 8.77116 19.2516 8.72376L22.2604 7.94991C24.8923 7.27285 27.4052 6.21538 29.729 4.80659L31.9474 3.46175C32.0157 3.42037 32.1002 3.42075 32.1682 3.46275L34.1774 4.70578C35.0008 5.21521 35.867 5.68915 36.7518 6.11457C37.2198 6.33963 37.7817 6.14253 38.0067 5.67461C38.2318 5.20656 38.0348 4.64472 37.5667 4.41966C36.7415 4.02283 35.9342 3.58111 35.1669 3.10642L33.1577 1.86339C32.4857 1.44762 31.6482 1.44373 30.9726 1.85335L28.7542 3.19845C26.5878 4.51157 24.2453 5.49744 21.7919 6.12861L18.7831 6.90247C17.7676 7.16376 17.0586 8.07842 17.0586 9.12686V24.8956C17.0586 28.1795 17.9746 31.3896 19.7075 34.1791C21.4404 36.9683 23.9124 39.2117 26.8564 40.6666Z" fill="#2563EB"/>
<path d="M29.3563 35.6084C28.1509 35.0127 27.0612 34.2223 26.1176 33.2593C25.7541 32.8883 25.1586 32.8824 24.7878 33.2457C24.4169 33.6092 24.4107 34.2045 24.7742 34.5755C25.8663 35.69 27.1276 36.6048 28.523 37.2944L31.5839 38.807C31.7152 38.872 31.8579 38.9043 32.0006 38.9043C32.1433 38.9043 32.286 38.8718 32.4172 38.807L35.4782 37.2944C37.7927 36.1506 39.7362 34.3868 41.0986 32.1939C42.461 30.001 43.1812 27.4772 43.1812 24.8954V10.9914C43.1812 10.5623 42.8907 10.1876 42.4751 10.0806L41.393 9.80226C38.4942 9.05674 35.7337 7.88016 33.1883 6.30524L32.5382 5.90302C32.2376 5.71708 31.8582 5.71532 31.556 5.8985L30.7043 6.41482C28.223 7.91903 25.5397 9.04821 22.7291 9.77116L21.5265 10.0805C21.1108 10.1874 20.8203 10.5621 20.8203 10.9913V24.8953C20.8203 27.0207 21.3216 29.151 22.27 31.0559C22.5014 31.5208 23.0659 31.7102 23.5308 31.4787C23.9957 31.2473 24.1851 30.6828 23.9536 30.2179C23.1342 28.5719 22.7012 26.7314 22.7012 24.8953V22.427H31.1194C31.1233 28.2578 31.124 33.7136 31.1176 36.4786L29.3563 35.6084ZM40.9245 11.6238L41.3004 11.7205V20.5465H32.9984C32.9945 15.5477 32.9888 10.7982 32.9858 8.37441C35.4719 9.81454 38.1378 10.9071 40.9245 11.6238ZM22.7008 20.5465V11.7205L23.1974 11.5927C25.9711 10.8792 28.6279 9.79298 31.1051 8.362C31.1096 11.8897 31.1144 16.2511 31.1176 20.5463L22.7008 20.5465ZM41.3004 22.4272V24.8954C41.3004 27.1261 40.6782 29.3067 39.501 31.2014C38.3239 33.0961 36.6447 34.62 34.6449 35.6083L32.9977 36.4223C32.9996 35.4982 33.0009 34.203 33.0016 33.062C33.0036 30.1566 33.0024 26.2957 32.9996 22.427L41.3004 22.4272Z" fill="#2563EB"/>
</g>
<defs>
<clipPath id="clip0_901_12527">
<rect width="64" height="64" fill="white"/>
</clipPath>
</defs>
</svg>
