<svg width="64" height="64" viewBox="0 0 64 64" fill="none" xmlns="http://www.w3.org/2000/svg">
<g clip-path="url(#clip0_901_5490)">
<path d="M14.7253 42.2499H22.6338C23.1508 42.2499 23.5701 41.8308 23.5701 41.3137C23.5701 40.7967 23.1509 40.3774 22.6338 40.3774H14.7253C14.2083 40.3774 13.7891 40.7966 13.7891 41.3137C13.7891 41.8307 14.2082 42.2499 14.7253 42.2499Z" fill="#2563EB"/>
<path d="M27.3063 44.1796H14.7253C14.2083 44.1796 13.7891 44.5987 13.7891 45.1158C13.7891 45.6329 14.2082 46.0521 14.7253 46.0521H27.3063C27.8233 46.0521 28.2426 45.6329 28.2426 45.1158C28.2426 44.5987 27.8234 44.1796 27.3063 44.1796Z" fill="#2563EB"/>
<path d="M63.985 39.3753C63.9465 38.2737 63.0526 37.3716 61.9501 37.3214C61.2046 37.2876 60.5047 37.2168 59.846 37.1185V16.9997C59.846 15.1506 58.3416 13.6462 56.4924 13.6462H54.6133V11.4487C54.6133 9.59958 53.109 8.09508 51.2598 8.09508H38.7941L37.0334 3.65333C36.6156 2.59958 35.6134 1.9187 34.4799 1.9187H7.14175C5.62712 1.9187 4.395 3.15095 4.395 4.66545V7.22058C4.395 7.7027 4.00275 8.09495 3.52062 8.09495H3.35362C1.5045 8.09533 0.000125 9.5997 0.000125 11.4488V22.985C0.000125 23.502 0.41925 23.9212 0.936375 23.9212C1.45337 23.9212 1.87262 23.5021 1.87262 22.985V11.4488C1.87262 10.6321 2.537 9.9677 3.35375 9.9677H3.52075C5.03538 9.9677 6.26762 8.73545 6.26762 7.22095V4.6657C6.26762 4.18358 6.65987 3.79133 7.142 3.79133H19.9403C20.3011 3.79133 20.6201 4.00808 20.7531 4.34345L22.2949 8.23295C22.7125 9.2867 23.7149 9.96758 24.8484 9.96758H51.2599C52.0765 9.96758 52.7409 10.632 52.7409 11.4487V13.6462H11.4509C9.60175 13.6462 8.09725 15.1506 8.09725 16.9997V48.5287C8.09725 50.2448 6.70112 51.6411 4.98487 51.6411H4.9845C3.26862 51.6411 1.8725 50.2451 1.8725 48.5291V27.3225C1.8725 26.8055 1.45337 26.3862 0.93625 26.3862C0.41925 26.3862 0 26.8053 0 27.3225V48.5291C0 51.2775 2.236 53.5135 4.98438 53.5135H40.5744C42.4316 56.72 45.2933 59.7653 49.6883 61.8703C49.9815 62.0108 50.2964 62.0811 50.6114 62.0811C50.9261 62.0811 51.241 62.0108 51.5341 61.8703C63.6178 56.083 64.1192 43.1891 63.985 39.3753ZM24.8484 8.09533C24.4875 8.09533 24.1685 7.87858 24.0355 7.5432L22.5484 3.79145H34.48C34.8409 3.79145 35.1599 4.0082 35.2929 4.3437L36.78 8.09545L24.8484 8.09533ZM8.876 51.6411C9.56013 50.7876 9.96962 49.7051 9.96962 48.5287V16.9998C9.96962 16.1832 10.634 15.5187 11.4508 15.5187H56.4925C57.3092 15.5187 57.9736 16.1832 57.9736 16.9998V36.7394C54.9346 35.9503 53.0423 34.5627 52.06 33.6447C51.2478 32.8853 49.975 32.8852 49.1625 33.6446C47.8068 34.9118 44.7191 37.0744 39.2725 37.3214C38.1701 37.3714 37.2764 38.2736 37.2375 39.3752C37.1616 41.5337 37.2902 46.6002 39.6056 51.6411H8.876ZM60.5913 49.2388C58.7591 54.2421 55.4398 57.9237 50.7253 60.1816C50.6538 60.2158 50.5686 60.2157 50.497 60.1816C45.7828 57.9237 42.4634 54.242 40.6311 49.2388C39.1491 45.192 39.0411 41.3631 39.1086 39.4411C39.1134 39.3053 39.2202 39.1983 39.3571 39.1921C45.4036 38.9178 48.8968 36.4558 50.4408 35.0127C50.4885 34.9681 50.5498 34.9458 50.611 34.9458C50.6722 34.9458 50.7335 34.9681 50.7811 35.0127C52.3252 36.4558 55.8186 38.9178 61.865 39.1921C62.0019 39.1983 62.1086 39.3053 62.1135 39.4411C62.1813 41.3629 62.0734 45.1916 60.5913 49.2388Z" fill="#2563EB"/>
<path d="M56.902 41.1817C54.4145 40.978 52.8593 40.0285 51.9925 39.2677C51.1924 38.5653 50.0307 38.5655 49.2302 39.2677C48.3637 40.0285 46.8085 40.978 44.3209 41.1817C43.2242 41.2715 42.3644 42.2313 42.3633 43.3668C42.3604 46.2592 43.0638 53.3637 49.6427 56.8555C49.9459 57.0165 50.2787 57.097 50.6114 57.097C50.9439 57.097 51.2768 57.0165 51.58 56.8555C53.3717 55.9045 54.8672 54.6025 56.0248 52.9856C56.3258 52.5651 56.229 51.9803 55.8085 51.6793C55.388 51.3783 54.8034 51.4752 54.5022 51.8956C53.5145 53.2752 52.2359 54.3875 50.702 55.2016C50.6445 55.2322 50.5782 55.2322 50.5204 55.2016C44.8402 52.1867 44.233 45.9222 44.2357 43.3687C44.2358 43.2026 44.3425 43.0587 44.4737 43.0481C47.4713 42.8026 49.3867 41.6222 50.4654 40.6751C50.5553 40.5962 50.6673 40.5961 50.7574 40.6751C51.8363 41.6221 53.7517 42.8026 56.7493 43.0481C56.8803 43.0588 56.987 43.2027 56.9873 43.3687C56.9884 44.5425 56.8642 46.3466 56.2664 48.2766C56.1134 48.7705 56.3898 49.295 56.8838 49.4478C57.3784 49.601 57.9022 49.3245 58.055 48.8305C58.7224 46.6761 58.8609 44.6703 58.8598 43.3668C58.8585 42.2312 57.9984 41.2713 56.902 41.1817Z" fill="#2563EB"/>
</g>
<defs>
<clipPath id="clip0_901_5490">
<rect width="64" height="64" fill="white"/>
</clipPath>
</defs>
</svg>
