<svg width="64" height="64" viewBox="0 0 64 64" fill="none" xmlns="http://www.w3.org/2000/svg">
<g clip-path="url(#clip0_901_1047)">
<path d="M41.8335 24.7554H40.3848C40.3848 21.3848 40.397 21.3901 40.3442 20.8486C40.293 20.3296 39.8306 19.9492 39.3115 20.001C38.7925 20.0527 38.4131 20.5147 38.4639 21.0337C38.5054 21.4492 38.4951 21.4385 38.4951 24.7554H36.4995V21.6763C36.4995 19.1948 34.4814 17.1768 32 17.1768C29.5181 17.1768 27.5 19.1948 27.5 21.6763V24.7554H25.5049V21.6763C25.5049 18.0947 28.4185 15.1812 32 15.1812C34.1226 15.1812 36.1167 16.2256 37.335 17.9751C37.6323 18.4033 38.2217 18.5093 38.6499 18.2109C39.0786 17.9121 39.1831 17.3237 38.8857 16.8955C37.3135 14.6382 34.7397 13.2915 32 13.2915C27.3765 13.2915 23.6152 17.0532 23.6152 21.6763V24.7554H22.1665C20.9556 24.7554 19.9707 25.6206 19.9707 26.6836V49.0293C19.9707 50.0923 20.9556 50.958 22.1665 50.958H24.4995C25.0225 50.958 25.4443 50.5347 25.4443 50.0132C25.4443 49.4912 25.0225 49.0684 24.4995 49.0684H22.1665C22.0078 49.0684 21.9019 49.0127 21.8604 48.9775V26.7354C21.9019 26.7002 22.0078 26.645 22.1665 26.645H41.8335C41.9922 26.645 42.0981 26.7002 42.1397 26.7354V48.9775C42.0981 49.0127 41.9922 49.0684 41.8335 49.0684H28.2788C27.7573 49.0684 27.334 49.4912 27.334 50.0132C27.334 50.5347 27.7573 50.958 28.2788 50.958H41.8335C43.0439 50.958 44.0293 50.0923 44.0293 49.0293V26.6836C44.0293 25.6206 43.0439 24.7554 41.8335 24.7554ZM34.6104 24.7554H29.3896V21.6763C29.3896 20.2363 30.5601 19.0664 32 19.0664C33.4399 19.0664 34.6104 20.2363 34.6104 21.6763V24.7554Z" fill="white"/>
<path d="M27.1196 7.50442L31.0557 3.41409V11.7217C31.0557 12.2437 31.4785 12.6665 32.0005 12.6665C32.5224 12.6665 32.9453 12.2437 32.9453 11.7217V3.41409L36.8808 7.50442C37.2432 7.88088 37.8413 7.89163 38.2168 7.5303C38.5928 7.16848 38.6045 6.57034 38.2427 6.19436C38.185 6.13479 32.6704 0.398948 32.6069 0.345725C32.2178 0.0200415 31.6562 0.0649634 31.3193 0.414573L25.7583 6.19436C25.3965 6.56985 25.4077 7.16799 25.7837 7.52981C26.1601 7.89211 26.7583 7.88039 27.1196 7.50442Z" fill="white"/>
<path d="M36.8806 56.7451L32.9451 60.8355V52.5273C32.9451 52.0059 32.5222 51.5825 32.0002 51.5825C31.4783 51.5825 31.0554 52.0059 31.0554 52.5273V60.8355L27.1194 56.7451C26.7576 56.3691 26.1594 56.3574 25.7839 56.7192C25.408 57.0811 25.3962 57.6792 25.7581 58.0552C31.6721 64.2012 31.3416 63.874 31.4675 63.9595C31.8518 64.2227 32.365 64.1636 32.6809 63.835L38.2424 58.0552C38.6042 57.6792 38.5925 57.0811 38.2166 56.7192C37.8406 56.3574 37.2424 56.3691 36.8806 56.7451Z" fill="white"/>
<path d="M63.7559 31.4917C63.7051 31.436 57.9858 25.9346 57.9316 25.8823C57.5552 25.5205 56.957 25.5322 56.5957 25.9082C56.2339 26.2842 56.2456 26.8823 56.6211 27.2441L60.7114 31.1797H52.4038C51.8818 31.1797 51.459 31.603 51.459 32.1245C51.459 32.6465 51.8818 33.0693 52.4038 33.0693H60.7114L56.6211 37.0054C56.0068 37.5967 56.4331 38.6309 57.2764 38.6309C57.7192 38.6309 57.3701 38.9775 63.7168 32.7993C64.0752 32.4482 64.1016 31.8735 63.7559 31.4917Z" fill="white"/>
<path d="M3.28913 33.0693H11.5972C12.1192 33.0693 12.5421 32.6465 12.5421 32.1245C12.5421 31.603 12.1192 31.1797 11.5972 31.1797H3.28913L7.37947 27.2441C7.75544 26.8823 7.76716 26.2842 7.40535 25.9082C7.04353 25.5322 6.44538 25.5205 6.06941 25.8823C-0.137136 31.855 0.206614 31.5068 0.11677 31.6704C-0.0853787 32.0376 -0.0233669 32.5029 0.289621 32.8057C6.51521 38.7959 6.19734 38.6309 6.72419 38.6309C7.56746 38.6309 7.99421 37.5967 7.37947 37.0054L3.28913 33.0693Z" fill="white"/>
<path d="M45.9572 11.2642L51.6325 11.1553L45.758 17.0298C45.3888 17.3984 45.3888 17.9971 45.758 18.3657C46.1271 18.7349 46.7253 18.7349 47.0944 18.3657L52.9684 12.4912L52.8595 18.1665C52.8493 18.6943 53.2741 19.1294 53.8044 19.1294C54.3176 19.1294 54.7389 18.7183 54.7487 18.2026C54.9079 9.92432 54.9064 10.1655 54.8991 10.0815C54.8976 10.0615 54.8879 9.99707 54.8869 9.99023C54.8093 9.57861 54.4689 9.26416 54.0475 9.22461C54.029 9.22314 53.9635 9.2207 53.9494 9.22119C53.9465 9.22119 53.9435 9.2207 53.9401 9.2207L45.9211 9.375C45.3991 9.38525 44.9845 9.81592 44.9943 10.3379C45.0041 10.8594 45.4401 11.2729 45.9572 11.2642Z" fill="white"/>
<path d="M18.0423 52.9848L12.367 53.0942L18.2415 47.2197C18.6101 46.8506 18.6101 46.2524 18.2415 45.8833C17.8723 45.5146 17.2742 45.5146 16.9051 45.8833L11.0305 51.7578L11.1399 46.0825C11.1497 45.561 10.7351 45.1299 10.2136 45.1201C9.68728 45.1089 9.26052 45.5244 9.25075 46.0464C9.09108 54.3227 9.09255 54.084 9.10036 54.1675C9.14479 54.6728 9.57497 55.0381 10.0593 55.0283L18.0784 54.874C18.6004 54.8637 19.0149 54.4331 19.0051 53.9111C18.9949 53.3896 18.5613 52.9746 18.0423 52.9848Z" fill="white"/>
<path d="M53.7858 45.1201C53.2643 45.1299 52.8493 45.561 52.8596 46.0825L52.9684 51.7578L47.0944 45.8833C46.7253 45.5146 46.1271 45.5146 45.758 45.8833C45.3889 46.2524 45.3889 46.8506 45.758 47.2197L51.6325 53.0942L45.9572 52.9848C45.4313 52.9726 45.0046 53.3896 44.9943 53.9111C44.9841 54.4331 45.3991 54.8642 45.9206 54.874C54.6096 55.0415 53.9992 55.0415 54.1623 55.0054C54.4894 54.9336 54.7683 54.6904 54.8679 54.3384C54.9196 54.1513 54.9143 54.6548 54.7487 46.0464C54.739 45.5244 54.3034 45.1089 53.7858 45.1201Z" fill="white"/>
<path d="M18.0778 9.375L10.0588 9.22071C9.52609 9.2085 9.08468 9.64698 9.09591 10.1836L9.25021 18.2031C9.25998 18.7256 9.6921 19.1397 10.2131 19.1294C10.7346 19.1191 11.1496 18.6885 11.1394 18.1665L11.03 12.4912C17.3606 18.8218 17.0324 18.6426 17.5725 18.6426C18.4069 18.6426 18.8376 17.6265 18.2409 17.0298L12.3664 11.1553L18.0417 11.2642C18.5686 11.2754 18.9944 10.8594 19.0046 10.3379C19.0144 9.81592 18.5998 9.38526 18.0778 9.375Z" fill="white"/>
</g>
<defs>
<clipPath id="clip0_901_1047">
<rect width="64" height="64" fill="white"/>
</clipPath>
</defs>
</svg>
