<svg width="64" height="64" viewBox="0 0 64 64" fill="none" xmlns="http://www.w3.org/2000/svg">
<g clip-path="url(#clip0_901_355)">
<path d="M17.7904 7.31967L30.9216 2.05425C31.5165 1.81577 32.1714 1.81577 32.7661 2.05425L56.0011 11.3711C56.9462 11.7501 57.5568 12.6528 57.5568 13.671V31.9752C57.5568 34.0025 57.3198 36.0293 56.8522 37.9994C56.7327 38.5031 57.0442 39.0085 57.5479 39.1279C57.6207 39.1452 57.6934 39.1536 57.765 39.1534C58.1895 39.1534 58.5742 38.8632 58.6764 38.4323C59.1775 36.3205 59.4315 34.1481 59.4315 31.9752V13.671C59.4315 11.8823 58.3588 10.2966 56.6986 9.63092L33.4637 0.314061C32.4192 -0.104768 31.2684 -0.104768 30.2238 0.314061L17.0927 5.57948C16.6121 5.77221 16.3788 6.3179 16.5715 6.79848C16.7643 7.27917 17.3101 7.51202 17.7904 7.31967Z" fill="white"/>
<path d="M52.2011 40.2239C53.2474 37.5972 53.7788 34.8273 53.7788 31.9753V15.1843C53.7788 14.8014 53.5458 14.4568 53.1903 14.3143L32.1926 5.89458C31.9687 5.80484 31.7187 5.80484 31.4949 5.89458L10.4972 14.3143C10.1416 14.4569 9.90862 14.8014 9.90862 15.1843V31.9753C9.90862 38.539 12.7776 44.6971 17.6909 48.9091C17.7615 49.0004 31.1059 58.1165 31.1059 58.1165C31.3246 58.2638 31.5797 58.3418 31.8436 58.3418C32.1071 58.3418 32.3619 58.2641 32.5805 58.1171L41.8836 51.8605C42.2597 53.0982 42.8929 54.224 43.7197 55.1784L34.6888 61.2519C32.9605 62.4144 30.7268 62.4144 28.9985 61.2519L17.6629 53.6284C10.4418 48.772 6.13065 40.6774 6.13065 31.9753V13.6711C6.13065 12.6528 6.74134 11.7501 7.68636 11.3711L12.3445 9.50331C12.825 9.31058 13.0584 8.76489 12.8657 8.28431C12.6728 7.80362 12.1267 7.57064 11.6468 7.76312L6.98869 9.63092C5.32862 10.2966 4.25586 11.8824 4.25586 13.671V31.9752C4.25586 41.3026 8.87673 49.9787 16.6165 55.1839L27.9521 62.8075C29.1343 63.6025 30.4887 63.9998 31.8436 63.9998C33.1982 63.9998 34.5532 63.6023 35.735 62.8075L45.123 56.4939C46.6528 57.651 48.5563 58.3387 50.6178 58.3387C55.6509 58.3387 59.7454 54.244 59.7454 49.2111C59.7455 44.7184 56.4816 40.976 52.2011 40.2239ZM11.7834 31.9753V15.8184L31.8437 7.77462L51.904 15.8184V31.9753C51.904 34.7927 51.3383 37.5221 50.2253 40.0936C47.0058 40.2306 44.2146 42.0431 42.6998 44.6795C41.4475 43.9993 40.0454 43.6412 38.6127 43.6412H36.7751V41.2576C37.7266 40.6319 38.7671 39.8644 39.8946 38.956C41.799 37.4218 42.9809 35.2246 43.2208 32.8264L44.1467 32.5212C45.6996 32.0092 46.7428 30.5667 46.7428 28.9318V28.8714C46.7428 27.7401 46.1057 26.7549 45.1714 26.2551L46.0785 20.4881C46.3399 18.8259 45.6082 17.1682 44.2144 16.2648C41.8461 14.7296 37.0898 12.1543 31.8436 12.1543C26.5974 12.1543 21.8412 14.7296 19.4728 16.2648C18.079 17.1682 17.3472 18.826 17.6088 20.4882L18.5158 26.2552C17.5818 26.755 16.9446 27.7401 16.9446 28.8714V28.9318C16.9446 30.5667 17.9879 32.0092 19.5407 32.5212L20.4663 32.8264C20.7063 35.2246 21.8882 37.4219 23.7926 38.9561C24.9201 39.8645 25.9606 40.6319 26.9121 41.2577V43.6413H25.0082C22.373 43.6413 19.883 44.8723 18.2715 46.9147C14.1629 43.0819 11.7834 37.6967 11.7834 31.9753ZM20.1279 30.7405C19.3453 30.4825 18.8195 29.7556 18.8195 28.9317V28.8713C18.8195 28.27 19.3087 27.7808 19.9101 27.7808H20.4202V30.8368L20.1279 30.7405ZM43.2671 27.7808H43.7774C44.3788 27.7808 44.868 28.27 44.868 28.8713V28.9317C44.868 29.7556 44.3422 30.4825 43.5597 30.7405L43.2671 30.837V27.7808ZM44.2265 20.1969L43.3283 25.9061H42.3297C33.3592 25.9061 28.9703 23.0881 27.5001 21.8765C27.1425 21.5817 26.6773 21.4704 26.2238 21.5702C25.7711 21.6702 25.3969 21.9667 25.1972 22.3836C23.7162 25.4747 21.5647 25.8691 21.3042 25.9061H20.3591L19.4611 20.1969C19.3145 19.2652 19.7193 18.3393 20.4927 17.8381C22.6873 16.4157 27.0801 14.0292 31.8437 14.0292C36.6073 14.0292 41.0002 16.4155 43.1947 17.8381C43.968 18.3392 44.3731 19.2651 44.2265 20.1969ZM22.295 31.9152V27.5838C23.3795 27.2337 25.2694 26.2648 26.6762 23.6136C28.5297 25.0137 33.0546 27.5882 41.3923 27.7698V31.9152C41.3923 34.0929 40.4176 36.127 38.7183 37.496C34.3027 41.0536 32.4396 41.4377 31.8436 41.4377C31.2475 41.4377 29.3845 41.0536 24.9688 37.496C23.2697 36.127 22.295 34.0929 22.295 31.9152ZM28.7872 42.3666C30.007 42.9955 31.0286 43.3125 31.8437 43.3125C32.6589 43.3125 33.6804 42.9955 34.9003 42.3666V44.0564C34.9003 45.7417 33.529 47.1129 31.8437 47.1129C30.1584 47.1129 28.7872 45.7417 28.7872 44.0564V42.3666ZM31.8437 56.3533C31.8437 56.3533 20.0629 48.4103 19.7013 48.1302C20.9589 46.5006 22.9254 45.5159 25.0085 45.5159H27.133C27.7567 47.5248 29.6325 48.9877 31.8437 48.9877C34.055 48.9877 35.9308 47.5248 36.5544 45.5159H38.6127C39.7818 45.5159 40.9249 45.8207 41.9355 46.399C41.6476 47.2854 41.4903 48.2301 41.4903 49.2112C41.4903 49.4258 41.5004 49.638 41.515 49.849L31.8437 56.3533ZM50.6179 56.464C46.6187 56.464 43.3651 53.2104 43.3651 49.2112C43.3651 45.212 46.6187 41.9584 50.6179 41.9584C54.6171 41.9584 57.8707 45.212 57.8707 49.2112C57.8707 53.2104 54.6171 56.464 50.6179 56.464Z" fill="white"/>
<path d="M53.0392 46.5925L49.7903 49.8414L48.7409 48.792C48.3747 48.4259 47.7813 48.4259 47.4152 48.792C47.0491 49.1581 47.0491 49.7516 47.4152 50.1176L49.1219 51.8243C49.123 51.8254 49.1242 51.8264 49.1254 51.8275C49.1261 51.8283 49.1267 51.829 49.1275 51.8298C49.3106 52.0128 49.5506 52.1044 49.7904 52.1044C50.0303 52.1044 50.2702 52.0129 50.4534 51.8298L54.3651 47.9181C54.7311 47.552 54.7311 46.9585 54.3651 46.5925C53.9988 46.2264 53.4053 46.2264 53.0392 46.5925Z" fill="white"/>
</g>
<defs>
<clipPath id="clip0_901_355">
<rect width="64" height="64" fill="white"/>
</clipPath>
</defs>
</svg>
