<svg width="64" height="64" viewBox="0 0 64 64" fill="none" xmlns="http://www.w3.org/2000/svg">
<g clip-path="url(#clip0_901_10019)">
<path d="M43.9917 8.8578C44.5124 8.8578 44.9346 8.43566 44.9346 7.91492C44.9346 7.39419 44.5124 6.97205 43.9917 6.97205C43.471 6.97205 43.0488 7.39419 43.0488 7.91492C43.0488 8.43566 43.471 8.8578 43.9917 8.8578Z" fill="white"/>
<path d="M48.0952 8.8578C48.616 8.8578 49.0381 8.43566 49.0381 7.91492C49.0381 7.39419 48.616 6.97205 48.0952 6.97205C47.5745 6.97205 47.1523 7.39419 47.1523 7.91492C47.1523 8.43566 47.5745 8.8578 48.0952 8.8578Z" fill="white"/>
<path d="M52.2007 8.8578C52.7214 8.8578 53.1436 8.43566 53.1436 7.91492C53.1436 7.39419 52.7214 6.97205 52.2007 6.97205C51.68 6.97205 51.2578 7.39419 51.2578 7.91492C51.2578 8.43566 51.68 8.8578 52.2007 8.8578Z" fill="white"/>
<path d="M35.8467 7.18701H7.55078C7.03303 7.18701 6.61328 7.60676 6.61328 8.12451C6.61328 8.64226 7.03303 9.06201 7.55078 9.06201H35.8467C36.3644 9.06201 36.7842 8.64226 36.7842 8.12451C36.7842 7.60676 36.3644 7.18701 35.8467 7.18701Z" fill="white"/>
<path d="M27.1318 53.2283H3.393C2.556 53.2283 1.875 52.5473 1.875 51.7103V13.7576H57.7734V27.6809C57.7734 28.1986 58.1931 28.6184 58.7109 28.6184C59.2286 28.6184 59.6484 28.1986 59.6484 27.6809V5.46502C59.6484 3.59415 58.1264 2.07202 56.2555 2.07202H3.393C1.52212 2.07215 0 3.59415 0 5.46502V51.7103C0 53.5812 1.52212 55.1033 3.393 55.1033H27.1319C27.6496 55.1033 28.0694 54.6835 28.0694 54.1658C28.0694 53.648 27.6495 53.2283 27.1318 53.2283ZM1.875 5.46502C1.875 4.62802 2.556 3.94702 3.393 3.94702H56.2555C57.0925 3.94702 57.7734 4.62802 57.7734 5.46502V11.8825H1.875V5.46502Z" fill="white"/>
<path d="M59.4203 31.1814H45.9523C45.8475 30.753 45.6294 30.3596 45.3085 30.041C44.8512 29.5868 44.2449 29.337 43.6 29.337C43.5972 29.337 43.5943 29.337 43.5914 29.337C43.3575 29.3391 43.1468 29.1893 43.071 28.9673C42.8703 28.3789 42.6278 27.799 42.3503 27.2436C42.2462 27.0353 42.2878 26.783 42.4537 26.6159C43.3955 25.6674 43.39 24.1295 42.4417 23.1876L40.046 20.8088C39.0977 19.8669 37.5598 19.8723 36.6178 20.8208C36.4518 20.9878 36.1999 21.0311 35.9908 20.9285C35.4335 20.655 34.852 20.4166 34.262 20.2199C34.0395 20.1456 33.8895 19.9376 33.8887 19.7015C33.884 18.3678 32.7974 17.2859 31.4647 17.2859C31.4618 17.2859 31.4589 17.2859 31.456 17.2859L28.08 17.2978C26.7434 17.3025 25.6598 18.3936 25.6644 19.7309C25.6652 19.9664 25.5167 20.1756 25.2947 20.2514C24.7064 20.452 24.1264 20.6945 23.5708 20.9721C23.3624 21.0761 23.11 21.0346 22.9432 20.8688C21.9935 19.9258 20.4592 19.9299 19.5149 20.8808L17.136 23.2764C16.1919 24.2271 16.1973 25.7605 17.148 26.7046C17.3152 26.8705 17.3584 27.1225 17.2558 27.3316C16.9822 27.8891 16.7438 28.4708 16.5473 29.0604C16.473 29.2829 16.265 29.4329 16.0289 29.4338C15.3814 29.436 14.7735 29.6904 14.3173 30.1499C13.861 30.6094 13.611 31.219 13.6133 31.8665L13.6252 35.2425C13.6298 36.5763 14.7164 37.6583 16.0492 37.6581C16.0542 37.6581 16.059 37.658 16.0643 37.6581C16.2974 37.6599 16.5037 37.8078 16.5788 38.0279C16.7795 38.6163 17.022 39.1961 17.2995 39.7515C17.4037 39.9599 17.362 40.2123 17.1962 40.3793C16.2544 41.3278 16.2598 42.8656 17.2083 43.8074L19.6038 46.1863C20.5537 47.1294 22.0879 47.125 23.032 46.1744C23.1979 46.0074 23.4498 45.9639 23.659 46.0666C24.2163 46.3401 24.7978 46.5785 25.3878 46.7753C25.6103 46.8494 25.7603 47.0575 25.7612 47.2935C25.7658 48.6273 26.8524 49.7093 28.1852 49.7091H28.1938L30.6043 49.7008V57.3479C30.6043 59.8735 32.659 61.9283 35.1847 61.9283H59.4205C61.9462 61.9283 64.0009 59.8735 64.0009 57.3479V35.7618C64.0007 33.2361 61.9459 31.1814 59.4203 31.1814ZM30.6042 47.8255L28.187 47.834C27.8818 47.8323 27.637 47.5896 27.636 47.2861C27.6323 46.2453 26.967 45.3251 25.9808 44.9963C25.4704 44.826 24.967 44.6198 24.485 44.3831C23.5533 43.9258 22.4347 44.1146 21.7014 44.8529C21.4878 45.068 21.1402 45.0694 20.9248 44.8555L18.5293 42.4766C18.3144 42.2633 18.3132 41.9149 18.5265 41.7001C19.2597 40.9619 19.4407 39.842 18.9769 38.9133C18.7369 38.4328 18.527 37.931 18.3533 37.422C18.0184 36.4405 17.0977 35.7828 16.0604 35.7828C16.0553 35.7828 16.0502 35.7828 16.0452 35.7828C15.7452 35.7804 15.5013 35.5363 15.5003 35.2355L15.4884 31.8595C15.4874 31.5568 15.7329 31.3095 16.0363 31.3084C17.077 31.3046 17.9973 30.6395 18.3262 29.6531C18.4963 29.143 18.7025 28.6398 18.9393 28.1575C19.3965 27.2258 19.2078 26.1071 18.4695 25.3739C18.2543 25.1601 18.2528 24.8128 18.4668 24.5973L20.8457 22.2016C21.0638 21.982 21.412 21.9901 21.6223 22.199C22.3605 22.9323 23.4805 23.1131 24.4089 22.6493C24.8897 22.4093 25.3914 22.1994 25.9004 22.0258C26.8844 21.6899 27.5432 20.7651 27.5395 19.7236C27.539 19.577 27.5957 19.4389 27.699 19.3349C27.8024 19.2308 27.94 19.1733 28.0868 19.1728L31.4628 19.1609H31.4648C31.7667 19.1609 32.0128 19.406 32.0139 19.7088C32.0177 20.7495 32.6828 21.6698 33.669 21.9986C34.1795 22.1689 34.6828 22.3751 35.1649 22.6118C36.0968 23.0691 37.2153 22.8803 37.9484 22.142C38.1618 21.9273 38.5102 21.9259 38.725 22.1393L41.1207 24.5181C41.3355 24.7315 41.3368 25.0799 41.1234 25.2948C40.3903 26.0331 40.2093 27.153 40.673 28.0815C40.913 28.5621 41.1229 29.0639 41.2967 29.5729C41.5893 30.4309 42.3298 31.0415 43.2048 31.1815H37.2289C36.2499 28.04 33.3234 25.7393 29.8258 25.7393C29.8165 25.7393 29.807 25.7393 29.7978 25.7393C25.5103 25.7543 22.0517 29.2363 22.0667 33.5246C22.0818 37.8319 25.5732 41.252 29.8413 41.252C30.0953 41.252 30.3498 41.2391 30.6042 41.214V47.8255ZM30.6042 35.7618V39.3258C27.0814 39.7891 23.9542 37.0733 23.9417 33.518C23.9303 30.2665 26.5524 27.6255 29.8043 27.6141H29.8254C32.2579 27.6141 34.3368 29.0848 35.233 31.1814H35.1844C32.6589 31.1814 30.6042 33.2361 30.6042 35.7618ZM62.1257 57.3476C62.1257 58.8394 60.912 60.053 59.4203 60.053H35.1844C33.6927 60.053 32.479 58.8394 32.479 57.3476V35.7618C32.479 34.27 33.6927 33.0564 35.1844 33.0564H59.4203C60.912 33.0564 62.1257 34.27 62.1257 35.7618V57.3476Z" fill="white"/>
<path d="M58.4003 44.6966C58.3498 43.2756 57.1778 42.1625 55.732 42.1625L49.2916 42.1649L51.2033 40.2531C52.3127 39.1438 52.2808 37.3399 51.1313 36.2693C50.036 35.2493 48.3346 35.2933 47.2581 36.3699L42.9787 40.6493C42.5903 41.0376 41.909 41.65 41.4168 41.9156C41.0628 41.5959 40.5956 41.3993 40.082 41.3993H38.1693C37.069 41.3993 36.1738 42.2945 36.1738 43.3948V54.44C36.1738 55.5404 37.0691 56.4355 38.1693 56.4355H40.082C40.7063 56.4355 41.2641 56.1469 41.6302 55.6965L44.5841 56.9461C45.5508 57.3608 46.5745 57.571 47.6263 57.571H53.9323C55.9476 57.571 57.1788 55.5024 56.336 53.7858C57.5455 53.0375 57.8993 51.5156 57.2816 50.3394C58.5855 49.4519 58.8052 47.6433 57.7986 46.468C58.2111 45.9714 58.4236 45.3499 58.4003 44.6966ZM40.2026 54.4211L40.2011 54.4474C40.197 54.5103 40.1458 54.5605 40.0821 54.5605H38.1695C38.103 54.5605 38.049 54.5064 38.049 54.44V43.3948C38.049 43.3283 38.1031 43.2743 38.1695 43.2743H40.0821C40.1486 43.2743 40.2026 43.3284 40.2026 43.3948V54.4211ZM55.7585 48.9293H54.9506C53.7111 48.9293 53.7093 50.8043 54.9506 50.8043C55.3757 50.8043 55.7196 51.1551 55.7043 51.5868C55.6901 51.987 55.3338 52.3126 54.9101 52.3126H53.9731C52.7336 52.3126 52.7318 54.1876 53.9731 54.1876C54.3995 54.1876 54.742 54.5401 54.7267 54.9701C54.7125 55.3704 54.3562 55.696 53.9325 55.696H47.6265C46.8301 55.696 46.0551 55.5369 45.319 55.2211L42.0776 53.8499V43.6839C42.8767 43.2938 43.6763 42.6034 44.3045 41.9751L48.5838 37.6958C48.937 37.3428 49.5065 37.3184 49.8535 37.6415C50.2268 37.9893 50.2341 38.5709 49.8776 38.9275L47.3317 41.4734C46.3865 42.4186 47.0566 44.0405 48.395 44.0405H48.3956L55.7323 44.0379C56.1561 44.0379 56.5123 44.3635 56.5266 44.7636C56.5418 45.1943 56.1988 45.5463 55.7728 45.5463C54.5333 45.5463 54.5316 47.4213 55.7728 47.4213H55.799C56.2248 47.4213 56.5678 47.7729 56.5526 48.2038C56.5385 48.6036 56.1822 48.9293 55.7585 48.9293Z" fill="white"/>
</g>
<defs>
<clipPath id="clip0_901_10019">
<rect width="64" height="64" fill="white"/>
</clipPath>
</defs>
</svg>
