<svg width="45" height="46" viewBox="0 0 45 46" fill="none" xmlns="http://www.w3.org/2000/svg">
<path d="M41.4843 19.1991H39.4876C39.1714 19.1991 38.895 18.9886 38.8154 18.6875C38.4302 17.2239 37.8489 15.8194 37.0881 14.513C36.9309 14.2428 36.9772 13.8982 37.2007 13.6747L38.6118 12.2636C39.01 11.8653 39.2294 11.3356 39.2294 10.7722C39.2294 10.2088 39.01 9.67906 38.6118 9.28081L36.2192 6.88819C35.4227 6.09169 34.0329 6.09169 33.2364 6.88819L31.8253 8.29925C31.6018 8.52275 31.2571 8.5691 30.9869 8.41152C29.6806 7.65106 28.276 7.06982 26.8128 6.68461C26.5114 6.60496 26.3009 6.32858 26.3009 6.01239V4.01562C26.3009 2.85245 25.3547 1.90625 24.1915 1.90625H20.8084C19.6453 1.90625 18.6991 2.85245 18.6991 4.01562V6.01239C18.6991 6.32859 18.4886 6.60496 18.1875 6.68461C16.7239 7.06982 15.3194 7.65106 14.013 8.41186C13.7435 8.56876 13.3985 8.5231 13.1747 8.29925L11.7636 6.88819C10.9671 6.09169 9.57732 6.09169 8.78081 6.88819L6.38819 9.28081C5.98994 9.67907 5.77055 10.2088 5.77055 10.7722C5.77055 11.3356 5.98994 11.8653 6.38819 12.2636L7.79925 13.6747C8.02275 13.8982 8.0691 14.2429 7.91152 14.513C7.15106 15.8194 6.56982 17.2239 6.18461 18.6872C6.10496 18.9886 5.82858 19.1991 5.51239 19.1991H3.51562C2.35245 19.1991 1.40625 20.1452 1.40625 21.3084V24.6915C1.40625 25.8547 2.35245 26.8009 3.51562 26.8009H5.51239C5.82859 26.8009 6.10496 27.0114 6.18461 27.3125C6.56982 28.7767 7.15141 30.1813 7.91186 31.4862C8.0691 31.7568 8.02275 32.1018 7.79925 32.3253L6.38819 33.7364C5.98994 34.1346 5.77055 34.6644 5.77055 35.2278C5.77055 35.7912 5.98994 36.3209 6.38819 36.7192L8.78081 39.1118C9.57732 39.9083 10.9671 39.9083 11.7636 39.1118L13.1747 37.7007C13.3982 37.4772 13.7432 37.4305 14.013 37.5884C15.3194 38.3489 16.7239 38.9301 18.1872 39.3154C18.4886 39.395 18.6991 39.6714 18.6991 39.9876V41.9843C18.6991 43.1475 19.6453 44.0937 20.8084 44.0937H24.1915C25.3547 44.0937 26.3009 43.1475 26.3009 41.9843V39.9876C26.3009 39.6714 26.5114 39.395 26.8125 39.3154C28.276 38.9301 29.6806 38.3489 30.9869 37.5881C31.2568 37.4315 31.6011 37.4765 31.8253 37.7007L33.2364 39.1118C34.5 40.5 37.3813 37.9496 38.1778 37.1531C38.4525 36.8785 37.7747 37.2747 37.5 37C37.2253 36.7253 37.4582 35.8842 37.1836 36.1589C36.9178 36.4239 34.4964 38.3825 34.2306 38.1175L32.8196 36.7065C32.1456 36.0318 31.1013 35.8959 30.279 36.3731C29.0825 37.07 27.7957 37.6025 26.4544 37.9558C25.536 38.1975 24.8947 39.0332 24.8947 39.9876V41.9844C24.8947 42.372 24.5792 42.6875 24.1915 42.6875H20.8084C20.4208 42.6875 20.1053 42.372 20.1053 41.9844V39.9876C20.1053 39.0332 19.464 38.1975 18.5453 37.9558C17.2042 37.6025 15.9175 37.07 14.721 36.3731C13.9005 35.8959 12.8547 36.0318 12.1804 36.7065L10.7693 38.1175C10.5036 38.3825 10.0408 38.3825 9.77508 38.1175L7.38247 35.7249C7.24994 35.592 7.17682 35.4156 7.17682 35.2278C7.17682 35.04 7.24994 34.8635 7.38247 34.7306L8.79353 33.3196C9.46781 32.6453 9.60514 31.6006 9.12689 30.7786C8.42995 29.5829 7.89745 28.2961 7.54417 26.9544C7.30247 26.036 6.46682 25.3947 5.51239 25.3947H3.51562C3.12801 25.3947 2.8125 25.0791 2.8125 24.6915V21.3084C2.8125 20.9208 3.12801 20.6053 3.51562 20.6053H5.51239C6.46682 20.6053 7.30247 19.964 7.54417 19.0453C7.89745 17.7042 8.42995 16.4175 9.12689 15.221C9.60514 14.3998 9.46815 13.355 8.79353 12.6804L7.38247 11.2693C7.24994 11.1365 7.17682 10.96 7.17682 10.7722C7.17682 10.5844 7.24994 10.4079 7.38247 10.2751L9.77508 7.88246C10.0408 7.61742 10.5036 7.61742 10.7693 7.88246L12.1804 9.29352C12.8547 9.96849 13.9005 10.1048 14.721 9.62689C15.9175 8.92994 17.2042 8.39744 18.5456 8.04417C19.464 7.80247 20.1053 6.96682 20.1053 6.01238V4.01562C20.1053 3.62801 20.4208 3.31249 20.8084 3.31249H24.1915C24.5792 3.31249 24.8947 3.62801 24.8947 4.01562V6.01238C24.8947 6.96682 25.536 7.80247 26.4547 8.04417C27.7957 8.39744 29.0825 8.92994 30.279 9.62689C31.1013 10.1048 32.1456 9.96849 32.8196 9.29352L34.2306 7.88246C34.4964 7.61742 34.9592 7.61742 35.2249 7.88246L37.6175 10.2751C37.75 10.4079 37.8232 10.5844 37.8232 10.7722C37.8232 10.96 37.75 11.1365 37.6175 11.2693L36.2065 12.6804C35.5318 13.355 35.3948 14.3998 35.8731 15.221C36.57 16.4175 37.1025 17.7042 37.4558 19.0456C37.6975 19.964 38.5332 20.6053 39.4876 20.6053H41.4844C41.872 20.6053 42.1875 20.9208 42.1875 21.3084V24.6915C42.1875 25.0791 41.872 25.3947 41.4844 25.3947H39.4876C38.5332 25.3947 37.6975 26.036 37.4558 26.9547C37.1025 28.2961 36.57 29.5829 35.8728 30.779C35.3948 31.6006 35.5322 32.6453 36.2065 33.3196L37.6175 34.7306C37.7501 34.8635 37.8232 35.04 37.8232 35.2278C37.8232 35.4156 37.7501 35.592 37.6175 35.7249L37.1836 36.1589C36.9089 36.4335 36.9089 36.8785 37.1836 37.1531C37.4582 37.4278 37.9032 37.4278 38.1778 37.1531L38.6118 36.7192C39.01 36.3209 39.2294 35.7912 39.2294 35.2278C39.2294 34.6644 39.01 34.1346 38.6118 33.7364L37.2007 32.3253C36.9772 32.1018 36.9309 31.7568 37.0878 31.4866C37.8486 30.1813 38.4302 28.7767 38.8154 27.3128C38.895 27.0114 39.1714 26.8009 39.4876 26.8009H41.4844C42.6475 26.8009 43.5937 25.8547 43.5937 24.6915V21.3084C43.5937 20.1452 42.6475 19.1991 41.4843 19.1991Z" fill="white"/>
<path d="M13.5049 15.0967C13.1994 14.8578 12.7568 14.912 12.5182 15.2182C10.7687 17.4595 9.84375 20.1501 9.84375 23C9.84375 29.9787 15.5213 35.6562 22.5 35.6562C29.4787 35.6562 35.1562 29.9787 35.1562 23C35.1562 16.0213 29.4787 10.3438 22.5 10.3438C19.5011 10.3438 16.5928 11.4115 14.3104 13.3502C14.0144 13.6015 13.9784 14.0455 14.2297 14.3414C14.4814 14.6373 14.9253 14.6734 15.2209 14.4221C17.2492 12.699 19.8344 11.75 22.5 11.75C28.7032 11.75 33.75 16.7968 33.75 23C33.75 29.2032 28.7032 34.25 22.5 34.25C16.2968 34.25 11.25 29.2032 11.25 23C11.25 20.467 12.0719 18.075 13.6265 16.0834C13.8654 15.7775 13.8112 15.3357 13.5049 15.0967Z" fill="white"/>
<path d="M26.0476 23.817H26.0476C26.9082 23.816 27.7333 23.4738 28.3418 22.8652C28.9503 22.2567 29.2926 21.4316 29.2936 20.5711V20.571C29.2936 19.929 29.1032 19.3014 28.7465 18.7676C28.3899 18.2338 27.8829 17.8178 27.2898 17.5721C26.6966 17.3264 26.044 17.2621 25.4143 17.3874C24.7846 17.5126 24.2063 17.8218 23.7523 18.2757C23.2983 18.7297 22.9892 19.3081 22.8639 19.9377C22.7387 20.5674 22.803 21.2201 23.0487 21.8132C23.2943 22.4063 23.7104 22.9133 24.2442 23.27C24.778 23.6266 25.4056 23.817 26.0476 23.817ZM24.7436 18.6195C25.1296 18.3617 25.5834 18.224 26.0476 18.224C26.6698 18.2246 27.2664 18.4721 27.7065 18.9121C28.1465 19.3521 28.394 19.9488 28.3946 20.5711C28.3946 21.0352 28.2569 21.489 27.999 21.8749C27.7411 22.2609 27.3746 22.5617 26.9457 22.7394C26.5169 22.917 26.045 22.9635 25.5897 22.8729C25.1344 22.7824 24.7162 22.5588 24.388 22.2306C24.0598 21.9024 23.8362 21.4842 23.7457 21.0289C23.6551 20.5736 23.7016 20.1017 23.8792 19.6728C24.0569 19.244 24.3577 18.8774 24.7436 18.6195Z" fill="white" stroke="white" stroke-width="0.1"/>
<path d="M30.9228 28.4798C31.0071 28.5641 31.1214 28.6115 31.2406 28.6115C31.3598 28.6115 31.4742 28.5641 31.5585 28.4798C31.6428 28.3955 31.6901 28.2812 31.6901 28.162V26.564C31.6901 26.2117 31.4872 25.8833 31.1555 25.5917C30.8232 25.2996 30.356 25.0389 29.8122 24.8211C28.7244 24.3854 27.3198 24.117 26.0471 24.117C24.7744 24.117 23.3698 24.3854 22.2821 24.8211C21.7383 25.0389 21.271 25.2996 20.9388 25.5917C20.607 25.8833 20.4041 26.2117 20.4041 26.564V28.162C20.4041 28.2812 20.4515 28.3955 20.5358 28.4798C20.6201 28.5641 20.7344 28.6115 20.8536 28.6115C20.9728 28.6115 21.0871 28.5641 21.1714 28.4798C21.2557 28.3955 21.3031 28.2812 21.3031 28.162V26.564C21.3031 26.5235 21.3267 26.4663 21.3862 26.3941C21.4446 26.3231 21.5326 26.2436 21.6491 26.1593C21.8818 25.9909 22.2221 25.8074 22.6488 25.6377C23.5018 25.2983 24.6941 25.016 26.0471 25.016C27.4001 25.016 28.5924 25.2983 29.4454 25.6377C29.8721 25.8074 30.2124 25.9909 30.4452 26.1593C30.5616 26.2436 30.6497 26.3231 30.7081 26.3941C30.7676 26.4663 30.7911 26.5235 30.7911 26.564V28.162C30.7911 28.2812 30.8385 28.3955 30.9228 28.4798Z" fill="white" stroke="white" stroke-width="0.1"/>
<path d="M18.8561 24.2163H18.8561C19.6108 24.2154 20.3343 23.9152 20.8679 23.3816C21.4016 22.848 21.7017 22.1245 21.7026 21.3698V21.3697C21.7026 20.8068 21.5356 20.2564 21.2229 19.7883C20.9101 19.3202 20.4655 18.9554 19.9454 18.7399C19.4253 18.5245 18.8529 18.4681 18.3008 18.5779C17.7486 18.6878 17.2414 18.9589 16.8433 19.357C16.4452 19.7551 16.1741 20.2623 16.0643 20.8144C15.9544 21.3666 16.0108 21.9389 16.2262 22.4591C16.4417 22.9792 16.8065 23.4238 17.2746 23.7365C17.7427 24.0493 18.2931 24.2163 18.8561 24.2163ZM17.7741 19.7505C18.0944 19.5365 18.4709 19.4222 18.8561 19.4222V19.3722L18.856 19.4222C19.3724 19.4229 19.8674 19.6283 20.2325 19.9934C20.5976 20.3585 20.803 20.8535 20.8036 21.3698C20.8036 21.755 20.6894 22.1315 20.4754 22.4517C20.2614 22.772 19.9572 23.0216 19.6014 23.169C19.2455 23.3164 18.8539 23.355 18.4761 23.2798C18.0984 23.2047 17.7513 23.0192 17.479 22.7468C17.2066 22.4745 17.0211 22.1275 16.946 21.7497C16.8708 21.3719 16.9094 20.9803 17.0568 20.6245C17.2042 20.2686 17.4538 19.9645 17.7741 19.7505Z" fill="white" stroke="white" stroke-width="0.1"/>
<path d="M20.3705 25.5532C20.4876 25.5755 20.6088 25.5504 20.7074 25.4834C20.806 25.4164 20.874 25.313 20.8963 25.1958C20.9187 25.0787 20.8936 24.9575 20.8266 24.8589C20.7596 24.7603 20.6561 24.6923 20.539 24.6699L20.5388 24.6699C19.9841 24.5662 19.4208 24.5149 18.8564 24.5164C17.4159 24.5165 16.209 24.8274 15.3604 25.2865C14.515 25.7438 14.0125 26.3561 14.0125 26.9634V28.1619C14.0125 28.2812 14.0599 28.3955 14.1442 28.4798C14.2285 28.5641 14.3428 28.6115 14.462 28.6115C14.5812 28.6115 14.6955 28.5641 14.7798 28.4798C14.8641 28.3955 14.9115 28.2812 14.9115 28.1619V26.9634C14.9115 26.8432 14.9942 26.6853 15.1723 26.5119C15.3484 26.3405 15.6107 26.1612 15.9517 25.9983C16.6335 25.6728 17.6248 25.4154 18.8565 25.4154L18.8567 25.4154C19.3645 25.4138 19.8713 25.46 20.3705 25.5532ZM20.3705 25.5532C20.3705 25.5532 20.3705 25.5532 20.3704 25.5532L20.3798 25.5041L20.3706 25.5532C20.3706 25.5532 20.3706 25.5532 20.3705 25.5532Z" fill="white" stroke="white" stroke-width="0.1"/>
</svg>
