<svg width="45" height="46" viewBox="0 0 45 46" fill="none" xmlns="http://www.w3.org/2000/svg">
<path d="M41.2123 4.19727H3.78773C2.4743 4.19727 1.40625 5.26531 1.40625 6.57875V33.1077C1.40625 34.4211 2.475 35.4891 3.78773 35.4891H17.2948V37.7138H14.5013C13.3734 37.7138 12.4566 38.6314 12.4566 39.7585C12.4566 40.8856 13.3741 41.8032 14.5013 41.8032H30.5009C31.6287 41.8032 32.5455 40.8856 32.5455 39.7585C32.5455 38.6314 31.628 37.7138 30.5009 37.7138H27.7073V35.4891H41.2116C42.525 35.4891 43.593 34.4204 43.593 33.1077V6.57875C43.593 5.26531 42.525 4.19727 41.2123 4.19727ZM31.14 39.7585C31.14 40.1108 30.8538 40.397 30.5016 40.397H14.502C14.1497 40.397 13.8635 40.1108 13.8635 39.7585C13.8635 39.4062 14.1497 39.1201 14.502 39.1201H30.5016C30.8538 39.1201 31.14 39.4062 31.14 39.7585ZM18.7017 37.7138V35.4905H26.3025V37.7138H18.7017ZM41.213 34.0829H3.78773C3.24984 34.0829 2.8125 33.6455 2.8125 33.1077V29.9084H5.7375C6.12562 29.9084 6.44062 29.5934 6.44062 29.2053C6.44062 28.8172 6.12562 28.5022 5.7375 28.5022H2.8125V6.57875C2.8125 6.04086 3.24984 5.60352 3.78773 5.60352H41.2123C41.7502 5.60352 42.1875 6.04086 42.1875 6.57875V28.5029H8.38125C7.99312 28.5029 7.67812 28.8179 7.67812 29.206C7.67812 29.5941 7.99312 29.9091 8.38125 29.9091H42.1875V33.1084C42.1875 33.6462 41.7502 34.0836 41.2123 34.0836L41.213 34.0829Z" fill="white"/>
<path d="M23.3518 31.3027H21.6475C21.2593 31.3027 20.9443 31.6177 20.9443 32.0059C20.9443 32.394 21.2593 32.709 21.6475 32.709H23.3518C23.74 32.709 24.055 32.394 24.055 32.0059C24.055 31.6177 23.74 31.3027 23.3518 31.3027Z" fill="white"/>
<path d="M19.1346 24.1374C19.4756 24.3645 19.8342 24.5621 20.1879 24.7203C20.403 24.8209 20.6266 24.9102 20.8566 24.9917C21.3255 25.1541 21.8304 25.2927 22.357 25.4016C22.4041 25.4115 22.452 25.4164 22.5005 25.4164C22.549 25.4164 22.5961 25.4115 22.6439 25.4016C23.1705 25.2927 23.6747 25.1541 24.1479 24.9903C24.3743 24.9102 24.5979 24.8209 24.8018 24.7259C25.1667 24.5628 25.5246 24.3652 25.8614 24.1409C26.452 23.7549 26.9927 23.2817 27.4673 22.7368C28.7583 21.2616 29.4691 19.3604 29.4691 17.3825V11.768C29.4691 11.3947 29.1773 11.086 28.8047 11.0656C25.4543 10.8828 22.9329 9.12289 22.9083 9.10531C22.665 8.93234 22.3373 8.93234 22.0941 9.10531C22.0688 9.12289 19.5473 10.8828 16.1977 11.0656C15.825 11.086 15.5332 11.394 15.5332 11.768V17.3825C15.5332 19.3597 16.2441 21.2616 17.5336 22.7361C18.0096 23.2817 18.5503 23.7542 19.136 24.1374H19.1346ZM16.9373 12.4156C19.5959 12.1238 21.6581 11.0284 22.4998 10.5158C23.3407 11.0284 25.4037 12.1245 28.0622 12.4156V17.3825C28.0622 19.0194 27.4751 20.5916 26.4077 21.8115C26.0168 22.2601 25.5738 22.6475 25.0866 22.9667C24.8102 23.1502 24.5213 23.3098 24.2168 23.4463C24.0424 23.5278 23.8617 23.5995 23.6824 23.6628C23.3126 23.7915 22.916 23.9026 22.5005 23.9947C22.0856 23.9033 21.6884 23.7915 21.322 23.6642C21.1392 23.5995 20.9578 23.5278 20.7729 23.4413C20.4797 23.3098 20.19 23.1502 19.9095 22.9639C19.4264 22.6482 18.9841 22.2608 18.5918 21.8115C17.5252 20.5923 16.938 19.0194 16.938 17.3832V12.4163L16.9373 12.4156Z" fill="white"/>
<path d="M21.5553 19.0931C21.6924 19.2302 21.8724 19.2991 22.0524 19.2991C22.2324 19.2991 22.4124 19.2302 22.5496 19.0931L25.3367 16.3059C25.6117 16.031 25.6117 15.5866 25.3367 15.3117C25.0618 15.0367 24.6174 15.0367 24.3425 15.3117L22.0524 17.6017L20.6574 16.2067C20.3825 15.9318 19.9381 15.9318 19.6632 16.2067C19.3883 16.4817 19.3883 16.926 19.6632 17.201L21.5553 19.0931Z" fill="white"/>
</svg>
