<svg width="45" height="46" viewBox="0 0 45 46" fill="none" xmlns="http://www.w3.org/2000/svg">
<path d="M40.4375 43H4.5625C3.11042 43 2 41.8896 2 40.4375V4.5625C2 3.11042 3.11042 2 4.5625 2H40.4375C41.8896 2 43 3.11042 43 4.5625V7.125C43 7.6375 42.6583 7.97917 42.1458 7.97917C41.6333 7.97917 41.2917 7.6375 41.2917 7.125V4.5625C41.2917 4.05 40.95 3.70833 40.4375 3.70833H4.5625C4.05 3.70833 3.70833 4.05 3.70833 4.5625V40.4375C3.70833 40.95 4.05 41.2917 4.5625 41.2917H40.4375C40.95 41.2917 41.2917 40.95 41.2917 40.4375V10.5417H5.41667C4.90417 10.5417 4.5625 10.2 4.5625 9.6875C4.5625 9.175 4.90417 8.83333 5.41667 8.83333H42.1458C42.6583 8.83333 43 9.175 43 9.6875V40.4375C43 41.8896 41.8896 43 40.4375 43Z" fill="white" stroke="#2563EB" stroke-width="0.3"/>
<path d="M8.33333 7H5.66667C5.26667 7 5 6.8 5 6.5C5 6.2 5.26667 6 5.66667 6H8.33333C8.73333 6 9 6.2 9 6.5C9 6.8 8.73333 7 8.33333 7Z" fill="white"/>
<path d="M38.5 7C38.7761 7 39 6.77614 39 6.5C39 6.22386 38.7761 6 38.5 6C38.2239 6 38 6.22386 38 6.5C38 6.77614 38.2239 7 38.5 7Z" fill="white"/>
<path d="M35.5 7C35.7761 7 36 6.77614 36 6.5C36 6.22386 35.7761 6 35.5 6C35.2239 6 35 6.22386 35 6.5C35 6.77614 35.2239 7 35.5 7Z" fill="white"/>
<path d="M32.5 7C32.7761 7 33 6.77614 33 6.5C33 6.22386 32.7761 6 32.5 6C32.2239 6 32 6.22386 32 6.5C32 6.77614 32.2239 7 32.5 7Z" fill="white"/>
<path d="M22 40C15.0875 40 8 26.4789 8 18.8732C8 18.3662 8.35 18.0282 8.875 18.0282C13.775 18.0282 21.475 13.1268 21.475 13.1268C21.7375 12.9577 22.175 12.9577 22.4375 13.1268C22.525 13.1268 30.225 18.0282 35.125 18.0282C35.65 18.0282 36 18.3662 36 18.8732C36 26.4789 28.9125 40 22 40ZM9.75 19.7183C10.1875 27.1549 16.75 38.3099 22 38.3099C27.25 38.3099 33.725 27.0704 34.25 19.7183C29.6125 19.2958 23.75 15.9155 22 14.8169C20.25 15.831 14.3875 19.2958 9.75 19.7183Z" fill="white" stroke="#2563EB" stroke-width="0.3"/>
<path d="M21.3492 31C21.0885 31 20.8278 30.9151 20.654 30.6604L17.1779 26.4148C16.9172 26.0751 16.9172 25.4807 17.3517 25.226C17.6993 24.9713 18.3076 24.9713 18.5684 25.3958L21.3492 28.7923L28.4752 20.3011C28.8228 19.9615 29.3442 19.8766 29.6918 20.2162C30.0394 20.471 30.1263 21.0653 29.7787 21.405L21.9575 30.7453C21.8706 30.9151 21.6099 31 21.3492 31Z" fill="white"/>
</svg>
