<svg width="64" height="64" viewBox="0 0 64 64" fill="none" xmlns="http://www.w3.org/2000/svg">
<path d="M32.0352 29.0319C30.857 29.0319 29.9019 29.987 29.9019 31.1652C29.9017 32.0171 30.4024 32.7502 31.1242 33.0922V35.6856C31.1242 36.1886 31.532 36.5965 32.0351 36.5965C32.5382 36.5965 32.946 36.1887 32.946 35.6856V33.0922C33.668 32.7502 34.1686 32.0171 34.1686 31.1652C34.1686 29.987 33.2135 29.0319 32.0352 29.0319Z" fill="white"/>
<path d="M54.7672 13.8936C50.8461 12.342 47.7339 9.48425 46.0037 5.847C45.5332 4.85788 44.5162 4.21863 43.4126 4.21863H20.5874C19.4839 4.21863 18.4669 4.85775 17.9964 5.847C16.2664 9.48425 13.154 12.342 9.23286 13.8936C8.13299 14.3288 7.42236 15.3773 7.42236 16.5646V22.1161C7.42236 29.3935 9.54449 36.5824 13.5594 42.9059C17.6132 49.2913 23.4875 54.6276 30.5466 58.3379L30.6616 58.3984C31.0807 58.6186 31.5404 58.7288 32.0001 58.7288C32.4596 58.7288 32.9194 58.6186 33.3382 58.3985L33.4536 58.3379C40.5129 54.6275 46.387 49.2913 50.441 42.9059C54.4557 36.5823 56.5779 29.3934 56.5779 22.1161V16.5646C56.5779 15.3771 55.867 14.3288 54.7672 13.8936ZM54.7562 22.1163C54.7562 29.0471 52.7322 35.8984 48.9031 41.9296C45.0195 48.0466 39.384 53.163 32.6064 56.7255L32.491 56.786C32.1836 56.9478 31.8166 56.9476 31.5091 56.786L31.3941 56.7256C24.6162 53.1631 18.9807 48.0468 15.097 41.9296C11.2679 35.8985 9.24386 29.0471 9.24386 22.1161V16.5646C9.24386 16.1295 9.50261 15.7459 9.90299 15.5875C14.2542 13.8658 17.7126 10.6844 19.6412 6.6295C19.8114 6.27163 20.1827 6.04038 20.5872 6.04038H43.4127C43.8172 6.04038 44.1885 6.27163 44.3587 6.6295C46.2875 10.6844 49.746 13.8658 54.0971 15.5876C54.4975 15.746 54.7562 16.1296 54.7562 16.5648V22.1163Z" fill="white"/>
<path d="M59.3342 30.76C58.8435 30.649 58.3558 30.9569 58.245 31.4476C55.471 43.7197 47.0225 54.3626 35.0655 60.6472L32.2869 62.1077C32.1075 62.202 31.8933 62.202 31.7139 62.1077L28.9353 60.6472C16.9595 54.3527 8.50679 43.6915 5.74442 31.3972C5.63429 30.9065 5.14679 30.5979 4.65617 30.7082C4.16542 30.8185 3.85692 31.3057 3.96717 31.7965C6.84667 44.6129 15.6383 55.7162 28.0878 62.2596L30.8664 63.7201C31.2215 63.9066 31.6109 64 32.0004 64C32.3898 64 32.7794 63.9066 33.1344 63.72L35.913 62.2595C48.3429 55.7264 57.1302 44.6422 60.0219 31.8491C60.1327 31.3585 59.8248 30.8709 59.3342 30.76Z" fill="white"/>
<path d="M58.8909 10.4221C54.0272 9.909 50.203 6.49512 49.5909 2.12037C49.4217 0.9115 48.3829 0 47.1744 0H16.8264C15.618 0 14.5791 0.9115 14.41 2.12037C13.7977 6.49525 9.97349 9.909 5.10999 10.4221C3.87762 10.5521 2.94824 11.5933 2.94824 12.8438V22.6243C2.94824 24.0455 3.02187 25.4824 3.16712 26.8951C3.21537 27.3639 3.61087 27.7129 4.07212 27.7129C4.10324 27.7129 4.13474 27.7113 4.16637 27.708C4.66674 27.6566 5.03074 27.2093 4.97924 26.7089C4.84037 25.3577 4.76987 23.9835 4.76987 22.6243V12.8438C4.76987 12.5331 5.00324 12.265 5.30112 12.2336C10.9981 11.6326 15.4856 7.57763 16.2141 2.37275C16.2589 2.05338 16.5162 1.82162 16.8264 1.82162H47.1742C47.4844 1.82162 47.742 2.05338 47.7866 2.37275C48.5149 7.57763 53.0025 11.6325 58.6995 12.2336C58.9974 12.265 59.2307 12.5331 59.2307 12.8438V22.6243C59.2307 23.9691 59.1617 25.3291 59.0257 26.6667C58.9749 27.1671 59.3394 27.6141 59.8397 27.665C60.3399 27.7163 60.7871 27.3514 60.8381 26.851C60.9804 25.4525 61.0524 24.0305 61.0524 22.6243V12.8438C61.0525 11.5933 60.1232 10.5521 58.8909 10.4221Z" fill="white"/>
<path d="M42.4323 22.7331H40.9347V18.3853C40.9347 13.478 36.9423 9.4856 32.0348 9.4856C27.1275 9.4856 23.135 13.478 23.135 18.3853V22.7331H21.6375C20.0402 22.7331 18.7407 24.0326 18.7407 25.6298V38.671C18.7407 40.2682 20.0402 41.5677 21.6375 41.5677H42.4323C44.0296 41.5677 45.3291 40.2682 45.3291 38.671V25.6298C45.3291 24.0326 44.0296 22.7331 42.4323 22.7331ZM24.9567 18.3855C24.9567 14.4826 28.132 11.3073 32.035 11.3073C35.938 11.3073 39.1132 14.4826 39.1132 18.3855V22.7332H24.9567V18.3855ZM43.5075 38.671C43.5075 39.2637 43.0251 39.7461 42.4323 39.7461H21.6375C21.0446 39.7461 20.5623 39.2637 20.5623 38.671V25.6298C20.5623 25.0371 21.0447 24.5547 21.6375 24.5547H42.4323C43.0251 24.5547 43.5075 25.037 43.5075 25.6298V38.671Z" fill="white"/>
</svg>
