<svg width="64" height="64" viewBox="0 0 64 64" fill="none" xmlns="http://www.w3.org/2000/svg">
<path d="M63.0625 4.42664H30.1874C29.6695 4.42664 29.2499 4.84639 29.2499 5.36414C29.2499 5.88189 29.6695 6.30164 30.1874 6.30164H62.125V12.6936H1.875V6.30164H26.396C26.9139 6.30164 27.3335 5.88189 27.3335 5.36414C27.3335 4.84639 26.9139 4.42664 26.396 4.42664H0.9375C0.419625 4.42664 0 4.84639 0 5.36414V58.6359C0 59.1536 0.419625 59.5734 0.9375 59.5734H27.3126C27.8305 59.5734 28.2501 59.1536 28.2501 58.6359C28.2501 58.1181 27.8305 57.6984 27.3126 57.6984H1.875V14.5686H62.125V48.146C62.125 48.6638 62.5446 49.0835 63.0625 49.0835C63.5804 49.0835 64 48.6638 64 48.146V5.36414C64 4.84639 63.5804 4.42664 63.0625 4.42664Z" fill="white"/>
<path d="M63.0625 50.9999C62.5446 50.9999 62.125 51.4196 62.125 51.9374V57.6984H31.104C30.5861 57.6984 30.1665 58.1181 30.1665 58.6359C30.1665 59.1536 30.5861 59.5734 31.104 59.5734H63.0625C63.5804 59.5734 64 59.1536 64 58.6359V51.9374C64 51.4196 63.5804 50.9999 63.0625 50.9999Z" fill="white"/>
<path d="M49.8368 8.56012H49.6318C49.114 8.56012 48.6943 8.97987 48.6943 9.49762C48.6943 10.0154 49.114 10.4351 49.6318 10.4351H49.8368C50.3547 10.4351 50.7743 10.0154 50.7743 9.49762C50.7743 8.97987 50.3547 8.56012 49.8368 8.56012Z" fill="white"/>
<path d="M53.8558 8.56012H53.6509C53.133 8.56012 52.7134 8.97987 52.7134 9.49762C52.7134 10.0154 53.133 10.4351 53.6509 10.4351H53.8558C54.3736 10.4351 54.7933 10.0154 54.7933 9.49762C54.7933 8.97987 54.3736 8.56012 53.8558 8.56012Z" fill="white"/>
<path d="M57.8749 8.56012H57.6699C57.152 8.56012 56.7324 8.97987 56.7324 9.49762C56.7324 10.0154 57.152 10.4351 57.6699 10.4351H57.8749C58.3928 10.4351 58.8124 10.0154 58.8124 9.49762C58.8124 8.97987 58.3928 8.56012 57.8749 8.56012Z" fill="white"/>
<path d="M53.9007 22.8004C50.9431 19.8636 47.0273 18.2507 42.8622 18.2507C42.8242 18.2507 42.7858 18.2509 42.7478 18.2511C38.5739 18.2807 34.6523 19.947 31.7053 22.943C28.7567 25.9406 27.1544 29.8919 27.1936 34.0689C27.2272 37.6339 28.4911 41.112 30.7527 43.8624C32.8973 46.4702 35.8522 48.3312 39.1094 49.1335L40.7638 51.832C41.2146 52.5674 41.9988 53.0064 42.8614 53.0064C43.7239 53.0064 44.5081 52.5672 44.9587 51.832L46.6132 49.1335C49.8943 48.3255 52.8652 46.4454 55.0138 43.8084C57.2808 41.0262 58.5293 37.5141 58.5293 33.9189C58.5293 29.7127 56.8856 25.7641 53.9007 22.8004ZM45.8191 47.3932C45.5697 47.4477 45.3533 47.6015 45.2199 47.8191L43.3603 50.852C43.2058 51.1041 42.9599 51.1314 42.8614 51.1314C42.7629 51.1314 42.5169 51.1041 42.3623 50.852L40.5029 47.8191C40.3697 47.6015 40.1532 47.4476 39.9038 47.3932C33.5852 46.013 29.1297 40.5265 29.0688 34.0512C29.0342 30.3759 30.4453 26.8979 33.0422 24.2579C35.6374 21.6195 39.0891 20.1521 42.7612 20.1261C42.7949 20.1259 42.8283 20.1257 42.8621 20.1257C46.5286 20.1257 49.9762 21.5457 52.5797 24.1309C55.2073 26.74 56.6546 30.2161 56.6546 33.9189C56.6546 40.355 52.0976 46.0217 45.8191 47.3932Z" fill="white"/>
<path d="M51.1697 30.9711C51.0595 30.6318 50.7661 30.3844 50.4129 30.3331L45.7757 29.6593L43.702 25.4573C43.544 25.1373 43.2181 24.9346 42.8612 24.9346C42.5044 24.9346 42.1785 25.1373 42.0205 25.4573L39.9466 29.6593L35.3096 30.3331C34.9565 30.3844 34.663 30.6318 34.5527 30.9711C34.4425 31.3105 34.5345 31.683 34.7899 31.9321L38.1459 35.2029L37.3537 39.8213C37.2934 40.173 37.438 40.5285 37.7266 40.7381C38.0152 40.9479 38.3979 40.9755 38.7139 40.8095L42.8615 38.629L47.009 40.8095C47.1462 40.8816 47.296 40.9171 47.4451 40.9171C47.6395 40.9171 47.833 40.8568 47.9962 40.7381C48.285 40.5284 48.4296 40.1729 48.3691 39.8213L47.5771 35.2029L50.9326 31.9321C51.1881 31.683 51.28 31.3105 51.1697 30.9711ZM45.9154 34.2044C45.6944 34.4198 45.5936 34.7301 45.6457 35.0341L46.2001 38.266L43.2977 36.74C43.0246 36.5965 42.6985 36.5965 42.4252 36.74L39.5227 38.266L40.0771 35.0341C40.1294 34.73 40.0285 34.4196 39.8076 34.2043L37.4595 31.9154L40.7044 31.444C41.0097 31.3996 41.2737 31.2079 41.4102 30.9311L42.8615 27.9906L44.3126 30.9311C44.4492 31.2078 44.7131 31.3996 45.0185 31.444L48.2635 31.9155L45.9154 34.2044Z" fill="white"/>
<path d="M12.0767 21.8658H8.125C7.60712 21.8658 7.1875 22.2856 7.1875 22.8033C7.1875 23.3211 7.60712 23.7408 8.125 23.7408H12.0767C12.5946 23.7408 13.0142 23.3211 13.0142 22.8033C13.0142 22.2856 12.5946 21.8658 12.0767 21.8658Z" fill="white"/>
<path d="M20.0933 25.539H8.125C7.60712 25.539 7.1875 25.9588 7.1875 26.4765C7.1875 26.9943 7.60712 27.414 8.125 27.414H20.0933C20.6111 27.414 21.0308 26.9943 21.0308 26.4765C21.0308 25.9588 20.6111 25.539 20.0933 25.539Z" fill="white"/>
<path d="M20.0933 33.5297H8.125C7.60712 33.5297 7.1875 33.9495 7.1875 34.4672C7.1875 34.985 7.60712 35.4047 8.125 35.4047H20.0933C20.6111 35.4047 21.0308 34.985 21.0308 34.4672C21.0308 33.9495 20.6111 33.5297 20.0933 33.5297Z" fill="white"/>
<path d="M20.0933 37.1672H8.125C7.60712 37.1672 7.1875 37.587 7.1875 38.1047C7.1875 38.6225 7.60712 39.0422 8.125 39.0422H20.0933C20.6111 39.0422 21.0308 38.6225 21.0308 38.1047C21.0308 37.587 20.6111 37.1672 20.0933 37.1672Z" fill="white"/>
<path d="M20.0933 40.8047H8.125C7.60712 40.8047 7.1875 41.2245 7.1875 41.7422C7.1875 42.26 7.60712 42.6797 8.125 42.6797H20.0933C20.6111 42.6797 21.0308 42.26 21.0308 41.7422C21.0308 41.2245 20.6111 40.8047 20.0933 40.8047Z" fill="white"/>
<path d="M22.7572 45.1305H8.125C7.60712 45.1305 7.1875 45.5502 7.1875 46.068V49.7087C7.1875 50.2265 7.60712 50.6462 8.125 50.6462H22.7572C23.2751 50.6462 23.6947 50.2265 23.6947 49.7087V46.068C23.6947 45.5502 23.2751 45.1305 22.7572 45.1305ZM21.8197 48.7712H9.0625V47.0055H21.8197V48.7712Z" fill="white"/>
</svg>
