<svg width="64" height="64" viewBox="0 0 64 64" fill="none" xmlns="http://www.w3.org/2000/svg">
<g clip-path="url(#clip0_901_8554)">
<path d="M31.8596 53.6031C33.4449 53.6031 34.7346 52.3133 34.7346 50.7281V45.7191C34.7346 45.6201 34.7788 45.5272 34.8498 45.4768C36.2161 44.5073 37.0319 42.9301 37.0319 41.2576C37.0319 38.4353 34.7364 36.1153 31.9149 36.0857C29.1534 36.0571 26.8049 38.28 26.6919 41.0418C26.6203 42.7968 27.4315 44.4527 28.862 45.4715C28.9387 45.5261 28.9845 45.6186 28.9845 45.7188V50.7282C28.9846 52.3133 30.2744 53.6031 31.8596 53.6031ZM28.5653 41.1185C28.6368 39.3701 30.1117 37.9605 31.8609 37.9605C31.8722 37.9605 31.8837 37.9605 31.8951 37.9606C33.6936 37.9795 35.1567 39.4585 35.1567 41.2575C35.1567 42.3235 34.6364 43.3291 33.7648 43.9476C33.198 44.3497 32.8596 45.012 32.8596 45.7191V50.7281C32.8596 51.2795 32.411 51.7281 31.8596 51.7281C31.3083 51.7281 30.8596 51.2795 30.8596 50.7281V45.7187C30.8596 45.0132 30.5195 44.3498 29.9498 43.9441C29.0371 43.2942 28.5196 42.2378 28.5653 41.1185Z" fill="white"/>
<path d="M18.3553 45.4532C17.9495 44.0754 16.674 43.0667 15.1668 43.0667C13.3339 43.0667 11.8428 44.5578 11.8428 46.3907C11.8428 48.2235 13.3339 49.7147 15.1668 49.7147C16.6741 49.7147 17.9495 48.7058 18.3553 47.3282H25.5311C26.0489 47.3282 26.4686 46.9084 26.4686 46.3907C26.4686 45.8729 26.0489 45.4532 25.5311 45.4532H18.3553ZM15.1668 47.8397C14.3678 47.8397 13.7178 47.1897 13.7178 46.3907C13.7178 45.5917 14.3678 44.9417 15.1668 44.9417C15.9658 44.9417 16.6158 45.5917 16.6158 46.3907C16.6158 47.1897 15.9658 47.8397 15.1668 47.8397Z" fill="white"/>
<path d="M60.676 51.1276C59.1686 51.1276 57.8932 52.1365 57.4874 53.5143H55.7229V39.267H57.4874C57.8931 40.6447 59.1686 41.6535 60.676 41.6535C62.5089 41.6535 64 40.1624 64 38.3295C64 36.4966 62.5089 35.0055 60.676 35.0055C59.1686 35.0055 57.8932 36.0144 57.4874 37.392H55.7229V31.6261C55.7229 28.3523 53.0592 25.6886 49.7854 25.6886H47.0983V15.0983C47.0983 6.77313 40.3252 0 32 0C29.83 0 27.7334 0.453125 25.7684 1.34675C25.297 1.56113 25.0888 2.117 25.3031 2.58825C25.5175 3.0595 26.0735 3.268 26.5446 3.0535C28.2641 2.2715 30.0996 1.875 32 1.875C39.2914 1.875 45.2233 7.807 45.2233 15.0983V25.6886H43.3483V15.0983C43.3483 8.84088 38.2575 3.75 32 3.75C25.7425 3.75 20.6518 8.84088 20.6518 15.0983V25.6886H18.7768V15.0983C18.7768 11.1376 20.5373 7.41613 23.607 4.88812C24.0066 4.559 24.0637 3.96813 23.7346 3.56838C23.4054 3.16875 22.8148 3.11162 22.4149 3.44075C18.9111 6.32638 16.9018 10.5754 16.9018 15.0983V25.6886H14.2146C10.9408 25.6886 8.27713 28.3523 8.27713 31.6261V37.392H6.51263C6.10688 36.0142 4.83138 35.0055 3.324 35.0055C1.49112 35.0054 0 36.4966 0 38.3295C0 40.1624 1.49112 41.6535 3.324 41.6535C4.83138 41.6535 6.10675 40.6446 6.51263 39.267H8.27713V53.5144H6.51263C6.10688 52.1366 4.83138 51.1278 3.324 51.1278C1.49112 51.1276 0 52.6189 0 54.4518C0 56.2846 1.49112 57.7757 3.324 57.7757C4.83138 57.7757 6.10675 56.7669 6.51263 55.3893H8.27713V58.0625C8.27713 61.3364 10.9408 64 14.2146 64H40.6419C41.1596 64 41.5794 63.5802 41.5794 63.0625C41.5794 62.5448 41.1596 62.125 40.6419 62.125H14.2146C11.9746 62.125 10.1521 60.3025 10.1521 58.0625V55.3893H16.393C16.9772 55.3893 17.5266 55.1618 17.9398 54.7485L21.6614 51.027C21.7205 50.9679 21.799 50.9354 21.8824 50.9354H23.8646C24.3824 50.9354 24.8021 50.5156 24.8021 49.9979C24.8021 49.4801 24.3824 49.0604 23.8646 49.0604H21.8824C21.2983 49.0604 20.7489 49.2879 20.3356 49.701L16.614 53.4226C16.5549 53.4816 16.4765 53.5141 16.393 53.5141H10.1521V39.267H16.393C16.4764 39.267 16.5549 39.2995 16.614 39.3585L20.3356 43.0801C20.7487 43.4934 21.2981 43.7209 21.8824 43.7209H23.8646C24.3824 43.7209 24.8021 43.3011 24.8021 42.7834C24.8021 42.2656 24.3824 41.8459 23.8646 41.8459H21.8824C21.799 41.8459 21.7205 41.8134 21.6614 41.7544L17.9398 38.0327C17.5266 37.6195 16.9772 37.392 16.393 37.392H10.1521V31.6261C10.1521 29.3861 11.9746 27.5636 14.2146 27.5636H49.7854C52.0254 27.5636 53.8479 29.3861 53.8479 31.6261V37.392H47.607C47.0227 37.392 46.4734 37.6195 46.0602 38.0327L42.3386 41.7544C42.2795 41.8134 42.2011 41.8459 42.1176 41.8459H40.1354C39.6176 41.8459 39.1979 42.2656 39.1979 42.7834C39.1979 43.3011 39.6176 43.7209 40.1354 43.7209H42.1176C42.7019 43.7209 43.2513 43.4934 43.6644 43.0801L47.386 39.3585C47.4451 39.2995 47.5235 39.267 47.607 39.267H53.8479V53.5144H47.607C47.5236 53.5144 47.4451 53.4819 47.386 53.4229L43.6642 49.7011C43.251 49.288 42.7018 49.0605 42.1175 49.0605H40.1353C39.6175 49.0605 39.1978 49.4803 39.1978 49.998C39.1978 50.5158 39.6175 50.9355 40.1353 50.9355H42.1175C42.2009 50.9355 42.2794 50.968 42.3385 51.027L46.0601 54.7486C46.4732 55.1619 47.0226 55.3894 47.6069 55.3894H53.8478V58.0625C53.8478 60.3025 52.0253 62.125 49.7853 62.125H44.372C43.8543 62.125 43.4345 62.5448 43.4345 63.0625C43.4345 63.5802 43.8543 64 44.372 64H49.7853C53.0591 64 55.7228 61.3364 55.7228 58.0625V55.3893H57.4873C57.893 56.767 59.1685 57.7757 60.6759 57.7757C62.5088 57.7757 63.9999 56.2846 63.9999 54.4518C63.9999 52.6189 62.5089 51.1276 60.676 51.1276ZM60.676 36.8804C61.475 36.8804 62.125 37.5304 62.125 38.3294C62.125 39.1284 61.475 39.7784 60.676 39.7784C59.877 39.7784 59.2269 39.1284 59.2269 38.3294C59.2269 37.5304 59.877 36.8804 60.676 36.8804ZM3.324 39.7785C2.525 39.7785 1.875 39.1285 1.875 38.3295C1.875 37.5305 2.525 36.8805 3.324 36.8805C4.123 36.8805 4.77313 37.5305 4.77313 38.3295C4.77313 39.1285 4.123 39.7785 3.324 39.7785ZM3.324 55.9009C2.525 55.9009 1.875 55.2509 1.875 54.4519C1.875 53.6529 2.525 53.0028 3.324 53.0028C4.123 53.0028 4.77313 53.6529 4.77313 54.4519C4.77313 55.2509 4.123 55.9009 3.324 55.9009ZM22.5268 15.0983C22.5268 9.87475 26.7764 5.625 32 5.625C37.2236 5.625 41.4733 9.87475 41.4733 15.0983V25.6886H22.5268V15.0983ZM60.676 55.9009C59.877 55.9009 59.2269 55.2509 59.2269 54.4519C59.2269 53.6529 59.877 53.0028 60.676 53.0028C61.475 53.0028 62.125 53.6528 62.125 54.4518C62.125 55.2508 61.475 55.9009 60.676 55.9009Z" fill="white"/>
<path d="M48.8331 49.7147C50.666 49.7147 52.1571 48.2235 52.1571 46.3907C52.1571 44.5578 50.666 43.0667 48.8331 43.0667C47.3258 43.0667 46.0504 44.0755 45.6446 45.4532H38.4688C37.951 45.4532 37.5312 45.8729 37.5312 46.3907C37.5312 46.9084 37.951 47.3282 38.4688 47.3282H45.6446C46.0504 48.7059 47.3258 49.7147 48.8331 49.7147ZM48.8331 44.9417C49.6321 44.9417 50.2821 45.5917 50.2821 46.3907C50.2821 47.1897 49.6321 47.8397 48.8331 47.8397C48.0341 47.8397 47.3841 47.1897 47.3841 46.3907C47.3841 45.5917 48.0341 44.9417 48.8331 44.9417Z" fill="white"/>
</g>
<defs>
<clipPath id="clip0_901_8554">
<rect width="64" height="64" fill="white"/>
</clipPath>
</defs>
</svg>
