<svg width="32" height="33" viewBox="0 0 32 33" fill="none" xmlns="http://www.w3.org/2000/svg">
<g clip-path="url(#clip0_621_27567)">
<path d="M0.606192 16.5459L3.1565 17.552C3.4935 17.6849 3.86094 17.6147 4.12375 17.3944L6.14337 18.6681L6.48974 18.9116C6.05037 19.607 6.16293 20.5572 6.83099 21.1237C7.19805 21.4349 7.66449 21.5677 8.12105 21.518C8.14786 21.9979 8.36611 22.4253 8.7213 22.7264C9.07036 23.0224 9.52605 23.174 10.0113 23.121C10.0383 23.6008 10.2564 24.0281 10.6116 24.3292C10.9639 24.628 11.4205 24.7763 11.9024 24.7238C11.9276 25.1757 12.1303 25.6169 12.5019 25.932C13.2198 26.5408 14.2997 26.4525 14.9084 25.7347L15.3137 25.259L15.9966 25.763C17.1773 26.6346 18.8462 25.9206 19.0002 24.4719C20.2175 24.9143 21.5102 24.0611 21.5289 22.7508C22.6764 22.9666 23.6946 22.1332 23.7586 21.0277C25.247 21.4252 26.5933 19.9211 25.9361 18.4504L27.7611 17.2782C28.0224 17.5877 28.4566 17.7047 28.8438 17.5519L31.3941 16.5459C31.885 16.3522 32.1269 15.7953 31.9333 15.3043L30.7676 12.3497C30.6726 12.1088 30.4003 11.9907 30.1596 12.0857C29.9187 12.1807 29.8005 12.4529 29.8955 12.6937L31.0611 15.6483C31.0651 15.6584 31.0601 15.6698 31.0501 15.6738L28.4998 16.6799C28.4896 16.6838 28.4783 16.6789 28.4743 16.6689C28.385 16.4425 25.5225 9.18624 25.2693 8.54462C25.2684 8.54237 25.2663 8.53712 25.2696 8.52968C25.2728 8.52225 25.2781 8.52018 25.2803 8.51925L27.8307 7.51312C27.8329 7.51219 27.8381 7.51012 27.8457 7.51337C27.8531 7.51662 27.8551 7.52187 27.8561 7.52412L29.0918 10.6562C29.1868 10.8971 29.4591 11.0152 29.6998 10.9202C29.9407 10.8252 30.0589 10.553 29.9639 10.3122L28.7282 7.18012C28.5346 6.68925 27.9776 6.44738 27.4868 6.64106L24.9363 7.64719C24.4806 7.82693 24.2401 8.31593 24.3623 8.7795L22.9951 9.28412C22.5697 9.44118 22.1078 9.48674 21.6596 9.41568L20.2776 9.19662C20.022 9.15618 19.7817 9.33062 19.7413 9.58618C19.7008 9.84187 19.8752 10.0821 20.1308 10.1226L21.5128 10.3416C22.1193 10.4377 22.744 10.3761 23.3198 10.1636L24.6994 9.65431C24.8491 10.0339 27.2122 16.0238 27.3673 16.4169L25.3558 17.7088L25.3216 17.6836C25.3215 17.6835 25.3213 17.6834 25.3212 17.6833C25.1057 17.5242 21.6082 14.9431 21.444 14.8219C21.3435 14.7477 21.2186 14.7144 21.075 14.7388C19.1332 15.069 17.3933 14.3785 16.1134 13.042C15.7152 12.6262 15.0654 12.6039 14.634 12.9913C13.3923 14.1065 11.6571 15.1939 10.443 14.0401C10.3224 13.9255 10.3215 13.7139 10.5047 13.5957C12.0512 12.6009 13.6533 11.2041 14.9425 9.89981C15.2634 9.57512 15.7249 9.42418 16.1778 9.49599L17.9572 9.77806C18.2133 9.81862 18.453 9.64412 18.4935 9.38849C18.534 9.13281 18.3596 8.89262 18.1039 8.85212L16.3246 8.57006C15.5743 8.45118 14.8085 8.70193 14.2759 9.24081C14.1267 9.39162 13.9504 9.56674 13.7515 9.75881C13.1512 9.54599 12.5256 9.41887 11.8892 9.38312C10.0265 9.27849 9.86492 9.25874 9.44192 9.28593C9.10992 9.30712 8.77217 9.25068 8.46499 9.12218L7.63886 8.7765C7.75811 8.31562 7.51793 7.82606 7.06405 7.64706L4.51375 6.64106C4.02268 6.44731 3.46581 6.68919 3.27219 7.18012L0.0671301 15.3043C-0.126932 15.7963 0.114005 16.3517 0.606192 16.5459ZM8.52318 20.3192C8.24849 20.6432 7.76143 20.6833 7.4373 20.4086C7.11105 20.132 7.07405 19.6457 7.34724 19.3235L8.50667 17.9627C8.77486 17.6462 9.26324 17.5941 9.59255 17.8732C9.9173 18.1485 9.95742 18.6343 9.68192 18.9591C9.6818 18.9592 9.68174 18.9594 9.68161 18.9595L8.52318 20.3192ZM10.4134 21.922C10.1381 22.2467 9.65255 22.2868 9.32761 22.0114C9.00136 21.7348 8.96436 21.2485 9.23755 20.9263L10.397 19.5655C10.6849 19.2257 11.2186 19.196 11.5399 19.5297C11.542 19.5318 11.5439 19.5343 11.546 19.5365C11.8106 19.818 11.8279 20.2605 11.5722 20.562L10.4134 21.922ZM12.3037 23.5248C12.0274 23.8507 11.5414 23.8884 11.2179 23.6142C10.8917 23.3376 10.8546 22.8513 11.1278 22.5292L12.2873 21.1682C12.5627 20.8435 13.0516 20.806 13.3732 21.0788C13.6972 21.3537 13.7372 21.8407 13.4625 22.1647C13.4624 22.1648 13.4624 22.165 13.4622 22.1651L12.3037 23.5248ZM15.3592 23.7593C15.3572 23.7617 15.3555 23.7643 15.3535 23.7666C15.1665 23.9861 14.6512 24.5909 14.194 25.1275C13.9194 25.4516 13.4323 25.4917 13.1082 25.217C12.7842 24.9422 12.7441 24.4552 13.0181 24.132L14.1776 22.771C14.4538 22.4452 14.9403 22.4076 15.2634 22.6817C15.5813 22.951 15.63 23.4318 15.3592 23.7593ZM7.30199 9.65199L8.10305 9.98718C8.54268 10.1711 9.02642 10.2522 9.50186 10.2216C9.86036 10.1986 9.98005 10.2149 11.8365 10.3192C12.2177 10.3407 12.5945 10.3997 12.9626 10.4954C12.0454 11.3237 11.0154 12.1539 9.98374 12.8164C9.3223 13.241 9.2243 14.1755 9.79723 14.72C10.5803 15.464 12.3315 16.3194 15.2603 13.689C15.3128 13.6419 15.3901 13.6425 15.4362 13.6907C16.8549 15.1715 18.8659 15.9987 21.0376 15.6935C21.2836 15.8665 20.8072 15.5174 24.7643 18.4378C25.1878 18.7503 25.3063 19.3649 24.9748 19.7891C24.6598 20.192 24.0908 20.2701 23.6796 19.9665C23.1241 19.5565 23.5342 19.8686 21.5814 18.3639C21.3762 18.2059 21.082 18.244 20.9239 18.4491C20.766 18.6542 20.8041 18.9485 21.0091 19.1065L22.6293 20.3549C22.9084 20.7227 22.8751 21.2541 22.5447 21.5837C22.2198 21.9079 21.6851 21.9385 21.3008 21.655C20.9292 21.3808 21.2379 21.6158 19.5338 20.3038C19.3287 20.1458 19.0343 20.1842 18.8764 20.3893C18.7185 20.5944 18.7567 20.8887 18.9618 21.0467L20.3985 22.1527C20.6698 22.5037 20.6565 23.0084 20.3602 23.3443C20.0415 23.7057 19.4767 23.756 19.0743 23.459C18.4278 22.9818 18.7523 23.2282 17.5072 22.2645C17.3024 22.1061 17.008 22.1436 16.8495 22.3483C16.6911 22.5531 16.7286 22.8475 16.9333 23.0059L17.9293 23.7767C18.1558 24.1373 18.1115 24.6095 17.8135 24.9212C17.4883 25.2613 16.9465 25.299 16.5532 25.0087L15.923 24.5437L16.0678 24.3738C16.3564 24.0335 16.5054 23.5928 16.4673 23.1292C16.4285 22.6595 16.2053 22.2513 15.8697 21.9666C15.5205 21.6705 15.0644 21.5188 14.5793 21.5715C14.5538 21.1186 14.3461 20.6749 13.9794 20.3638C13.6315 20.0688 13.1899 19.9271 12.7347 19.9643C12.7195 19.9655 12.7043 19.967 12.6892 19.9687C12.6884 19.9537 12.6879 19.9387 12.6866 19.9236C12.6568 19.5612 12.5155 19.2255 12.2834 18.9547C12.2819 18.953 12.2806 18.9513 12.2792 18.9496C11.9098 18.5223 11.3599 18.3064 10.7995 18.3667C10.7731 17.896 10.5597 17.4644 10.1987 17.1582C9.4803 16.5492 8.40049 16.638 7.79218 17.3555L7.08574 18.1847L6.6728 17.8945C6.66643 17.89 6.65993 17.8856 6.6533 17.8815L4.57293 16.5694C6.14574 12.5827 5.55662 14.076 7.30199 9.65199ZM0.939191 15.6484L4.14418 7.52425C4.14725 7.5165 4.15462 7.51181 4.16243 7.51181C4.16481 7.51181 4.16725 7.51225 4.16962 7.51319L6.71993 8.51931C6.72999 8.52325 6.73493 8.53468 6.73099 8.54468C6.5768 8.93556 3.62681 16.4132 3.52594 16.6689C3.52181 16.6791 3.51081 16.6839 3.50056 16.6799L0.950253 15.6738C0.940128 15.6698 0.935128 15.6585 0.939191 15.6484Z" fill="white"/>
</g>
<defs>
<clipPath id="clip0_621_27567">
<rect width="32" height="32" fill="white" transform="translate(0 0.455078)"/>
</clipPath>
</defs>
</svg>
