<svg width="32" height="33" viewBox="0 0 32 33" fill="none" xmlns="http://www.w3.org/2000/svg">
<g clip-path="url(#clip0_621_27575)">
<path d="M18.1963 21.8537C19.3965 21.114 20.1986 19.7878 20.1986 18.2775V16.6729V15.0692C20.1986 12.7543 18.3154 10.8711 16.0005 10.8711C13.6857 10.8711 11.8024 12.7543 11.8024 15.0692V16.6733V18.2774C11.8024 19.7877 12.6044 21.1139 13.8048 21.8536C10.3469 22.8446 7.72949 25.9814 7.72949 29.5423V31.9843C7.72949 32.2438 7.9398 32.4541 8.19931 32.4541H11.3641C11.6235 32.4541 11.8339 32.2438 11.8339 31.9843C11.8339 31.7249 11.6236 31.5145 11.3641 31.5145H8.66899V29.5423C8.66899 27.7024 9.45412 25.9432 10.8797 24.5887C11.7319 23.779 12.7637 23.1758 13.8644 22.8239L14.6086 24.2696L13.6088 28.6095C13.5708 28.7745 13.6246 28.9472 13.7494 29.0615L15.6833 30.8314C15.7731 30.9136 15.8868 30.9546 16.0004 30.9546C16.1141 30.9546 16.2279 30.9136 16.3176 30.8314L18.2515 29.0615C18.3763 28.9472 18.4301 28.7745 18.3921 28.6095L17.3923 24.2696L18.1364 22.8239C19.2372 23.1758 20.2689 23.7791 21.1211 24.5887C22.5468 25.9432 23.3319 27.7024 23.3319 29.5423V31.5146H12.9299C12.6704 31.5146 12.4601 31.7249 12.4601 31.9844C12.4601 32.2438 12.6704 32.4542 12.9299 32.4542H23.8018C24.0612 32.4542 24.2716 32.2439 24.2716 31.9844V29.5423C24.2715 25.9815 21.6541 22.8446 18.1963 21.8537ZM12.7419 15.0692C12.7419 13.2725 14.2038 11.8107 16.0004 11.8107C17.7972 11.8107 19.259 13.2725 19.259 15.0692V16.1584C17.7822 15.8781 17.1839 14.3753 17.1573 14.3065C17.0922 14.1345 16.9326 14.0165 16.7491 14.0042C16.5656 13.9918 16.3919 14.088 16.3046 14.2499C16.2946 14.2683 15.3319 15.9962 12.7419 16.1865V15.0692ZM17.415 28.5535L16.0004 29.8482L14.5858 28.5535L15.4788 24.6773H16.522L17.415 28.5535ZM14.8001 22.5887C14.8392 22.5815 14.8784 22.5748 14.9176 22.5682C14.9439 22.5639 14.9703 22.5596 14.9966 22.5555C15.0546 22.5464 15.1127 22.5381 15.1709 22.5304C15.2293 22.5229 15.2878 22.5157 15.3464 22.5095C15.3776 22.5062 15.4088 22.503 15.4399 22.5001C15.5192 22.4927 15.5985 22.4864 15.6777 22.4816C15.6966 22.4805 15.7156 22.4797 15.7345 22.4787C15.7887 22.4759 15.8428 22.4745 15.897 22.4729C15.9315 22.4737 15.9658 22.4756 16.0004 22.4756C16.0351 22.4756 16.0694 22.4737 16.1039 22.4729C16.158 22.4745 16.2122 22.4759 16.2664 22.4787C16.2853 22.4797 16.3043 22.4805 16.3233 22.4816C16.4025 22.4863 16.4818 22.4927 16.561 22.5001C16.5922 22.503 16.6234 22.5062 16.6546 22.5095C16.7131 22.5157 16.7716 22.5229 16.8301 22.5304C16.8882 22.5381 16.9463 22.5465 17.0043 22.5555C17.0307 22.5596 17.057 22.5639 17.0833 22.5682C17.1225 22.5747 17.1618 22.5814 17.2009 22.5887L16.6093 23.7377H15.3915L14.8001 22.5887ZM16.1263 21.5327C16.0866 21.5316 16.0468 21.5302 16.0069 21.5296C16.0026 21.5296 15.9983 21.5296 15.9941 21.5296C15.9542 21.5302 15.9144 21.5316 15.8747 21.5327C14.1361 21.4664 12.742 20.032 12.742 18.2775V17.1282C14.8169 16.9981 16.0419 16.0237 16.6502 15.3474C17.0783 16.0124 17.9024 16.9294 19.259 17.1105V18.2774C19.259 20.032 17.8649 21.4663 16.1263 21.5327Z" fill="white"/>
<path d="M10.7151 7.23427C10.6109 6.91383 10.3392 6.68465 10.0057 6.63621L7.86956 6.32583L6.91425 4.3902C6.76518 4.08808 6.46318 3.90039 6.12625 3.90039C5.78937 3.90039 5.48737 4.08814 5.33831 4.3902L4.38324 6.32577L2.24711 6.63615C1.91368 6.68458 1.64192 6.91377 1.5378 7.23421C1.43367 7.55458 1.51892 7.89971 1.76017 8.1349L3.30593 9.64159L2.94099 11.7691C2.88405 12.1012 3.01799 12.4305 3.29055 12.6285C3.44455 12.7403 3.6248 12.7972 3.80618 12.7972C3.9458 12.7972 4.08624 12.7635 4.21593 12.6953L6.1265 11.6908L8.037 12.6953C8.33525 12.8522 8.68975 12.8265 8.96238 12.6285C9.235 12.4304 9.36888 12.1012 9.31188 11.7691L8.94694 9.64165L10.4927 8.13496C10.734 7.89984 10.8192 7.55465 10.7151 7.23427ZM8.26831 8.99109C8.06125 9.19296 7.96675 9.48365 8.01556 9.76884L8.365 11.8063L6.53525 10.8443C6.27925 10.7098 5.9735 10.7097 5.71749 10.8443L3.8878 11.8063L4.23724 9.76884C4.28618 9.48371 4.19162 9.19296 3.98449 8.99109L2.50424 7.54815L4.54993 7.2509C4.83612 7.20933 5.08349 7.02965 5.21156 6.77027L6.12643 4.91652L7.04125 6.77021C7.16931 7.02958 7.41656 7.20927 7.70281 7.25083L9.7485 7.54808L8.26831 8.99109Z" fill="white"/>
<path d="M20.5981 3.78902C20.494 3.46865 20.2223 3.23946 19.8888 3.19102L17.7527 2.88058L16.7973 0.944954C16.6482 0.642828 16.3463 0.455078 16.0093 0.455078C15.6724 0.455078 15.3704 0.642828 15.2213 0.944892L14.266 2.88052L12.1299 3.19096C11.7964 3.2394 11.5247 3.46858 11.4206 3.78896C11.3165 4.10933 11.4017 4.45446 11.6429 4.68971L13.1888 6.19634L12.8239 8.32384C12.7669 8.65591 12.9009 8.98522 13.1734 9.18322C13.446 9.38128 13.8005 9.40691 14.0988 9.2501L16.0094 8.24566L17.92 9.2501C18.0498 9.31822 18.1901 9.35197 18.3296 9.35197C18.511 9.35197 18.6913 9.29509 18.8453 9.18322C19.1179 8.98516 19.2518 8.65584 19.1948 8.32384L18.83 6.1964L20.3757 4.68971C20.617 4.45459 20.7022 4.1094 20.5981 3.78902ZM18.1512 5.54596C17.9441 5.7479 17.8496 6.03865 17.8984 6.32371L18.2479 8.36116L16.4181 7.39915C16.2901 7.3319 16.1497 7.29822 16.0093 7.29822C15.8689 7.29822 15.7284 7.3319 15.6004 7.39915L13.7707 8.36109L14.1201 6.32371C14.1691 6.03859 14.0745 5.74784 13.8674 5.54596L12.3872 4.10302L14.4328 3.80577C14.7191 3.76415 14.9664 3.58446 15.0944 3.32508L16.0092 1.47139L16.924 3.32502C17.0521 3.58446 17.2993 3.76415 17.5856 3.80577L19.6313 4.10302L18.1512 5.54596Z" fill="white"/>
<path d="M30.4623 7.23427C30.3582 6.91383 30.0864 6.68471 29.753 6.63621L27.6169 6.32583L26.6616 4.3902C26.5126 4.08808 26.2106 3.90039 25.8736 3.90039C25.5367 3.90039 25.2348 4.08814 25.0856 4.3902L24.1304 6.32583L21.9942 6.63621C21.6607 6.68465 21.389 6.91383 21.2849 7.23427C21.1807 7.55471 21.266 7.89984 21.5072 8.13496L23.053 9.64165L22.6881 11.7692C22.6312 12.1012 22.7651 12.4305 23.0377 12.6285C23.1917 12.7404 23.3719 12.7973 23.5533 12.7973C23.6929 12.7973 23.8333 12.7636 23.963 12.6953L25.8736 11.6909L27.7841 12.6953C28.0823 12.8521 28.4369 12.8265 28.7095 12.6285C28.9821 12.4304 29.116 12.1011 29.0591 11.7691L28.6942 9.64159L30.2399 8.1349C30.4812 7.8999 30.5664 7.55471 30.4623 7.23427ZM28.0155 8.99115C27.8084 9.19309 27.7139 9.48378 27.7628 9.7689L28.1122 11.8063L26.2825 10.8445C26.1544 10.7772 26.0141 10.7434 25.8736 10.7434C25.7331 10.7434 25.5927 10.7771 25.4647 10.8444L23.6349 11.8063L23.9844 9.76896C24.0333 9.48384 23.9388 9.19309 23.7317 8.99121L22.2514 7.54827L24.2972 7.25102C24.5834 7.20946 24.8308 7.02971 24.9588 6.7704L25.8736 4.91664L26.7884 6.77046C26.9165 7.02977 27.1638 7.2094 27.4499 7.25102L29.4956 7.54827L28.0155 8.99115Z" fill="white"/>
</g>
<defs>
<clipPath id="clip0_621_27575">
<rect width="32" height="32" fill="white" transform="translate(0 0.455078)"/>
</clipPath>
</defs>
</svg>
