<svg width="32" height="33" viewBox="0 0 32 33" fill="none" xmlns="http://www.w3.org/2000/svg">
<g clip-path="url(#clip0_621_27558)">
<path d="M28.3461 12.9705V11.6628C28.3461 10.9407 27.7586 10.3533 27.0366 10.3533H25.5825C25.35 9.44 24.9888 8.56839 24.5065 7.75694L25.5351 6.72836C25.7825 6.48099 25.9187 6.1521 25.9187 5.80234C25.9187 5.45259 25.7825 5.1237 25.5351 4.87633L23.925 3.26629C23.6776 3.01886 23.3487 2.88262 22.9989 2.88262C22.6491 2.88262 22.3202 3.01886 22.0729 3.26623L21.0442 4.29488C20.9794 4.25646 20.9135 4.2183 20.8469 4.18082C20.6215 4.05376 20.3358 4.13365 20.2087 4.35903C20.0817 4.58448 20.1616 4.8702 20.387 4.9972C20.4997 5.06073 20.61 5.12595 20.7149 5.19104C20.9904 5.36207 21.3424 5.32197 21.5708 5.09359L22.7355 3.92882C22.8059 3.85848 22.8994 3.81969 22.9989 3.81969C23.0985 3.81969 23.192 3.85848 23.2624 3.92888L24.8726 5.53898C24.9429 5.60932 24.9817 5.70289 24.9817 5.8024C24.9817 5.90191 24.9429 5.99549 24.8726 6.06583L23.7078 7.23072C23.4794 7.4591 23.4394 7.81104 23.6104 8.08646C24.123 8.91215 24.495 9.80968 24.7159 10.7542C24.7898 11.0699 25.0669 11.2903 25.3899 11.2903H27.0366C27.242 11.2903 27.4091 11.4575 27.4091 11.6629V12.7867H23.7489C23.7409 8.52048 20.2679 5.05217 15.9998 5.05217C11.7317 5.05217 8.25866 8.52048 8.25066 12.7867H4.59039V11.6629C4.59039 11.4575 4.75749 11.2903 4.96295 11.2903H6.60971C6.93267 11.2903 7.20983 11.0699 7.28367 10.7541C7.50462 9.80968 7.87655 8.91215 8.38922 8.08646C8.56025 7.81104 8.52021 7.4591 8.29177 7.23066L7.127 6.06583C7.05666 5.99549 7.01787 5.90191 7.01787 5.8024C7.01787 5.70289 7.05666 5.60932 7.127 5.53898L8.73722 3.92882C8.80756 3.85848 8.90114 3.81969 9.00065 3.81969C9.10016 3.81969 9.19367 3.85848 9.26407 3.92888L10.4288 5.09346C10.6572 5.32197 11.0092 5.36213 11.2847 5.19104C12.1103 4.67837 13.0079 4.30644 13.9523 4.08549C14.2681 4.01165 14.4886 3.73455 14.4886 3.41153V1.76464C14.4886 1.55925 14.6557 1.39209 14.8611 1.39209H17.1383C17.3437 1.39209 17.5109 1.55925 17.5109 1.76471V3.41134C17.5109 3.73436 17.7314 4.01147 18.047 4.0853C18.2411 4.13078 18.44 4.18469 18.6382 4.24566C18.8856 4.32205 19.1478 4.18294 19.2239 3.93569C19.2999 3.68839 19.1612 3.42621 18.9139 3.35013C18.7585 3.30228 18.6024 3.2583 18.448 3.21876V1.76471C18.4479 1.04252 17.8604 0.455078 17.1383 0.455078H14.8611C14.139 0.455078 13.5516 1.04252 13.5516 1.76464V3.21869C12.6383 3.45126 11.7666 3.81251 10.9552 4.29469L9.92666 3.26623C9.67935 3.01886 9.35046 2.88256 9.00065 2.88256C8.65083 2.88256 8.32194 3.0188 8.07463 3.26617L6.46447 4.87626C6.2171 5.12363 6.08086 5.45252 6.08086 5.80228C6.08086 6.15203 6.2171 6.48092 6.46447 6.72823L7.49306 7.75688C7.01081 8.56833 6.64956 9.44 6.41706 10.3532H4.96289C4.24076 10.3532 3.65332 10.9407 3.65332 11.6628V12.9704C3.65332 13.3857 3.99121 13.7236 4.40649 13.7236H4.9091V14.2622C4.9091 15.2204 5.04222 16.1697 5.30471 17.0839C5.36368 17.2894 5.55114 17.4233 5.75478 17.4233C5.79757 17.4233 5.84111 17.4173 5.88428 17.405C6.13296 17.3335 6.2767 17.074 6.2053 16.8253C5.96698 15.9953 5.84611 15.1329 5.84611 14.2622V13.7237H26.1533V14.2622C26.1533 16.8219 25.1323 19.2049 23.2783 20.972C23.091 21.1505 23.0839 21.4471 23.2624 21.6344C23.3545 21.731 23.4779 21.7797 23.6016 21.7797C23.7178 21.7797 23.8341 21.7367 23.9248 21.6503C25.9661 19.7046 27.0903 17.0808 27.0903 14.2622V13.7237H27.5929C28.0083 13.7236 28.3461 13.3857 28.3461 12.9705ZM15.9997 5.98912C19.7511 5.98912 22.8039 9.03709 22.8119 12.7866H21.8748C21.8668 9.55375 19.2345 6.92613 15.9997 6.92613C12.765 6.92613 10.1326 9.55375 10.1246 12.7866H9.18761C9.19561 9.03709 12.2483 5.98912 15.9997 5.98912ZM20.9376 12.7866H11.0618C11.0699 10.0704 13.2817 7.86314 15.9997 7.86314C18.7177 7.86314 20.9297 10.0704 20.9376 12.7866Z" fill="white"/>
<path d="M21.774 22.1379C21.112 22.5499 20.401 22.8764 19.6607 23.1086C19.4653 23.1698 19.3323 23.3509 19.3323 23.5556V25.5318H12.6047V23.5353C12.6047 23.3318 12.4733 23.1515 12.2794 23.0893C10.0021 22.3581 8.05035 20.7234 6.92432 18.6042C6.80288 18.3758 6.51915 18.2889 6.29077 18.4103C6.06227 18.5317 5.97544 18.8154 6.09688 19.0439C7.28244 21.2752 9.30007 23.0187 11.6676 23.8707V25.6874C11.159 25.9368 10.8078 26.4599 10.8078 27.0636C10.8078 27.5766 11.0617 28.0312 11.45 28.3093C11.2741 28.5586 11.1703 28.8624 11.1703 29.1901C11.1703 29.9682 11.7536 30.6121 12.5058 30.7088C12.7162 31.7051 13.6021 32.4553 14.6601 32.4553H17.2144C18.2684 32.4553 19.1514 31.7108 19.3661 30.7201C20.1789 30.6839 20.829 30.0116 20.829 29.19C20.829 28.8623 20.7253 28.5586 20.5494 28.3092C20.9377 28.0311 21.1915 27.5765 21.1915 27.0635C21.1915 26.4354 20.8114 25.8947 20.2693 25.6585V23.8934C20.967 23.648 21.6383 23.3258 22.269 22.9333C22.4887 22.7966 22.5559 22.5077 22.4193 22.288C22.2825 22.0685 21.9937 22.0011 21.774 22.1379ZM19.6598 27.6583H12.3397C12.0118 27.6583 11.745 27.3915 11.745 27.0636C11.745 26.7356 12.0118 26.4688 12.3397 26.4688H19.6598C19.9878 26.4688 20.2546 26.7356 20.2546 27.0636C20.2546 27.3915 19.9877 27.6583 19.6598 27.6583ZM17.2144 31.5184H14.6601C14.128 31.5184 13.6717 31.1882 13.4851 30.7219H18.3894C18.2029 31.1881 17.7465 31.5184 17.2144 31.5184ZM19.2973 29.7849H12.7022C12.3742 29.7849 12.1074 29.5181 12.1074 29.1901C12.1074 28.8622 12.3742 28.5954 12.7022 28.5954H19.2973C19.6253 28.5954 19.8921 28.8622 19.8921 29.1901C19.8921 29.5181 19.6253 29.7849 19.2973 29.7849Z" fill="white"/>
</g>
<defs>
<clipPath id="clip0_621_27558">
<rect width="32" height="32" fill="white" transform="translate(0 0.455078)"/>
</clipPath>
</defs>
</svg>
